<?xml version="1.0" encoding="UTF-8" standalone="no"?>
<!DOCTYPE svg PUBLIC "-//W3C//DTD SVG 1.1//EN" "http://www.w3.org/Graphics/SVG/1.1/DTD/svg11.dtd">
<svg width="100%" height="100%" viewBox="0 0 1280 800" version="1.1" xmlns="http://www.w3.org/2000/svg" xmlns:xlink="http://www.w3.org/1999/xlink" xml:space="preserve" xmlns:serif="http://www.serif.com/" style="fill-rule:evenodd;clip-rule:evenodd;">
    <g id="Switch" transform="matrix(11.1345,0,0,11.1345,-6559.06,-6942.66)">
        <g id="Chassis">
            <path d="M590.36,646.019L659.865,680.771L659.765,694.859L590.36,660.157L590.36,646.019Z" style="fill:rgb(0,82,117);"/>
            <path d="M590.381,645.979L659.886,680.731L659.899,680.741L659.907,680.755L659.91,680.771L659.81,694.859L659.806,694.877L659.796,694.892L659.78,694.901L659.762,694.904L659.745,694.899L590.34,660.197L590.327,660.187L590.319,660.173L590.316,660.157L590.316,646.019L590.319,646.001L590.33,645.986L590.345,645.976L590.363,645.974L590.381,645.979ZM590.405,660.129L659.721,694.787L659.82,680.799L590.405,646.091L590.405,660.129Z"/>
            <path d="M631.489,625.454L700.894,660.157L659.765,680.721L590.36,646.019L631.489,625.454Z" style="fill:rgb(0,146,207);"/>
            <path d="M631.509,625.414L700.914,660.116L700.927,660.126L700.936,660.14L700.939,660.157L700.936,660.173L700.927,660.187L700.914,660.197L659.785,680.761L659.772,680.765L659.758,680.765L659.745,680.761L590.34,646.059L590.327,646.049L590.319,646.035L590.316,646.019L590.319,646.002L590.327,645.988L590.34,645.979L631.469,625.414L631.482,625.41L631.496,625.41L631.509,625.414ZM590.461,646.019L659.765,680.671L700.793,660.157L631.489,625.505L590.461,646.019Z"/>
            <path d="M700.894,660.157L700.894,674.295L659.765,694.859L659.765,680.721L700.894,660.157Z" style="fill:rgb(0,179,254);"/>
            <path d="M700.909,660.114L700.924,660.124L700.935,660.139L700.939,660.157L700.939,674.295L700.936,674.311L700.927,674.325L700.914,674.335L659.785,694.899L659.768,694.904L659.75,694.901L659.734,694.892L659.724,694.877L659.72,694.859L659.72,680.721L659.723,680.705L659.732,680.691L659.745,680.681L700.874,660.116L700.891,660.112L700.909,660.114ZM659.81,680.749L659.81,694.786L700.849,674.267L700.849,660.229L659.81,680.749Z"/>
        </g>
        <g id="Ports">
            <g transform="matrix(0.576269,0.288256,0,0.576269,587.898,651.816)">
                <g id="Ports1" serif:id="Ports">
                    <g id="ethernet-port" serif:id="ethernet port">
                        <path id="port" d="M120.25,-8.734C120.25,-8.835 120.184,-8.918 120.103,-8.918L96.397,-8.918C96.316,-8.918 96.25,-8.835 96.25,-8.734L96.25,9.898C96.25,10 96.316,10.082 96.397,10.082L120.103,10.082C120.184,10.082 120.25,10 120.25,9.898L120.25,-8.734Z"/>
                        <g id="side-1" serif:id="side 1" transform="matrix(0.171351,-0.0857116,0,0.171351,-26.4226,-53.6964)">
                            <path d="M772.065,751.009L842.253,715.915L842.253,701.878L772.065,736.972L772.065,751.009Z" style="fill:rgb(69,69,69);"/>
                        </g>
                        <g id="top-2" serif:id="top 2" transform="matrix(0.171351,-0.0857116,0,0.171351,-26.4226,-53.6964)">
                            <path d="M842.253,694.304L842.245,701.882L772.065,736.972L758.028,729.953L835.791,691.071L842.253,694.304Z" style="fill:rgb(37,37,37);fill-rule:nonzero;"/>
                        </g>
                        <g id="side2" transform="matrix(0.171351,-0.0857116,0,0.171351,-26.4226,-53.6964)">
                            <path d="M821.757,684.051L835.791,691.071L758.028,729.953L758.028,715.915L821.757,684.051Z" style="fill:rgb(69,69,69);"/>
                        </g>
                        <g id="top-3" serif:id="top 3" transform="matrix(0.171351,-0.0857116,0,0.171351,-26.4226,-53.6964)">
                            <path d="M729.953,701.878L793.687,670.01L821.757,684.051L758.028,715.915L729.953,701.878Z" style="fill:rgb(37,37,37);"/>
                        </g>
                        <g id="side-3" serif:id="side 3" transform="matrix(0.171351,-0.0857116,0,0.171351,-26.4226,-53.6964)">
                            <path d="M793.687,670.01L729.953,701.878L729.953,656L729.953,638.13L793.687,670.01Z" style="fill:rgb(37,37,37);"/>
                        </g>
                        <g id="top-1" serif:id="top 1" transform="matrix(0.171351,-0.0857116,0,0.171351,-26.4226,-53.6964)">
                            <path d="M776.339,748.872L842.229,715.927L842.198,744.018L827.999,751.118L814.178,744.222L814.178,758.028L813.972,758.131L800.141,751.682L800.141,760.778L776.339,748.872Z" style="fill:rgb(37,37,37);"/>
                        </g>
                        <g id="top-0" serif:id="top 0" transform="matrix(0.171351,-0.0857116,0,0.171351,-26.4226,-53.6964)">
                            <path d="M842.213,729.973L842.182,757.992L814.178,743.99L842.213,729.973Z" style="fill:rgb(37,37,37);"/>
                        </g>
                        <path id="Jack" d="M98.655,-6.918L117.898,-6.918L117.886,4.036L113.087,4.042L113.087,6.442L110.682,6.524L110.682,8.082L105.871,8.082L105.871,6.427L103.466,6.447L103.466,4.042L98.655,4.042L98.655,-6.918Z" style="fill:none;fill-rule:nonzero;stroke:rgb(153,153,153);stroke-width:1px;"/>
                        <g id="LED-green" serif:id="LED green" transform="matrix(1,0,0,1,95.75,-441.78)">
                            <path d="M6,447.92C6,447.887 5.979,447.86 5.952,447.86L2.048,447.86C2.021,447.86 2,447.887 2,447.92L2,450.3C2,450.333 2.021,450.36 2.048,450.36L5.952,450.36C5.979,450.36 6,450.333 6,450.3L6,447.92Z" style="fill:rgb(0,255,0);"/>
                        </g>
                        <g id="LED-yellow" serif:id="LED yellow" transform="matrix(1,0,0,1,95.75,-441.78)">
                            <path d="M23,447.92C23,447.887 22.979,447.86 22.952,447.86L19.048,447.86C19.021,447.86 19,447.887 19,447.92L19,450.3C19,450.333 19.021,450.36 19.048,450.36L22.952,450.36C22.979,450.36 23,450.333 23,450.3L23,447.92Z" style="fill:rgb(255,204,0);"/>
                        </g>
                    </g>
                </g>
            </g>
            <g transform="matrix(0.576269,0.288256,0,0.576269,570.882,643.308)">
                <g id="Ports2" serif:id="Ports">
                    <g id="ethernet-port1" serif:id="ethernet port">
                        <path id="port1" serif:id="port" d="M120.25,-8.734C120.25,-8.835 120.184,-8.918 120.103,-8.918L96.397,-8.918C96.316,-8.918 96.25,-8.835 96.25,-8.734L96.25,9.898C96.25,10 96.316,10.082 96.397,10.082L120.103,10.082C120.184,10.082 120.25,10 120.25,9.898L120.25,-8.734Z"/>
                        <g id="side-11" serif:id="side 1" transform="matrix(0.171351,-0.0857116,0,0.171351,-26.4226,-53.6964)">
                            <path d="M772.065,751.009L842.253,715.915L842.253,701.878L772.065,736.972L772.065,751.009Z" style="fill:rgb(69,69,69);"/>
                        </g>
                        <g id="top-21" serif:id="top 2" transform="matrix(0.171351,-0.0857116,0,0.171351,-26.4226,-53.6964)">
                            <path d="M842.253,694.304L842.245,701.882L772.065,736.972L758.028,729.953L835.791,691.071L842.253,694.304Z" style="fill:rgb(37,37,37);fill-rule:nonzero;"/>
                        </g>
                        <g id="side21" serif:id="side2" transform="matrix(0.171351,-0.0857116,0,0.171351,-26.4226,-53.6964)">
                            <path d="M821.757,684.051L835.791,691.071L758.028,729.953L758.028,715.915L821.757,684.051Z" style="fill:rgb(69,69,69);"/>
                        </g>
                        <g id="top-31" serif:id="top 3" transform="matrix(0.171351,-0.0857116,0,0.171351,-26.4226,-53.6964)">
                            <path d="M729.953,701.878L793.687,670.01L821.757,684.051L758.028,715.915L729.953,701.878Z" style="fill:rgb(37,37,37);"/>
                        </g>
                        <g id="side-31" serif:id="side 3" transform="matrix(0.171351,-0.0857116,0,0.171351,-26.4226,-53.6964)">
                            <path d="M793.687,670.01L729.953,701.878L729.953,656L729.953,638.13L793.687,670.01Z" style="fill:rgb(37,37,37);"/>
                        </g>
                        <g id="top-11" serif:id="top 1" transform="matrix(0.171351,-0.0857116,0,0.171351,-26.4226,-53.6964)">
                            <path d="M776.339,748.872L842.229,715.927L842.198,744.018L827.999,751.118L814.178,744.222L814.178,758.028L813.972,758.131L800.141,751.682L800.141,760.778L776.339,748.872Z" style="fill:rgb(37,37,37);"/>
                        </g>
                        <g id="top-01" serif:id="top 0" transform="matrix(0.171351,-0.0857116,0,0.171351,-26.4226,-53.6964)">
                            <path d="M842.213,729.973L842.182,757.992L814.178,743.99L842.213,729.973Z" style="fill:rgb(37,37,37);"/>
                        </g>
                        <path id="Jack1" serif:id="Jack" d="M98.655,-6.918L117.898,-6.918L117.886,4.036L113.087,4.042L113.087,6.442L110.682,6.524L110.682,8.082L105.871,8.082L105.871,6.427L103.466,6.447L103.466,4.042L98.655,4.042L98.655,-6.918Z" style="fill:none;fill-rule:nonzero;stroke:rgb(153,153,153);stroke-width:1px;"/>
                        <g id="LED-green1" serif:id="LED green" transform="matrix(1,0,0,1,95.75,-441.78)">
                            <path d="M6,447.92C6,447.887 5.979,447.86 5.952,447.86L2.048,447.86C2.021,447.86 2,447.887 2,447.92L2,450.3C2,450.333 2.021,450.36 2.048,450.36L5.952,450.36C5.979,450.36 6,450.333 6,450.3L6,447.92Z" style="fill:rgb(0,255,0);"/>
                        </g>
                        <g id="LED-yellow1" serif:id="LED yellow" transform="matrix(1,0,0,1,95.75,-441.78)">
                            <path d="M23,447.92C23,447.887 22.979,447.86 22.952,447.86L19.048,447.86C19.021,447.86 19,447.887 19,447.92L19,450.3C19,450.333 19.021,450.36 19.048,450.36L22.952,450.36C22.979,450.36 23,450.333 23,450.3L23,447.92Z" style="fill:rgb(255,204,0);"/>
                        </g>
                    </g>
                </g>
            </g>
            <g transform="matrix(0.576269,0.288256,0,0.576269,553.866,634.8)">
                <g id="Ports3" serif:id="Ports">
                    <g id="ethernet-port2" serif:id="ethernet port">
                        <path id="port2" serif:id="port" d="M120.25,-8.734C120.25,-8.835 120.184,-8.918 120.103,-8.918L96.397,-8.918C96.316,-8.918 96.25,-8.835 96.25,-8.734L96.25,9.898C96.25,10 96.316,10.082 96.397,10.082L120.103,10.082C120.184,10.082 120.25,10 120.25,9.898L120.25,-8.734Z"/>
                        <g id="side-12" serif:id="side 1" transform="matrix(0.171351,-0.0857116,0,0.171351,-26.4226,-53.6964)">
                            <path d="M772.065,751.009L842.253,715.915L842.253,701.878L772.065,736.972L772.065,751.009Z" style="fill:rgb(69,69,69);"/>
                        </g>
                        <g id="top-22" serif:id="top 2" transform="matrix(0.171351,-0.0857116,0,0.171351,-26.4226,-53.6964)">
                            <path d="M842.253,694.304L842.245,701.882L772.065,736.972L758.028,729.953L835.791,691.071L842.253,694.304Z" style="fill:rgb(37,37,37);fill-rule:nonzero;"/>
                        </g>
                        <g id="side22" serif:id="side2" transform="matrix(0.171351,-0.0857116,0,0.171351,-26.4226,-53.6964)">
                            <path d="M821.757,684.051L835.791,691.071L758.028,729.953L758.028,715.915L821.757,684.051Z" style="fill:rgb(69,69,69);"/>
                        </g>
                        <g id="top-32" serif:id="top 3" transform="matrix(0.171351,-0.0857116,0,0.171351,-26.4226,-53.6964)">
                            <path d="M729.953,701.878L793.687,670.01L821.757,684.051L758.028,715.915L729.953,701.878Z" style="fill:rgb(37,37,37);"/>
                        </g>
                        <g id="side-32" serif:id="side 3" transform="matrix(0.171351,-0.0857116,0,0.171351,-26.4226,-53.6964)">
                            <path d="M793.687,670.01L729.953,701.878L729.953,656L729.953,638.13L793.687,670.01Z" style="fill:rgb(37,37,37);"/>
                        </g>
                        <g id="top-12" serif:id="top 1" transform="matrix(0.171351,-0.0857116,0,0.171351,-26.4226,-53.6964)">
                            <path d="M776.339,748.872L842.229,715.927L842.198,744.018L827.999,751.118L814.178,744.222L814.178,758.028L813.972,758.131L800.141,751.682L800.141,760.778L776.339,748.872Z" style="fill:rgb(37,37,37);"/>
                        </g>
                        <g id="top-02" serif:id="top 0" transform="matrix(0.171351,-0.0857116,0,0.171351,-26.4226,-53.6964)">
                            <path d="M842.213,729.973L842.182,757.992L814.178,743.99L842.213,729.973Z" style="fill:rgb(37,37,37);"/>
                        </g>
                        <path id="Jack2" serif:id="Jack" d="M98.655,-6.918L117.898,-6.918L117.886,4.036L113.087,4.042L113.087,6.442L110.682,6.524L110.682,8.082L105.871,8.082L105.871,6.427L103.466,6.447L103.466,4.042L98.655,4.042L98.655,-6.918Z" style="fill:none;fill-rule:nonzero;stroke:rgb(153,153,153);stroke-width:1px;"/>
                        <g id="LED-green2" serif:id="LED green" transform="matrix(1,0,0,1,95.75,-441.78)">
                            <path d="M6,447.92C6,447.887 5.979,447.86 5.952,447.86L2.048,447.86C2.021,447.86 2,447.887 2,447.92L2,450.3C2,450.333 2.021,450.36 2.048,450.36L5.952,450.36C5.979,450.36 6,450.333 6,450.3L6,447.92Z" style="fill:rgb(0,255,0);"/>
                        </g>
                        <g id="LED-yellow2" serif:id="LED yellow" transform="matrix(1,0,0,1,95.75,-441.78)">
                            <path d="M23,447.92C23,447.887 22.979,447.86 22.952,447.86L19.048,447.86C19.021,447.86 19,447.887 19,447.92L19,450.3C19,450.333 19.021,450.36 19.048,450.36L22.952,450.36C22.979,450.36 23,450.333 23,450.3L23,447.92Z" style="fill:rgb(255,204,0);"/>
                        </g>
                    </g>
                </g>
            </g>
            <g transform="matrix(0.576269,0.288256,0,0.576269,536.85,626.291)">
                <g id="Ports4" serif:id="Ports">
                    <g id="ethernet-port3" serif:id="ethernet port">
                        <path id="port3" serif:id="port" d="M120.25,-8.734C120.25,-8.835 120.184,-8.918 120.103,-8.918L96.397,-8.918C96.316,-8.918 96.25,-8.835 96.25,-8.734L96.25,9.898C96.25,10 96.316,10.082 96.397,10.082L120.103,10.082C120.184,10.082 120.25,10 120.25,9.898L120.25,-8.734Z"/>
                        <g id="side-13" serif:id="side 1" transform="matrix(0.171351,-0.0857116,0,0.171351,-26.4226,-53.6964)">
                            <path d="M772.065,751.009L842.253,715.915L842.253,701.878L772.065,736.972L772.065,751.009Z" style="fill:rgb(69,69,69);"/>
                        </g>
                        <g id="top-23" serif:id="top 2" transform="matrix(0.171351,-0.0857116,0,0.171351,-26.4226,-53.6964)">
                            <path d="M842.253,694.304L842.245,701.882L772.065,736.972L758.028,729.953L835.791,691.071L842.253,694.304Z" style="fill:rgb(37,37,37);fill-rule:nonzero;"/>
                        </g>
                        <g id="side23" serif:id="side2" transform="matrix(0.171351,-0.0857116,0,0.171351,-26.4226,-53.6964)">
                            <path d="M821.757,684.051L835.791,691.071L758.028,729.953L758.028,715.915L821.757,684.051Z" style="fill:rgb(69,69,69);"/>
                        </g>
                        <g id="top-33" serif:id="top 3" transform="matrix(0.171351,-0.0857116,0,0.171351,-26.4226,-53.6964)">
                            <path d="M729.953,701.878L793.687,670.01L821.757,684.051L758.028,715.915L729.953,701.878Z" style="fill:rgb(37,37,37);"/>
                        </g>
                        <g id="side-33" serif:id="side 3" transform="matrix(0.171351,-0.0857116,0,0.171351,-26.4226,-53.6964)">
                            <path d="M793.687,670.01L729.953,701.878L729.953,656L729.953,638.13L793.687,670.01Z" style="fill:rgb(37,37,37);"/>
                        </g>
                        <g id="top-13" serif:id="top 1" transform="matrix(0.171351,-0.0857116,0,0.171351,-26.4226,-53.6964)">
                            <path d="M776.339,748.872L842.229,715.927L842.198,744.018L827.999,751.118L814.178,744.222L814.178,758.028L813.972,758.131L800.141,751.682L800.141,760.778L776.339,748.872Z" style="fill:rgb(37,37,37);"/>
                        </g>
                        <g id="top-03" serif:id="top 0" transform="matrix(0.171351,-0.0857116,0,0.171351,-26.4226,-53.6964)">
                            <path d="M842.213,729.973L842.182,757.992L814.178,743.99L842.213,729.973Z" style="fill:rgb(37,37,37);"/>
                        </g>
                        <path id="Jack3" serif:id="Jack" d="M98.655,-6.918L117.898,-6.918L117.886,4.036L113.087,4.042L113.087,6.442L110.682,6.524L110.682,8.082L105.871,8.082L105.871,6.427L103.466,6.447L103.466,4.042L98.655,4.042L98.655,-6.918Z" style="fill:none;fill-rule:nonzero;stroke:rgb(153,153,153);stroke-width:1px;"/>
                        <g id="LED-green3" serif:id="LED green" transform="matrix(1,0,0,1,95.75,-441.78)">
                            <path d="M6,447.92C6,447.887 5.979,447.86 5.952,447.86L2.048,447.86C2.021,447.86 2,447.887 2,447.92L2,450.3C2,450.333 2.021,450.36 2.048,450.36L5.952,450.36C5.979,450.36 6,450.333 6,450.3L6,447.92Z" style="fill:rgb(0,255,0);"/>
                        </g>
                        <g id="LED-yellow3" serif:id="LED yellow" transform="matrix(1,0,0,1,95.75,-441.78)">
                            <path d="M23,447.92C23,447.887 22.979,447.86 22.952,447.86L19.048,447.86C19.021,447.86 19,447.887 19,447.92L19,450.3C19,450.333 19.021,450.36 19.048,450.36L22.952,450.36C22.979,450.36 23,450.333 23,450.3L23,447.92Z" style="fill:rgb(255,204,0);"/>
                        </g>
                    </g>
                </g>
            </g>
        </g>
    </g>
    <g id="switch-symbol" serif:id="switch symbol" transform="matrix(2.89635,1.45039,-2.71403,1.35316,728.236,-1586.75)">
        <g transform="matrix(-0.596232,0,0,0.522507,1784.14,31.3161)">
            <path d="M1743.18,1284.99L1743.18,1250.83L2060.4,1250.83L2056.98,1219.11L2095.39,1267.91L2056.98,1316.72L2060.4,1284.99L1743.18,1284.99Z" style="fill:white;"/>
        </g>
        <g transform="matrix(0.596232,0,0,0.522507,-504.138,82.3161)">
            <path d="M1743.18,1284.99L1743.18,1250.83L2060.4,1250.83L2056.98,1219.11L2095.39,1267.91L2056.98,1316.72L2060.4,1284.99L1743.18,1284.99Z" style="fill:white;"/>
        </g>
    </g>
</svg>
