<?xml version="1.0" encoding="UTF-8" standalone="no"?>
<!DOCTYPE svg PUBLIC "-//W3C//DTD SVG 1.1//EN" "http://www.w3.org/Graphics/SVG/1.1/DTD/svg11.dtd">
<svg width="100%" height="100%" viewBox="0 0 800 800" version="1.1" xmlns="http://www.w3.org/2000/svg" xmlns:xlink="http://www.w3.org/1999/xlink" xml:space="preserve" xmlns:serif="http://www.serif.com/" style="fill-rule:evenodd;clip-rule:evenodd;stroke-linecap:round;stroke-linejoin:round;">
    <g transform="matrix(32.3522,0,0,32.3522,-1226.4,-2932.17)">
        <g>
            <path d="M58.3,108.004C61.138,109.854 57.436,109.321 54.39,108.293C51.344,107.265 45.255,105.491 43.854,105.454C42.452,105.418 53.112,104.591 54.76,105.124C56.408,105.656 58.3,108.004 58.3,108.004Z" style="fill:rgb(22,22,22);fill-rule:nonzero;stroke:black;stroke-width:0.14px;"/>
            <path d="M40.821,105.107C37.313,103.409 37.313,101.184 41.04,98.852C44.767,96.52 51.577,96.386 54.757,97.26C57.938,98.135 62.879,101.268 62.276,104.339C61.674,106.698 58.927,107.301 58.927,107.301L40.821,105.107Z" style="fill:url(#_Linear1);fill-rule:nonzero;stroke:black;stroke-width:0.14px;"/>
            <path d="M41.138,106.275L40.726,104.426C45.79,101.422 55.13,101.343 59.328,106.443C59.205,106.813 58.669,107.719 58.3,108.007C51.098,102.655 41.141,106.278 41.141,106.278L41.138,106.275Z" style="fill:rgb(3,70,139);fill-rule:nonzero;stroke:black;stroke-width:0.14px;"/>
        </g>
        <path d="M50.932,101.786L48.587,103.804L50.478,104.05L50.394,104.544L47.02,104.255L49.486,102.033L47.799,101.949L47.841,101.411L50.932,101.786ZM53.547,102.218C54.472,102.756 54.78,103.619 54.452,104.359C54.124,105.098 52.93,105.16 52.415,104.997C51.899,104.835 50.733,104.05 51.266,102.817C51.636,102.097 52.625,101.685 53.55,102.22L53.547,102.218ZM51.865,103.148C51.524,103.905 52.258,104.387 52.572,104.487C52.885,104.588 53.62,104.549 53.821,104.095C54.023,103.641 53.835,103.114 53.267,102.778C52.698,102.442 52.09,102.702 51.865,103.142L51.865,103.148ZM56.671,103.145C57.523,103.599 57.932,104.49 57.798,105.342C57.663,106.194 56.699,106.418 56.248,106.309C55.312,106.022 54.734,105.066 54.914,104.104C55.082,103.274 55.819,102.691 56.669,103.151L56.671,103.145ZM55.466,104.378C55.326,105.219 56.01,105.667 56.287,105.732C56.565,105.796 57.156,105.659 57.24,105.138C57.324,104.616 57.072,104.073 56.551,103.792C56.03,103.512 55.578,103.871 55.472,104.353L55.466,104.378Z" style="fill:white;fill-rule:nonzero;"/>
    </g>
    <defs>
        <linearGradient id="_Linear1" x1="0" y1="0" x2="1" y2="0" gradientUnits="userSpaceOnUse" gradientTransform="matrix(6.45226e-16,-10.5373,10.5373,6.45226e-16,50.2716,107.301)"><stop offset="0" style="stop-color:rgb(29,39,57);stop-opacity:1"/><stop offset="0.37" style="stop-color:rgb(29,39,57);stop-opacity:1"/><stop offset="0.99" style="stop-color:rgb(29,39,57);stop-opacity:1"/><stop offset="1" style="stop-color:rgb(29,39,57);stop-opacity:1"/></linearGradient>
    </defs>
</svg>
