<?xml version="1.0" encoding="UTF-8" standalone="no"?>
<!DOCTYPE svg PUBLIC "-//W3C//DTD SVG 1.1//EN" "http://www.w3.org/Graphics/SVG/1.1/DTD/svg11.dtd">
<svg width="100%" height="100%" viewBox="0 0 1280 800" version="1.1" xmlns="http://www.w3.org/2000/svg" xmlns:xlink="http://www.w3.org/1999/xlink" xml:space="preserve" xmlns:serif="http://www.serif.com/" style="fill-rule:evenodd;clip-rule:evenodd;stroke-linejoin:round;stroke-miterlimit:2;">
    <g id="Generic-Server-plain-badge-turned-on" serif:id="Generic Server plain badge turned on" transform="matrix(6.94863,0,0,6.94863,-2619.32,-2036.52)">
        <g id="Server">
            <g id="Chassis">
                <path d="M379.014,357.958L449.038,392.969L560.252,337.362L490.228,302.351L379.014,357.958Z" style="fill:rgb(102,102,102);"/>
                <path d="M449.038,392.969L449.038,407.386L560.252,351.779L560.252,337.362L449.038,392.969Z" style="fill:rgb(153,153,153);"/>
                <g transform="matrix(0.143913,0,0,0.143913,376.954,293.083)">
                    <path d="M14.311,550.967L500.879,794.251L500.879,694.076L14.311,450.791L14.311,550.967Z" style="fill:rgb(34,34,34);"/>
                </g>
            </g>
            <g id="Cooling">
                <g transform="matrix(1.60284,0,0,1,-224.584,-16.4973)">
                    <path d="M378.974,386.162L404.74,406.43C404.784,406.465 404.838,406.435 404.86,406.364C404.882,406.293 404.863,406.207 404.819,406.172L379.054,385.904C379.009,385.869 378.955,385.898 378.933,385.969C378.912,386.041 378.93,386.127 378.974,386.162Z" style="fill:rgb(226,226,226);"/>
                </g>
                <g transform="matrix(1.60284,0,0,1,-224.584,-21.3321)">
                    <path d="M378.974,386.162L404.74,406.43C404.784,406.465 404.838,406.435 404.86,406.364C404.882,406.293 404.863,406.207 404.819,406.172L379.054,385.904C379.009,385.869 378.955,385.898 378.933,385.969C378.912,386.041 378.93,386.127 378.974,386.162Z" style="fill:rgb(226,226,226);"/>
                </g>
            </g>
            <g id="LED-green" serif:id="LED green" transform="matrix(0.442367,0.221184,0,0.442367,322.483,196.687)">
                <circle cx="257.703" cy="316.533" r="5.651" style="fill:rgb(0,255,0);"/>
            </g>
        </g>
        <g id="Windows-Badge" serif:id="Windows Badge">
            <g id="Badge" transform="matrix(0.648561,0.324775,-0.621978,0.310107,-17.8688,-95.0417)">
                <path d="M1101.01,298.926C1101.01,287.072 1093.63,277.448 1084.55,277.448L1031.55,277.448C1022.47,277.448 1015.1,287.072 1015.1,298.926L1015.1,341.882C1015.1,353.736 1022.47,363.36 1031.55,363.36L1084.55,363.36C1093.63,363.36 1101.01,353.736 1101.01,341.882L1101.01,298.926Z" style="fill:white;"/>
                <path d="M1102.36,299.775C1102.36,295.257 1101.32,291.028 1099.57,287.487C1098.3,284.909 1096.66,282.663 1094.77,280.854C1091.68,277.904 1087.85,276.033 1083.74,276.033C1083.74,276.033 1030.74,276.033 1030.74,276.033C1021.39,276.033 1013.74,285.876 1013.74,298.076L1013.74,341.032C1013.74,345.55 1014.79,349.779 1016.53,353.32C1017.8,355.898 1019.45,358.144 1021.34,359.953C1024.42,362.903 1028.26,364.774 1032.37,364.774C1032.37,364.774 1085.37,364.774 1085.37,364.774C1094.71,364.774 1102.36,354.931 1102.36,342.731L1102.36,299.775ZM1099.65,298.076L1099.65,341.032C1099.65,352.54 1092.56,361.945 1083.74,361.945L1030.74,361.945C1027.59,361.945 1024.7,360.737 1022.34,358.474C1020.58,356.798 1019.18,354.602 1018.18,352.068C1017.06,349.269 1016.45,346.1 1016.45,342.731L1016.45,299.775C1016.45,288.267 1023.55,278.862 1032.37,278.862C1032.37,278.862 1085.37,278.862 1085.37,278.862C1088.52,278.862 1091.4,280.07 1093.77,282.333C1095.52,284.009 1096.92,286.205 1097.93,288.739C1099.04,291.538 1099.65,294.707 1099.65,298.076Z"/>
            </g>
            <g id="Windows" transform="matrix(0.0222473,0.0111406,-0.0278443,0.0138827,469.059,347.373)">
                <g transform="matrix(1,0,0,1,-820.833,-822.917)">
                    <clipPath id="_clip1">
                        <rect x="0" y="0" width="1641.67" height="1645.83"/>
                    </clipPath>
                    <g clip-path="url(#_clip1)">
                        <g transform="matrix(4.16667,0,0,4.16667,0,0)">
                            <path d="M180.39,31.198C251.419,20.33 322.582,10.093 393.746,0.216C393.791,62.586 393.746,124.911 393.791,187.28C322.673,187.551 251.554,188.633 180.39,188.859C180.345,136.275 180.345,83.737 180.39,31.198Z" style="fill:rgb(47,118,188);fill-rule:nonzero;"/>
                            <path d="M0,56.363C53.485,48.11 107.197,40.985 160.908,34.265C160.953,85.992 160.953,137.673 160.998,189.4C107.332,189.355 53.666,190.167 0,190.031L0,56.363Z" style="fill:rgb(47,118,188);fill-rule:nonzero;"/>
                            <path d="M0,206.312C53.62,206.131 107.242,206.988 160.863,206.898C160.863,258.76 160.998,310.622 160.908,362.484C107.332,354.547 53.666,347.602 0,340.341L0,206.312Z" style="fill:rgb(47,118,188);fill-rule:nonzero;"/>
                            <path d="M180.074,208.386L393.746,208.386C393.836,270.576 393.746,332.765 393.746,395C322.718,384.357 251.554,374.48 180.39,364.829C180.3,312.697 180.165,260.564 180.074,208.386Z" style="fill:rgb(47,118,188);fill-rule:nonzero;"/>
                        </g>
                    </g>
                </g>
            </g>
        </g>
    </g>
</svg>
