<?xml version="1.0" encoding="UTF-8" standalone="no"?>
<!DOCTYPE svg PUBLIC "-//W3C//DTD SVG 1.1//EN" "http://www.w3.org/Graphics/SVG/1.1/DTD/svg11.dtd">
<svg width="100%" height="100%" viewBox="0 0 1280 800" version="1.1" xmlns="http://www.w3.org/2000/svg" xmlns:xlink="http://www.w3.org/1999/xlink" xml:space="preserve" xmlns:serif="http://www.serif.com/" style="fill-rule:evenodd;clip-rule:evenodd;stroke-linejoin:round;stroke-miterlimit:2;">
    <g id="Generic-Server-plain-badge-turned-on" serif:id="Generic Server plain badge turned on" transform="matrix(6.94863,0,0,6.94863,-2619.32,-2036.52)">
        <g id="Server">
            <g id="Chassis">
                <path d="M379.014,357.958L449.038,392.969L560.252,337.362L490.228,302.351L379.014,357.958Z" style="fill:rgb(102,102,102);"/>
                <path d="M449.038,392.969L449.038,407.386L560.252,351.779L560.252,337.362L449.038,392.969Z" style="fill:rgb(153,153,153);"/>
                <g transform="matrix(0.143913,0,0,0.143913,376.954,293.083)">
                    <path d="M14.311,550.967L500.879,794.251L500.879,694.076L14.311,450.791L14.311,550.967Z" style="fill:rgb(34,34,34);"/>
                </g>
            </g>
            <g id="Cooling">
                <g transform="matrix(1.60284,0,0,1,-224.584,-16.4973)">
                    <path d="M378.974,386.162L404.74,406.43C404.784,406.465 404.838,406.435 404.86,406.364C404.882,406.293 404.863,406.207 404.819,406.172L379.054,385.904C379.009,385.869 378.955,385.898 378.933,385.969C378.912,386.041 378.93,386.127 378.974,386.162Z" style="fill:rgb(226,226,226);"/>
                </g>
                <g transform="matrix(1.60284,0,0,1,-224.584,-21.3321)">
                    <path d="M378.974,386.162L404.74,406.43C404.784,406.465 404.838,406.435 404.86,406.364C404.882,406.293 404.863,406.207 404.819,406.172L379.054,385.904C379.009,385.869 378.955,385.898 378.933,385.969C378.912,386.041 378.93,386.127 378.974,386.162Z" style="fill:rgb(226,226,226);"/>
                </g>
            </g>
            <g id="LED-green" serif:id="LED green" transform="matrix(0.442367,0.221184,0,0.442367,322.483,196.687)">
                <circle cx="257.703" cy="316.533" r="5.651" style="fill:rgb(0,255,0);"/>
            </g>
        </g>
        <g id="Badge" transform="matrix(0.648561,0.324775,-0.621978,0.310107,-17.8688,-95.0417)">
            <path d="M1101.01,298.926C1101.01,287.072 1093.63,277.448 1084.55,277.448L1031.55,277.448C1022.47,277.448 1015.1,287.072 1015.1,298.926L1015.1,341.882C1015.1,353.736 1022.47,363.36 1031.55,363.36L1084.55,363.36C1093.63,363.36 1101.01,353.736 1101.01,341.882L1101.01,298.926Z" style="fill:white;"/>
            <path d="M1102.36,299.775C1102.36,295.257 1101.32,291.028 1099.57,287.487C1098.3,284.909 1096.66,282.663 1094.77,280.854C1091.68,277.904 1087.85,276.033 1083.74,276.033C1083.74,276.033 1030.74,276.033 1030.74,276.033C1021.39,276.033 1013.74,285.876 1013.74,298.076L1013.74,341.032C1013.74,345.55 1014.79,349.779 1016.53,353.32C1017.8,355.898 1019.45,358.144 1021.34,359.953C1024.42,362.903 1028.26,364.774 1032.37,364.774C1032.37,364.774 1085.37,364.774 1085.37,364.774C1094.71,364.774 1102.36,354.931 1102.36,342.731L1102.36,299.775ZM1099.65,298.076L1099.65,341.032C1099.65,352.54 1092.56,361.945 1083.74,361.945L1030.74,361.945C1027.59,361.945 1024.7,360.737 1022.34,358.474C1020.58,356.798 1019.18,354.602 1018.18,352.068C1017.06,349.269 1016.45,346.1 1016.45,342.731L1016.45,299.775C1016.45,288.267 1023.55,278.862 1032.37,278.862C1032.37,278.862 1085.37,278.862 1085.37,278.862C1088.52,278.862 1091.4,280.07 1093.77,282.333C1095.52,284.009 1096.92,286.205 1097.93,288.739C1099.04,291.538 1099.65,294.707 1099.65,298.076Z"/>
        </g>
    </g>
    <g transform="matrix(1.53837,0.770359,-1.9254,0.95997,640,366.92)">
        <g transform="matrix(1,0,0,1,-156.25,-120.833)">
            <g transform="matrix(4.16667,0,0,4.16667,0,0)">
                <path d="M45.616,35.56C45.608,35.754 45.151,36.013 45.002,36.108C44.313,36.544 43.323,36.833 42.678,36.187C42.053,35.563 42.229,34.397 42.903,33.984C43.242,33.779 43.681,33.683 44.142,33.644C44.51,33.613 45.263,33.547 45.608,33.586L45.616,35.56ZM40.958,29.539L41.228,30.602C41.682,30.492 41.955,30.331 42.639,30.196C43.172,30.093 43.752,30.034 44.322,30.108C44.897,30.181 45.218,30.397 45.415,30.823C45.515,31.038 45.569,31.292 45.597,31.557L45.591,32.417C45.553,32.436 43.872,32.543 43.631,32.573C41.953,32.788 40.264,33.7 40.527,35.808C40.69,37.12 41.397,37.717 42.722,37.878C43.449,37.965 43.929,37.882 44.53,37.627C44.784,37.52 45.02,37.396 45.234,37.26C45.521,37.082 45.772,36.825 45.83,36.793L46.007,37.694L47.369,37.694C47.394,37.418 47.374,34.047 47.374,33.672L47.374,31.656C47.374,31.005 47.325,30.491 47.019,30.008C46.097,28.539 44.092,28.609 42.435,29.009C42.065,29.098 41.185,29.34 40.958,29.539Z" style="fill:rgb(237,33,36);"/>
                <path d="M61.981,35.671C61.864,35.738 61.74,35.856 61.606,35.954C61.222,36.231 60.745,36.487 60.239,36.55C58.739,36.735 58.386,35.188 58.868,34.391C59.384,33.539 61.017,33.586 61.986,33.582L61.981,35.671ZM57.332,29.539C57.342,29.705 57.547,30.477 57.614,30.598C57.867,30.547 58.422,30.312 59.031,30.193C59.914,30.019 61.364,29.872 61.789,30.824C61.962,31.213 62.087,32.289 61.965,32.412C61.889,32.468 61.152,32.473 60.983,32.484C60.009,32.546 59.203,32.62 58.358,33.065C57.462,33.534 56.716,34.359 56.901,35.814C57.069,37.135 57.776,37.713 59.097,37.878C60.068,37.999 60.832,37.748 61.61,37.26C61.948,37.046 62.091,36.862 62.207,36.786L62.378,37.691L63.747,37.693L63.747,31.656C63.747,30.976 63.694,30.502 63.384,29.994C62.492,28.532 60.432,28.63 58.813,29.008C58.434,29.096 57.569,29.337 57.332,29.539Z" style="fill:rgb(237,33,36);"/>
                <path d="M51.171,37.711L53.354,37.711C53.426,37.694 53.58,37.342 53.622,37.257C53.704,37.088 53.77,36.934 53.847,36.765C53.994,36.446 54.129,36.089 54.257,35.748C54.784,34.337 55.21,32.797 55.573,31.324C55.662,30.962 56.082,29.211 56.082,28.96L54.45,28.959C54.094,28.955 54.238,28.91 54.143,29.636C54.044,30.39 53.886,31.144 53.704,31.854C53.571,32.372 52.646,35.669 52.462,35.881L51.996,34.115C51.821,33.528 51.661,32.962 51.477,32.385L50.672,29.825C50.58,29.536 50.492,29.228 50.386,28.964L48.458,28.959C48.466,29.13 49.725,33.065 49.81,33.342C50.04,34.092 50.264,34.78 50.491,35.516C50.712,36.242 50.971,36.991 51.171,37.711Z" style="fill:rgb(237,33,36);"/>
                <path d="M37.302,28.774L37.304,36.35C37.304,37.759 36.844,39.364 35.431,39.826C35.513,39.997 36.122,40.622 36.284,40.863C36.763,40.779 37.466,40.34 37.731,40.089C38.136,39.707 38.385,39.409 38.684,38.797C39.283,37.577 39.188,36.284 39.188,34.821C39.188,31.831 39.203,28.838 39.187,25.848C38.967,25.809 37.673,25.834 37.302,25.835L37.302,28.774Z" style="fill:rgb(237,33,36);"/>
                <path d="M21.873,30.081L21.279,29.219C21.085,28.935 20.894,28.62 20.713,28.306C20.38,27.727 19.981,26.993 19.798,26.263C19.463,24.927 20.288,24.098 21.017,23.222C21.127,23.089 21.256,22.964 21.375,22.839C22.137,22.036 23.182,21.074 23.995,20.282C24.822,19.474 25.32,18.58 25.416,17.271C25.468,16.588 25.337,15.125 24.854,14.861C24.997,15.887 25.031,16.583 24.616,17.614C24.135,18.81 23.352,19.526 22.443,20.233C21.701,20.812 20.485,21.854 19.845,22.458C19.43,22.851 18.729,23.554 18.439,24.241C18.01,25.256 18.435,25.92 18.895,26.629C19.114,26.968 19.337,27.256 19.571,27.559C19.844,27.913 20.086,28.156 20.305,28.433C20.535,28.726 20.819,28.996 21.071,29.274C21.227,29.447 21.718,29.972 21.873,30.081Z" style="fill:rgb(237,33,36);"/>
                <path d="M30.68,38.88C30.971,39.349 30.684,39.548 30.286,39.734C28.519,40.561 22.543,40.716 20.677,40.743C18.774,40.771 16.857,40.696 15.019,40.374C14.721,40.322 13.412,40.114 13.351,39.766C13.311,39.547 13.542,39.383 13.662,39.309C14.085,39.046 14.859,38.865 15.392,38.768C15.546,38.74 15.918,38.7 16.033,38.653C15.143,38.522 12.322,38.999 11.705,39.876C11.316,40.428 11.968,40.684 12.402,40.826C14.028,41.357 17.412,41.465 19.197,41.491C21.865,41.527 28.286,41.5 30.638,39.883C30.776,39.79 31.045,39.593 31.073,39.402C31.107,39.164 30.825,38.941 30.68,38.88Z" style="fill:rgb(11,139,201);"/>
                <path d="M22.981,31.167C23.265,31.07 24.102,30.384 24.327,30.154C24.623,29.847 25.127,29.279 25.17,28.622C25.208,28.026 24.798,27.25 24.546,26.87C23.752,25.666 23.118,24.977 24.193,23.643C24.552,23.198 24.942,22.85 25.397,22.474C25.942,22.023 26.835,21.407 27.474,21.006L28.202,20.538C27.817,20.589 26.796,20.998 26.393,21.148C25.852,21.352 25.228,21.662 24.756,21.934C23.134,22.872 21.538,24.339 22.191,26.368C22.632,27.741 23.918,28.563 23.826,29.592C23.769,30.222 23.164,30.852 22.981,31.167Z" style="fill:rgb(237,33,36);"/>
                <path d="M26.368,37.88C25.87,37.691 25.495,37.472 25.049,37.207C24.79,37.053 24.89,37.065 24.559,37.147C23.21,37.48 21.022,37.484 19.605,37.441C19.241,37.43 18.216,37.398 18.009,37.055C17.877,36.839 18.056,36.681 18.126,36.558C17.198,36.745 16.252,37.516 17.544,38.159C18.997,38.88 22.051,38.888 23.641,38.605C24.094,38.524 26.151,38.055 26.368,37.88Z" style="fill:rgb(11,139,201);"/>
                <path d="M26.798,34.849C26.413,34.753 26.069,34.513 25.833,34.307C25.628,34.131 25.698,34.174 25.257,34.248C23.668,34.513 18.94,34.975 17.586,34.417C17.41,34.345 17.208,34.236 17.195,34.029C17.181,33.784 17.389,33.652 17.476,33.518C16.387,33.653 15.342,34.702 16.8,35.203C18.444,35.766 21.99,35.785 23.739,35.565C24.315,35.491 26.357,35.094 26.798,34.849Z" style="fill:rgb(11,139,201);"/>
                <path d="M27.891,31.281C27.684,31.289 27.407,31.354 27.198,31.387C26.956,31.423 26.725,31.459 26.483,31.491C25.027,31.695 23.413,31.859 21.956,31.944C20.819,32.011 16.528,32.153 15.888,31.555C15.841,31.287 16.148,31.118 16.337,31.015C17.073,30.621 17.855,30.488 18.58,30.261C17.579,30.167 15.061,30.887 14.151,31.456C13.167,32.07 14.807,32.314 15.421,32.4C19.013,32.9 22.371,32.632 25.923,32.127C26.503,32.045 26.626,32.078 27.021,31.828C27.293,31.654 27.65,31.472 27.891,31.281Z" style="fill:rgb(11,139,201);"/>
                <path d="M15.478,42.097C16.481,42.518 18.665,42.775 19.798,42.867C21.392,42.998 23.141,42.966 24.734,42.854C26.796,42.708 29.242,42.472 31.056,41.55C31.487,41.33 32.265,40.805 32.34,40.3C32.21,40.359 32.098,40.477 31.977,40.559C28.777,42.762 21.463,42.552 17.687,42.283L15.478,42.097Z" style="fill:rgb(11,139,201);"/>
                <path d="M28.616,30.421C29.4,30.176 30.292,30.339 30.789,30.781C31.325,31.259 31.332,32.167 30.944,32.87C30.427,33.807 29.34,34.644 28.439,35.208C28.285,35.306 28.136,35.379 28.002,35.478C28.582,35.417 29.959,34.795 30.483,34.472C31.151,34.059 31.897,33.456 32.205,32.675C32.644,31.567 32.005,30.72 31.324,30.32C30.933,30.091 30.46,29.954 29.91,29.977C29.489,29.994 28.806,30.161 28.616,30.421Z" style="fill:rgb(11,139,201);"/>
            </g>
        </g>
    </g>
</svg>
