<?xml version="1.0" encoding="UTF-8" standalone="no"?>
<!DOCTYPE svg PUBLIC "-//W3C//DTD SVG 1.1//EN" "http://www.w3.org/Graphics/SVG/1.1/DTD/svg11.dtd">
<svg width="100%" height="100%" viewBox="0 0 500 800" version="1.1" xmlns="http://www.w3.org/2000/svg" xmlns:xlink="http://www.w3.org/1999/xlink" xml:space="preserve" xmlns:serif="http://www.serif.com/" style="fill-rule:evenodd;clip-rule:evenodd;stroke-linejoin:round;stroke-miterlimit:2;">
    <g id="Feather" transform="matrix(6.52385,0,0,6.52385,-131.431,8.57151)">
        <rect x="0" y="0" width="120" height="120" style="fill:none;"/>
        <path d="M77.11,0.57C75.23,1.68 72.11,4.83 68.37,9.38L71.8,15.86C74.023,12.63 76.469,9.559 79.12,6.67L79.41,6.36L79.12,6.67C76.595,9.6 74.298,12.719 72.25,16C76.719,15.686 81.168,15.138 85.58,14.36C86.89,7 84.29,3.62 84.29,3.62C84.29,3.62 81,-1.72 77.11,0.57Z" style="fill:url(#_Linear1);fill-rule:nonzero;"/>
        <path d="M71.31,37.5L71.38,37.5L70.89,37.56L70.8,37.56L71.31,37.5Z" style="fill:none;fill-rule:nonzero;"/>
        <path d="M67.8,49.09L66.95,49.25L67.8,49.09Z" style="fill:none;fill-rule:nonzero;"/>
        <path d="M44,75.1C44.043,75.006 44.079,74.909 44.11,74.81C44.87,72.81 45.61,70.88 46.35,68.99C47.19,66.877 48.013,64.827 48.82,62.84C49.67,60.74 50.52,58.72 51.35,56.76C52.18,54.8 53.08,52.76 53.92,50.83C54.587,49.29 55.253,47.793 55.92,46.34C56.14,45.85 56.37,45.34 56.59,44.9C57.02,43.96 57.46,43.04 57.88,42.14L59.06,39.69L59.45,38.9L59.51,38.77L59.09,38.77L58.75,38.11C58.723,38.176 58.689,38.24 58.65,38.3C58.05,39.5 57.46,40.71 56.87,41.92C56.523,42.627 56.19,43.337 55.87,44.05C54.93,46.05 54.01,48 53.1,50C52.19,52 51.29,54 50.41,56.08C49.53,58.16 48.69,60.08 47.86,62.08C47.03,64.08 46.22,66.08 45.43,68.02C44.64,69.96 43.8,72.12 43.02,74.13C42.85,74.59 42.67,75.04 42.5,75.5C41.87,77.12 41.27,78.73 40.67,80.31L41.2,81.31L41.67,81.31C41.691,81.265 41.708,81.218 41.72,81.17C42.51,79.11 43.26,77.08 44,75.1Z" style="fill:none;fill-rule:nonzero;"/>
        <path d="M65.59,54.93L64.24,55.17L64.93,55.06L65.59,54.93Z" style="fill-rule:nonzero;"/>
        <path d="M65.59,54.93L64.24,55.17L64.93,55.06L65.59,54.93Z" style="fill-opacity:0.35;fill-rule:nonzero;"/>
        <path d="M66.74,49.27L66.96,49.27C67.25,49.27 67.54,49.17 67.81,49.12L66.75,49.29L66.74,49.27Z" style="fill-rule:nonzero;"/>
        <path d="M66.74,49.27L66.96,49.27C67.25,49.27 67.54,49.17 67.81,49.12L66.75,49.29L66.74,49.27Z" style="fill-opacity:0.35;fill-rule:nonzero;"/>
        <path d="M61.69,32.58C62.69,30.63 63.79,28.73 64.85,26.88C65.91,25.03 67.08,23.08 68.22,21.28L68.42,20.96C69.533,19.187 70.66,17.487 71.8,15.86L68.37,9.38L67.59,10.38C66.597,11.613 65.573,12.947 64.52,14.38C63.34,15.96 62.12,17.66 60.87,19.38C59.62,21.1 58.57,22.74 57.41,24.52C56.423,26.033 55.423,27.59 54.41,29.19L54.3,29.37L58.76,38.18C59.75,36.27 60.71,34.41 61.69,32.58Z" style="fill:url(#_Linear2);fill-rule:nonzero;"/>
        <path d="M41.36,82.25C40.77,83.88 40.18,85.53 39.58,87.25C39.576,87.273 39.576,87.297 39.58,87.32L39.3,88C38.9,89.14 38.55,90.16 37.76,92.49C39.07,93.09 40.13,94.67 41.13,96.49C41.031,94.6 40.189,92.824 38.79,91.55C45.28,91.84 50.86,90.2 53.79,85.46C54.054,85.029 54.292,84.581 54.5,84.12C53.18,85.79 51.56,86.49 48.5,86.32C53.01,84.32 55.27,82.32 57.27,79.15C57.75,78.39 58.21,77.56 58.68,76.64C55.306,80.346 50.201,81.987 45.3,80.94L41.7,81.34C41.58,81.64 41.47,82 41.36,82.25Z" style="fill:url(#_Linear3);fill-rule:nonzero;"/>
        <path d="M43,74.17C43.79,72.17 44.59,70.17 45.41,68.06C46.23,65.95 47.01,64.06 47.84,62.06C48.67,60.06 49.52,58.06 50.39,56.06C51.26,54.06 52.17,52 53.08,49.98C53.99,47.96 54.91,45.98 55.85,44.03C56.18,43.32 56.52,42.62 56.85,41.91C57.44,40.69 58.03,39.49 58.63,38.29C58.667,38.229 58.701,38.165 58.73,38.1L54.27,29.28C54.2,29.4 54.13,29.52 54.05,29.64C53.05,31.38 52.033,33.137 51,34.91C50,36.7 49,38.53 48,40.38C47.173,41.94 46.363,43.517 45.57,45.11L45.09,46.11C44.117,48.11 43.237,50.04 42.45,51.9C41.55,54.01 40.76,56.02 40.06,57.9C39.61,59.16 39.19,60.37 38.81,61.53C38.5,62.53 38.2,63.53 37.92,64.53C37.253,66.87 36.683,69.203 36.21,71.53L40.69,80.39C41.29,78.8 41.89,77.2 42.52,75.57L43,74.17Z" style="fill:url(#_Linear4);fill-rule:nonzero;"/>
        <path d="M36.15,71.81C35.597,74.604 35.213,77.429 35,80.27C35.005,80.367 35.005,80.463 35,80.56C33.6,78.32 29.85,76.13 29.86,76.15C32.55,80.04 34.58,83.9 34.86,87.69C33.42,87.99 31.45,87.56 29.18,86.69C30.515,88.067 32.172,89.091 34,89.67C31.82,89.8 29.55,91.3 27.27,93.02C30.61,91.66 33.27,91.12 35.27,91.56C32.19,100.24 29.11,109.82 26,120C26.864,119.752 27.548,119.086 27.82,118.23C28.37,116.39 32,104.3 37.7,88.41L38.19,87.05C38.24,86.92 38.29,86.79 38.33,86.67C39,85 39.6,83.3 40.24,81.56L40.69,80.38L36.21,71.5L36.15,71.81Z" style="fill:url(#_Linear5);fill-rule:nonzero;"/>
        <path d="M59.49,38.91L59.1,39.7L57.92,42.14C57.5,43.04 57.06,43.96 56.63,44.9L56,46.34C55.333,47.787 54.667,49.287 54,50.84C53.16,52.74 52.3,54.71 51.43,56.77C50.56,58.83 49.75,60.77 48.9,62.84C48.05,64.91 47.27,66.84 46.43,69C45.69,70.89 44.95,72.82 44.19,74.81C44.19,74.91 44.12,75.01 44.08,75.1C43.33,77.1 42.58,79.1 41.82,81.2C41.817,81.247 41.817,81.293 41.82,81.34L45.3,81L45.09,81C49.4,80.46 55.09,77.24 58.85,73.26C60.664,71.275 62.238,69.083 63.54,66.73C64.67,64.698 65.672,62.597 66.54,60.44C67.38,58.44 68.183,56.247 68.95,53.86C67.882,54.402 66.745,54.795 65.57,55.03L64.9,55.16L64.21,55.27C68.21,53.73 70.77,50.74 72.62,47.08C71.15,48.077 69.51,48.796 67.78,49.2C67.5,49.26 67.21,49.31 66.92,49.35L66.7,49.35C67.978,48.836 69.188,48.164 70.3,47.35L70.94,46.83C71.25,46.56 71.54,46.28 71.83,45.98C72.12,45.68 72.19,45.59 72.36,45.39C72.768,44.899 73.142,44.382 73.48,43.84C73.59,43.67 73.7,43.5 73.8,43.32L74.19,42.56C74.75,41.43 75.19,40.42 75.56,39.56C75.73,39.12 75.89,38.71 76.02,38.33C76.08,38.18 76.13,38.03 76.18,37.89C76.32,37.47 76.44,37.09 76.53,36.76C76.637,36.371 76.724,35.978 76.79,35.58C76.65,35.68 76.5,35.79 76.32,35.9C74.75,36.718 73.064,37.288 71.32,37.59L74.64,37.23L71.32,37.59L71.25,37.59L70.74,37.67L70.83,37.67L59.55,38.78L59.49,38.91Z" style="fill:url(#_Linear6);fill-rule:nonzero;"/>
        <path d="M72.25,16C71.237,17.533 70.153,19.293 69,21.28L68.82,21.6C67.82,23.32 66.71,25.21 65.57,27.28C64.57,29.07 63.57,30.99 62.48,33.06C61.547,34.853 60.587,36.76 59.6,38.78L70.94,37.54C73.44,36.552 75.599,34.856 77.15,32.66C77.53,32.11 77.91,31.53 78.29,30.94C79.46,29.12 80.6,27.12 81.62,25.13C82.559,23.33 83.4,21.48 84.14,19.59C84.532,18.61 84.866,17.609 85.14,16.59C85.35,15.8 85.51,15.05 85.64,14.34C81.208,15.121 76.739,15.675 72.25,16Z" style="fill:url(#_Linear7);fill-rule:nonzero;"/>
        <path d="M64.92,55.06L64.23,55.17L64.92,55.06Z" style="fill-rule:nonzero;"/>
        <path d="M64.92,55.06L64.23,55.17L64.92,55.06Z" style="fill-opacity:0.35;fill-rule:nonzero;"/>
        <path d="M64.92,55.06L64.23,55.17L64.92,55.06Z" style="fill:url(#_Linear8);fill-rule:nonzero;"/>
        <path d="M66.73,49.28L66.94,49.28L66.73,49.28Z" style="fill-rule:nonzero;"/>
        <path d="M66.73,49.28L66.94,49.28L66.73,49.28Z" style="fill-opacity:0.35;fill-rule:nonzero;"/>
        <path d="M66.73,49.28L66.94,49.28L66.73,49.28Z" style="fill:url(#_Linear9);fill-rule:nonzero;"/>
        <path d="M89,11L89,11.33L89.78,11.33L89.78,13.53L90.14,13.53L90.14,11.33L91,11.33L91,11L89,11ZM93.49,11L92.63,12.76L91.78,11L91.35,11L91.35,13.53L91.68,13.53L91.68,11.53L92.54,13.27L92.77,13.27L93.63,11.53L93.63,13.53L94,13.53L94,11L93.49,11Z" style="fill:rgb(109,110,113);fill-rule:nonzero;"/>
    </g>
    <defs>
        <linearGradient id="_Linear1" x1="0" y1="0" x2="1" y2="0" gradientUnits="userSpaceOnUse" gradientTransform="matrix(25.1552,-7.1001,7.1001,25.1552,67.9824,35.3663)"><stop offset="0" style="stop-color:rgb(246,153,35);stop-opacity:1"/><stop offset="0.31" style="stop-color:rgb(247,154,35);stop-opacity:1"/><stop offset="0.84" style="stop-color:rgb(233,120,38);stop-opacity:1"/><stop offset="1" style="stop-color:rgb(233,120,38);stop-opacity:1"/></linearGradient>
        <linearGradient id="_Linear2" x1="0" y1="0" x2="1" y2="0" gradientUnits="userSpaceOnUse" gradientTransform="matrix(50.7864,-110.037,110.037,50.7864,13.3047,148.597)"><stop offset="0" style="stop-color:rgb(158,32,100);stop-opacity:1"/><stop offset="0.32" style="stop-color:rgb(158,32,100);stop-opacity:1"/><stop offset="0.63" style="stop-color:rgb(201,32,55);stop-opacity:1"/><stop offset="0.75" style="stop-color:rgb(205,35,53);stop-opacity:1"/><stop offset="1" style="stop-color:rgb(233,120,38);stop-opacity:1"/></linearGradient>
        <linearGradient id="_Linear3" x1="0" y1="0" x2="1" y2="0" gradientUnits="userSpaceOnUse" gradientTransform="matrix(30.2652,-65.5746,65.5746,30.2652,30.4708,140.415)"><stop offset="0" style="stop-color:rgb(40,38,98);stop-opacity:1"/><stop offset="0.1" style="stop-color:rgb(102,46,141);stop-opacity:1"/><stop offset="0.79" style="stop-color:rgb(159,32,100);stop-opacity:1"/><stop offset="0.95" style="stop-color:rgb(205,32,50);stop-opacity:1"/><stop offset="1" style="stop-color:rgb(205,32,50);stop-opacity:1"/></linearGradient>
        <linearGradient id="_Linear4" x1="0" y1="0" x2="1" y2="0" gradientUnits="userSpaceOnUse" gradientTransform="matrix(120.92,0,0,120.92,-4258.1,3801.78)"><stop offset="0" style="stop-color:rgb(158,32,100);stop-opacity:1"/><stop offset="0.32" style="stop-color:rgb(158,32,100);stop-opacity:1"/><stop offset="0.63" style="stop-color:rgb(201,32,55);stop-opacity:1"/><stop offset="0.75" style="stop-color:rgb(205,35,53);stop-opacity:1"/><stop offset="1" style="stop-color:rgb(233,120,38);stop-opacity:1"/></linearGradient>
        <linearGradient id="_Linear5" x1="0" y1="0" x2="1" y2="0" gradientUnits="userSpaceOnUse" gradientTransform="matrix(63.55,0,0,63.55,-4249.28,3800.14)"><stop offset="0" style="stop-color:rgb(40,38,98);stop-opacity:1"/><stop offset="0.1" style="stop-color:rgb(102,46,141);stop-opacity:1"/><stop offset="0.79" style="stop-color:rgb(159,32,100);stop-opacity:1"/><stop offset="0.95" style="stop-color:rgb(205,32,50);stop-opacity:1"/><stop offset="1" style="stop-color:rgb(205,32,50);stop-opacity:1"/></linearGradient>
        <linearGradient id="_Linear6" x1="0" y1="0" x2="1" y2="0" gradientUnits="userSpaceOnUse" gradientTransform="matrix(120.92,0,0,120.92,-4258.1,3789.26)"><stop offset="0" style="stop-color:rgb(158,32,100);stop-opacity:1"/><stop offset="0.32" style="stop-color:rgb(158,32,100);stop-opacity:1"/><stop offset="0.63" style="stop-color:rgb(201,32,55);stop-opacity:1"/><stop offset="0.75" style="stop-color:rgb(205,35,53);stop-opacity:1"/><stop offset="1" style="stop-color:rgb(233,120,38);stop-opacity:1"/></linearGradient>
        <linearGradient id="_Linear7" x1="0" y1="0" x2="1" y2="0" gradientUnits="userSpaceOnUse" gradientTransform="matrix(120.92,0,0,120.92,-4265.6,3789.88)"><stop offset="0" style="stop-color:rgb(158,32,100);stop-opacity:1"/><stop offset="0.32" style="stop-color:rgb(158,32,100);stop-opacity:1"/><stop offset="0.63" style="stop-color:rgb(201,32,55);stop-opacity:1"/><stop offset="0.75" style="stop-color:rgb(205,35,53);stop-opacity:1"/><stop offset="1" style="stop-color:rgb(233,120,38);stop-opacity:1"/></linearGradient>
        <linearGradient id="_Linear8" x1="0" y1="0" x2="1" y2="0" gradientUnits="userSpaceOnUse" gradientTransform="matrix(120.92,0,0,120.92,-4258.1,3785.54)"><stop offset="0" style="stop-color:rgb(158,32,100);stop-opacity:1"/><stop offset="0.32" style="stop-color:rgb(158,32,100);stop-opacity:1"/><stop offset="0.63" style="stop-color:rgb(201,32,55);stop-opacity:1"/><stop offset="0.75" style="stop-color:rgb(205,35,53);stop-opacity:1"/><stop offset="1" style="stop-color:rgb(233,120,38);stop-opacity:1"/></linearGradient>
        <linearGradient id="_Linear9" x1="0" y1="0" x2="1" y2="0" gradientUnits="userSpaceOnUse" gradientTransform="matrix(120.92,0,0,120.92,-4258.1,3785.96)"><stop offset="0" style="stop-color:rgb(158,32,100);stop-opacity:1"/><stop offset="0.32" style="stop-color:rgb(158,32,100);stop-opacity:1"/><stop offset="0.63" style="stop-color:rgb(201,32,55);stop-opacity:1"/><stop offset="0.75" style="stop-color:rgb(205,35,53);stop-opacity:1"/><stop offset="1" style="stop-color:rgb(233,120,38);stop-opacity:1"/></linearGradient>
    </defs>
</svg>
