<?xml version="1.0" encoding="UTF-8" standalone="no"?>
<!DOCTYPE svg PUBLIC "-//W3C//DTD SVG 1.1//EN" "http://www.w3.org/Graphics/SVG/1.1/DTD/svg11.dtd">
<svg width="100%" height="100%" viewBox="0 0 800 800" version="1.1" xmlns="http://www.w3.org/2000/svg" xmlns:xlink="http://www.w3.org/1999/xlink" xml:space="preserve" xmlns:serif="http://www.serif.com/" style="fill-rule:evenodd;clip-rule:evenodd;stroke-linejoin:round;stroke-miterlimit:2;">
    <g transform="matrix(0.316,0,0,0.326177,400,400)">
        <g transform="matrix(1,0,0,1,-1250,-1211)">
            <path d="M1428.73,710.297C1411.69,711.044 1397.34,723.679 1394.45,740.492C1391.56,757.306 1276.95,1499.27 1264.81,1499.27C1252.69,1499.27 1131.3,929.125 1131.3,929.125C1127.47,912.746 1112.74,901.063 1095.92,901.063C1081.47,901.063 1068.33,909.69 1062.59,922.953L941.24,1202.73L872.012,1202.73C857.695,1172.83 827.412,1152.03 792.041,1152.03C743.761,1152.74 704.433,1192.66 704.433,1240.94C704.433,1289.23 743.761,1329.14 792.041,1329.86C828.926,1329.86 860.547,1307.4 874.014,1275.41L965.088,1275.41C979.539,1275.41 992.673,1266.79 998.418,1253.53C1004.16,1240.27 1076.97,1052.63 1085.56,1052.63C1094.14,1052.63 1235,1690.76 1235,1690.76C1238.83,1707.13 1253.55,1718.81 1270.37,1718.81C1288.77,1718.28 1303.28,1705.64 1306.21,1688.6C1306.21,1688.6 1427.25,919.008 1437.69,919.008C1448.14,919.008 1569.56,1424.52 1569.56,1424.52C1573.55,1439.81 1587.08,1450.82 1602.86,1451.62C1618.63,1452.41 1633.2,1442.86 1638.78,1428.09L1734.83,1171.43L1798.89,1269.76C1804.37,1223.95 1803.15,1177.6 1795.63,1130.77L1757.24,1070.67C1749.89,1058.99 1736.49,1052.48 1722.77,1053.9C1709.06,1055.33 1697.29,1064.42 1692.44,1077.33L1610.93,1295.12L1465.47,737.445C1461.26,721.496 1446.73,710.29 1430.23,710.268C1429.74,710.268 1429.23,710.277 1428.73,710.297Z" style="fill:rgb(141,142,146);fill-rule:nonzero;"/>
            <path d="M1250,2034.34C798.535,2034.34 432.549,1666.26 432.549,1212.23C432.549,758.188 798.535,390.102 1250,390.102C1701.47,390.102 2067.45,758.168 2067.45,1212.22C2067.45,1666.25 1701.47,2034.33 1250,2034.33M1250,5.287C559.639,5.287 0,546.273 0,1213.62C0,1880.95 559.639,2421.94 1250,2421.94C1940.36,2421.94 2500,1880.95 2500,1213.62C2500,546.273 1940.36,5.287 1250,5.287" style="fill:rgb(196,34,47);fill-rule:nonzero;"/>
        </g>
    </g>
</svg>
