<?xml version="1.0" encoding="UTF-8" standalone="no"?>
<!DOCTYPE svg PUBLIC "-//W3C//DTD SVG 1.1//EN" "http://www.w3.org/Graphics/SVG/1.1/DTD/svg11.dtd">
<svg width="100%" height="100%" viewBox="0 0 680 800" version="1.1" xmlns="http://www.w3.org/2000/svg" xmlns:xlink="http://www.w3.org/1999/xlink" xml:space="preserve" xmlns:serif="http://www.serif.com/" style="fill-rule:evenodd;clip-rule:evenodd;stroke-linecap:round;stroke-linejoin:round;stroke-miterlimit:1.5;">
    <g id="Tablet" transform="matrix(2.39985e-16,-3.91925,2.5374,1.26973,-1623.38,2009.33)">
        <g transform="matrix(0.601583,-8.11656e-33,-1.03544e-32,0.820924,156.852,52.1365)">
            <path d="M936.039,736.522C936.038,735.034 935.187,733.267 933.788,731.851C932.39,730.436 930.644,729.574 929.174,729.574C896.69,729.574 759.094,729.574 738.358,729.574C736.752,729.574 735.737,730.602 735.738,732.228C735.747,758.763 735.825,976.214 735.84,1018.05C735.84,1019.54 736.692,1021.3 738.09,1022.72C739.489,1024.13 741.235,1025 742.705,1025C775.188,1025 912.785,1025 933.521,1025C935.127,1025 936.142,1023.97 936.141,1022.34C936.132,995.807 936.054,778.356 936.039,736.522Z" style="fill:rgb(34,34,34);stroke:black;stroke-width:2.87px;"/>
        </g>
        <g transform="matrix(0.127679,0.394104,-0.255151,2.41319e-17,719.953,639.781)">
            <path d="M35.467,21.002C35.61,20.902 35.757,20.806 35.907,20.713C36.42,20.396 47.572,14.893 47.675,14.829C50.623,13.007 54.305,12.842 57.405,14.391C144.545,57.962 597.499,284.439 652.771,312.074C656.158,313.768 658.298,317.231 658.298,321.019C658.298,369.908 658.298,694.328 658.298,770.916C658.298,774.381 656.504,777.6 653.556,779.422C652.935,779.806 642.323,785.098 641.777,785.312C641.112,785.722 640.41,786.048 639.686,786.289C642.371,784.427 643.988,781.361 643.988,778.071C643.988,701.483 643.988,377.064 643.988,328.174C643.988,324.386 641.848,320.924 638.46,319.23C583.188,291.594 130.234,65.117 43.094,21.547C40.696,20.348 37.951,20.176 35.467,21.002Z" style="fill:rgb(34,34,34);"/>
            <clipPath id="_clip1">
                <path d="M35.467,21.002C35.61,20.902 35.757,20.806 35.907,20.713C36.42,20.396 47.572,14.893 47.675,14.829C50.623,13.007 54.305,12.842 57.405,14.391C144.545,57.962 597.499,284.439 652.771,312.074C656.158,313.768 658.298,317.231 658.298,321.019C658.298,369.908 658.298,694.328 658.298,770.916C658.298,774.381 656.504,777.6 653.556,779.422C652.935,779.806 642.323,785.098 641.777,785.312C641.112,785.722 640.41,786.048 639.686,786.289C642.371,784.427 643.988,781.361 643.988,778.071C643.988,701.483 643.988,377.064 643.988,328.174C643.988,324.386 641.848,320.924 638.46,319.23C583.188,291.594 130.234,65.117 43.094,21.547C40.696,20.348 37.951,20.176 35.467,21.002Z"/>
            </clipPath>
            <g clip-path="url(#_clip1)">
                <path d="M639.804,786.348L658.298,777.096L658.298,314.838L643.988,321.994L643.988,779.941L639.804,786.348Z" style="fill:rgb(99,99,99);"/>
                <path d="M643.988,321.994L658.298,314.838L52.932,12.155L38.622,19.311L643.988,321.994Z" style="fill:url(#_Linear2);"/>
            </g>
            <path d="M35.467,21.002C35.61,20.902 35.757,20.806 35.907,20.713C36.42,20.396 47.572,14.893 47.675,14.829C50.623,13.007 54.305,12.842 57.405,14.391C144.545,57.962 597.499,284.439 652.771,312.074C656.158,313.768 658.298,317.231 658.298,321.019C658.298,369.908 658.298,694.328 658.298,770.916C658.298,774.381 656.504,777.6 653.556,779.422C652.935,779.806 642.323,785.098 641.777,785.312C641.112,785.722 640.41,786.048 639.686,786.289C642.371,784.427 643.988,781.361 643.988,778.071C643.988,701.483 643.988,377.064 643.988,328.174C643.988,324.386 641.848,320.924 638.46,319.23C583.188,291.594 130.234,65.117 43.094,21.547C40.696,20.348 37.951,20.176 35.467,21.002Z" style="fill:none;stroke:black;stroke-width:5px;"/>
        </g>
        <g transform="matrix(0.805298,0,0,1.50087,-159.876,-451.702)">
            <rect x="949.78" y="740.812" width="136.595" height="131.56" style="fill:rgb(235,235,235);"/>
        </g>
        <g transform="matrix(0.532466,0,0,0.822441,310.448,149.883)">
            <circle cx="656.44" cy="881.451" r="10.483" style="fill:rgb(235,235,235);"/>
        </g>
    </g>
    <defs>
        <linearGradient id="_Linear2" x1="0" y1="0" x2="1" y2="0" gradientUnits="userSpaceOnUse" gradientTransform="matrix(-2.0917,-4.13478,4.13478,-2.0917,651.143,318.416)"><stop offset="0" style="stop-color:rgb(99,99,99);stop-opacity:1"/><stop offset="1" style="stop-color:rgb(42,42,42);stop-opacity:1"/></linearGradient>
    </defs>
</svg>
