<?xml version="1.0" encoding="UTF-8" standalone="no"?>
<!DOCTYPE svg PUBLIC "-//W3C//DTD SVG 1.1//EN" "http://www.w3.org/Graphics/SVG/1.1/DTD/svg11.dtd">
<svg width="100%" height="100%" viewBox="0 0 1280 1100" version="1.1" xmlns="http://www.w3.org/2000/svg" xmlns:xlink="http://www.w3.org/1999/xlink" xml:space="preserve" xmlns:serif="http://www.serif.com/" style="fill-rule:evenodd;clip-rule:evenodd;">
    <g id="Wifi-Access-Point" serif:id="Wifi Access Point">
        <g id="Antenna" transform="matrix(10.6079,0,0,10.6079,-13961,-12163.4)">
            <g transform="matrix(0.397118,0,0,1,863.295,0)">
                <path d="M1438.5,1148.04C1438.5,1147.92 1438.37,1147.8 1438.15,1147.71C1437.93,1147.62 1437.62,1147.57 1437.31,1147.57C1434.72,1147.57 1428.59,1147.57 1426,1147.57C1425.68,1147.57 1425.38,1147.62 1425.16,1147.71C1424.94,1147.8 1424.81,1147.92 1424.81,1148.04C1424.81,1153.68 1424.81,1208.02 1424.81,1208.02L1438.5,1208.02L1438.5,1148.04Z" style="fill:url(#_Linear1);"/>
            </g>
            <g transform="matrix(1,0,0,1,4.51168,-6.76753)">
                <path d="M1413.28,1221.02L1427.32,1214" style="fill:none;stroke:black;stroke-width:3.5px;stroke-linecap:round;stroke-linejoin:round;stroke-miterlimit:1.5;"/>
            </g>
        </g>
        <g id="Chassis" transform="matrix(11.1345,0,0,11.1345,-6559.06,-6642.13)">
            <g id="Chassis1" serif:id="Chassis">
                <path d="M590.36,646.019L659.865,680.771L659.765,694.859L590.36,660.157L590.36,646.019Z" style="fill:rgb(0,82,117);"/>
                <path d="M590.381,645.979L659.886,680.731L659.899,680.741L659.907,680.755L659.91,680.771L659.81,694.859L659.806,694.877L659.796,694.892L659.78,694.901L659.762,694.904L659.745,694.899L590.34,660.197L590.327,660.187L590.319,660.173L590.316,660.157L590.316,646.019L590.319,646.001L590.33,645.986L590.345,645.976L590.363,645.974L590.381,645.979ZM590.405,660.129L659.721,694.787L659.82,680.799L590.405,646.091L590.405,660.129Z"/>
                <path d="M631.489,625.454L700.894,660.157L659.765,680.721L590.36,646.019L631.489,625.454Z" style="fill:rgb(0,146,207);"/>
                <path d="M631.496,625.41L631.509,625.414L700.914,660.116L700.927,660.126L700.936,660.14L700.939,660.157L700.936,660.173L700.927,660.187L700.914,660.197L659.785,680.761L659.772,680.765L659.758,680.765L659.745,680.761L590.34,646.059L590.327,646.049L590.319,646.035L590.316,646.019L590.319,646.002L590.327,645.988L590.34,645.979L631.469,625.414L631.482,625.41L631.496,625.41ZM590.461,646.019L659.765,680.671L700.793,660.157L631.489,625.505L590.461,646.019Z"/>
                <path d="M700.894,660.157L700.894,674.295L659.765,694.859L659.765,680.721L700.894,660.157Z" style="fill:rgb(0,179,254);"/>
                <path d="M700.909,660.114L700.924,660.124L700.935,660.139L700.939,660.157L700.939,674.295L700.936,674.311L700.927,674.325L700.914,674.335L659.785,694.899L659.768,694.904L659.75,694.901L659.734,694.892L659.724,694.877L659.72,694.859L659.72,680.721L659.723,680.705L659.732,680.691L659.745,680.681L700.874,660.116L700.891,660.112L700.909,660.114ZM659.81,680.749L659.81,694.786L700.849,674.267L700.849,660.229L659.81,680.749Z"/>
            </g>
            <g transform="matrix(0.576269,0.288256,0,0.576269,587.898,651.816)">
                <g id="Ports">
                    <g id="Ports1" serif:id="Ports">
                        <g id="ethernet-port" serif:id="ethernet port">
                            <path id="port" d="M120.25,-8.734C120.25,-8.835 120.184,-8.918 120.103,-8.918L96.397,-8.918C96.316,-8.918 96.25,-8.835 96.25,-8.734L96.25,9.898C96.25,10 96.316,10.082 96.397,10.082L120.103,10.082C120.184,10.082 120.25,10 120.25,9.898L120.25,-8.734Z"/>
                            <g id="side-1" serif:id="side 1" transform="matrix(0.171351,-0.0857116,0,0.171351,-26.4226,-53.6964)">
                                <path d="M772.065,751.009L842.253,715.915L842.253,701.878L772.065,736.972L772.065,751.009Z" style="fill:rgb(69,69,69);"/>
                            </g>
                            <g id="top-2" serif:id="top 2" transform="matrix(0.171351,-0.0857116,0,0.171351,-26.4226,-53.6964)">
                                <path d="M842.253,694.304L842.245,701.882L772.065,736.972L758.028,729.953L835.791,691.071L842.253,694.304Z" style="fill:rgb(37,37,37);fill-rule:nonzero;"/>
                            </g>
                            <g id="side2" transform="matrix(0.171351,-0.0857116,0,0.171351,-26.4226,-53.6964)">
                                <path d="M821.757,684.051L835.791,691.071L758.028,729.953L758.028,715.915L821.757,684.051Z" style="fill:rgb(69,69,69);"/>
                            </g>
                            <g id="top-3" serif:id="top 3" transform="matrix(0.171351,-0.0857116,0,0.171351,-26.4226,-53.6964)">
                                <path d="M729.953,701.878L793.687,670.01L821.757,684.051L758.028,715.915L729.953,701.878Z" style="fill:rgb(37,37,37);"/>
                            </g>
                            <g id="side-3" serif:id="side 3" transform="matrix(0.171351,-0.0857116,0,0.171351,-26.4226,-53.6964)">
                                <path d="M793.687,670.01L729.953,701.878L729.953,656L729.953,638.13L793.687,670.01Z" style="fill:rgb(37,37,37);"/>
                            </g>
                            <g id="top-1" serif:id="top 1" transform="matrix(0.171351,-0.0857116,0,0.171351,-26.4226,-53.6964)">
                                <path d="M776.339,748.872L842.229,715.927L842.198,744.018L827.999,751.118L814.178,744.222L814.178,758.028L813.972,758.131L800.141,751.682L800.141,760.778L776.339,748.872Z" style="fill:rgb(37,37,37);"/>
                            </g>
                            <g id="top-0" serif:id="top 0" transform="matrix(0.171351,-0.0857116,0,0.171351,-26.4226,-53.6964)">
                                <path d="M842.213,729.973L842.182,757.992L814.178,743.99L842.213,729.973Z" style="fill:rgb(37,37,37);"/>
                            </g>
                            <path id="Jack" d="M98.655,-6.918L117.898,-6.918L117.886,4.036L113.087,4.042L113.087,6.442L110.682,6.524L110.682,8.082L105.871,8.082L105.871,6.427L103.466,6.447L103.466,4.042L98.655,4.042L98.655,-6.918Z" style="fill:none;fill-rule:nonzero;stroke:rgb(153,153,153);stroke-width:1px;"/>
                            <g id="LED-green" serif:id="LED green" transform="matrix(1,0,0,1,95.75,-441.78)">
                                <path d="M6,447.92C6,447.887 5.979,447.86 5.952,447.86L2.048,447.86C2.021,447.86 2,447.887 2,447.92L2,450.3C2,450.333 2.021,450.36 2.048,450.36L5.952,450.36C5.979,450.36 6,450.333 6,450.3L6,447.92Z" style="fill:rgb(0,255,0);"/>
                            </g>
                            <g id="LED-yellow" serif:id="LED yellow" transform="matrix(1,0,0,1,95.75,-441.78)">
                                <path d="M23,447.92C23,447.887 22.979,447.86 22.952,447.86L19.048,447.86C19.021,447.86 19,447.887 19,447.92L19,450.3C19,450.333 19.021,450.36 19.048,450.36L22.952,450.36C22.979,450.36 23,450.333 23,450.3L23,447.92Z" style="fill:rgb(255,204,0);"/>
                            </g>
                        </g>
                    </g>
                </g>
            </g>
        </g>
        <g transform="matrix(4.02013,2.01313,-3.80904,1.89912,-298.926,-1550.88)">
            <g id="Wifi">
                <g id="Wifi-Logo" serif:id="Wifi Logo">
                    <g transform="matrix(0.226119,0,0,0.226119,538.475,400.638)">
                        <circle cx="512.723" cy="339.92" r="110.561" style="fill:white;"/>
                    </g>
                    <g transform="matrix(1,0,0,1,183.064,18.621)">
                        <path d="M438.362,424.692L438.455,424.602L438.548,424.512L438.641,424.423L438.734,424.334L438.828,424.246L438.922,424.157L439.017,424.069L439.111,423.982L439.206,423.894L439.301,423.807L439.397,423.72L439.492,423.633L439.588,423.547L439.684,423.461L439.781,423.375L439.878,423.289L439.974,423.204L440.072,423.119L440.169,423.034L440.267,422.95L440.365,422.866L440.463,422.782L440.561,422.698L440.66,422.615L440.759,422.532L440.858,422.449L440.958,422.366L441.057,422.284L441.157,422.202L441.257,422.121L441.358,422.04L441.458,421.959L441.559,421.878L441.661,421.797L441.762,421.717L441.864,421.637L441.965,421.558L442.068,421.479L442.17,421.4L442.273,421.321L442.375,421.243L442.478,421.164L442.582,421.087L442.685,421.009L442.789,420.932L442.893,420.855L442.997,420.779L443.102,420.702L443.207,420.626L443.312,420.55L443.417,420.475L443.522,420.4L443.628,420.325L443.734,420.251L443.84,420.177L443.947,420.103L444.053,420.029L444.16,419.956L444.267,419.883L444.374,419.81L444.482,419.738L444.59,419.666L444.698,419.594L444.806,419.523L444.914,419.451L445.023,419.381L445.132,419.31L445.241,419.24L445.35,419.17L445.46,419.1L445.57,419.031L445.68,418.962L445.79,418.894L445.901,418.825L446.011,418.757L446.122,418.69L446.233,418.622L446.345,418.555L446.456,418.489L446.568,418.422L446.68,418.356L446.792,418.29L446.905,418.225L447.017,418.16L447.13,418.095L447.243,418.03L447.357,417.966L447.47,417.902L447.584,417.839L447.698,417.776L447.812,417.713L447.926,417.65L448.041,417.588L448.156,417.526L448.271,417.465L448.386,417.403L448.501,417.343L448.617,417.282L448.733,417.222L448.849,417.162L448.965,417.102L449.081,417.043L449.198,416.984L449.315,416.926L449.432,416.867L449.549,416.81L449.667,416.752L449.785,416.695L449.903,416.638L450.021,416.581L450.139,416.525L450.257,416.469L450.376,416.414L450.495,416.358L450.614,416.304L450.733,416.249L450.853,416.195L450.973,416.141L451.092,416.088L451.213,416.035L451.333,415.982L451.453,415.929L451.574,415.877L451.695,415.825L451.816,415.774L451.937,415.723L452.059,415.672L452.18,415.622L452.302,415.572L452.424,415.522L452.546,415.473L452.669,415.424L452.791,415.375L452.914,415.327L453.037,415.279L453.16,415.232L453.284,415.185L453.407,415.138L453.531,415.091L453.655,415.045L453.779,414.999L453.903,414.954L454.028,414.909L454.153,414.864L454.277,414.82L454.403,414.776L454.528,414.732L454.653,414.689L454.779,414.646L454.905,414.604L455.031,414.562L455.157,414.52L455.283,414.478L455.409,414.437L455.536,414.397L455.663,414.356L455.79,414.317L455.917,414.277L456.045,414.238L456.172,414.199L456.3,414.16L456.428,414.122L456.556,414.085L456.684,414.047L456.813,414.01L456.941,413.974L457.07,413.938L457.199,413.902L457.328,413.866L457.458,413.831L457.587,413.797L457.717,413.762L457.847,413.728L457.977,413.695L458.107,413.662L458.237,413.629L458.368,413.596L458.498,413.564L458.629,413.533L458.76,413.502L458.891,413.471L459.023,413.44L459.154,413.41L459.286,413.38L459.418,413.351L459.55,413.322L459.682,413.294L459.814,413.265L459.947,413.238L460.079,413.21L460.212,413.183L460.345,413.157L460.479,413.131L460.612,413.105L460.745,413.079L460.879,413.054L461.013,413.03L461.147,413.006L461.281,412.982L461.415,412.958L461.55,412.935L461.684,412.913L461.819,412.891L461.954,412.869L462.089,412.847L462.224,412.826L462.36,412.806L462.495,412.786L462.631,412.766L462.767,412.747L462.903,412.728L463.039,412.709L463.175,412.691L463.312,412.673L463.448,412.656L463.585,412.639L463.722,412.622L463.859,412.606L463.996,412.591L464.134,412.575L464.271,412.561L464.409,412.546L464.547,412.532L464.685,412.519L464.823,412.505L464.961,412.493L465.099,412.48L465.238,412.468L465.377,412.457L465.516,412.446L465.655,412.435L465.794,412.425L465.933,412.415L466.072,412.406L466.212,412.397L466.352,412.388L466.492,412.38L466.632,412.373L466.772,412.366L466.912,412.359L467.053,412.352L467.193,412.347L467.334,412.341L467.475,412.336L467.616,412.331L467.757,412.327L467.898,412.323L468.04,412.32L468.181,412.317L468.323,412.315L468.465,412.313L468.607,412.311L468.749,412.31L468.891,412.309L469.034,412.309L469.176,412.309L469.318,412.31L469.461,412.311L469.603,412.313L469.745,412.315L469.887,412.317L470.029,412.32L470.171,412.323L470.313,412.327L470.455,412.331L470.597,412.336L470.739,412.341L470.881,412.347L471.022,412.353L471.164,412.359L471.305,412.366L471.447,412.373L471.588,412.381L471.729,412.389L471.87,412.398L472.012,412.407L472.153,412.416L472.294,412.426L472.435,412.436L472.576,412.447L472.717,412.458L472.857,412.47L472.998,412.482L473.139,412.495L473.279,412.508L473.42,412.521L473.56,412.535L473.7,412.549L473.841,412.564L473.981,412.579L474.121,412.594L474.261,412.61L474.401,412.627L474.541,412.644L474.681,412.661L474.821,412.679L474.96,412.697L475.1,412.715L475.24,412.734L475.379,412.754L475.518,412.774L475.658,412.794L475.797,412.815L475.936,412.836L476.075,412.858L476.214,412.88L476.353,412.902L476.492,412.925L476.631,412.948L476.77,412.972L476.909,412.996L477.047,413.021L477.186,413.046L477.324,413.071L477.462,413.097L477.601,413.123L477.739,413.15L477.877,413.177L478.015,413.205L478.153,413.233L478.291,413.261L478.428,413.29L478.566,413.319L478.704,413.349L478.841,413.379L478.979,413.41L479.116,413.441L479.253,413.472L479.391,413.504L479.528,413.536L479.665,413.569L479.802,413.602L479.939,413.636L480.075,413.67L480.212,413.704L480.349,413.739L480.485,413.774L480.622,413.81L480.758,413.846L480.894,413.882L481.03,413.919L481.166,413.957L481.302,413.994L481.438,414.033L481.574,414.071L481.71,414.11L481.846,414.15L481.981,414.19L482.117,414.23L482.252,414.271L482.387,414.312L482.523,414.354L482.658,414.396L482.793,414.438L482.928,414.481L483.063,414.524L483.197,414.568L483.332,414.612L483.467,414.657L483.601,414.702L483.736,414.747L483.87,414.793L484.004,414.839L484.138,414.886L484.272,414.933L484.406,414.98L484.54,415.028L484.674,415.077L484.807,415.126L484.941,415.175L485.074,415.225L485.208,415.275L485.341,415.325L485.474,415.376L485.607,415.427L485.74,415.479L485.873,415.531L486.006,415.584L486.138,415.637L486.271,415.69L486.403,415.744L486.536,415.799L486.668,415.854L486.8,415.909L486.932,415.964L487.064,416.02L487.196,416.077L487.328,416.134L487.46,416.191L487.591,416.249L487.722,416.307L487.854,416.365L487.985,416.424L488.116,416.484L488.247,416.544L488.378,416.604L488.509,416.665L488.64,416.726L488.77,416.787L488.901,416.849L489.031,416.912L489.161,416.975L489.292,417.038L489.422,417.102L489.551,417.166L489.681,417.23L489.811,417.295L489.941,417.361L490.07,417.427L490.199,417.493L490.329,417.56L490.458,417.627L490.587,417.694L490.715,417.762L490.844,417.831L490.973,417.9L491.102,417.969L491.23,418.039L491.358,418.109L491.486,418.179L491.614,418.25L491.742,418.322L491.87,418.393L491.997,418.466L492.125,418.538L492.252,418.612L492.38,418.685L492.507,418.759L492.634,418.833L492.76,418.908L492.887,418.984L493.014,419.059L493.14,419.135L493.266,419.212L493.393,419.289L493.519,419.366L493.645,419.444L493.77,419.522L493.896,419.601L494.021,419.68L494.147,419.76L494.272,419.84L494.397,419.92L494.521,420.001L494.646,420.082L494.771,420.164L494.895,420.246L495.019,420.329L495.144,420.412L495.267,420.495L495.391,420.579L495.515,420.663L495.638,420.747L495.762,420.833L495.885,420.918L496.007,421.004L496.13,421.09L496.253,421.177L496.375,421.264L496.497,421.352L496.619,421.44L496.741,421.528L496.863,421.617L496.985,421.707L497.106,421.796L497.227,421.886L497.348,421.977L497.469,422.068L497.589,422.159L497.71,422.251L497.83,422.343L497.95,422.435L498.07,422.529L498.19,422.622L498.309,422.716L498.428,422.81L498.547,422.905L498.666,423L498.785,423.095L498.903,423.191L499.021,423.287L499.139,423.384L499.257,423.481L499.374,423.578L499.492,423.676L499.609,423.774L499.725,423.873L499.842,423.972L499.958,424.071L500.075,424.171L500.191,424.272L500.306,424.372L500.422,424.473L500.537,424.574L500.652,424.676L500.766,424.778L500.881,424.881L500.995,424.984L501.109,425.087L501.223,425.191L501.336,425.295L501.449,425.399L501.562,425.504L501.675,425.609L501.787,425.714L501.899,425.82L502.011,425.927L502.123,426.033L502.234,426.14L502.345,426.247L502.445,426.345L502.736,426.639L503.014,426.946L503.279,427.264L503.529,427.589L503.761,427.92L503.975,428.255L504.168,428.592L504.34,428.927L504.489,429.259L504.614,429.586L504.715,429.905L504.79,430.214L504.84,430.511L504.864,430.795L504.861,431.062L504.832,431.311L504.776,431.541L504.695,431.75L504.589,431.936L504.459,432.099L504.305,432.236L504.128,432.348L503.93,432.434L503.713,432.492L503.477,432.522L503.224,432.525L502.955,432.5L502.674,432.448L502.381,432.368L502.079,432.261L501.77,432.129L501.455,431.971L501.138,431.79L500.819,431.585L500.502,431.36L500.189,431.114L499.881,430.851L499.58,430.57L499.501,430.493L499.432,430.426L499.362,430.359L499.292,430.293L499.222,430.226L499.152,430.16L499.081,430.093L499.011,430.028L498.94,429.962L498.868,429.896L498.797,429.83L498.725,429.765L498.653,429.7L498.581,429.635L498.509,429.57L498.436,429.505L498.363,429.441L498.29,429.376L498.217,429.312L498.143,429.248L498.069,429.184L497.995,429.12L497.92,429.057L497.846,428.993L497.771,428.93L497.696,428.867L497.62,428.804L497.544,428.741L497.468,428.678L497.392,428.616L497.316,428.554L497.239,428.492L497.162,428.43L497.085,428.368L497.007,428.306L496.929,428.245L496.851,428.183L496.773,428.122L496.694,428.061L496.615,428L496.536,427.939L496.457,427.879L496.377,427.819L496.297,427.759L496.217,427.698L496.136,427.639L496.056,427.579L495.975,427.519L495.893,427.46L495.812,427.401L495.73,427.342L495.648,427.283L495.565,427.224L495.483,427.166L495.4,427.107L495.316,427.049L495.233,426.991L495.149,426.933L495.065,426.876L494.981,426.818L494.896,426.761L494.811,426.704L494.726,426.647L494.64,426.59L494.555,426.533L494.469,426.477L494.382,426.421L494.296,426.365L494.209,426.309L494.122,426.253L494.035,426.198L493.947,426.142L493.859,426.087L493.77,426.032L493.682,425.977L493.593,425.923L493.504,425.869L493.415,425.814L493.325,425.761L493.235,425.707L493.145,425.653L493.054,425.6L492.964,425.546L492.873,425.494L492.781,425.441L492.69,425.388L492.598,425.336L492.506,425.284L492.413,425.232L492.321,425.18L492.227,425.128L492.134,425.077L492.041,425.026L491.947,424.975L491.853,424.924L491.759,424.874L491.664,424.823L491.569,424.773L491.474,424.724L491.378,424.674L491.283,424.625L491.187,424.575L491.09,424.526L490.994,424.478L490.897,424.429L490.8,424.381L490.703,424.333L490.605,424.285L490.507,424.237L490.409,424.19L490.311,424.143L490.212,424.096L490.113,424.049L490.014,424.003L489.914,423.957L489.815,423.911L489.715,423.865L489.615,423.82L489.514,423.774L489.414,423.73L489.312,423.685L489.211,423.64L489.109,423.596L489.008,423.552L488.906,423.509L488.803,423.465L488.701,423.422L488.598,423.379L488.495,423.336L488.392,423.294L488.288,423.252L488.184,423.21L488.08,423.168L487.976,423.127L487.871,423.086L487.766,423.045L487.661,423.005L487.556,422.964L487.45,422.924L487.344,422.884L487.238,422.845L487.132,422.806L487.026,422.767L486.919,422.728L486.812,422.69L486.705,422.652L486.597,422.614L486.489,422.577L486.381,422.539L486.273,422.502L486.165,422.466L486.056,422.429L485.947,422.393L485.838,422.358L485.729,422.322L485.619,422.287L485.509,422.252L485.399,422.217L485.289,422.183L485.179,422.149L485.068,422.115L484.957,422.082L484.846,422.049L484.734,422.016L484.622,421.984L484.511,421.952L484.399,421.92L484.287,421.888L484.174,421.857L484.061,421.826L483.948,421.795L483.835,421.765L483.722,421.735L483.608,421.705L483.494,421.676L483.38,421.647L483.266,421.618L483.152,421.59L483.037,421.562L482.922,421.534L482.807,421.506L482.692,421.479L482.577,421.453L482.461,421.426L482.345,421.4L482.229,421.374L482.113,421.349L481.996,421.323L481.88,421.299L481.763,421.274L481.646,421.25L481.528,421.226L481.411,421.203L481.293,421.18L481.175,421.157L481.058,421.134L480.939,421.112L480.821,421.091L480.702,421.069L480.583,421.048L480.464,421.027L480.345,421.007L480.226,420.987L480.107,420.967L479.987,420.948L479.867,420.929L479.747,420.91L479.627,420.892L479.506,420.874L479.386,420.856L479.265,420.839L479.144,420.822L479.023,420.806L478.901,420.79L478.78,420.774L478.658,420.759L478.536,420.743L478.414,420.729L478.292,420.714L478.17,420.7L478.047,420.687L477.925,420.674L477.802,420.661L477.679,420.648L477.556,420.636L477.432,420.624L477.309,420.613L477.185,420.602L477.061,420.591L476.937,420.581L476.813,420.571L476.689,420.562L476.564,420.553L476.44,420.544L476.315,420.535L476.19,420.527L476.065,420.52L475.94,420.513L475.814,420.506L475.689,420.499L475.563,420.493L475.437,420.488L475.311,420.482L475.185,420.477L475.059,420.473L474.932,420.469L474.806,420.465L474.679,420.462L474.552,420.459L474.425,420.456L474.298,420.454L474.171,420.452L474.043,420.451L473.916,420.45L473.788,420.449L473.66,420.449L473.532,420.449L473.404,420.45L473.277,420.451L473.149,420.452L473.021,420.454L472.894,420.456L472.766,420.459L472.639,420.462L472.511,420.465L472.384,420.469L472.257,420.473L472.13,420.477L472.002,420.482L471.875,420.488L471.748,420.493L471.622,420.5L471.495,420.506L471.368,420.513L471.241,420.52L471.115,420.528L470.988,420.536L470.862,420.545L470.735,420.554L470.609,420.563L470.483,420.572L470.357,420.583L470.231,420.593L470.105,420.604L469.979,420.615L469.853,420.627L469.727,420.639L469.602,420.651L469.476,420.664L469.351,420.677L469.225,420.69L469.1,420.704L468.975,420.719L468.85,420.733L468.725,420.748L468.6,420.764L468.475,420.78L468.35,420.796L468.226,420.812L468.101,420.829L467.977,420.847L467.852,420.864L467.728,420.882L467.604,420.901L467.48,420.92L467.356,420.939L467.232,420.959L467.108,420.979L466.985,420.999L466.861,421.02L466.738,421.041L466.614,421.062L466.491,421.084L466.368,421.106L466.245,421.129L466.122,421.152L465.999,421.175L465.876,421.199L465.754,421.223L465.632,421.248L465.509,421.273L465.387,421.298L465.265,421.323L465.143,421.349L465.021,421.376L464.899,421.402L464.777,421.429L464.656,421.457L464.535,421.485L464.413,421.513L464.292,421.541L464.171,421.57L464.05,421.599L463.929,421.629L463.809,421.659L463.688,421.689L463.568,421.72L463.447,421.751L463.327,421.782L463.207,421.814L463.087,421.846L462.967,421.879L462.848,421.912L462.728,421.945L462.609,421.978L462.489,422.012L462.37,422.047L462.251,422.081L462.132,422.116L462.014,422.152L461.895,422.187L461.777,422.223L461.658,422.26L461.54,422.296L461.422,422.334L461.304,422.371L461.186,422.409L461.069,422.447L460.951,422.486L460.834,422.524L460.717,422.564L460.599,422.603L460.483,422.643L460.366,422.683L460.249,422.724L460.133,422.765L460.016,422.806L459.9,422.848L459.784,422.89L459.668,422.932L459.553,422.975L459.437,423.018L459.322,423.061L459.206,423.105L459.091,423.149L458.976,423.193L458.862,423.238L458.747,423.283L458.632,423.328L458.518,423.374L458.404,423.42L458.29,423.466L458.176,423.513L458.062,423.56L457.949,423.608L457.835,423.655L457.722,423.703L457.609,423.752L457.496,423.801L457.384,423.85L457.271,423.899L457.159,423.949L457.046,423.999L456.934,424.049L456.823,424.1L456.711,424.151L456.599,424.202L456.488,424.254L456.377,424.306L456.266,424.358L456.155,424.411L456.044,424.464L455.934,424.517L455.823,424.571L455.713,424.625L455.603,424.679L455.493,424.734L455.384,424.789L455.274,424.844L455.165,424.9L455.056,424.955L454.947,425.012L454.838,425.068L454.73,425.125L454.622,425.182L454.513,425.24L454.405,425.297L454.298,425.356L454.19,425.414L454.083,425.473L453.975,425.532L453.868,425.591L453.762,425.651L453.655,425.711L453.548,425.771L453.442,425.832L453.336,425.893L453.23,425.954L453.124,426.015L453.019,426.077L452.914,426.139L452.808,426.202L452.703,426.265L452.599,426.328L452.494,426.391L452.39,426.455L452.286,426.519L452.182,426.583L452.078,426.647L451.975,426.712L451.871,426.777L451.768,426.843L451.665,426.909L451.562,426.975L451.46,427.041L451.358,427.108L451.256,427.175L451.154,427.242L451.052,427.31L450.95,427.377L450.849,427.446L450.748,427.514L450.647,427.583L450.547,427.652L450.446,427.721L450.346,427.791L450.246,427.861L450.146,427.931L450.046,428.001L449.947,428.072L449.848,428.143L449.749,428.214L449.65,428.286L449.552,428.358L449.453,428.43L449.355,428.503L449.258,428.575L449.16,428.649L449.062,428.722L448.965,428.795L448.868,428.869L448.772,428.944L448.675,429.018L448.579,429.093L448.483,429.168L448.387,429.243L448.291,429.319L448.196,429.395L448.101,429.471L448.006,429.547L447.911,429.624L447.817,429.701L447.722,429.778L447.628,429.855L447.534,429.933L447.441,430.011L447.348,430.09L447.255,430.168L447.162,430.247L447.069,430.326L446.977,430.406L446.884,430.485L446.793,430.565L446.701,430.645L446.609,430.726L446.518,430.807L446.427,430.888L446.337,430.969L446.246,431.05L446.156,431.132L446.066,431.214L445.976,431.296L445.887,431.379L445.797,431.462L445.708,431.545L445.62,431.628L445.531,431.712L445.443,431.796L445.355,431.88L445.267,431.964L445.179,432.049L445.091,432.135L444.931,432.266L444.749,432.372L444.546,432.45L444.324,432.502L444.084,432.526L443.827,432.522L443.555,432.49L443.271,432.431L442.975,432.344L442.671,432.231L442.361,432.092L442.045,431.929L441.727,431.741L441.409,431.532L441.092,431.301L440.78,431.051L440.474,430.783L440.176,430.499L439.888,430.201L439.612,429.892L439.351,429.572L439.106,429.245L438.878,428.913L438.669,428.577L438.481,428.241L438.315,427.906L438.171,427.575L438.052,427.25L437.958,426.933L437.888,426.627L437.845,426.333L437.828,426.054L437.838,425.791L437.873,425.546L437.935,425.321L438.022,425.118L438.134,424.937L438.27,424.78L438.362,424.692Z" style="fill:white;"/>
                    </g>
                    <g transform="matrix(1,0,0,1,183.064,18.621)">
                        <path d="M426.023,412.285L426.153,412.159L426.284,412.032L426.415,411.906L426.546,411.781L426.677,411.656L426.809,411.531L426.942,411.407L427.074,411.283L427.207,411.159L427.341,411.036L427.474,410.913L427.609,410.791L427.743,410.668L427.878,410.547L428.013,410.426L428.149,410.305L428.285,410.184L428.421,410.064L428.558,409.945L428.695,409.825L428.832,409.706L428.97,409.588L429.108,409.47L429.246,409.352L429.385,409.235L429.524,409.118L429.664,409.002L429.804,408.886L429.944,408.77L430.084,408.655L430.225,408.54L430.367,408.425L430.508,408.311L430.65,408.198L430.792,408.085L430.935,407.972L431.078,407.86L431.221,407.748L431.365,407.636L431.509,407.525L431.653,407.414L431.798,407.304L431.943,407.194L432.088,407.085L432.234,406.976L432.38,406.867L432.526,406.759L432.673,406.651L432.82,406.544L432.967,406.437L433.115,406.33L433.263,406.224L433.412,406.119L433.56,406.013L433.709,405.909L433.859,405.804L434.008,405.7L434.158,405.597L434.308,405.494L434.459,405.391L434.61,405.289L434.761,405.187L434.913,405.086L435.065,404.985L435.217,404.885L435.37,404.785L435.523,404.685L435.676,404.586L435.829,404.487L435.983,404.389L436.137,404.291L436.292,404.194L436.446,404.097L436.602,404.001L436.757,403.905L436.913,403.809L437.069,403.714L437.225,403.619L437.382,403.525L437.539,403.431L437.696,403.338L437.853,403.245L438.011,403.153L438.169,403.061L438.328,402.969L438.487,402.878L438.646,402.788L438.805,402.697L438.965,402.608L439.125,402.518L439.285,402.43L439.446,402.341L439.606,402.254L439.768,402.166L439.929,402.079L440.091,401.993L440.253,401.907L440.415,401.821L440.578,401.736L440.741,401.652L440.904,401.568L441.067,401.484L441.231,401.401L441.395,401.318L441.56,401.236L441.724,401.154L441.889,401.073L442.054,400.992L442.22,400.912L442.386,400.832L442.552,400.753L442.718,400.674L442.885,400.596L443.052,400.518L443.219,400.44L443.387,400.363L443.554,400.287L443.722,400.211L443.891,400.135L444.059,400.06L444.228,399.986L444.397,399.912L444.567,399.838L444.736,399.765L444.906,399.693L445.077,399.621L445.247,399.549L445.418,399.478L445.589,399.408L445.76,399.338L445.932,399.268L446.104,399.199L446.276,399.13L446.448,399.062L446.621,398.995L446.793,398.928L446.967,398.861L447.14,398.795L447.314,398.729L447.488,398.664L447.662,398.6L447.836,398.536L448.011,398.472L448.186,398.409L448.361,398.347L448.537,398.285L448.712,398.223L448.888,398.162L449.065,398.102L449.241,398.042L449.418,397.982L449.595,397.923L449.772,397.865L449.95,397.807L450.127,397.75L450.305,397.693L450.484,397.637L450.662,397.581L450.841,397.526L451.02,397.471L451.199,397.417L451.379,397.363L451.558,397.31L451.738,397.257L451.918,397.205L452.099,397.153L452.279,397.102L452.46,397.052L452.642,397.002L452.823,396.953L453.005,396.904L453.186,396.855L453.368,396.807L453.551,396.76L453.733,396.713L453.916,396.667L454.099,396.621L454.283,396.576L454.466,396.532L454.65,396.488L454.834,396.444L455.018,396.401L455.202,396.359L455.387,396.317L455.572,396.276L455.757,396.235L455.942,396.195L456.128,396.155L456.314,396.116L456.499,396.077L456.686,396.039L456.872,396.002L457.059,395.965L457.246,395.929L457.433,395.893L457.62,395.858L457.808,395.823L457.995,395.789L458.183,395.756L458.371,395.723L458.56,395.69L458.748,395.658L458.937,395.627L459.126,395.596L459.316,395.566L459.505,395.537L459.695,395.508L459.884,395.479L460.075,395.452L460.265,395.424L460.455,395.398L460.646,395.372L460.837,395.346L461.028,395.321L461.219,395.297L461.411,395.273L461.603,395.25L461.795,395.227L461.987,395.205L462.179,395.184L462.372,395.163L462.564,395.142L462.757,395.123L462.951,395.104L463.144,395.085L463.338,395.067L463.531,395.05L463.725,395.033L463.919,395.017L464.114,395.001L464.308,394.986L464.503,394.972L464.698,394.958L464.893,394.945L465.088,394.933L465.284,394.921L465.479,394.909L465.675,394.899L465.871,394.888L466.068,394.879L466.264,394.87L466.461,394.862L466.657,394.854L466.855,394.847L467.052,394.84L467.249,394.834L467.447,394.829L467.644,394.824L467.842,394.82L468.04,394.817L468.239,394.814L468.437,394.812L468.636,394.811L468.835,394.81L469.034,394.809L469.233,394.81L469.431,394.811L469.63,394.812L469.829,394.814L470.028,394.817L470.226,394.82L470.425,394.825L470.623,394.829L470.821,394.834L471.019,394.84L471.217,394.847L471.415,394.854L471.613,394.862L471.811,394.87L472.008,394.879L472.206,394.889L472.403,394.899L472.6,394.91L472.797,394.921L472.995,394.933L473.191,394.946L473.388,394.959L473.585,394.973L473.781,394.988L473.978,395.003L474.174,395.018L474.37,395.035L474.567,395.052L474.763,395.069L474.958,395.087L475.154,395.106L475.35,395.125L475.545,395.145L475.741,395.166L475.936,395.187L476.131,395.209L476.326,395.231L476.521,395.254L476.716,395.278L476.91,395.302L477.105,395.327L477.299,395.352L477.494,395.378L477.688,395.405L477.882,395.432L478.076,395.46L478.269,395.488L478.463,395.517L478.656,395.546L478.85,395.577L479.043,395.607L479.236,395.639L479.429,395.671L479.622,395.703L479.815,395.736L480.007,395.77L480.2,395.804L480.392,395.839L480.584,395.875L480.776,395.911L480.968,395.948L481.16,395.985L481.352,396.023L481.543,396.061L481.734,396.1L481.926,396.14L482.117,396.18L482.308,396.221L482.498,396.262L482.689,396.304L482.88,396.347L483.07,396.39L483.26,396.434L483.45,396.478L483.64,396.523L483.83,396.569L484.02,396.615L484.209,396.661L484.399,396.709L484.588,396.756L484.777,396.805L484.966,396.854L485.155,396.903L485.343,396.954L485.532,397.004L485.72,397.056L485.908,397.108L486.096,397.16L486.284,397.213L486.472,397.267L486.659,397.321L486.847,397.376L487.034,397.431L487.221,397.487L487.408,397.544L487.595,397.601L487.782,397.659L487.968,397.717L488.154,397.776L488.34,397.835L488.526,397.895L488.712,397.956L488.898,398.017L489.083,398.079L489.269,398.141L489.454,398.204L489.639,398.267L489.824,398.332L490.009,398.396L490.193,398.461L490.378,398.527L490.562,398.593L490.746,398.66L490.93,398.728L491.114,398.796L491.297,398.865L491.481,398.934L491.664,399.004L491.847,399.074L492.03,399.145L492.212,399.217L492.395,399.289L492.577,399.361L492.76,399.435L492.942,399.508L493.123,399.583L493.305,399.658L493.486,399.733L493.668,399.809L493.849,399.886L494.03,399.963L494.211,400.041L494.391,400.119L494.572,400.198L494.752,400.278L494.932,400.358L495.112,400.439L495.292,400.52L495.471,400.602L495.65,400.684L495.83,400.767L496.009,400.851L496.187,400.935L496.366,401.019L496.544,401.104L496.722,401.19L496.9,401.277L497.078,401.364L497.256,401.451L497.433,401.539L497.611,401.628L497.787,401.717L497.964,401.807L498.141,401.897L498.317,401.988L498.494,402.079L498.67,402.172L498.845,402.264L499.021,402.357L499.197,402.451L499.372,402.545L499.547,402.64L499.722,402.736L499.896,402.832L500.071,402.928L500.245,403.025L500.419,403.123L500.592,403.221L500.766,403.32L500.939,403.419L501.112,403.519L501.285,403.62L501.458,403.721L501.63,403.823L501.803,403.925L501.975,404.028L502.146,404.131L502.318,404.235L502.489,404.339L502.661,404.444L502.831,404.55L503.002,404.656L503.172,404.763L503.343,404.87L503.513,404.978L503.682,405.086L503.851,405.195L504.021,405.305L504.19,405.415L504.358,405.525L504.527,405.636L504.695,405.748L504.863,405.86L505.031,405.973L505.198,406.087L505.365,406.2L505.533,406.315L505.699,406.43L505.866,406.546L506.032,406.662L506.198,406.778L506.363,406.896L506.529,407.013L506.694,407.132L506.859,407.25L507.023,407.37L507.188,407.49L507.352,407.61L507.516,407.731L507.679,407.853L507.842,407.975L508.005,408.098L508.167,408.221L508.33,408.345L508.492,408.469L508.654,408.594L508.815,408.719L508.976,408.845L509.137,408.971L509.298,409.098L509.458,409.226L509.618,409.354L509.777,409.482L509.936,409.611L510.096,409.741L510.254,409.871L510.413,410.001L510.571,410.133L510.728,410.264L510.886,410.396L511.043,410.529L511.199,410.662L511.356,410.796L511.512,410.93L511.667,411.065L511.823,411.2L511.978,411.336L512.133,411.472L512.287,411.609L512.441,411.746L512.594,411.884L512.748,412.022L512.9,412.161L513.053,412.3L513.205,412.439L513.357,412.58L513.508,412.72L513.659,412.862L513.81,413.003L513.96,413.145L514.11,413.288L514.26,413.431L514.409,413.574L514.558,413.718L514.706,413.863L514.843,413.998L515.717,414.973L516.431,416.024L516.938,417.079L517.203,418.067L517.207,418.919L516.951,419.579L516.453,420L515.745,420.155L514.876,420.032L513.906,419.64L512.9,419.006L511.927,418.173L511.81,418.059L511.704,417.955L511.597,417.851L511.49,417.748L511.382,417.645L511.274,417.542L511.166,417.44L511.057,417.338L510.949,417.236L510.839,417.135L510.73,417.033L510.62,416.932L510.509,416.832L510.398,416.731L510.287,416.631L510.176,416.531L510.064,416.432L509.952,416.332L509.84,416.233L509.727,416.135L509.614,416.036L509.5,415.938L509.387,415.84L509.272,415.742L509.158,415.645L509.043,415.548L508.927,415.451L508.812,415.354L508.696,415.258L508.58,415.162L508.463,415.066L508.346,414.971L508.228,414.876L508.11,414.781L507.992,414.686L507.873,414.592L507.755,414.498L507.635,414.404L507.516,414.311L507.396,414.218L507.275,414.125L507.155,414.032L507.034,413.94L506.912,413.848L506.79,413.756L506.668,413.665L506.545,413.573L506.422,413.482L506.299,413.392L506.175,413.301L506.051,413.211L505.927,413.122L505.802,413.032L505.677,412.943L505.551,412.854L505.425,412.766L505.299,412.678L505.172,412.589L505.045,412.502L504.918,412.415L504.79,412.327L504.662,412.241L504.533,412.154L504.404,412.068L504.275,411.982L504.145,411.897L504.015,411.811L503.885,411.727L503.754,411.642L503.623,411.558L503.491,411.474L503.36,411.39L503.227,411.307L503.095,411.224L502.962,411.141L502.828,411.058L502.695,410.976L502.56,410.895L502.426,410.813L502.291,410.732L502.156,410.651L502.021,410.571L501.884,410.491L501.748,410.411L501.612,410.331L501.475,410.252L501.337,410.174L501.199,410.095L501.061,410.017L500.923,409.939L500.784,409.862L500.645,409.785L500.505,409.708L500.365,409.632L500.225,409.555L500.084,409.48L499.943,409.404L499.802,409.329L499.66,409.255L499.518,409.18L499.376,409.107L499.233,409.033L499.09,408.96L498.946,408.887L498.802,408.814L498.658,408.742L498.513,408.67L498.369,408.599L498.223,408.528L498.078,408.458L497.932,408.387L497.785,408.317L497.639,408.248L497.492,408.179L497.344,408.11L497.197,408.042L497.049,407.973L496.9,407.906L496.752,407.839L496.603,407.772L496.453,407.705L496.304,407.639L496.153,407.574L496.003,407.508L495.852,407.443L495.701,407.379L495.55,407.315L495.398,407.251L495.246,407.188L495.094,407.125L494.941,407.063L494.788,407L494.634,406.939L494.481,406.878L494.327,406.817L494.172,406.756L494.018,406.696L493.863,406.637L493.707,406.578L493.552,406.519L493.396,406.461L493.24,406.403L493.083,406.345L492.926,406.288L492.769,406.232L492.612,406.175L492.454,406.12L492.295,406.064L492.137,406.009L491.978,405.955L491.819,405.901L491.66,405.847L491.5,405.794L491.34,405.741L491.18,405.689L491.02,405.637L490.859,405.586L490.698,405.535L490.536,405.485L490.374,405.435L490.212,405.385L490.05,405.336L489.888,405.287L489.725,405.239L489.561,405.191L489.398,405.144L489.234,405.097L489.07,405.051L488.906,405.005L488.741,404.96L488.576,404.915L488.411,404.87L488.245,404.826L488.08,404.783L487.914,404.74L487.747,404.697L487.581,404.655L487.414,404.613L487.247,404.572L487.08,404.531L486.912,404.491L486.744,404.452L486.576,404.412L486.407,404.374L486.239,404.335L486.07,404.298L485.9,404.26L485.731,404.224L485.561,404.187L485.391,404.151L485.221,404.116L485.05,404.081L484.879,404.047L484.708,404.013L484.537,403.98L484.366,403.947L484.194,403.915L484.022,403.883L483.85,403.852L483.677,403.821L483.504,403.791L483.331,403.761L483.158,403.732L482.984,403.703L482.811,403.675L482.637,403.647L482.462,403.62L482.288,403.593L482.113,403.567L481.938,403.542L481.763,403.517L481.588,403.492L481.412,403.468L481.236,403.444L481.06,403.421L480.884,403.399L480.708,403.377L480.531,403.356L480.354,403.335L480.177,403.314L479.999,403.295L479.821,403.275L479.644,403.257L479.466,403.239L479.287,403.221L479.109,403.204L478.93,403.187L478.751,403.171L478.572,403.156L478.393,403.141L478.213,403.127L478.033,403.113L477.853,403.099L477.673,403.087L477.493,403.075L477.312,403.063L477.132,403.052L476.951,403.041L476.769,403.031L476.588,403.022L476.407,403.013L476.225,403.005L476.043,402.997L475.861,402.99L475.678,402.984L475.496,402.978L475.313,402.972L475.13,402.967L474.947,402.963L474.764,402.959L474.58,402.956L474.397,402.953L474.213,402.951L474.029,402.95L473.844,402.949L473.66,402.949L473.476,402.949L473.291,402.95L473.107,402.951L472.923,402.953L472.739,402.956L472.555,402.959L472.371,402.963L472.188,402.967L472.004,402.972L471.821,402.978L471.637,402.984L471.454,402.99L471.271,402.997L471.088,403.005L470.905,403.013L470.722,403.022L470.539,403.032L470.357,403.042L470.174,403.052L469.992,403.064L469.81,403.075L469.628,403.088L469.446,403.1L469.264,403.114L469.082,403.128L468.901,403.142L468.719,403.157L468.538,403.173L468.357,403.189L468.176,403.206L467.995,403.223L467.814,403.241L467.634,403.26L467.453,403.279L467.273,403.298L467.093,403.318L466.913,403.339L466.733,403.36L466.553,403.382L466.373,403.404L466.194,403.427L466.014,403.451L465.835,403.475L465.656,403.499L465.477,403.524L465.299,403.55L465.12,403.576L464.941,403.603L464.763,403.63L464.585,403.658L464.407,403.686L464.229,403.715L464.052,403.744L463.874,403.774L463.697,403.805L463.52,403.836L463.343,403.867L463.166,403.899L462.989,403.932L462.813,403.965L462.636,403.999L462.46,404.033L462.284,404.068L462.108,404.103L461.932,404.139L461.757,404.175L461.581,404.212L461.406,404.25L461.231,404.288L461.057,404.326L460.882,404.365L460.708,404.405L460.533,404.445L460.359,404.485L460.185,404.527L460.011,404.568L459.838,404.61L459.665,404.653L459.491,404.696L459.318,404.74L459.146,404.784L458.973,404.829L458.801,404.874L458.628,404.92L458.456,404.966L458.284,405.013L458.113,405.061L457.941,405.109L457.77,405.157L457.599,405.206L457.428,405.255L457.258,405.305L457.087,405.356L456.917,405.406L456.747,405.458L456.577,405.51L456.407,405.562L456.238,405.615L456.069,405.669L455.9,405.723L455.731,405.777L455.562,405.832L455.394,405.888L455.226,405.944L455.058,406L454.89,406.057L454.722,406.115L454.555,406.173L454.388,406.231L454.221,406.29L454.054,406.349L453.888,406.409L453.722,406.47L453.556,406.531L453.39,406.592L453.224,406.654L453.059,406.717L452.894,406.779L452.729,406.843L452.564,406.907L452.4,406.971L452.236,407.036L452.072,407.101L451.908,407.167L451.745,407.233L451.581,407.3L451.418,407.367L451.256,407.435L451.093,407.503L450.931,407.572L450.769,407.641L450.607,407.711L450.445,407.781L450.284,407.852L450.123,407.923L449.962,407.994L449.801,408.066L449.641,408.139L449.481,408.212L449.321,408.285L449.161,408.359L449.002,408.434L448.843,408.508L448.684,408.584L448.525,408.659L448.367,408.736L448.209,408.812L448.051,408.89L447.893,408.967L447.736,409.045L447.579,409.124L447.422,409.203L447.266,409.282L447.109,409.362L446.953,409.443L446.798,409.523L446.642,409.605L446.487,409.687L446.332,409.769L446.177,409.851L446.023,409.934L445.869,410.018L445.715,410.102L445.561,410.187L445.408,410.271L445.255,410.357L445.102,410.443L444.95,410.529L444.797,410.616L444.645,410.703L444.494,410.79L444.342,410.878L444.191,410.967L444.04,411.056L443.89,411.145L443.74,411.235L443.59,411.325L443.44,411.416L443.29,411.507L443.141,411.598L442.993,411.69L442.844,411.783L442.696,411.875L442.548,411.969L442.4,412.062L442.253,412.157L442.106,412.251L441.959,412.346L441.812,412.441L441.666,412.537L441.52,412.633L441.375,412.73L441.229,412.827L441.084,412.925L440.94,413.023L440.795,413.121L440.651,413.22L440.507,413.319L440.364,413.419L440.221,413.519L440.078,413.619L439.935,413.72L439.793,413.821L439.651,413.923L439.51,414.025L439.368,414.128L439.227,414.231L439.087,414.334L438.946,414.438L438.806,414.542L438.667,414.646L438.527,414.751L438.388,414.857L438.249,414.963L438.111,415.069L437.973,415.175L437.835,415.282L437.697,415.39L437.56,415.497L437.424,415.606L437.287,415.714L437.151,415.823L437.015,415.933L436.88,416.042L436.744,416.153L436.609,416.263L436.475,416.374L436.341,416.485L436.207,416.597L436.073,416.709L435.94,416.822L435.807,416.935L435.675,417.048L435.543,417.162L435.411,417.276L435.279,417.39L435.148,417.505L435.018,417.62L434.887,417.736L434.757,417.852L434.627,417.968L434.498,418.085L434.369,418.202L434.24,418.319L434.112,418.437L433.984,418.555L433.856,418.674L433.729,418.793L433.602,418.912L433.475,419.032L433.349,419.152L433.223,419.273L433.097,419.393L432.972,419.515L432.847,419.636L432.722,419.759L432.143,420.087L431.371,420.142L430.459,419.921L429.468,419.438L428.466,418.727L427.522,417.836L426.699,416.825L426.054,415.764L425.631,414.725L425.459,413.779L425.549,412.989L425.895,412.411L426.023,412.285Z" style="fill:white;"/>
                    </g>
                    <g transform="matrix(1,0,0,1,183.064,18.621)">
                        <path d="M413.686,399.877L413.854,399.714L414.021,399.551L414.19,399.388L414.359,399.226L414.528,399.064L414.698,398.903L414.868,398.742L415.039,398.582L415.21,398.423L415.382,398.263L415.554,398.105L415.726,397.947L415.899,397.789L416.073,397.632L416.247,397.475L416.422,397.319L416.597,397.163L416.772,397.008L416.948,396.854L417.124,396.7L417.301,396.546L417.478,396.393L417.656,396.241L417.834,396.088L418.013,395.937L418.192,395.786L418.372,395.636L418.552,395.486L418.732,395.336L418.913,395.187L419.094,395.039L419.276,394.891L419.458,394.744L419.641,394.597L419.824,394.451L420.008,394.305L420.192,394.16L420.377,394.016L420.561,393.872L420.747,393.728L420.933,393.585L421.119,393.442L421.306,393.301L421.493,393.159L421.68,393.018L421.868,392.878L422.057,392.738L422.246,392.599L422.435,392.46L422.625,392.322L422.815,392.185L423.005,392.048L423.196,391.911L423.388,391.775L423.58,391.64L423.772,391.505L423.965,391.371L424.158,391.237L424.351,391.104L424.545,390.972L424.74,390.84L424.934,390.708L425.13,390.577L425.325,390.447L425.521,390.317L425.718,390.188L425.915,390.059L426.112,389.931L426.309,389.804L426.508,389.677L426.706,389.551L426.905,389.425L427.104,389.3L427.304,389.175L427.504,389.051L427.705,388.928L427.905,388.805L428.107,388.682L428.308,388.561L428.511,388.44L428.713,388.319L428.916,388.199L429.119,388.08L429.323,387.961L429.527,387.843L429.731,387.725L429.936,387.608L430.141,387.492L430.347,387.376L430.553,387.261L430.759,387.146L430.966,387.032L431.173,386.918L431.381,386.806L431.589,386.693L431.797,386.582L432.006,386.471L432.215,386.36L432.424,386.25L432.634,386.141L432.844,386.033L433.055,385.925L433.266,385.817L433.477,385.71L433.689,385.604L433.901,385.499L434.113,385.394L434.326,385.289L434.539,385.186L434.752,385.083L434.966,384.98L435.181,384.878L435.395,384.777L435.61,384.676L435.825,384.577L436.041,384.477L436.257,384.378L436.473,384.28L436.69,384.183L436.907,384.086L437.125,383.99L437.342,383.894L437.561,383.799L437.779,383.705L437.998,383.611L438.217,383.518L438.437,383.426L438.656,383.334L438.877,383.243L439.097,383.152L439.318,383.063L439.539,382.973L439.761,382.885L439.983,382.797L440.205,382.71L440.428,382.623L440.651,382.537L440.874,382.452L441.098,382.367L441.322,382.283L441.546,382.2L441.77,382.117L441.995,382.035L442.221,381.954L442.446,381.873L442.672,381.793L442.898,381.714L443.125,381.635L443.352,381.557L443.579,381.48L443.807,381.403L444.034,381.327L444.263,381.251L444.491,381.177L444.72,381.103L444.949,381.029L445.178,380.957L445.408,380.885L445.638,380.813L445.869,380.743L446.099,380.673L446.33,380.603L446.562,380.535L446.793,380.467L447.025,380.399L447.257,380.333L447.49,380.267L447.723,380.202L447.956,380.137L448.189,380.074L448.423,380.01L448.657,379.948L448.891,379.886L449.126,379.825L449.361,379.765L449.596,379.705L449.832,379.646L450.068,379.588L450.304,379.531L450.54,379.474L450.777,379.418L451.014,379.362L451.251,379.307L451.489,379.253L451.727,379.2L451.965,379.148L452.203,379.096L452.442,379.045L452.681,378.994L452.92,378.944L453.16,378.895L453.4,378.847L453.64,378.799L453.88,378.753L454.121,378.706L454.362,378.661L454.603,378.616L454.845,378.572L455.086,378.529L455.328,378.487L455.571,378.445L455.813,378.404L456.056,378.364L456.299,378.324L456.543,378.285L456.786,378.247L457.03,378.21L457.275,378.173L457.519,378.137L457.764,378.102L458.009,378.068L458.254,378.034L458.499,378.001L458.745,377.969L458.991,377.937L459.238,377.907L459.484,377.877L459.731,377.848L459.978,377.819L460.225,377.792L460.473,377.765L460.721,377.739L460.969,377.713L461.217,377.689L461.466,377.665L461.714,377.642L461.963,377.619L462.213,377.598L462.462,377.577L462.712,377.557L462.962,377.538L463.212,377.519L463.463,377.501L463.714,377.484L463.965,377.468L464.216,377.453L464.467,377.438L464.719,377.424L464.971,377.411L465.223,377.399L465.476,377.387L465.728,377.377L465.981,377.367L466.234,377.358L466.488,377.349L466.741,377.342L466.995,377.335L467.249,377.329L467.503,377.324L467.758,377.319L468.012,377.316L468.267,377.313L468.523,377.311L468.778,377.31L469.034,377.309L469.289,377.31L469.545,377.311L469.8,377.313L470.055,377.316L470.31,377.319L470.565,377.324L470.82,377.329L471.075,377.335L471.329,377.342L471.583,377.349L471.837,377.358L472.092,377.367L472.346,377.377L472.599,377.388L472.853,377.399L473.106,377.412L473.359,377.425L473.612,377.439L473.865,377.453L474.118,377.469L474.371,377.485L474.623,377.502L474.875,377.52L475.128,377.539L475.38,377.558L475.631,377.578L475.883,377.599L476.134,377.621L476.386,377.644L476.637,377.667L476.888,377.691L477.139,377.716L477.389,377.742L477.64,377.768L477.89,377.795L478.14,377.823L478.39,377.852L478.64,377.881L478.889,377.912L479.139,377.943L479.388,377.975L479.637,378.007L479.886,378.041L480.135,378.075L480.383,378.11L480.632,378.145L480.88,378.182L481.128,378.219L481.376,378.257L481.623,378.296L481.871,378.335L482.118,378.375L482.365,378.416L482.612,378.458L482.858,378.501L483.105,378.544L483.351,378.588L483.597,378.633L483.843,378.678L484.089,378.725L484.334,378.772L484.58,378.819L484.825,378.868L485.07,378.917L485.315,378.967L485.559,379.018L485.803,379.07L486.048,379.122L486.292,379.175L486.535,379.229L486.779,379.284L487.022,379.339L487.265,379.395L487.508,379.452L487.751,379.509L487.993,379.568L488.236,379.627L488.478,379.686L488.72,379.747L488.962,379.808L489.203,379.87L489.444,379.933L489.685,379.997L489.926,380.061L490.167,380.126L490.407,380.191L490.648,380.258L490.888,380.325L491.127,380.393L491.367,380.462L491.606,380.531L491.845,380.601L492.083,380.672L492.204,380.708L492.323,380.744L492.442,380.78L492.561,380.816L492.681,380.852L492.799,380.889L492.919,380.926L493.038,380.963L493.156,381L493.275,381.037L493.394,381.075L493.513,381.113L493.632,381.151L493.75,381.189L493.869,381.227L493.988,381.265L494.106,381.304L494.224,381.343L494.343,381.382L494.461,381.421L494.579,381.46L494.697,381.5L494.815,381.54L494.934,381.58L495.051,381.62L495.17,381.66L495.288,381.7L495.405,381.741L495.523,381.782L495.641,381.823L495.758,381.864L495.876,381.905L495.994,381.947L496.111,381.989L496.228,382.031L496.346,382.073L496.463,382.115L496.58,382.157L496.698,382.2L496.815,382.243L496.932,382.286L497.049,382.329L497.166,382.372L497.283,382.416L497.4,382.46L497.516,382.504L497.633,382.548L497.749,382.592L497.866,382.636L497.983,382.681L498.1,382.726L498.216,382.771L498.332,382.816L498.448,382.861L498.565,382.907L498.681,382.953L498.797,382.998L498.913,383.044L499.029,383.091L499.145,383.137L499.261,383.184L499.376,383.23L499.492,383.277L499.608,383.325L499.723,383.372L499.839,383.419L499.955,383.467L500.07,383.515L500.185,383.563L500.301,383.611L500.416,383.66L500.531,383.708L500.646,383.757L500.761,383.806L500.876,383.855L500.991,383.904L501.106,383.954L501.221,384.004L501.335,384.053L501.45,384.103L501.565,384.154L501.679,384.204L501.794,384.254L501.908,384.305L502.022,384.356L502.137,384.407L502.251,384.458L502.365,384.51L502.479,384.562L502.593,384.613L502.707,384.665L502.821,384.717L502.935,384.77L503.048,384.822L503.162,384.875L503.276,384.928L503.389,384.981L503.502,385.034L503.616,385.088L503.73,385.141L503.843,385.195L503.956,385.249L504.069,385.303L504.182,385.357L504.295,385.412L504.408,385.466L504.521,385.521L504.634,385.576L504.746,385.631L504.859,385.687L504.972,385.742L505.085,385.798L505.197,385.854L505.309,385.91L505.422,385.966L505.534,386.022L505.646,386.079L505.758,386.136L505.871,386.193L505.982,386.25L506.094,386.307L506.206,386.365L506.318,386.422L506.429,386.48L506.541,386.538L506.653,386.596L506.764,386.655L506.876,386.713L506.987,386.772L507.098,386.831L507.209,386.89L507.32,386.949L507.431,387.008L507.542,387.068L507.654,387.128L507.764,387.188L507.875,387.248L507.986,387.308L508.097,387.369L508.207,387.429L508.317,387.49L508.428,387.551L508.538,387.612L508.648,387.674L508.759,387.735L508.869,387.797L508.979,387.859L509.088,387.921L509.198,387.983L509.308,388.046L509.418,388.108L509.528,388.171L509.638,388.234L509.747,388.297L509.856,388.36L509.966,388.424L510.075,388.487L510.184,388.551L510.293,388.615L510.402,388.679L510.511,388.743L510.62,388.808L510.729,388.873L510.837,388.937L510.946,389.002L511.055,389.068L511.163,389.133L511.272,389.198L511.38,389.264L511.489,389.33L511.596,389.396L511.704,389.462L511.813,389.529L511.921,389.595L512.028,389.662L512.136,389.729L512.244,389.796L512.352,389.863L512.459,389.931L512.567,389.998L512.674,390.066L512.781,390.134L512.888,390.202L512.996,390.271L513.103,390.339L513.21,390.408L513.316,390.476L513.423,390.546L513.53,390.615L513.637,390.684L513.743,390.753L513.85,390.823L513.956,390.893L514.062,390.963L514.168,391.033L514.275,391.103L514.381,391.174L514.487,391.245L514.593,391.316L514.698,391.387L514.804,391.458L514.91,391.529L515.015,391.601L515.121,391.673L515.226,391.745L515.331,391.817L515.436,391.889L515.542,391.961L515.646,392.034L515.751,392.106L515.856,392.179L515.961,392.253L516.066,392.326L516.17,392.399L516.275,392.473L516.379,392.546L516.484,392.621L516.588,392.695L516.692,392.769L516.796,392.843L516.9,392.918L517.003,392.992L517.107,393.068L517.211,393.143L517.314,393.218L517.418,393.293L517.521,393.369L517.625,393.445L517.728,393.521L517.831,393.597L517.934,393.673L518.037,393.75L518.14,393.826L518.242,393.903L518.345,393.98L518.447,394.057L518.55,394.134L518.652,394.212L518.754,394.289L518.857,394.367L518.959,394.445L519.061,394.523L519.162,394.601L519.264,394.68L519.366,394.758L519.467,394.837L519.569,394.916L519.67,394.995L519.771,395.074L519.873,395.154L519.974,395.233L520.074,395.313L520.175,395.393L520.276,395.473L520.377,395.553L520.477,395.633L520.578,395.714L520.678,395.795L520.778,395.875L520.878,395.957L520.978,396.038L521.078,396.119L521.178,396.201L521.278,396.282L521.377,396.364L521.477,396.446L521.576,396.528L521.675,396.61L521.775,396.693L521.874,396.776L521.973,396.859L522.072,396.942L522.17,397.024L522.269,397.108L522.368,397.191L522.466,397.275L522.564,397.358L522.662,397.442L522.761,397.526L522.859,397.611L522.956,397.695L523.054,397.779L523.152,397.864L523.249,397.949L523.347,398.034L523.444,398.119L523.541,398.204L523.638,398.29L523.735,398.376L523.832,398.461L523.929,398.547L524.026,398.633L524.122,398.72L524.218,398.806L524.315,398.892L524.411,398.979L524.507,399.066L524.603,399.153L524.699,399.24L524.794,399.327L524.89,399.415L524.985,399.502L525.081,399.59L525.176,399.678L525.271,399.766L525.366,399.854L525.461,399.943L525.556,400.031L525.651,400.12L525.745,400.209L525.839,400.297L525.934,400.386L526.028,400.476L526.122,400.565L526.216,400.655L526.309,400.744L526.403,400.834L526.497,400.924L526.59,401.014L526.683,401.104L526.777,401.195L526.87,401.286L526.962,401.376L527.055,401.467L527.148,401.558L527.235,401.644L528.106,402.621L528.816,403.673L529.318,404.728L529.578,405.713L529.577,406.563L529.316,407.217L528.812,407.634L528.101,407.782L527.229,407.654L526.258,407.257L525.252,406.618L524.281,405.782L524.204,405.706L524.132,405.635L524.06,405.565L523.988,405.495L523.916,405.425L523.844,405.355L523.771,405.285L523.699,405.214L523.627,405.145L523.554,405.075L523.481,405.006L523.408,404.936L523.335,404.867L523.262,404.798L523.189,404.729L523.116,404.659L523.042,404.59L522.969,404.521L522.895,404.453L522.821,404.384L522.747,404.315L522.673,404.247L522.599,404.178L522.525,404.11L522.451,404.042L522.377,403.974L522.302,403.906L522.227,403.838L522.152,403.77L522.077,403.702L522.003,403.635L521.928,403.568L521.852,403.5L521.777,403.433L521.701,403.365L521.625,403.298L521.55,403.231L521.474,403.164L521.398,403.098L521.322,403.031L521.246,402.964L521.17,402.898L521.093,402.831L521.017,402.765L520.94,402.699L520.863,402.632L520.787,402.566L520.71,402.5L520.633,402.435L520.556,402.369L520.478,402.303L520.401,402.238L520.323,402.172L520.245,402.107L520.168,402.041L520.09,401.976L520.012,401.911L519.934,401.847L519.856,401.782L519.777,401.717L519.699,401.652L519.62,401.588L519.541,401.523L519.462,401.459L519.384,401.395L519.305,401.33L519.226,401.266L519.146,401.202L519.067,401.138L518.987,401.075L518.908,401.011L518.828,400.947L518.748,400.884L518.668,400.821L518.588,400.757L518.508,400.694L518.428,400.631L518.347,400.568L518.266,400.505L518.186,400.443L518.105,400.38L518.024,400.317L517.943,400.255L517.862,400.193L517.781,400.13L517.699,400.068L517.618,400.006L517.536,399.944L517.454,399.882L517.373,399.821L517.291,399.759L517.209,399.698L517.126,399.636L517.044,399.575L516.961,399.513L516.879,399.453L516.797,399.391L516.714,399.33L516.631,399.27L516.548,399.209L516.465,399.148L516.381,399.088L516.298,399.027L516.215,398.967L516.131,398.907L516.047,398.847L515.964,398.787L515.88,398.727L515.795,398.667L515.711,398.608L515.627,398.548L515.543,398.489L515.458,398.429L515.373,398.37L515.289,398.311L515.204,398.252L515.119,398.193L515.034,398.134L514.949,398.075L514.863,398.017L514.778,397.958L514.692,397.9L514.606,397.841L514.52,397.783L514.435,397.725L514.349,397.667L514.262,397.609L514.176,397.552L514.09,397.494L514.003,397.437L513.917,397.379L513.83,397.322L513.743,397.264L513.656,397.207L513.569,397.151L513.482,397.094L513.394,397.037L513.307,396.98L513.22,396.924L513.132,396.867L513.044,396.811L512.956,396.754L512.868,396.698L512.78,396.642L512.692,396.587L512.603,396.531L512.515,396.475L512.426,396.42L512.338,396.364L512.249,396.309L512.16,396.254L512.071,396.198L511.982,396.144L511.893,396.089L511.803,396.034L511.713,395.979L511.624,395.925L511.534,395.87L511.444,395.816L511.354,395.762L511.264,395.708L511.174,395.654L511.084,395.6L510.993,395.546L510.903,395.493L510.812,395.439L510.721,395.386L510.63,395.332L510.539,395.279L510.448,395.226L510.357,395.173L510.266,395.12L510.174,395.067L510.083,395.015L509.991,394.963L509.899,394.91L509.808,394.858L509.716,394.806L509.623,394.754L509.531,394.702L509.439,394.65L509.347,394.599L509.254,394.547L509.161,394.496L509.069,394.445L508.975,394.393L508.882,394.342L508.789,394.291L508.696,394.241L508.603,394.19L508.509,394.139L508.416,394.089L508.322,394.039L508.228,393.989L508.134,393.939L508.04,393.888L507.946,393.839L507.852,393.789L507.758,393.74L507.663,393.69L507.568,393.641L507.474,393.592L507.379,393.543L507.284,393.493L507.189,393.445L507.094,393.396L506.999,393.347L506.904,393.299L506.808,393.251L506.713,393.202L506.617,393.154L506.521,393.106L506.425,393.059L506.329,393.011L506.233,392.963L506.137,392.916L506.041,392.869L505.944,392.821L505.848,392.774L505.751,392.727L505.654,392.681L505.558,392.634L505.46,392.587L505.364,392.541L505.266,392.495L505.169,392.448L505.072,392.402L504.975,392.357L504.876,392.311L504.779,392.265L504.681,392.22L504.583,392.174L504.485,392.129L504.387,392.084L504.289,392.039L504.19,391.994L504.092,391.949L503.993,391.905L503.895,391.86L503.796,391.816L503.697,391.772L503.598,391.728L503.499,391.684L503.4,391.64L503.301,391.596L503.201,391.553L503.102,391.51L503.002,391.466L502.903,391.423L502.803,391.38L502.703,391.337L502.603,391.295L502.503,391.252L502.403,391.21L502.303,391.167L502.202,391.125L502.101,391.083L502.001,391.041L501.9,390.999L501.8,390.958L501.699,390.916L501.598,390.875L501.497,390.834L501.395,390.793L501.294,390.752L501.192,390.711L501.091,390.67L500.99,390.63L500.888,390.589L500.786,390.549L500.684,390.509L500.582,390.469L500.48,390.429L500.378,390.39L500.275,390.35L500.173,390.311L500.071,390.272L499.968,390.233L499.865,390.193L499.762,390.155L499.659,390.116L499.556,390.077L499.453,390.039L499.351,390.001L499.247,389.963L499.144,389.925L499.04,389.887L498.937,389.849L498.833,389.812L498.729,389.774L498.625,389.737L498.521,389.7L498.417,389.663L498.313,389.626L498.209,389.589L498.105,389.553L498,389.517L497.896,389.48L497.791,389.444L497.686,389.408L497.582,389.373L497.477,389.337L497.372,389.301L497.267,389.266L497.161,389.231L497.056,389.196L496.951,389.161L496.846,389.126L496.74,389.092L496.634,389.057L496.528,389.023L496.423,388.989L496.317,388.955L496.211,388.921L496.105,388.887L495.998,388.854L495.892,388.82L495.786,388.787L495.679,388.754L495.573,388.721L495.466,388.688L495.359,388.655L495.252,388.623L495.146,388.591L495.039,388.558L494.933,388.527L494.717,388.463L494.502,388.4L494.287,388.337L494.072,388.276L493.856,388.214L493.639,388.154L493.423,388.094L493.206,388.035L492.989,387.976L492.771,387.918L492.553,387.861L492.335,387.804L492.116,387.748L491.897,387.692L491.678,387.637L491.458,387.583L491.239,387.529L491.018,387.477L490.798,387.424L490.577,387.373L490.355,387.322L490.134,387.271L489.912,387.221L489.69,387.172L489.467,387.124L489.244,387.076L489.021,387.029L488.797,386.983L488.574,386.937L488.349,386.892L488.125,386.847L487.9,386.803L487.675,386.76L487.45,386.718L487.224,386.676L486.998,386.635L486.772,386.594L486.545,386.555L486.318,386.515L486.091,386.477L485.863,386.439L485.636,386.402L485.408,386.366L485.179,386.33L484.95,386.295L484.721,386.261L484.492,386.227L484.263,386.194L484.033,386.162L483.803,386.13L483.572,386.099L483.342,386.069L483.111,386.04L482.879,386.011L482.648,385.983L482.416,385.955L482.184,385.929L481.952,385.903L481.719,385.877L481.486,385.853L481.253,385.829L481.02,385.806L480.786,385.783L480.552,385.762L480.318,385.741L480.083,385.72L479.849,385.701L479.614,385.682L479.378,385.664L479.143,385.646L478.907,385.63L478.671,385.614L478.435,385.598L478.199,385.584L477.962,385.57L477.725,385.557L477.488,385.545L477.25,385.533L477.012,385.522L476.774,385.512L476.536,385.503L476.298,385.494L476.059,385.486L475.82,385.479L475.581,385.473L475.342,385.467L475.102,385.462L474.862,385.458L474.622,385.455L474.382,385.452L474.142,385.45L473.901,385.449L473.66,385.449L473.419,385.449L473.178,385.45L472.938,385.452L472.697,385.455L472.457,385.458L472.216,385.462L471.976,385.467L471.736,385.473L471.497,385.479L471.257,385.487L471.017,385.494L470.778,385.503L470.539,385.512L470.3,385.523L470.061,385.534L469.822,385.545L469.584,385.558L469.345,385.571L469.107,385.584L468.869,385.599L468.631,385.614L468.394,385.63L468.156,385.647L467.919,385.665L467.682,385.683L467.445,385.702L467.208,385.722L466.971,385.742L466.735,385.764L466.499,385.786L466.263,385.808L466.027,385.832L465.791,385.856L465.555,385.881L465.32,385.906L465.085,385.932L464.85,385.959L464.615,385.987L464.381,386.016L464.146,386.045L463.912,386.075L463.678,386.105L463.444,386.137L463.211,386.169L462.978,386.202L462.744,386.235L462.511,386.269L462.279,386.304L462.046,386.34L461.814,386.376L461.582,386.413L461.35,386.451L461.118,386.489L460.887,386.529L460.655,386.568L460.424,386.609L460.193,386.65L459.963,386.692L459.733,386.735L459.502,386.778L459.272,386.822L459.043,386.867L458.813,386.913L458.584,386.959L458.355,387.006L458.126,387.053L457.898,387.101L457.669,387.15L457.441,387.2L457.213,387.25L456.986,387.301L456.758,387.353L456.531,387.405L456.304,387.458L456.078,387.512L455.851,387.567L455.625,387.622L455.399,387.677L455.174,387.734L454.948,387.791L454.723,387.849L454.498,387.907L454.273,387.967L454.049,388.026L453.825,388.087L453.601,388.148L453.377,388.21L453.154,388.273L452.931,388.336L452.708,388.4L452.485,388.464L452.263,388.529L452.041,388.595L451.819,388.662L451.598,388.729L451.377,388.797L451.156,388.865L450.935,388.934L450.714,389.004L450.494,389.075L450.275,389.146L450.055,389.218L449.836,389.29L449.617,389.363L449.398,389.437L449.179,389.511L448.961,389.586L448.743,389.662L448.526,389.739L448.308,389.816L448.091,389.893L447.875,389.971L447.658,390.05L447.442,390.13L447.226,390.21L447.011,390.291L446.796,390.372L446.581,390.455L446.366,390.537L446.152,390.621L445.938,390.705L445.724,390.789L445.51,390.875L445.297,390.961L445.084,391.047L444.872,391.134L444.66,391.222L444.448,391.311L444.236,391.4L444.025,391.489L443.814,391.58L443.603,391.671L443.393,391.762L443.183,391.854L442.974,391.947L442.764,392.04L442.555,392.134L442.346,392.229L442.138,392.324L441.93,392.42L441.722,392.517L441.515,392.614L441.308,392.711L441.101,392.81L440.895,392.908L440.689,393.008L440.483,393.108L440.278,393.209L440.073,393.31L439.868,393.412L439.664,393.514L439.46,393.618L439.256,393.721L439.053,393.826L438.85,393.93L438.647,394.036L438.445,394.142L438.243,394.249L438.041,394.356L437.84,394.464L437.639,394.572L437.439,394.681L437.239,394.791L437.039,394.901L436.839,395.012L436.64,395.123L436.441,395.235L436.243,395.348L436.045,395.461L435.847,395.574L435.65,395.689L435.453,395.804L435.257,395.919L435.061,396.035L434.865,396.152L434.669,396.269L434.474,396.386L434.28,396.505L434.085,396.623L433.892,396.743L433.698,396.863L433.505,396.983L433.312,397.104L433.12,397.226L432.928,397.348L432.736,397.471L432.545,397.594L432.354,397.718L432.164,397.843L431.973,397.968L431.784,398.093L431.595,398.219L431.406,398.346L431.217,398.473L431.029,398.601L430.841,398.729L430.654,398.858L430.467,398.987L430.281,399.117L430.095,399.248L429.909,399.379L429.724,399.51L429.539,399.642L429.354,399.775L429.17,399.908L428.986,400.042L428.803,400.176L428.62,400.311L428.438,400.446L428.256,400.582L428.074,400.718L427.893,400.855L427.712,400.993L427.532,401.131L427.352,401.269L427.173,401.408L426.994,401.548L426.815,401.688L426.637,401.828L426.459,401.969L426.281,402.111L426.105,402.253L425.928,402.396L425.752,402.539L425.576,402.682L425.401,402.827L425.226,402.971L425.052,403.117L424.878,403.262L424.705,403.408L424.532,403.555L424.359,403.702L424.187,403.85L424.015,403.998L423.844,404.147L423.673,404.296L423.503,404.446L423.333,404.596L423.163,404.747L422.994,404.898L422.826,405.05L422.658,405.202L422.49,405.355L422.323,405.508L422.156,405.662L421.99,405.816L421.824,405.97L421.658,406.126L421.494,406.281L421.329,406.437L421.165,406.594L421.002,406.751L420.839,406.908L420.676,407.067L420.514,407.225L420.351,407.385L419.773,407.714L419.002,407.77L418.09,407.55L417.099,407.068L416.097,406.357L415.153,405.467L414.329,404.456L413.684,403.396L413.26,402.356L413.087,401.409L413.175,400.619L413.521,400.04L413.686,399.877Z" style="fill:white;"/>
                    </g>
                </g>
            </g>
        </g>
    </g>
    <defs>
        <linearGradient id="_Linear1" x1="0" y1="0" x2="1" y2="0" gradientUnits="userSpaceOnUse" gradientTransform="matrix(13.6845,0,0,5.43436,1424.81,1177.8)"><stop offset="0" style="stop-color:rgb(77,77,77);stop-opacity:1"/><stop offset="0.1" style="stop-color:rgb(46,46,46);stop-opacity:1"/><stop offset="0.21" style="stop-color:rgb(15,15,15);stop-opacity:1"/><stop offset="0.5" style="stop-color:black;stop-opacity:1"/><stop offset="0.78" style="stop-color:rgb(15,15,15);stop-opacity:1"/><stop offset="1" style="stop-color:rgb(77,77,77);stop-opacity:1"/></linearGradient>
    </defs>
</svg>
