<?xml version="1.0" encoding="UTF-8" standalone="no"?>
<!DOCTYPE svg PUBLIC "-//W3C//DTD SVG 1.1//EN" "http://www.w3.org/Graphics/SVG/1.1/DTD/svg11.dtd">
<svg width="100%" height="100%" viewBox="0 0 750 800" version="1.1" xmlns="http://www.w3.org/2000/svg" xmlns:xlink="http://www.w3.org/1999/xlink" xml:space="preserve" xmlns:serif="http://www.serif.com/" style="fill-rule:evenodd;clip-rule:evenodd;stroke-linejoin:round;stroke-miterlimit:2;">
    <g id="Elasticsearch" transform="matrix(12.2919,0,0,12.2919,-73.9153,-91.6769)">
        <g transform="matrix(1,0,0,1,8.042,40)">
            <path d="M0,0C0,2.768 0.388,5.438 1.049,8L40,8C44.418,8 48,4.418 48,0C48,-4.418 44.418,-8 40,-8L1.049,-8C0.388,-5.438 0,-2.768 0,0" style="fill:rgb(52,55,65);"/>
        </g>
        <g transform="matrix(1,0,0,1,61.8896,10.6772)">
            <path d="M0,12.646C1.116,11.617 2.158,10.509 3.11,9.323C-2.755,2.013 -11.748,-2.677 -21.848,-2.677C-34.489,-2.677 -45.37,4.677 -50.561,15.323L-6.826,15.323C-4.295,15.323 -1.859,14.363 0,12.646" style="fill:rgb(254,197,20);"/>
        </g>
        <g transform="matrix(1,0,0,1,55.0635,72)">
            <path d="M0,-18L-43.734,-18C-38.544,-7.354 -27.663,0 -15.021,0C-4.922,0 4.071,-4.69 9.937,-12C8.984,-13.187 7.942,-14.294 6.826,-15.323C4.967,-17.04 2.531,-18 0,-18" style="fill:rgb(0,191,179);"/>
        </g>
    </g>
</svg>
