<?xml version="1.0" encoding="UTF-8" standalone="no"?>
<!DOCTYPE svg PUBLIC "-//W3C//DTD SVG 1.1//EN" "http://www.w3.org/Graphics/SVG/1.1/DTD/svg11.dtd">
<svg width="100%" height="100%" viewBox="0 0 1280 800" version="1.1" xmlns="http://www.w3.org/2000/svg" xmlns:xlink="http://www.w3.org/1999/xlink" xml:space="preserve" xmlns:serif="http://www.serif.com/" style="fill-rule:evenodd;clip-rule:evenodd;stroke-linejoin:round;stroke-miterlimit:2;">
    <g id="OpenNMS-Minion-turned-on" serif:id="OpenNMS Minion turned on" transform="matrix(6.94863,0,0,6.94863,-2619.32,-2036.52)">
        <g id="Server">
            <g id="Chassis">
                <path d="M379.014,357.958L449.038,392.969L560.252,337.362L490.228,302.351L379.014,357.958Z" style="fill:rgb(78,167,0);"/>
                <path d="M449.038,392.969L449.038,407.386L560.252,351.779L560.252,337.362L449.038,392.969Z" style="fill:rgb(102,218,0);"/>
                <g transform="matrix(0.143913,0,0,0.143913,376.954,293.083)">
                    <path d="M14.311,550.967L500.879,794.251L500.879,694.076L14.311,450.791L14.311,550.967Z" style="fill:rgb(42,90,0);"/>
                </g>
            </g>
            <g id="Cooling">
                <g transform="matrix(1.60284,0,0,1,-224.584,-16.4973)">
                    <path d="M379.054,385.904L404.819,406.172L404.847,406.206L404.864,406.254L404.869,406.31L404.86,406.364L404.839,406.409L404.808,406.437L404.774,406.444L404.74,406.43L378.974,386.162L378.947,386.128L378.929,386.079L378.924,386.024L378.933,385.969L378.955,385.925L378.985,385.897L379.02,385.889L379.054,385.904Z" style="fill:rgb(226,226,226);"/>
                </g>
                <g transform="matrix(1.60284,0,0,1,-224.584,-21.3321)">
                    <path d="M379.054,385.904L404.819,406.172L404.847,406.206L404.864,406.254L404.869,406.31L404.86,406.364L404.839,406.409L404.808,406.437L404.774,406.444L404.74,406.43L378.974,386.162L378.947,386.128L378.929,386.079L378.924,386.024L378.933,385.969L378.955,385.925L378.985,385.897L379.02,385.889L379.054,385.904Z" style="fill:rgb(226,226,226);"/>
                </g>
            </g>
            <g id="LED-green" serif:id="LED green" transform="matrix(0.442367,0.221184,0,0.442367,322.483,196.687)">
                <circle cx="257.703" cy="316.533" r="5.651" style="fill:rgb(0,255,0);"/>
            </g>
        </g>
        <g id="Minion-Badge" serif:id="Minion Badge">
            <g id="Badge" transform="matrix(0.648561,0.324775,-0.621978,0.310107,-17.8688,-95.0417)">
                <path d="M1101.01,298.926C1101.01,287.072 1093.63,277.448 1084.55,277.448L1031.55,277.448C1022.47,277.448 1015.1,287.072 1015.1,298.926L1015.1,341.882C1015.1,353.736 1022.47,363.36 1031.55,363.36L1084.55,363.36C1093.63,363.36 1101.01,353.736 1101.01,341.882L1101.01,298.926Z" style="fill:white;"/>
                <path d="M1020.11,280.845L1020.19,280.763L1020.26,280.681L1020.35,280.601L1020.43,280.52L1020.51,280.441L1020.59,280.362L1020.67,280.284L1020.75,280.206L1020.84,280.129L1020.92,280.052L1021,279.977L1021.09,279.901L1021.17,279.827L1021.25,279.753L1021.34,279.68L1021.42,279.607L1021.51,279.535L1021.59,279.463L1021.68,279.393L1021.77,279.323L1021.85,279.253L1021.94,279.184L1022.03,279.116L1022.12,279.049L1022.21,278.982L1022.29,278.916L1022.38,278.85L1022.47,278.786L1022.56,278.722L1022.65,278.658L1022.74,278.595L1022.83,278.533L1022.93,278.472L1023.02,278.411L1023.11,278.351L1023.2,278.292L1023.29,278.233L1023.38,278.175L1023.48,278.118L1023.57,278.061L1023.67,278.006L1023.76,277.951L1023.85,277.896L1023.95,277.842L1024.04,277.789L1024.14,277.737L1024.24,277.686L1024.33,277.635L1024.43,277.585L1024.52,277.536L1024.62,277.487L1024.72,277.439L1024.82,277.392L1024.91,277.346L1025.01,277.3L1025.11,277.255L1025.21,277.211L1025.31,277.168L1025.41,277.125L1025.51,277.083L1025.61,277.042L1025.71,277.002L1025.81,276.962L1025.91,276.923L1026.01,276.885L1026.11,276.848L1026.21,276.812L1026.32,276.776L1026.42,276.741L1026.52,276.707L1026.62,276.674L1026.73,276.641L1026.83,276.61L1026.93,276.579L1027.04,276.549L1027.14,276.52L1027.25,276.491L1027.35,276.464L1027.46,276.437L1027.56,276.411L1027.67,276.386L1027.78,276.361L1027.88,276.338L1027.99,276.315L1028.1,276.294L1028.2,276.273L1028.31,276.253L1028.42,276.233L1028.47,276.224L1028.53,276.215L1028.58,276.206L1028.63,276.197L1028.69,276.189L1028.74,276.181L1028.8,276.173L1028.85,276.165L1028.9,276.157L1028.96,276.15L1029.01,276.143L1029.07,276.136L1029.12,276.129L1029.18,276.123L1029.23,276.117L1029.29,276.11L1029.34,276.105L1029.4,276.099L1029.45,276.094L1029.51,276.089L1029.56,276.084L1029.62,276.079L1029.67,276.074L1029.73,276.07L1029.79,276.066L1029.84,276.062L1029.9,276.059L1029.95,276.056L1030.01,276.052L1030.06,276.049L1030.12,276.047L1030.18,276.044L1030.23,276.042L1030.29,276.04L1030.35,276.038L1030.4,276.037L1030.46,276.036L1030.51,276.035L1030.57,276.034L1030.63,276.033L1030.68,276.033L1030.74,276.033L1083.74,276.033L1083.79,276.033L1083.85,276.033L1083.91,276.034L1083.96,276.035L1084.02,276.036L1084.08,276.037L1084.13,276.039L1084.19,276.04L1084.25,276.042L1084.3,276.044L1084.36,276.047L1084.42,276.05L1084.47,276.053L1084.53,276.056L1084.59,276.059L1084.64,276.063L1084.7,276.067L1084.76,276.071L1084.81,276.075L1084.87,276.08L1084.92,276.084L1084.98,276.089L1085.04,276.095L1085.09,276.1L1085.15,276.106L1085.2,276.112L1085.26,276.118L1085.32,276.124L1085.37,276.131L1085.43,276.138L1085.49,276.145L1085.54,276.152L1085.6,276.16L1085.65,276.168L1085.71,276.176L1085.77,276.184L1085.82,276.192L1085.88,276.201L1085.93,276.21L1085.99,276.219L1086.05,276.229L1086.1,276.238L1086.16,276.248L1086.21,276.258L1086.27,276.269L1086.33,276.279L1086.38,276.29L1086.44,276.301L1086.49,276.312L1086.55,276.324L1086.61,276.336L1086.66,276.348L1086.72,276.36L1086.77,276.372L1086.83,276.385L1086.88,276.398L1086.94,276.411L1087,276.424L1087.05,276.438L1087.11,276.452L1087.16,276.466L1087.22,276.48L1087.27,276.494L1087.33,276.509L1087.39,276.524L1087.44,276.539L1087.5,276.555L1087.55,276.57L1087.61,276.586L1087.66,276.602L1087.72,276.619L1087.77,276.635L1087.83,276.652L1087.88,276.669L1087.94,276.687L1088,276.704L1088.05,276.722L1088.11,276.74L1088.16,276.758L1088.22,276.776L1088.27,276.795L1088.33,276.814L1088.38,276.833L1088.44,276.853L1088.49,276.872L1088.55,276.892L1088.6,276.912L1088.66,276.932L1088.71,276.953L1088.77,276.974L1088.82,276.995L1088.88,277.016L1088.93,277.037L1088.99,277.059L1089.04,277.081L1089.1,277.103L1089.15,277.126L1089.21,277.148L1089.26,277.171L1089.32,277.194L1089.37,277.217L1089.42,277.241L1089.48,277.265L1089.53,277.289L1089.59,277.313L1089.64,277.337L1089.7,277.362L1089.75,277.387L1089.81,277.412L1089.86,277.438L1089.92,277.463L1089.97,277.489L1090.02,277.515L1090.08,277.542L1090.13,277.568L1090.19,277.595L1090.24,277.622L1090.3,277.649L1090.35,277.677L1090.4,277.704L1090.46,277.732L1090.51,277.76L1090.57,277.789L1090.62,277.817L1090.67,277.846L1090.73,277.875L1090.78,277.905L1090.83,277.934L1090.89,277.964L1090.94,277.994L1091,278.024L1091.05,278.055L1091.1,278.086L1091.16,278.117L1091.21,278.148L1091.26,278.179L1091.32,278.211L1091.37,278.242L1091.42,278.274L1091.47,278.307L1091.53,278.339L1091.58,278.372L1091.63,278.405L1091.69,278.438L1091.74,278.471L1091.79,278.505L1091.85,278.539L1091.9,278.573L1091.95,278.607L1092,278.642L1092.06,278.677L1092.11,278.712L1092.16,278.747L1092.21,278.782L1092.27,278.818L1092.32,278.854L1092.37,278.89L1092.42,278.926L1092.48,278.963L1092.53,278.999L1092.58,279.036L1092.63,279.073L1092.68,279.111L1092.73,279.148L1092.79,279.186L1092.84,279.224L1092.89,279.262L1092.94,279.301L1092.99,279.34L1093.04,279.378L1093.09,279.417L1093.14,279.457L1093.19,279.496L1093.25,279.536L1093.3,279.576L1093.35,279.616L1093.4,279.656L1093.45,279.697L1093.5,279.737L1093.55,279.778L1093.6,279.819L1093.65,279.86L1093.7,279.902L1093.75,279.944L1093.8,279.986L1093.85,280.028L1093.9,280.07L1093.95,280.113L1094,280.155L1094.05,280.198L1094.1,280.241L1094.15,280.284L1094.2,280.328L1094.25,280.371L1094.29,280.415L1094.34,280.459L1094.39,280.504L1094.44,280.548L1094.49,280.592L1094.54,280.637L1094.59,280.682L1094.63,280.727L1094.68,280.772L1094.73,280.818L1094.78,280.864L1094.82,280.909L1094.87,280.955L1094.92,281.001L1094.97,281.048L1095.01,281.094L1095.06,281.141L1095.11,281.188L1095.15,281.235L1095.2,281.282L1095.25,281.329L1095.29,281.377L1095.34,281.425L1095.39,281.472L1095.43,281.52L1095.48,281.568L1095.52,281.617L1095.57,281.665L1095.62,281.714L1095.66,281.763L1095.71,281.812L1095.75,281.861L1095.8,281.91L1095.84,281.959L1095.89,282.009L1095.93,282.059L1095.98,282.108L1096.02,282.158L1096.06,282.209L1096.11,282.259L1096.15,282.309L1096.19,282.36L1096.24,282.41L1096.28,282.461L1096.33,282.512L1096.37,282.563L1096.41,282.615L1096.45,282.666L1096.5,282.718L1096.54,282.769L1096.58,282.821L1096.62,282.873L1096.67,282.925L1096.71,282.977L1096.75,283.029L1096.79,283.082L1096.84,283.134L1096.88,283.187L1096.92,283.24L1096.96,283.293L1097,283.346L1097.04,283.399L1097.08,283.452L1097.12,283.506L1097.16,283.56L1097.2,283.613L1097.24,283.667L1097.28,283.721L1097.32,283.775L1097.36,283.829L1097.4,283.883L1097.44,283.938L1097.48,283.992L1097.52,284.047L1097.56,284.101L1097.6,284.156L1097.64,284.211L1097.67,284.266L1097.71,284.322L1097.75,284.377L1097.79,284.432L1097.83,284.488L1097.87,284.543L1097.9,284.599L1097.94,284.655L1097.98,284.711L1098.01,284.767L1098.05,284.823L1098.09,284.879L1098.12,284.935L1098.16,284.992L1098.2,285.048L1098.23,285.105L1098.27,285.162L1098.31,285.218L1098.34,285.275L1098.38,285.332L1098.41,285.389L1098.45,285.447L1098.48,285.504L1098.52,285.561L1098.55,285.619L1098.59,285.676L1098.62,285.734L1098.65,285.792L1098.69,285.85L1098.72,285.908L1098.76,285.966L1098.79,286.024L1098.82,286.082L1098.86,286.141L1098.89,286.199L1098.92,286.258L1098.96,286.316L1098.99,286.375L1099.02,286.434L1099.05,286.493L1099.09,286.552L1099.12,286.61L1099.15,286.67L1099.18,286.729L1099.21,286.788L1099.25,286.848L1099.28,286.907L1099.31,286.967L1099.34,287.026L1099.37,287.086L1099.4,287.146L1099.43,287.206L1099.46,287.266L1099.49,287.326L1099.52,287.386L1099.55,287.446L1099.58,287.507L1099.61,287.567L1099.64,287.627L1099.67,287.688L1099.7,287.749L1099.73,287.809L1099.76,287.87L1099.78,287.931L1099.81,287.992L1099.84,288.053L1099.87,288.114L1099.9,288.176L1099.92,288.237L1099.95,288.298L1099.98,288.36L1100.01,288.421L1100.04,288.483L1100.06,288.545L1100.09,288.606L1100.12,288.668L1100.14,288.73L1100.17,288.792L1100.19,288.854L1100.22,288.916L1100.25,288.979L1100.27,289.041L1100.3,289.103L1100.33,289.166L1100.35,289.228L1100.38,289.291L1100.4,289.354L1100.42,289.416L1100.45,289.479L1100.48,289.542L1100.5,289.605L1100.52,289.668L1100.55,289.731L1100.57,289.794L1100.6,289.858L1100.62,289.921L1100.64,289.984L1100.67,290.048L1100.69,290.112L1100.71,290.175L1100.74,290.239L1100.76,290.303L1100.78,290.367L1100.8,290.43L1100.83,290.495L1100.85,290.559L1100.87,290.623L1100.89,290.687L1100.91,290.751L1100.93,290.816L1100.96,290.88L1100.98,290.944L1101,291.009L1101.02,291.074L1101.04,291.138L1101.06,291.203L1101.08,291.268L1101.1,291.333L1101.12,291.398L1101.14,291.463L1101.16,291.528L1101.18,291.593L1101.2,291.659L1101.22,291.724L1101.24,291.789L1101.26,291.855L1101.28,291.92L1101.29,291.986L1101.31,292.052L1101.33,292.117L1101.35,292.183L1101.37,292.249L1101.38,292.315L1101.4,292.381L1101.42,292.447L1101.44,292.513L1101.45,292.579L1101.47,292.645L1101.49,292.712L1101.51,292.778L1101.52,292.844L1101.54,292.911L1101.56,292.978L1101.57,293.044L1101.59,293.111L1101.6,293.178L1101.62,293.244L1101.63,293.311L1101.65,293.378L1101.67,293.445L1101.68,293.512L1101.69,293.579L1101.71,293.648L1101.74,293.781L1101.77,293.916L1101.8,294.051L1101.82,294.186L1101.85,294.322L1101.87,294.458L1101.9,294.594L1101.92,294.73L1101.95,294.866L1101.97,295.003L1101.99,295.14L1102.02,295.277L1102.04,295.415L1102.06,295.552L1102.08,295.69L1102.1,295.828L1102.12,295.966L1102.13,296.105L1102.15,296.244L1102.17,296.382L1102.18,296.522L1102.2,296.661L1102.21,296.8L1102.23,296.94L1102.24,297.08L1102.25,297.22L1102.27,297.361L1102.28,297.501L1102.29,297.642L1102.3,297.783L1102.31,297.924L1102.31,298.065L1102.32,298.207L1102.33,298.348L1102.34,298.49L1102.34,298.632L1102.35,298.775L1102.35,298.917L1102.36,299.06L1102.36,299.202L1102.36,299.345L1102.36,299.488L1102.36,299.632L1102.36,299.774L1102.36,342.732L1102.36,342.874L1102.36,343.017L1102.36,343.16L1102.36,343.303L1102.36,343.445L1102.35,343.587L1102.35,343.729L1102.34,343.871L1102.34,344.012L1102.33,344.153L1102.32,344.294L1102.31,344.435L1102.31,344.575L1102.3,344.715L1102.29,344.855L1102.28,344.994L1102.27,345.133L1102.25,345.272L1102.24,345.411L1102.23,345.549L1102.21,345.687L1102.2,345.825L1102.18,345.962L1102.17,346.099L1102.15,346.236L1102.13,346.373L1102.12,346.509L1102.1,346.645L1102.08,346.78L1102.06,346.916L1102.04,347.051L1102.02,347.185L1102,347.32L1101.98,347.454L1101.95,347.587L1101.93,347.721L1101.91,347.854L1101.88,347.987L1101.86,348.119L1101.83,348.251L1101.81,348.383L1101.78,348.514L1101.75,348.645L1101.72,348.776L1101.69,348.907L1101.66,349.037L1101.63,349.166L1101.6,349.296L1101.57,349.425L1101.54,349.553L1101.51,349.681L1101.48,349.809L1101.44,349.937L1101.41,350.064L1101.37,350.191L1101.34,350.317L1101.3,350.444L1101.27,350.569L1101.23,350.695L1101.19,350.819L1101.15,350.944L1101.12,351.068L1101.08,351.192L1101.04,351.315L1101,351.438L1100.96,351.561L1100.91,351.683L1100.87,351.805L1100.83,351.927L1100.79,352.048L1100.74,352.168L1100.7,352.289L1100.65,352.408L1100.61,352.528L1100.56,352.647L1100.52,352.765L1100.47,352.883L1100.42,353.001L1100.38,353.118L1100.33,353.235L1100.28,353.352L1100.23,353.468L1100.18,353.583L1100.13,353.698L1100.08,353.813L1100.03,353.927L1099.98,354.041L1099.92,354.155L1099.87,354.267L1099.82,354.38L1099.76,354.492L1099.71,354.604L1099.65,354.715L1099.6,354.825L1099.54,354.935L1099.49,355.045L1099.43,355.154L1099.37,355.263L1099.31,355.371L1099.25,355.479L1099.19,355.587L1099.14,355.693L1099.08,355.8L1099.02,355.906L1098.95,356.011L1098.89,356.116L1098.83,356.22L1098.77,356.324L1098.71,356.428L1098.64,356.531L1098.58,356.633L1098.52,356.735L1098.45,356.836L1098.39,356.937L1098.32,357.038L1098.26,357.137L1098.19,357.237L1098.12,357.335L1098.06,357.434L1097.99,357.532L1097.92,357.629L1097.85,357.725L1097.78,357.822L1097.71,357.917L1097.64,358.012L1097.57,358.107L1097.5,358.201L1097.43,358.294L1097.36,358.387L1097.29,358.48L1097.21,358.571L1097.14,358.663L1097.07,358.753L1096.99,358.843L1096.92,358.933L1096.85,359.022L1096.77,359.11L1096.69,359.198L1096.62,359.285L1096.54,359.372L1096.47,359.458L1096.39,359.544L1096.31,359.629L1096.23,359.713L1096.16,359.797L1096.08,359.88L1096,359.962L1095.92,360.044L1095.84,360.126L1095.76,360.207L1095.68,360.287L1095.6,360.366L1095.52,360.445L1095.43,360.523L1095.35,360.601L1095.27,360.678L1095.19,360.755L1095.1,360.831L1095.02,360.906L1094.94,360.98L1094.85,361.054L1094.77,361.128L1094.68,361.2L1094.6,361.272L1094.51,361.344L1094.42,361.414L1094.34,361.484L1094.25,361.554L1094.16,361.623L1094.08,361.691L1093.99,361.758L1093.9,361.825L1093.81,361.891L1093.72,361.957L1093.63,362.021L1093.54,362.086L1093.45,362.149L1093.36,362.212L1093.27,362.274L1093.18,362.335L1093.09,362.396L1093,362.456L1092.9,362.515L1092.81,362.574L1092.72,362.632L1092.63,362.689L1092.53,362.746L1092.44,362.801L1092.35,362.857L1092.25,362.911L1092.16,362.965L1092.06,363.018L1091.97,363.07L1091.87,363.121L1091.77,363.172L1091.68,363.222L1091.58,363.272L1091.48,363.32L1091.39,363.368L1091.29,363.415L1091.19,363.461L1091.09,363.507L1090.99,363.552L1090.89,363.596L1090.8,363.639L1090.7,363.682L1090.6,363.724L1090.5,363.765L1090.4,363.805L1090.3,363.845L1090.19,363.884L1090.09,363.922L1089.99,363.959L1089.89,363.995L1089.79,364.031L1089.69,364.066L1089.58,364.1L1089.48,364.133L1089.38,364.166L1089.27,364.197L1089.17,364.228L1089.07,364.258L1088.96,364.287L1088.86,364.316L1088.75,364.343L1088.65,364.37L1088.54,364.396L1088.44,364.421L1088.33,364.446L1088.22,364.469L1088.12,364.492L1088.01,364.514L1087.9,364.534L1087.8,364.555L1087.69,364.574L1087.63,364.583L1087.58,364.592L1087.53,364.601L1087.47,364.61L1087.42,364.618L1087.36,364.626L1087.31,364.634L1087.25,364.642L1087.2,364.65L1087.14,364.657L1087.09,364.664L1087.04,364.671L1086.98,364.678L1086.93,364.684L1086.87,364.691L1086.82,364.697L1086.76,364.702L1086.71,364.708L1086.65,364.713L1086.6,364.718L1086.54,364.723L1086.49,364.728L1086.43,364.733L1086.38,364.737L1086.32,364.741L1086.26,364.745L1086.21,364.748L1086.15,364.752L1086.1,364.755L1086.04,364.758L1085.98,364.76L1085.93,364.763L1085.87,364.765L1085.82,364.767L1085.76,364.769L1085.7,364.77L1085.65,364.771L1085.59,364.772L1085.54,364.773L1085.48,364.774L1085.42,364.774L1085.37,364.774L1032.37,364.774L1032.31,364.774L1032.25,364.774L1032.2,364.773L1032.14,364.772L1032.08,364.771L1032.03,364.77L1031.97,364.769L1031.91,364.767L1031.86,364.765L1031.8,364.763L1031.75,364.76L1031.69,364.757L1031.63,364.755L1031.58,364.751L1031.52,364.748L1031.46,364.744L1031.41,364.741L1031.35,364.736L1031.29,364.732L1031.24,364.728L1031.18,364.723L1031.12,364.718L1031.07,364.713L1031.01,364.707L1030.96,364.701L1030.9,364.695L1030.84,364.689L1030.79,364.683L1030.73,364.676L1030.67,364.669L1030.62,364.662L1030.56,364.655L1030.51,364.647L1030.45,364.639L1030.39,364.631L1030.34,364.623L1030.28,364.615L1030.23,364.606L1030.17,364.597L1030.11,364.588L1030.06,364.578L1030,364.569L1029.95,364.559L1029.89,364.549L1029.83,364.538L1029.78,364.528L1029.72,364.517L1029.67,364.506L1029.61,364.495L1029.56,364.483L1029.5,364.471L1029.44,364.46L1029.39,364.447L1029.33,364.435L1029.28,364.422L1029.22,364.409L1029.16,364.396L1029.11,364.383L1029.05,364.369L1029,364.355L1028.94,364.341L1028.89,364.327L1028.83,364.313L1028.78,364.298L1028.72,364.283L1028.66,364.268L1028.61,364.252L1028.55,364.237L1028.5,364.221L1028.44,364.205L1028.39,364.188L1028.33,364.172L1028.28,364.155L1028.22,364.138L1028.16,364.121L1028.11,364.103L1028.05,364.085L1028,364.067L1027.94,364.049L1027.89,364.031L1027.83,364.012L1027.78,363.993L1027.72,363.974L1027.67,363.955L1027.61,363.935L1027.56,363.915L1027.5,363.895L1027.45,363.875L1027.39,363.854L1027.34,363.833L1027.28,363.812L1027.23,363.791L1027.17,363.77L1027.12,363.748L1027.06,363.726L1027.01,363.704L1026.95,363.682L1026.9,363.659L1026.84,363.636L1026.79,363.613L1026.73,363.59L1026.68,363.566L1026.62,363.542L1026.57,363.518L1026.52,363.494L1026.46,363.47L1026.41,363.445L1026.35,363.42L1026.3,363.395L1026.24,363.369L1026.19,363.344L1026.13,363.318L1026.08,363.292L1026.03,363.266L1025.97,363.239L1025.92,363.212L1025.86,363.185L1025.81,363.158L1025.76,363.13L1025.7,363.103L1025.65,363.075L1025.59,363.047L1025.54,363.018L1025.49,362.99L1025.43,362.961L1025.38,362.932L1025.32,362.902L1025.27,362.873L1025.22,362.843L1025.16,362.813L1025.11,362.783L1025.06,362.752L1025,362.722L1024.95,362.691L1024.9,362.66L1024.84,362.628L1024.79,362.596L1024.74,362.565L1024.68,362.533L1024.63,362.5L1024.58,362.468L1024.52,362.435L1024.47,362.402L1024.42,362.369L1024.36,362.336L1024.31,362.302L1024.26,362.268L1024.21,362.234L1024.15,362.2L1024.1,362.165L1024.05,362.13L1024,362.095L1023.94,362.06L1023.89,362.025L1023.84,361.989L1023.79,361.953L1023.73,361.917L1023.68,361.881L1023.63,361.844L1023.58,361.808L1023.53,361.771L1023.47,361.734L1023.42,361.696L1023.37,361.659L1023.32,361.621L1023.27,361.583L1023.22,361.545L1023.17,361.506L1023.11,361.468L1023.06,361.429L1023.01,361.39L1022.96,361.35L1022.91,361.311L1022.86,361.271L1022.81,361.231L1022.76,361.191L1022.71,361.151L1022.66,361.111L1022.61,361.07L1022.56,361.029L1022.5,360.988L1022.46,360.946L1022.4,360.905L1022.36,360.863L1022.31,360.821L1022.25,360.779L1022.21,360.737L1022.16,360.695L1022.11,360.652L1022.06,360.609L1022.01,360.566L1021.96,360.523L1021.91,360.479L1021.86,360.436L1021.81,360.392L1021.76,360.348L1021.71,360.304L1021.67,360.259L1021.62,360.215L1021.57,360.17L1021.52,360.125L1021.47,360.08L1021.42,360.035L1021.38,359.989L1021.33,359.944L1021.28,359.898L1021.23,359.852L1021.19,359.805L1021.14,359.759L1021.09,359.713L1021.04,359.666L1021,359.619L1020.95,359.572L1020.9,359.525L1020.86,359.478L1020.81,359.43L1020.76,359.383L1020.72,359.335L1020.67,359.287L1020.63,359.239L1020.58,359.19L1020.53,359.142L1020.49,359.093L1020.44,359.044L1020.4,358.995L1020.35,358.946L1020.31,358.897L1020.26,358.848L1020.22,358.798L1020.17,358.749L1020.13,358.699L1020.09,358.649L1020.04,358.598L1020,358.548L1019.95,358.498L1019.91,358.447L1019.87,358.397L1019.82,358.346L1019.78,358.295L1019.74,358.244L1019.69,358.192L1019.65,358.141L1019.61,358.09L1019.56,358.038L1019.52,357.986L1019.48,357.934L1019.44,357.882L1019.39,357.83L1019.35,357.778L1019.31,357.725L1019.27,357.673L1019.23,357.62L1019.19,357.567L1019.15,357.514L1019.11,357.461L1019.06,357.408L1019.02,357.355L1018.98,357.301L1018.94,357.248L1018.9,357.194L1018.86,357.14L1018.82,357.086L1018.78,357.032L1018.74,356.978L1018.7,356.924L1018.66,356.869L1018.62,356.815L1018.59,356.76L1018.55,356.706L1018.51,356.651L1018.47,356.596L1018.43,356.541L1018.39,356.486L1018.35,356.43L1018.32,356.375L1018.28,356.319L1018.24,356.264L1018.2,356.208L1018.17,356.152L1018.13,356.096L1018.09,356.04L1018.05,355.984L1018.02,355.928L1017.98,355.872L1017.94,355.815L1017.91,355.759L1017.87,355.702L1017.84,355.646L1017.8,355.589L1017.76,355.532L1017.73,355.475L1017.69,355.418L1017.66,355.36L1017.62,355.303L1017.59,355.246L1017.55,355.188L1017.52,355.131L1017.49,355.073L1017.45,355.015L1017.42,354.957L1017.38,354.899L1017.35,354.841L1017.32,354.783L1017.28,354.725L1017.25,354.667L1017.22,354.608L1017.18,354.55L1017.15,354.491L1017.12,354.432L1017.08,354.373L1017.05,354.314L1017.02,354.256L1016.99,354.197L1016.96,354.137L1016.92,354.078L1016.89,354.019L1016.86,353.959L1016.83,353.9L1016.8,353.84L1016.77,353.781L1016.74,353.721L1016.71,353.661L1016.68,353.601L1016.64,353.541L1016.61,353.481L1016.58,353.421L1016.55,353.361L1016.52,353.3L1016.5,353.24L1016.47,353.18L1016.44,353.119L1016.41,353.058L1016.38,352.998L1016.35,352.937L1016.32,352.876L1016.29,352.815L1016.26,352.754L1016.24,352.693L1016.21,352.632L1016.18,352.57L1016.15,352.509L1016.12,352.447L1016.1,352.386L1016.07,352.324L1016.04,352.263L1016.02,352.201L1015.99,352.139L1015.96,352.077L1015.94,352.015L1015.91,351.953L1015.88,351.891L1015.86,351.829L1015.83,351.766L1015.81,351.704L1015.78,351.641L1015.75,351.579L1015.73,351.516L1015.7,351.454L1015.68,351.391L1015.65,351.328L1015.63,351.265L1015.61,351.202L1015.58,351.139L1015.56,351.076L1015.53,351.013L1015.51,350.949L1015.49,350.886L1015.46,350.823L1015.44,350.759L1015.42,350.696L1015.39,350.632L1015.37,350.568L1015.35,350.504L1015.32,350.44L1015.3,350.376L1015.28,350.313L1015.26,350.249L1015.24,350.184L1015.21,350.12L1015.19,350.056L1015.17,349.992L1015.15,349.927L1015.13,349.862L1015.11,349.798L1015.09,349.733L1015.07,349.669L1015.05,349.604L1015.02,349.539L1015,349.474L1014.98,349.409L1014.96,349.344L1014.94,349.279L1014.93,349.214L1014.9,349.149L1014.89,349.083L1014.87,349.018L1014.85,348.952L1014.83,348.887L1014.81,348.821L1014.79,348.756L1014.77,348.69L1014.75,348.624L1014.74,348.558L1014.72,348.492L1014.7,348.426L1014.68,348.36L1014.67,348.294L1014.65,348.228L1014.63,348.162L1014.62,348.095L1014.6,348.029L1014.58,347.963L1014.57,347.896L1014.55,347.83L1014.53,347.763L1014.52,347.696L1014.5,347.629L1014.49,347.563L1014.47,347.496L1014.45,347.429L1014.44,347.362L1014.42,347.295L1014.41,347.228L1014.39,347.16L1014.37,347.026L1014.34,346.891L1014.31,346.756L1014.28,346.621L1014.26,346.485L1014.23,346.349L1014.21,346.213L1014.18,346.077L1014.16,345.941L1014.13,345.804L1014.11,345.667L1014.09,345.53L1014.07,345.392L1014.05,345.255L1014.03,345.117L1014.01,344.979L1013.99,344.841L1013.97,344.702L1013.96,344.564L1013.94,344.425L1013.92,344.285L1013.91,344.146L1013.89,344.007L1013.88,343.867L1013.87,343.727L1013.85,343.587L1013.84,343.446L1013.83,343.306L1013.82,343.165L1013.81,343.024L1013.8,342.883L1013.79,342.742L1013.78,342.6L1013.77,342.459L1013.77,342.317L1013.76,342.175L1013.76,342.032L1013.75,341.89L1013.75,341.748L1013.75,341.605L1013.74,341.462L1013.74,341.319L1013.74,341.175L1013.74,341.033L1013.74,298.075L1013.74,297.933L1013.74,297.79L1013.74,297.647L1013.75,297.504L1013.75,297.362L1013.75,297.22L1013.76,297.078L1013.76,296.936L1013.77,296.795L1013.77,296.654L1013.78,296.513L1013.79,296.372L1013.8,296.232L1013.81,296.092L1013.82,295.952L1013.83,295.813L1013.84,295.674L1013.85,295.535L1013.86,295.396L1013.88,295.258L1013.89,295.12L1013.9,294.982L1013.92,294.845L1013.94,294.708L1013.95,294.571L1013.97,294.434L1013.99,294.298L1014,294.162L1014.02,294.027L1014.04,293.891L1014.06,293.756L1014.09,293.622L1014.11,293.487L1014.13,293.353L1014.15,293.22L1014.17,293.086L1014.2,292.953L1014.22,292.82L1014.25,292.688L1014.27,292.556L1014.3,292.424L1014.33,292.293L1014.35,292.162L1014.38,292.031L1014.41,291.901L1014.44,291.771L1014.47,291.641L1014.5,291.512L1014.53,291.383L1014.56,291.254L1014.6,291.126L1014.63,290.998L1014.66,290.87L1014.7,290.743L1014.73,290.616L1014.77,290.49L1014.8,290.364L1014.84,290.238L1014.88,290.113L1014.91,289.988L1014.95,289.863L1014.99,289.739L1015.03,289.615L1015.07,289.492L1015.11,289.369L1015.15,289.246L1015.19,289.124L1015.23,289.002L1015.27,288.88L1015.32,288.759L1015.36,288.639L1015.4,288.519L1015.45,288.399L1015.5,288.279L1015.54,288.16L1015.59,288.042L1015.63,287.924L1015.68,287.806L1015.73,287.689L1015.78,287.572L1015.83,287.455L1015.88,287.339L1015.93,287.224L1015.98,287.109L1016.03,286.994L1016.08,286.88L1016.13,286.766L1016.18,286.653L1016.24,286.54L1016.29,286.427L1016.34,286.315L1016.4,286.204L1016.45,286.092L1016.51,285.982L1016.56,285.872L1016.62,285.762L1016.68,285.653L1016.73,285.544L1016.79,285.436L1016.85,285.328L1016.91,285.221L1016.97,285.114L1017.03,285.007L1017.09,284.901L1017.15,284.796L1017.21,284.691L1017.27,284.587L1017.34,284.483L1017.4,284.379L1017.46,284.276L1017.52,284.174L1017.59,284.072L1017.65,283.971L1017.72,283.87L1017.78,283.77L1017.85,283.67L1017.92,283.57L1017.98,283.472L1018.05,283.373L1018.12,283.276L1018.19,283.178L1018.25,283.082L1018.32,282.985L1018.39,282.89L1018.46,282.795L1018.53,282.7L1018.6,282.606L1018.67,282.513L1018.75,282.42L1018.82,282.328L1018.89,282.236L1018.96,282.144L1019.04,282.054L1019.11,281.964L1019.19,281.874L1019.26,281.785L1019.33,281.697L1019.41,281.609L1019.49,281.522L1019.56,281.435L1019.64,281.349L1019.72,281.263L1019.79,281.178L1019.87,281.094L1019.95,281.01L1020.03,280.927L1020.11,280.845ZM1022.38,283.535L1022.31,283.615L1022.23,283.696L1022.16,283.777L1022.08,283.858L1022.01,283.94L1021.94,284.023L1021.87,284.106L1021.79,284.19L1021.72,284.275L1021.65,284.36L1021.58,284.445L1021.51,284.531L1021.44,284.618L1021.37,284.705L1021.3,284.793L1021.23,284.881L1021.16,284.97L1021.1,285.059L1021.03,285.149L1020.96,285.239L1020.89,285.33L1020.83,285.422L1020.76,285.514L1020.7,285.606L1020.63,285.699L1020.57,285.793L1020.5,285.887L1020.44,285.981L1020.37,286.076L1020.31,286.172L1020.25,286.268L1020.19,286.364L1020.12,286.462L1020.06,286.559L1020,286.657L1019.94,286.756L1019.88,286.855L1019.82,286.954L1019.76,287.054L1019.71,287.154L1019.65,287.255L1019.59,287.357L1019.53,287.458L1019.48,287.561L1019.42,287.663L1019.36,287.767L1019.31,287.87L1019.25,287.974L1019.2,288.079L1019.14,288.184L1019.09,288.289L1019.04,288.395L1018.98,288.502L1018.93,288.609L1018.88,288.716L1018.83,288.823L1018.78,288.931L1018.73,289.04L1018.68,289.149L1018.63,289.258L1018.58,289.368L1018.53,289.478L1018.49,289.589L1018.44,289.7L1018.39,289.811L1018.35,289.923L1018.3,290.035L1018.25,290.148L1018.21,290.26L1018.17,290.374L1018.12,290.488L1018.08,290.602L1018.03,290.716L1017.99,290.831L1017.95,290.946L1017.91,291.062L1017.87,291.178L1017.83,291.294L1017.79,291.411L1017.75,291.528L1017.71,291.646L1017.68,291.764L1017.64,291.882L1017.6,292L1017.57,292.119L1017.53,292.238L1017.49,292.358L1017.46,292.478L1017.43,292.598L1017.39,292.719L1017.36,292.84L1017.33,292.961L1017.29,293.082L1017.26,293.204L1017.23,293.326L1017.2,293.449L1017.17,293.572L1017.14,293.695L1017.12,293.818L1017.09,293.942L1017.06,294.066L1017.03,294.19L1017.01,294.315L1016.98,294.44L1016.96,294.565L1016.93,294.691L1016.91,294.816L1016.88,294.942L1016.86,295.069L1016.84,295.195L1016.82,295.322L1016.8,295.449L1016.78,295.577L1016.76,295.704L1016.74,295.832L1016.72,295.961L1016.7,296.089L1016.68,296.218L1016.67,296.347L1016.65,296.476L1016.64,296.605L1016.62,296.735L1016.61,296.865L1016.59,296.995L1016.58,297.125L1016.57,297.256L1016.56,297.386L1016.55,297.517L1016.53,297.649L1016.52,297.78L1016.51,297.912L1016.51,298.044L1016.5,298.176L1016.49,298.308L1016.48,298.44L1016.48,298.573L1016.47,298.706L1016.47,298.839L1016.46,298.972L1016.46,299.106L1016.46,299.239L1016.46,299.373L1016.45,299.507L1016.45,299.641L1016.45,299.776L1016.45,342.73L1016.45,342.865L1016.45,342.999L1016.46,343.133L1016.46,343.266L1016.46,343.399L1016.46,343.532L1016.47,343.665L1016.47,343.797L1016.48,343.93L1016.48,344.061L1016.49,344.193L1016.5,344.324L1016.51,344.455L1016.51,344.586L1016.52,344.716L1016.53,344.847L1016.54,344.976L1016.56,345.106L1016.57,345.235L1016.58,345.364L1016.59,345.493L1016.61,345.621L1016.62,345.749L1016.63,345.877L1016.65,346.004L1016.67,346.131L1016.68,346.258L1016.7,346.384L1016.72,346.51L1016.74,346.636L1016.75,346.761L1016.77,346.886L1016.79,347.01L1016.81,347.135L1016.83,347.259L1016.86,347.382L1016.88,347.505L1016.9,347.628L1016.92,347.75L1016.95,347.872L1016.97,347.994L1017,348.115L1017.02,348.236L1017.05,348.358L1017.06,348.417L1017.07,348.477L1017.09,348.537L1017.1,348.597L1017.12,348.656L1017.13,348.716L1017.14,348.775L1017.16,348.835L1017.17,348.894L1017.19,348.953L1017.2,349.012L1017.21,349.071L1017.23,349.13L1017.24,349.189L1017.26,349.248L1017.27,349.306L1017.29,349.365L1017.31,349.423L1017.32,349.481L1017.34,349.539L1017.35,349.597L1017.37,349.655L1017.38,349.713L1017.4,349.771L1017.42,349.828L1017.43,349.886L1017.45,349.943L1017.47,350.001L1017.48,350.058L1017.5,350.115L1017.52,350.172L1017.53,350.228L1017.55,350.285L1017.57,350.342L1017.59,350.398L1017.6,350.455L1017.62,350.511L1017.64,350.567L1017.66,350.623L1017.67,350.679L1017.69,350.735L1017.71,350.79L1017.73,350.846L1017.75,350.901L1017.77,350.956L1017.78,351.012L1017.8,351.067L1017.82,351.122L1017.84,351.177L1017.86,351.231L1017.88,351.286L1017.9,351.34L1017.92,351.395L1017.94,351.449L1017.96,351.503L1017.98,351.557L1018,351.611L1018.02,351.664L1018.04,351.718L1018.06,351.771L1018.08,351.825L1018.1,351.878L1018.12,351.931L1018.14,351.984L1018.16,352.037L1018.18,352.089L1018.2,352.142L1018.23,352.194L1018.25,352.247L1018.27,352.299L1018.29,352.351L1018.31,352.403L1018.33,352.455L1018.35,352.506L1018.38,352.558L1018.4,352.609L1018.42,352.661L1018.44,352.712L1018.46,352.763L1018.49,352.813L1018.51,352.864L1018.53,352.915L1018.55,352.965L1018.58,353.015L1018.6,353.066L1018.62,353.116L1018.65,353.166L1018.67,353.215L1018.69,353.265L1018.72,353.314L1018.74,353.364L1018.76,353.413L1018.79,353.462L1018.81,353.511L1018.83,353.56L1018.86,353.608L1018.88,353.657L1018.9,353.705L1018.93,353.753L1018.95,353.802L1018.98,353.849L1019,353.897L1019.03,353.945L1019.05,353.992L1019.08,354.04L1019.1,354.087L1019.12,354.134L1019.15,354.181L1019.17,354.228L1019.2,354.274L1019.22,354.321L1019.25,354.367L1019.27,354.414L1019.3,354.459L1019.33,354.505L1019.35,354.551L1019.38,354.597L1019.4,354.642L1019.43,354.687L1019.45,354.733L1019.48,354.778L1019.51,354.823L1019.53,354.867L1019.56,354.912L1019.58,354.956L1019.61,355L1019.64,355.045L1019.66,355.089L1019.69,355.133L1019.72,355.176L1019.74,355.22L1019.77,355.263L1019.8,355.306L1019.82,355.349L1019.85,355.392L1019.88,355.435L1019.9,355.478L1019.93,355.52L1019.96,355.562L1019.99,355.605L1020.01,355.647L1020.04,355.688L1020.07,355.73L1020.1,355.772L1020.12,355.813L1020.15,355.854L1020.18,355.895L1020.21,355.936L1020.23,355.977L1020.26,356.018L1020.29,356.058L1020.32,356.099L1020.35,356.139L1020.37,356.179L1020.4,356.219L1020.43,356.259L1020.46,356.298L1020.49,356.338L1020.51,356.377L1020.54,356.416L1020.57,356.455L1020.6,356.494L1020.63,356.532L1020.66,356.571L1020.69,356.609L1020.72,356.648L1020.75,356.686L1020.77,356.724L1020.8,356.762L1020.83,356.799L1020.86,356.837L1020.89,356.874L1020.92,356.911L1020.95,356.948L1020.98,356.985L1021.01,357.022L1021.04,357.058L1021.07,357.095L1021.1,357.131L1021.13,357.167L1021.16,357.203L1021.19,357.239L1021.22,357.275L1021.25,357.31L1021.28,357.346L1021.31,357.381L1021.34,357.416L1021.37,357.451L1021.4,357.486L1021.43,357.521L1021.46,357.556L1021.49,357.59L1021.52,357.624L1021.55,357.658L1021.58,357.693L1021.61,357.726L1021.64,357.76L1021.67,357.794L1021.7,357.827L1021.73,357.86L1021.76,357.894L1021.79,357.927L1021.83,357.96L1021.86,357.992L1021.89,358.025L1021.92,358.057L1021.95,358.09L1021.98,358.122L1022.01,358.154L1022.04,358.186L1022.08,358.218L1022.11,358.25L1022.14,358.281L1022.17,358.313L1022.2,358.344L1022.23,358.375L1022.26,358.406L1022.3,358.437L1022.33,358.468L1022.36,358.498L1022.39,358.529L1022.43,358.559L1022.46,358.589L1022.49,358.62L1022.52,358.65L1022.56,358.679L1022.59,358.709L1022.62,358.739L1022.65,358.768L1022.69,358.798L1022.72,358.827L1022.75,358.856L1022.78,358.885L1022.82,358.914L1022.85,358.943L1022.88,358.971L1022.92,359L1022.95,359.028L1022.98,359.056L1023.02,359.084L1023.05,359.113L1023.09,359.14L1023.12,359.168L1023.15,359.196L1023.19,359.223L1023.22,359.251L1023.25,359.278L1023.29,359.305L1023.32,359.332L1023.36,359.359L1023.39,359.386L1023.43,359.413L1023.46,359.439L1023.5,359.466L1023.53,359.492L1023.56,359.518L1023.6,359.544L1023.63,359.57L1023.67,359.596L1023.7,359.622L1023.74,359.647L1023.77,359.673L1023.81,359.698L1023.85,359.724L1023.88,359.749L1023.92,359.774L1023.95,359.799L1023.99,359.823L1024.02,359.848L1024.06,359.873L1024.1,359.897L1024.13,359.921L1024.17,359.946L1024.2,359.97L1024.24,359.994L1024.28,360.017L1024.32,360.041L1024.35,360.065L1024.39,360.088L1024.43,360.111L1024.46,360.135L1024.5,360.158L1024.54,360.181L1024.57,360.204L1024.61,360.226L1024.65,360.249L1024.69,360.272L1024.72,360.294L1024.76,360.316L1024.8,360.338L1024.84,360.36L1024.88,360.382L1024.91,360.404L1024.95,360.426L1024.99,360.447L1025.03,360.468L1025.07,360.49L1025.11,360.511L1025.15,360.532L1025.18,360.553L1025.22,360.573L1025.26,360.594L1025.3,360.614L1025.34,360.635L1025.38,360.655L1025.42,360.675L1025.46,360.695L1025.5,360.715L1025.54,360.734L1025.58,360.754L1025.62,360.773L1025.66,360.793L1025.7,360.812L1025.74,360.831L1025.78,360.85L1025.82,360.868L1025.86,360.887L1025.9,360.906L1025.94,360.924L1025.99,360.942L1026.03,360.96L1026.07,360.978L1026.11,360.996L1026.15,361.013L1026.19,361.031L1026.23,361.048L1026.27,361.065L1026.32,361.082L1026.36,361.099L1026.4,361.116L1026.44,361.133L1026.48,361.149L1026.53,361.166L1026.57,361.182L1026.61,361.198L1026.65,361.214L1026.7,361.229L1026.74,361.245L1026.78,361.26L1026.82,361.276L1026.87,361.291L1026.91,361.306L1026.95,361.32L1027,361.335L1027.04,361.35L1027.08,361.364L1027.13,361.378L1027.17,361.392L1027.21,361.406L1027.26,361.42L1027.3,361.433L1027.35,361.447L1027.39,361.46L1027.43,361.473L1027.48,361.486L1027.52,361.498L1027.57,361.511L1027.61,361.523L1027.66,361.536L1027.7,361.548L1027.75,361.56L1027.79,361.571L1027.84,361.583L1027.88,361.594L1027.93,361.606L1027.97,361.617L1028.02,361.628L1028.06,361.638L1028.11,361.649L1028.16,361.659L1028.2,361.669L1028.25,361.679L1028.29,361.689L1028.34,361.699L1028.38,361.708L1028.43,361.718L1028.48,361.727L1028.52,361.736L1028.57,361.745L1028.62,361.753L1028.66,361.762L1028.71,361.77L1028.76,361.778L1028.8,361.786L1028.85,361.794L1028.9,361.801L1028.94,361.808L1028.99,361.816L1029.04,361.822L1029.09,361.829L1029.13,361.836L1029.18,361.842L1029.23,361.848L1029.28,361.854L1029.33,361.86L1029.37,361.866L1029.42,361.871L1029.47,361.877L1029.52,361.882L1029.56,361.887L1029.61,361.891L1029.66,361.896L1029.71,361.9L1029.76,361.904L1029.81,361.908L1029.85,361.912L1029.9,361.915L1029.95,361.919L1030,361.922L1030.05,361.925L1030.1,361.928L1030.15,361.93L1030.2,361.932L1030.25,361.935L1030.29,361.936L1030.34,361.938L1030.39,361.94L1030.44,361.941L1030.49,361.942L1030.54,361.943L1030.59,361.944L1030.64,361.944L1030.69,361.945L1030.74,361.945L1083.74,361.945L1083.79,361.945L1083.84,361.944L1083.89,361.944L1083.94,361.943L1083.99,361.942L1084.04,361.941L1084.09,361.94L1084.13,361.938L1084.18,361.936L1084.23,361.934L1084.28,361.932L1084.33,361.93L1084.38,361.927L1084.43,361.925L1084.48,361.922L1084.53,361.918L1084.58,361.915L1084.63,361.911L1084.68,361.908L1084.73,361.904L1084.78,361.9L1084.83,361.895L1084.88,361.891L1084.93,361.886L1084.98,361.881L1085.03,361.875L1085.08,361.87L1085.12,361.864L1085.17,361.859L1085.22,361.853L1085.27,361.846L1085.32,361.84L1085.37,361.833L1085.42,361.827L1085.47,361.82L1085.52,361.812L1085.57,361.805L1085.62,361.797L1085.66,361.79L1085.71,361.781L1085.76,361.773L1085.81,361.765L1085.91,361.747L1086.01,361.729L1086.1,361.71L1086.2,361.69L1086.3,361.67L1086.39,361.648L1086.49,361.626L1086.59,361.603L1086.68,361.58L1086.78,361.555L1086.88,361.53L1086.97,361.504L1087.07,361.477L1087.16,361.449L1087.26,361.421L1087.35,361.392L1087.45,361.362L1087.54,361.331L1087.64,361.3L1087.73,361.268L1087.83,361.235L1087.92,361.201L1088.02,361.167L1088.11,361.131L1088.2,361.096L1088.3,361.059L1088.39,361.021L1088.48,360.983L1088.57,360.944L1088.67,360.905L1088.76,360.864L1088.85,360.823L1088.94,360.781L1089.03,360.739L1089.12,360.696L1089.22,360.652L1089.31,360.607L1089.4,360.561L1089.49,360.515L1089.58,360.468L1089.67,360.421L1089.76,360.373L1089.85,360.324L1089.94,360.274L1090.03,360.223L1090.12,360.172L1090.2,360.121L1090.29,360.068L1090.38,360.015L1090.47,359.961L1090.55,359.906L1090.64,359.851L1090.73,359.795L1090.82,359.739L1090.9,359.681L1090.99,359.624L1091.07,359.565L1091.16,359.506L1091.24,359.446L1091.33,359.385L1091.41,359.324L1091.5,359.262L1091.58,359.199L1091.66,359.136L1091.75,359.072L1091.83,359.008L1091.91,358.943L1092,358.877L1092.08,358.81L1092.16,358.743L1092.24,358.676L1092.32,358.607L1092.4,358.538L1092.48,358.469L1092.56,358.398L1092.64,358.327L1092.72,358.256L1092.8,358.184L1092.88,358.111L1092.96,358.038L1093.04,357.964L1093.12,357.889L1093.19,357.814L1093.27,357.739L1093.35,357.662L1093.42,357.585L1093.5,357.508L1093.58,357.43L1093.65,357.351L1093.73,357.272L1093.8,357.192L1093.87,357.111L1093.95,357.03L1094.02,356.949L1094.09,356.867L1094.17,356.784L1094.24,356.701L1094.31,356.617L1094.38,356.532L1094.45,356.447L1094.53,356.362L1094.6,356.276L1094.66,356.189L1094.74,356.102L1094.8,356.014L1094.87,355.926L1094.94,355.837L1095.01,355.748L1095.08,355.658L1095.14,355.568L1095.21,355.477L1095.28,355.385L1095.34,355.293L1095.41,355.201L1095.47,355.108L1095.54,355.014L1095.6,354.92L1095.67,354.826L1095.73,354.731L1095.79,354.635L1095.86,354.539L1095.92,354.443L1095.98,354.346L1096.04,354.248L1096.1,354.15L1096.16,354.052L1096.22,353.953L1096.28,353.853L1096.34,353.753L1096.4,353.653L1096.46,353.552L1096.52,353.45L1096.57,353.349L1096.63,353.246L1096.69,353.144L1096.74,353.04L1096.8,352.937L1096.85,352.833L1096.91,352.728L1096.96,352.623L1097.02,352.518L1097.07,352.412L1097.12,352.305L1097.17,352.199L1097.22,352.091L1097.28,351.984L1097.33,351.876L1097.38,351.767L1097.43,351.658L1097.48,351.549L1097.52,351.439L1097.57,351.329L1097.62,351.218L1097.67,351.107L1097.71,350.996L1097.76,350.884L1097.81,350.772L1097.85,350.66L1097.9,350.547L1097.94,350.433L1097.98,350.319L1098.03,350.205L1098.07,350.091L1098.11,349.976L1098.15,349.861L1098.19,349.745L1098.24,349.629L1098.28,349.513L1098.31,349.396L1098.35,349.279L1098.39,349.161L1098.43,349.043L1098.47,348.925L1098.5,348.807L1098.54,348.688L1098.58,348.569L1098.61,348.449L1098.64,348.329L1098.68,348.209L1098.71,348.088L1098.75,347.968L1098.78,347.846L1098.81,347.725L1098.84,347.603L1098.87,347.481L1098.9,347.358L1098.93,347.235L1098.96,347.112L1098.99,346.989L1099.02,346.865L1099.05,346.741L1099.07,346.617L1099.1,346.492L1099.12,346.367L1099.15,346.242L1099.17,346.116L1099.2,345.991L1099.22,345.865L1099.24,345.738L1099.27,345.612L1099.29,345.485L1099.31,345.358L1099.33,345.23L1099.35,345.103L1099.37,344.975L1099.38,344.847L1099.4,344.718L1099.42,344.589L1099.44,344.461L1099.45,344.331L1099.47,344.202L1099.48,344.072L1099.5,343.942L1099.51,343.812L1099.52,343.682L1099.54,343.551L1099.55,343.421L1099.56,343.29L1099.57,343.158L1099.58,343.027L1099.59,342.895L1099.6,342.763L1099.61,342.631L1099.61,342.499L1099.62,342.367L1099.63,342.234L1099.63,342.101L1099.64,341.968L1099.64,341.835L1099.64,341.702L1099.65,341.568L1099.65,341.434L1099.65,341.3L1099.65,341.166L1099.65,341.031L1099.65,298.077L1099.65,297.942L1099.65,297.808L1099.65,297.674L1099.65,297.541L1099.64,297.408L1099.64,297.275L1099.64,297.142L1099.63,297.01L1099.63,296.878L1099.62,296.746L1099.61,296.614L1099.61,296.483L1099.6,296.352L1099.59,296.221L1099.58,296.091L1099.57,295.961L1099.56,295.831L1099.55,295.701L1099.54,295.572L1099.53,295.443L1099.51,295.314L1099.5,295.186L1099.49,295.058L1099.47,294.931L1099.45,294.803L1099.44,294.676L1099.42,294.549L1099.41,294.423L1099.39,294.297L1099.37,294.172L1099.35,294.046L1099.33,293.921L1099.31,293.797L1099.29,293.672L1099.27,293.549L1099.25,293.425L1099.23,293.302L1099.2,293.179L1099.18,293.057L1099.16,292.935L1099.13,292.813L1099.11,292.692L1099.08,292.571L1099.06,292.449L1099.04,292.39L1099.03,292.33L1099.02,292.27L1099,292.21L1098.99,292.151L1098.98,292.091L1098.96,292.032L1098.95,291.972L1098.93,291.913L1098.92,291.854L1098.9,291.795L1098.89,291.736L1098.88,291.677L1098.86,291.618L1098.85,291.56L1098.83,291.501L1098.82,291.442L1098.8,291.384L1098.79,291.326L1098.77,291.268L1098.75,291.21L1098.74,291.152L1098.72,291.094L1098.7,291.036L1098.69,290.979L1098.67,290.921L1098.66,290.864L1098.64,290.807L1098.62,290.749L1098.61,290.692L1098.59,290.636L1098.57,290.579L1098.56,290.522L1098.54,290.465L1098.52,290.409L1098.5,290.353L1098.48,290.296L1098.47,290.24L1098.45,290.184L1098.43,290.128L1098.41,290.073L1098.39,290.017L1098.38,289.961L1098.36,289.906L1098.34,289.851L1098.32,289.795L1098.3,289.74L1098.28,289.685L1098.26,289.631L1098.24,289.576L1098.22,289.521L1098.2,289.467L1098.19,289.413L1098.17,289.358L1098.15,289.304L1098.13,289.25L1098.11,289.196L1098.09,289.143L1098.07,289.089L1098.05,289.036L1098.03,288.982L1098.01,288.929L1097.98,288.876L1097.96,288.823L1097.94,288.77L1097.92,288.718L1097.9,288.665L1097.88,288.613L1097.86,288.56L1097.84,288.508L1097.82,288.456L1097.79,288.404L1097.77,288.352L1097.75,288.301L1097.73,288.249L1097.71,288.198L1097.68,288.147L1097.66,288.095L1097.64,288.044L1097.62,287.994L1097.6,287.943L1097.57,287.892L1097.55,287.842L1097.53,287.792L1097.51,287.741L1097.48,287.691L1097.46,287.642L1097.44,287.592L1097.41,287.542L1097.39,287.493L1097.37,287.443L1097.34,287.394L1097.32,287.345L1097.3,287.296L1097.27,287.247L1097.25,287.199L1097.22,287.15L1097.2,287.102L1097.18,287.054L1097.15,287.006L1097.13,286.958L1097.1,286.91L1097.08,286.862L1097.05,286.815L1097.03,286.767L1097.01,286.72L1096.98,286.673L1096.95,286.626L1096.93,286.579L1096.9,286.533L1096.88,286.486L1096.86,286.44L1096.83,286.394L1096.8,286.348L1096.78,286.302L1096.75,286.256L1096.73,286.21L1096.7,286.165L1096.68,286.12L1096.65,286.074L1096.62,286.029L1096.6,285.985L1096.57,285.94L1096.55,285.895L1096.52,285.851L1096.49,285.806L1096.47,285.762L1096.44,285.718L1096.41,285.675L1096.39,285.631L1096.36,285.588L1096.34,285.544L1096.31,285.501L1096.28,285.458L1096.26,285.415L1096.23,285.372L1096.2,285.329L1096.17,285.287L1096.15,285.245L1096.12,285.203L1096.09,285.161L1096.07,285.119L1096.04,285.077L1096.01,285.035L1095.98,284.994L1095.95,284.953L1095.93,284.912L1095.9,284.871L1095.87,284.83L1095.84,284.789L1095.82,284.749L1095.79,284.709L1095.76,284.668L1095.73,284.628L1095.7,284.588L1095.67,284.549L1095.65,284.509L1095.62,284.469L1095.59,284.43L1095.56,284.391L1095.53,284.352L1095.5,284.313L1095.48,284.274L1095.45,284.236L1095.42,284.198L1095.39,284.159L1095.36,284.121L1095.33,284.083L1095.3,284.046L1095.27,284.008L1095.24,283.97L1095.21,283.933L1095.18,283.896L1095.16,283.859L1095.13,283.822L1095.1,283.785L1095.07,283.749L1095.04,283.712L1095.01,283.676L1094.98,283.64L1094.95,283.604L1094.92,283.568L1094.89,283.532L1094.86,283.496L1094.83,283.461L1094.8,283.426L1094.77,283.391L1094.74,283.356L1094.71,283.321L1094.68,283.286L1094.65,283.251L1094.62,283.217L1094.59,283.183L1094.56,283.148L1094.53,283.115L1094.5,283.081L1094.46,283.047L1094.43,283.013L1094.4,282.98L1094.37,282.947L1094.34,282.914L1094.31,282.88L1094.28,282.847L1094.25,282.815L1094.22,282.782L1094.19,282.75L1094.15,282.717L1094.12,282.685L1094.09,282.653L1094.06,282.621L1094.03,282.589L1094,282.558L1093.97,282.526L1093.93,282.495L1093.9,282.463L1093.87,282.432L1093.84,282.401L1093.81,282.37L1093.78,282.339L1093.74,282.309L1093.71,282.278L1093.68,282.248L1093.65,282.218L1093.61,282.187L1093.58,282.158L1093.55,282.128L1093.52,282.098L1093.48,282.068L1093.45,282.039L1093.42,282.009L1093.39,281.98L1093.35,281.951L1093.32,281.922L1093.29,281.893L1093.25,281.865L1093.22,281.836L1093.19,281.807L1093.15,281.779L1093.12,281.751L1093.09,281.723L1093.05,281.695L1093.02,281.667L1092.99,281.639L1092.95,281.611L1092.92,281.584L1092.88,281.556L1092.85,281.529L1092.82,281.502L1092.78,281.475L1092.75,281.448L1092.71,281.421L1092.68,281.394L1092.64,281.368L1092.61,281.342L1092.58,281.315L1092.54,281.289L1092.51,281.263L1092.47,281.237L1092.44,281.211L1092.4,281.185L1092.37,281.16L1092.33,281.134L1092.3,281.109L1092.26,281.084L1092.22,281.058L1092.19,281.033L1092.15,281.008L1092.12,280.984L1092.08,280.959L1092.05,280.935L1092.01,280.91L1091.97,280.886L1091.94,280.862L1091.9,280.838L1091.86,280.814L1091.83,280.79L1091.79,280.766L1091.75,280.742L1091.72,280.719L1091.68,280.696L1091.64,280.672L1091.61,280.649L1091.57,280.626L1091.53,280.603L1091.49,280.581L1091.45,280.558L1091.42,280.536L1091.38,280.513L1091.34,280.491L1091.3,280.469L1091.27,280.447L1091.23,280.425L1091.19,280.403L1091.15,280.382L1091.11,280.36L1091.07,280.339L1091.04,280.318L1091,280.296L1090.96,280.275L1090.92,280.255L1090.88,280.234L1090.84,280.213L1090.8,280.193L1090.76,280.172L1090.72,280.152L1090.68,280.132L1090.64,280.112L1090.6,280.092L1090.56,280.073L1090.53,280.053L1090.49,280.034L1090.44,280.014L1090.4,279.995L1090.36,279.976L1090.32,279.957L1090.28,279.939L1090.24,279.92L1090.2,279.902L1090.16,279.883L1090.12,279.865L1090.08,279.847L1090.04,279.829L1090,279.811L1089.95,279.794L1089.91,279.776L1089.87,279.759L1089.83,279.742L1089.79,279.725L1089.75,279.708L1089.7,279.691L1089.66,279.674L1089.62,279.658L1089.58,279.642L1089.54,279.625L1089.49,279.609L1089.45,279.593L1089.41,279.578L1089.37,279.562L1089.32,279.547L1089.28,279.532L1089.24,279.516L1089.19,279.501L1089.15,279.487L1089.11,279.472L1089.06,279.457L1089.02,279.443L1088.98,279.429L1088.93,279.415L1088.89,279.401L1088.85,279.387L1088.8,279.374L1088.76,279.361L1088.71,279.347L1088.67,279.334L1088.62,279.321L1088.58,279.309L1088.54,279.296L1088.49,279.284L1088.45,279.271L1088.4,279.259L1088.36,279.247L1088.31,279.236L1088.27,279.224L1088.22,279.213L1088.18,279.201L1088.13,279.19L1088.09,279.18L1088.04,279.169L1088,279.158L1087.95,279.148L1087.9,279.138L1087.86,279.128L1087.81,279.118L1087.77,279.108L1087.72,279.099L1087.67,279.089L1087.63,279.08L1087.58,279.071L1087.53,279.062L1087.49,279.054L1087.44,279.045L1087.39,279.037L1087.35,279.029L1087.3,279.021L1087.25,279.014L1087.21,279.006L1087.16,278.999L1087.11,278.992L1087.07,278.985L1087.02,278.978L1086.97,278.971L1086.92,278.965L1086.88,278.959L1086.83,278.953L1086.78,278.947L1086.73,278.941L1086.68,278.936L1086.64,278.93L1086.59,278.925L1086.54,278.92L1086.49,278.916L1086.44,278.911L1086.4,278.907L1086.35,278.903L1086.3,278.899L1086.25,278.895L1086.2,278.892L1086.15,278.888L1086.1,278.885L1086.06,278.882L1086.01,278.88L1085.96,278.877L1085.91,278.875L1085.86,278.873L1085.81,278.871L1085.76,278.869L1085.71,278.867L1085.66,278.866L1085.61,278.865L1085.56,278.864L1085.51,278.863L1085.46,278.863L1085.41,278.862L1085.36,278.862L1032.37,278.862L1032.32,278.862L1032.27,278.863L1032.22,278.863L1032.17,278.864L1032.12,278.865L1032.07,278.866L1032.02,278.867L1031.97,278.869L1031.92,278.871L1031.87,278.873L1031.82,278.875L1031.77,278.877L1031.72,278.88L1031.67,278.882L1031.62,278.885L1031.57,278.889L1031.52,278.892L1031.47,278.896L1031.42,278.899L1031.38,278.903L1031.33,278.908L1031.28,278.912L1031.23,278.917L1031.18,278.921L1031.13,278.926L1031.08,278.932L1031.03,278.937L1030.98,278.943L1030.93,278.948L1030.88,278.954L1030.83,278.961L1030.78,278.967L1030.74,278.974L1030.69,278.98L1030.64,278.988L1030.59,278.995L1030.54,279.002L1030.49,279.01L1030.44,279.018L1030.39,279.026L1030.34,279.034L1030.3,279.042L1030.2,279.06L1030.1,279.078L1030,279.097L1029.9,279.117L1029.81,279.137L1029.71,279.159L1029.62,279.181L1029.52,279.204L1029.42,279.227L1029.33,279.252L1029.23,279.277L1029.13,279.303L1029.04,279.33L1028.94,279.358L1028.85,279.386L1028.75,279.415L1028.66,279.445L1028.56,279.476L1028.47,279.507L1028.37,279.539L1028.28,279.572L1028.18,279.606L1028.09,279.64L1028,279.676L1027.9,279.712L1027.81,279.748L1027.72,279.786L1027.62,279.824L1027.53,279.863L1027.44,279.902L1027.35,279.943L1027.25,279.984L1027.16,280.026L1027.07,280.068L1026.98,280.111L1026.89,280.155L1026.8,280.2L1026.71,280.246L1026.62,280.292L1026.53,280.339L1026.44,280.386L1026.35,280.435L1026.26,280.484L1026.17,280.533L1026.08,280.584L1025.99,280.635L1025.9,280.687L1025.81,280.739L1025.72,280.792L1025.64,280.846L1025.55,280.901L1025.46,280.956L1025.38,281.012L1025.29,281.068L1025.2,281.126L1025.12,281.183L1025.03,281.242L1024.95,281.301L1024.86,281.361L1024.78,281.422L1024.69,281.483L1024.61,281.545L1024.52,281.608L1024.44,281.671L1024.36,281.735L1024.27,281.799L1024.19,281.864L1024.11,281.93L1024.03,281.997L1023.95,282.064L1023.86,282.132L1023.78,282.2L1023.7,282.269L1023.62,282.339L1023.54,282.409L1023.46,282.48L1023.38,282.551L1023.3,282.623L1023.22,282.696L1023.14,282.769L1023.07,282.843L1022.99,282.918L1022.91,282.993L1022.84,283.069L1022.76,283.145L1022.68,283.222L1022.61,283.299L1022.53,283.377L1022.46,283.456L1022.38,283.535Z"/>
            </g>
            <g id="Minion-Logo" serif:id="Minion Logo" transform="matrix(0.593675,-0.29729,0.601112,0.299703,-218.675,279.663)">
                <g transform="matrix(0.472366,6.16298e-33,4.36225e-17,1,105.396,-51.0532)">
                    <g transform="matrix(0.256032,0.119967,-0.513522,0.239569,788.661,569.914)">
                        <path d="M518.019,405.692L518.314,405.716L562.4,410.371L541.148,449.275L541,449.532L540.84,449.782L540.669,450.024L540.487,450.258L540.294,450.483L540.091,450.699L539.878,450.906L539.656,451.102L539.425,451.288L539.186,451.463L538.939,451.627L538.685,451.779L538.424,451.92L538.156,452.048L537.883,452.164L537.605,452.266L537.323,452.356L537.037,452.433L536.747,452.497L536.455,452.547L536.161,452.584L535.865,452.607L535.569,452.616L535.273,452.611L534.977,452.593L534.682,452.562L534.389,452.516L534.098,452.458L533.811,452.385L533.527,452.3L533.247,452.202L532.973,452.09L532.703,451.967L532.44,451.831L532.183,451.683L531.933,451.523L531.691,451.352L531.457,451.169L531.232,450.977L531.016,450.774L530.81,450.561L530.613,450.339L530.427,450.108L530.252,449.869L530.088,449.622L529.936,449.368L529.796,449.106L529.667,448.839L529.552,448.566L529.449,448.288L529.359,448.006L529.282,447.72L529.218,447.43L529.168,447.138L529.132,446.844L529.109,446.548L529.099,446.252L529.104,445.955L529.122,445.659L529.154,445.365L529.199,445.072L529.258,444.781L529.33,444.494L529.415,444.21L529.514,443.93L529.625,443.655L529.749,443.386L529.885,443.123L541.908,421.113L516.967,418.48L516.673,418.442L516.381,418.39L516.092,418.325L515.806,418.247L515.524,418.156L515.246,418.052L514.974,417.935L514.707,417.805L514.447,417.664L514.193,417.51L513.947,417.345L513.708,417.169L513.478,416.982L513.257,416.785L513.045,416.577L512.843,416.36L512.652,416.134L512.471,415.899L512.301,415.656L512.142,415.406L511.995,415.149L511.86,414.885L511.738,414.615L511.628,414.339L511.531,414.059L511.447,413.775L511.376,413.487L511.318,413.196L511.274,412.903L511.244,412.608L511.227,412.312L511.224,412.016L511.235,411.72L511.259,411.424L511.297,411.13L511.348,410.838L511.413,410.549L511.492,410.263L511.583,409.981L511.687,409.704L511.804,409.431L511.933,409.164L512.075,408.904L512.228,408.65L512.393,408.404L512.57,408.166L512.757,407.936L512.954,407.715L513.161,407.503L513.378,407.301L513.605,407.109L513.839,406.928L514.082,406.758L514.333,406.599L514.59,406.452L514.854,406.318L515.124,406.195L515.399,406.085L515.679,405.988L515.964,405.904L516.251,405.833L516.542,405.776L516.835,405.732L517.13,405.701L517.426,405.684L517.723,405.681L518.019,405.692Z"/>
                        <path d="M461.632,463.193L544.263,419.878C544.263,419.878 548.045,417.896 552.154,415.742" style="fill:none;stroke:black;stroke-width:12.83px;stroke-linecap:round;stroke-miterlimit:1.5;"/>
                    </g>
                </g>
                <g transform="matrix(0.377893,6.16298e-33,3.4898e-17,1,231.51,-50.4875)">
                    <g transform="matrix(0.320041,0.119967,-0.641902,0.239569,652.096,569.348)">
                        <path d="M759.26,287.447L759.555,287.47L803.663,291.917L782.594,330.921L782.447,331.179L782.289,331.429L782.119,331.672L781.938,331.907L781.746,332.133L781.544,332.35L781.332,332.557L781.111,332.755L780.881,332.942L780.643,333.118L780.396,333.283L780.143,333.436L779.882,333.578L779.616,333.708L779.343,333.825L779.066,333.929L778.784,334.02L778.498,334.098L778.209,334.163L777.917,334.215L777.623,334.253L777.327,334.277L777.031,334.288L776.735,334.285L776.439,334.268L776.144,334.238L775.851,334.194L775.56,334.136L775.272,334.066L774.988,333.982L774.708,333.884L774.432,333.775L774.162,333.652L773.898,333.517L773.641,333.37L773.39,333.212L773.147,333.042L772.913,332.861L772.687,332.669L772.47,332.467L772.262,332.255L772.065,332.034L771.878,331.804L771.701,331.566L771.536,331.32L771.383,331.066L771.241,330.806L771.112,330.539L770.995,330.267L770.891,329.989L770.799,329.707L770.721,329.421L770.656,329.132L770.605,328.84L770.567,328.546L770.542,328.251L770.532,327.954L770.535,327.658L770.551,327.362L770.582,327.067L770.626,326.774L770.683,326.483L770.754,326.195L770.838,325.911L770.935,325.631L771.045,325.355L771.167,325.086L771.302,324.822L783.222,302.755L758.268,300.24L757.974,300.203L757.682,300.153L757.392,300.089L757.106,300.013L756.823,299.923L756.545,299.82L756.273,299.704L756.005,299.576L755.744,299.436L755.49,299.283L755.243,299.12L755.003,298.944L754.773,298.759L754.551,298.562L754.338,298.356L754.135,298.14L753.942,297.914L753.76,297.681L753.589,297.439L753.429,297.189L753.281,296.932L753.145,296.669L753.021,296.399L752.91,296.125L752.811,295.845L752.726,295.561L752.654,295.274L752.595,294.983L752.549,294.69L752.518,294.395L752.499,294.1L752.495,293.803L752.504,293.507L752.527,293.211L752.564,292.917L752.614,292.625L752.677,292.335L752.754,292.049L752.844,291.767L752.947,291.489L753.063,291.216L753.191,290.948L753.331,290.687L753.483,290.433L753.647,290.186L753.822,289.947L754.008,289.716L754.205,289.494L754.411,289.281L754.627,289.078L754.852,288.885L755.086,288.703L755.328,288.532L755.578,288.372L755.835,288.224L756.098,288.088L756.367,287.964L756.642,287.853L756.922,287.754L757.206,287.669L757.493,287.597L757.784,287.538L758.077,287.492L758.371,287.461L758.667,287.443L758.964,287.438L759.26,287.447Z"/>
                        <path d="M723.521,334.41L789.238,299.565C789.238,299.565 791.077,298.59 793.442,297.336" style="fill:none;stroke:black;stroke-width:12.83px;stroke-linecap:round;stroke-miterlimit:1.5;"/>
                    </g>
                </g>
                <g transform="matrix(0.334013,0.334013,-0.707107,0.707107,778.263,-42.6088)">
                    <g transform="matrix(0.360627,-0.000688511,-0.00449228,0.340924,390.911,609.385)">
                        <path d="M882.186,347.074L882.495,347.096L882.803,347.133L883.109,347.185L883.412,347.252L883.711,347.333L884.006,347.428L884.297,347.538L884.581,347.661L884.859,347.798L885.13,347.949L885.394,348.112L922.506,372.359L885.851,397.291L885.59,397.459L885.322,397.614L885.046,397.757L884.764,397.885L884.476,398L884.183,398.101L883.885,398.188L883.583,398.26L883.279,398.317L882.972,398.36L882.663,398.388L882.353,398.401L882.043,398.399L881.733,398.382L881.425,398.35L881.118,398.303L880.814,398.241L880.514,398.165L880.217,398.074L879.925,397.969L879.639,397.85L879.358,397.718L879.085,397.572L878.819,397.412L878.56,397.241L878.311,397.057L878.07,396.861L877.84,396.654L877.619,396.436L877.409,396.207L877.211,395.969L877.025,395.721L876.85,395.464L876.688,395.2L876.539,394.928L876.404,394.649L876.282,394.364L876.174,394.073L876.08,393.777L876.001,393.478L875.936,393.174L875.886,392.868L875.851,392.56L875.83,392.251L875.825,391.941L875.835,391.631L875.859,391.322L875.899,391.014L875.953,390.709L876.022,390.406L876.105,390.108L876.203,389.813L876.315,389.524L876.441,389.241L876.58,388.964L876.733,388.694L876.898,388.431L877.076,388.177L877.266,387.932L877.468,387.697L877.681,387.471L877.904,387.256L878.138,387.052L878.381,386.859L878.633,386.679L899.37,372.574L878.374,358.856L878.119,358.68L877.872,358.492L877.635,358.293L877.408,358.082L877.191,357.86L876.985,357.628L876.79,357.387L876.608,357.136L876.437,356.877L876.28,356.61L876.135,356.335L876.004,356.054L875.887,355.767L875.784,355.475L875.695,355.178L875.62,354.877L875.56,354.573L875.515,354.266L875.485,353.957L875.469,353.647L875.469,353.337L875.483,353.028L875.513,352.719L875.557,352.412L875.617,352.107L875.69,351.806L875.779,351.509L875.881,351.216L875.998,350.929L876.128,350.648L876.272,350.373L876.429,350.105L876.598,349.846L876.78,349.594L876.974,349.352L877.18,349.12L877.396,348.898L877.623,348.686L877.86,348.486L878.106,348.297L878.361,348.121L878.624,347.957L878.895,347.806L879.173,347.668L879.457,347.544L879.747,347.434L880.041,347.337L880.341,347.256L880.643,347.188L880.949,347.136L881.257,347.098L881.566,347.075L881.876,347.067L882.186,347.074Z"/>
                        <path d="M775.765,373.722L896.094,372.604C896.094,372.604 903.837,372.532 910.938,372.466" style="fill:none;stroke:black;stroke-width:12.83px;stroke-linecap:round;stroke-miterlimit:1.5;"/>
                    </g>
                </g>
                <g transform="matrix(0.334013,-0.334013,0.707107,0.707107,-262.168,369.313)">
                    <g transform="matrix(0.00145758,0.170348,-0.721737,-0.002122,884.025,629.076)">
                        <path d="M655.381,261.282L655.562,261.534L655.73,261.795L655.885,262.063L656.028,262.339L656.156,262.621L656.271,262.909L656.372,263.202L656.459,263.5L656.531,263.802L656.589,264.106L656.631,264.414L656.659,264.722L656.672,265.032L656.67,265.342L656.653,265.652L656.621,265.96L656.574,266.267L656.512,266.571L656.436,266.872L656.345,267.168L656.24,267.46L656.121,267.746L655.989,268.027L655.843,268.3L655.684,268.567L655.512,268.825L655.328,269.074L655.132,269.315L654.925,269.546L654.707,269.766L654.478,269.976L654.24,270.174L653.992,270.361L653.736,270.535L653.471,270.697L653.199,270.846L652.92,270.981L652.635,271.103L652.344,271.211L652.049,271.305L651.749,271.384L651.446,271.449L651.14,271.499L650.832,271.535L650.522,271.555L650.212,271.56L649.902,271.551L649.593,271.526L649.285,271.487L648.98,271.433L648.678,271.364L648.379,271.28L648.085,271.182L647.796,271.07L647.512,270.944L647.235,270.805L646.965,270.653L646.703,270.487L646.449,270.309L646.204,270.119L645.968,269.918L645.742,269.705L645.527,269.482L645.323,269.248L645.131,269.005L630.039,248.974L617.353,270.609L617.19,270.872L617.014,271.128L616.826,271.374L616.626,271.612L616.416,271.839L616.194,272.056L615.962,272.262L615.721,272.456L615.47,272.639L615.211,272.809L614.944,272.967L614.669,273.111L614.388,273.242L614.101,273.36L613.809,273.463L613.512,273.552L613.211,273.627L612.906,273.687L612.6,273.732L612.291,273.762L611.981,273.778L611.671,273.778L611.361,273.764L611.053,273.734L610.746,273.69L610.441,273.63L610.14,273.557L609.843,273.468L609.55,273.366L609.263,273.249L608.981,273.119L608.706,272.975L608.439,272.818L608.179,272.649L607.928,272.467L607.686,272.273L607.454,272.067L607.232,271.851L607.02,271.624L606.82,271.388L606.631,271.141L606.455,270.886L606.291,270.623L606.14,270.352L606.002,270.075L605.878,269.79L605.767,269.501L605.671,269.206L605.589,268.907L605.522,268.604L605.469,268.298L605.431,267.99L605.409,267.681L605.401,267.371L605.408,267.061L605.43,266.752L605.467,266.444L605.519,266.138L605.585,265.835L605.666,265.536L605.762,265.241L605.871,264.951L605.995,264.666L606.132,264.388L606.282,264.117L628.706,225.875L655.381,261.282Z"/>
                        <path d="M632.94,299.214L629.468,239.076C629.468,239.076 629.43,238.43 629.372,237.424" style="fill:none;stroke:black;stroke-width:12.83px;stroke-linecap:round;stroke-miterlimit:1.5;"/>
                    </g>
                </g>
                <g transform="matrix(1.17293e-16,0.61805,-0.404498,-3.25339e-17,747.344,516.691)">
                    <path d="M246.834,724.984L246.834,681.609C246.834,681.151 246.918,680.718 247.084,680.312C247.251,679.906 247.485,679.552 247.788,679.25C248.09,678.947 248.439,678.713 248.834,678.546C249.23,678.38 249.668,678.296 250.147,678.296C251.439,678.296 252.418,678.89 253.084,680.078L271.834,717.546L290.584,680.078C291.334,678.89 292.314,678.296 293.522,678.296C293.98,678.296 294.413,678.38 294.819,678.546C295.225,678.713 295.579,678.947 295.881,679.25C296.183,679.552 296.418,679.906 296.584,680.312C296.751,680.718 296.834,681.151 296.834,681.609L296.834,724.984C296.834,725.901 296.512,726.682 295.866,727.328C295.22,727.974 294.439,728.296 293.522,728.296C292.605,728.296 291.824,727.974 291.178,727.328C290.532,726.682 290.209,725.901 290.209,724.984L290.209,695.671L274.709,726.64C274.064,727.744 273.105,728.296 271.834,728.296C270.459,728.296 269.449,727.63 268.803,726.296L253.459,695.671L253.459,724.984C253.459,725.901 253.137,726.682 252.491,727.328C251.845,727.974 251.064,728.296 250.147,728.296C249.23,728.296 248.449,727.974 247.803,727.328C247.157,726.682 246.834,725.901 246.834,724.984Z" style="fill:rgb(76,157,69);fill-rule:nonzero;stroke:rgb(76,157,69);stroke-width:0.61px;"/>
                </g>
            </g>
        </g>
    </g>
</svg>
