<?xml version="1.0" encoding="UTF-8" standalone="no"?>
<!DOCTYPE svg PUBLIC "-//W3C//DTD SVG 1.1//EN" "http://www.w3.org/Graphics/SVG/1.1/DTD/svg11.dtd">
<svg width="100%" height="100%" viewBox="0 0 550 800" version="1.1" xmlns="http://www.w3.org/2000/svg" xmlns:xlink="http://www.w3.org/1999/xlink" xml:space="preserve" xmlns:serif="http://www.serif.com/" style="fill-rule:evenodd;clip-rule:evenodd;">
    <g id="g4485" transform="matrix(0.519673,0,0,0.519673,-2245.45,-1670.45)">
        <g id="path5019-02-9" transform="matrix(0.977545,0.210726,-0.210726,0.977545,469.892,1347.21)">
            <path d="M5241.65,1815.17L4967.19,1873.45L4779.49,1664.89L4866.26,1398.07L5140.72,1339.79L5328.42,1548.34L5241.65,1815.17Z" style="fill:rgb(193,39,102);fill-rule:nonzero;"/>
        </g>
        <g id="path5019-0-5-1" transform="matrix(0.977545,0.210726,-0.210726,0.977545,26.4202,1601.63)">
            <path d="M5241.65,1815.17L4967.19,1873.45L4779.49,1664.89L4866.26,1398.07L5140.72,1339.79L5328.42,1548.34L5241.65,1815.17Z" style="fill:rgb(62,72,159);fill-rule:nonzero;"/>
        </g>
        <g id="path5019-4-1-2" transform="matrix(0.977545,0.210726,-0.210726,0.977545,467.136,1857.29)">
            <path d="M5241.65,1815.17L4967.19,1873.45L4779.49,1664.89L4866.26,1398.07L5140.72,1339.79L5328.42,1548.34L5241.65,1815.17Z" style="fill:rgb(113,64,153);fill-rule:nonzero;"/>
        </g>
        <g id="path5019-0-4-9-8" transform="matrix(0.977545,0.210726,-0.210726,0.977545,28.7545,1094.67)">
            <path d="M5241.65,1815.17L4967.19,1873.45L4779.49,1664.89L4866.26,1398.07L5140.72,1339.79L5328.42,1548.34L5241.65,1815.17Z" style="fill:rgb(120,147,44);fill-rule:nonzero;"/>
        </g>
        <g id="path5019-0-0-7-9" transform="matrix(0.977545,0.210726,-0.210726,0.977545,469.681,839.894)">
            <path d="M5241.65,1815.17L4967.19,1873.45L4779.49,1664.89L4866.26,1398.07L5140.72,1339.79L5328.42,1548.34L5241.65,1815.17Z" style="fill:rgb(207,36,42);fill-rule:nonzero;"/>
        </g>
        <circle id="path5553" cx="5071.6" cy="3475.43" r="42.52" style="fill:white;"/>
        <circle id="path5553-1" cx="4630.67" cy="3730.2" r="42.52" style="fill:white;"/>
        <circle id="path5553-3" cx="4628.33" cy="4237.17" r="42.52" style="fill:white;"/>
        <circle id="path5553-7" cx="5069.05" cy="4492.83" r="42.52" style="fill:white;"/>
        <path id="path5592" d="M5044.74,3487.3L4658.66,3708.5" style="fill:none;stroke:white;stroke-width:14.17px;"/>
        <path id="path5592-7" d="M4629.06,3763.42L4630.36,4208.37" style="fill:none;stroke:white;stroke-width:14.17px;"/>
        <path id="path5592-7-1" d="M4659.64,4255.7L5042.19,4482.94" style="fill:none;stroke:white;stroke-width:14.17px;"/>
        <circle id="path5553-70" cx="5071.81" cy="3982.75" r="42.52" style="fill:white;"/>
        <path id="path5592-7-7" d="M5070.24,3505.35L5071.54,3950.3" style="fill:none;stroke:white;stroke-width:14.17px;"/>
        <path id="path5592-7-4" d="M5072.7,4015.35L5074,4460.3" style="fill:none;stroke:white;stroke-width:14.17px;"/>
        <path id="path5592-5" d="M5045.39,3998.67L4659.32,4219.86" style="fill:none;stroke:white;stroke-width:14.17px;"/>
        <path id="path5592-7-1-3" d="M4661.08,3748.86L5043.62,3976.1" style="fill:none;stroke:white;stroke-width:14.17px;"/>
    </g>
</svg>
