<?xml version="1.0" encoding="UTF-8" standalone="no"?>
<!DOCTYPE svg PUBLIC "-//W3C//DTD SVG 1.1//EN" "http://www.w3.org/Graphics/SVG/1.1/DTD/svg11.dtd">
<svg width="100%" height="100%" viewBox="0 0 650 800" version="1.1" xmlns="http://www.w3.org/2000/svg" xmlns:xlink="http://www.w3.org/1999/xlink" xml:space="preserve" xmlns:serif="http://www.serif.com/" style="fill-rule:evenodd;clip-rule:evenodd;stroke-linecap:round;stroke-linejoin:round;">
    <g id="ScyllaDB" transform="matrix(2.63847,0,0,2.63847,-61.5579,15.044)">
        <g>
            <path d="M92.853,269.533C94.567,278.544 88.99,287.131 79.979,289.274C70.963,290.989 62.381,285.412 60.238,276.396C60.238,276.396 29.771,133.474 29.771,104.288C29.762,43.35 78.26,0 146.504,0C214.748,0 263.246,42.921 263.246,103.864C263.246,133.05 232.779,275.972 232.779,275.972C231.065,284.988 222.478,290.998 213.42,289.279C204.363,287.56 198.394,278.977 200.114,269.92" style="fill:rgb(87,209,229);fill-rule:nonzero;stroke:rgb(59,45,85);stroke-width:5.41px;"/>
            <path d="M225.469,228.755L217.311,275.11C216.02,284.121 207.438,290.56 198.427,289.274C189.416,287.988 182.977,279.401 184.263,270.39" style="fill:rgb(87,209,229);fill-rule:nonzero;"/>
        </g>
        <path d="M227.193,228.755L223.33,253.221L221.182,265.237L220.325,271.676L219.035,278.115C216.029,288.417 205.299,293.994 194.997,290.994C190.862,289.746 187.245,287.184 184.696,283.697C182.115,279.835 180.833,274.682 181.691,269.962C181.691,268.671 183.405,267.381 184.696,267.814C185.986,267.814 187.277,269.533 186.844,270.819C185.885,277.978 190.872,284.691 198.003,285.84C204.916,287.131 212.167,283.259 214.31,276.401C214.739,275.11 215.167,272.538 215.601,270.824L216.891,264.813L219.039,252.797L223.759,228.76C224.167,227.955 225.005,227.454 225.907,227.474C226.764,227.474 227.197,228.331 227.197,228.765L227.193,228.755Z" style="fill:rgb(59,45,85);fill-rule:nonzero;"/>
        <path d="M55.085,93.134C55.085,64.363 78.246,41.202 107.017,41.202C135.787,41.202 158.949,64.363 158.949,93.134C158.949,121.905 135.787,145.066 107.017,145.066C78.246,145.066 55.085,121.905 55.085,93.134Z" style="fill:white;fill-rule:nonzero;stroke:rgb(59,45,85);stroke-width:5.41px;"/>
        <path d="M117.752,58.8C108.736,60.519 107.021,80.26 112.174,85.837C115.608,89.271 122.905,90.557 122.905,93.134C122.905,95.71 115.608,96.996 112.174,100.43C106.643,106.007 108.741,125.753 117.752,127.468C128.482,129.616 144.789,116.738 144.789,93.129C144.789,69.521 128.482,56.647 117.752,58.791L117.752,58.8Z" style="fill:rgb(59,45,85);fill-rule:nonzero;"/>
        <g>
            <path d="M82.122,163.092C83.837,168.624 89.419,177.257 96.715,175.537C100.149,174.68 102.246,169.96 102.246,163.092" style="fill:white;fill-rule:nonzero;stroke:rgb(59,45,85);stroke-width:4.51px;"/>
            <path d="M128.477,159.663C130.192,166.96 131.911,172.108 137.493,172.108C143.075,172.108 149.938,164.812 148.223,152.367" style="fill:white;fill-rule:nonzero;stroke:rgb(59,45,85);stroke-width:5.41px;"/>
        </g>
        <g>
            <path d="M71.397,159.23C106.159,164.378 141.355,155.796 170.112,136.055C171.403,135.626 173.118,136.055 173.546,137.345C173.975,138.203 173.975,139.493 173.118,140.351C143.075,160.954 106.593,169.112 70.539,163.95C69.249,163.521 68.825,162.235 69.249,160.945C70.106,159.654 70.539,159.225 71.397,159.225L71.397,159.23ZM174.403,144.204C173.399,139.387 169.426,135.755 164.531,135.188C163.24,135.617 161.525,134.76 161.525,133.04C161.097,131.75 161.954,130.035 163.673,130.035L165.388,130.035C172.194,131.319 177.421,136.896 178.261,143.771C178.261,144.628 177.404,145.485 176.547,145.485C175.256,145.914 174.399,145.057 174.399,144.195L174.403,144.204Z" style="fill:rgb(59,45,85);fill-rule:nonzero;"/>
            <path d="M108.731,270.39C110.022,279.406 104.012,287.988 94.567,289.274C85.556,290.565 76.969,284.555 75.683,275.11L67.958,228.755" style="fill:rgb(87,209,229);fill-rule:nonzero;"/>
            <path d="M111.741,269.962C113.032,280.692 105.302,290.132 95.001,291.422C85.552,292.713 76.979,286.702 74.397,278.115L73.107,271.676L70.526,253.654C68.378,245.072 67.092,236.914 65.806,228.765C65.806,227.907 66.663,227.045 67.52,227.045C68.378,227.045 69.235,227.474 69.235,228.336L73.955,252.368L77.817,270.39L79.108,275.921C81.256,282.835 88.124,287.076 95.415,285.37C102.329,283.651 107.003,277.212 106.146,270.344C106.146,269.054 107.003,267.339 108.294,267.339C110.008,266.91 111.299,268.196 111.727,269.92L111.741,269.962Z" style="fill:rgb(59,45,85);fill-rule:nonzero;"/>
            <path d="M132.768,271.252C133.197,280.263 126.329,288.422 116.89,288.85C108.307,289.279 100.573,282.84 99.72,274.258L94.567,227.903" style="fill:rgb(87,209,229);fill-rule:nonzero;"/>
            <path d="M135.774,271.252C136.202,281.983 128.049,290.994 117.318,291.427C107.869,291.856 99.72,285.85 97.577,276.834C97.148,274.686 96.72,272.548 96.72,270.395L96.291,264.385L95.001,252.368L92.853,227.903C92.853,227.045 93.71,226.183 94.572,226.183C95.434,226.183 96.287,226.612 96.287,227.474L101.435,263.956L102.292,269.966C102.721,272.114 102.721,274.253 103.15,275.497C104.869,282.411 111.732,287.085 118.6,285.799C125.606,284.472 130.657,278.332 130.616,271.206C130.616,269.916 131.907,268.625 133.621,268.625C134.478,269.054 135.336,269.916 135.769,271.206L135.774,271.252Z" style="fill:rgb(59,45,85);fill-rule:nonzero;"/>
            <path d="M198.436,227.474L193.287,274.258C192.43,283.273 184.705,290.136 175.265,289.284C166.254,288.426 159.387,280.701 160.239,271.262" style="fill:rgb(87,209,229);fill-rule:nonzero;"/>
            <path d="M200.579,227.474L198.431,251.94L197.141,263.956L196.712,269.966C196.712,272.11 196.283,274.253 195.855,276.405C194.564,281.125 191.992,284.988 187.696,287.993C178.681,294.003 167.093,291.856 161.087,282.845C158.506,279.411 157.654,275.119 157.654,270.828C158.082,269.538 159.368,268.247 160.659,268.68C161.949,268.68 162.807,269.971 162.807,271.262C162.378,278.558 167.527,284.568 174.823,285.854C181.737,286.712 188.558,282.42 190.273,275.553L191.13,270.022L193.711,252L197.145,227.534C197.574,226.677 198.436,225.819 199.293,226.243C199.722,226.243 200.151,226.672 200.584,227.534L200.579,227.474Z" style="fill:rgb(59,45,85);fill-rule:nonzero;"/>
            <path d="M164.535,225.759L163.245,272.543C163.245,281.559 155.948,289.284 146.504,289.284C137.493,289.284 129.772,281.987 129.772,272.543L128.482,225.759" style="fill:rgb(87,209,229);fill-rule:nonzero;"/>
            <path d="M166.241,226.188L165.812,262.241L165.812,271.252C165.812,274.686 165.383,278.166 163.664,281.125C158.944,290.574 146.933,294.432 137.484,289.284C132.335,286.702 128.473,281.559 127.611,275.977C127.182,274.258 127.182,272.543 127.182,270.828L127.182,261.803L126.753,225.75C126.753,224.893 127.611,224.031 128.468,224.031C129.325,224.031 130.183,224.888 130.183,225.75L132.331,270.814C132.331,272.105 132.331,273.396 132.759,274.677L134.05,278.111C137.912,285.025 146.066,287.56 152.934,283.642C155.515,282.351 157.22,280.208 158.465,278.111L159.755,274.677C160.184,273.386 160.184,272.096 160.184,270.814L162.332,225.75C162.332,224.893 163.189,224.031 164.051,224.031C165.766,224.031 166.194,224.888 166.194,226.179L166.241,226.188Z" style="fill:rgb(59,45,85);fill-rule:nonzero;"/>
        </g>
    </g>
</svg>
