<?xml version="1.0" encoding="UTF-8" standalone="no"?>
<!DOCTYPE svg PUBLIC "-//W3C//DTD SVG 1.1//EN" "http://www.w3.org/Graphics/SVG/1.1/DTD/svg11.dtd">
<svg width="100%" height="100%" viewBox="0 0 650 800" version="1.1" xmlns="http://www.w3.org/2000/svg" xmlns:xlink="http://www.w3.org/1999/xlink" xml:space="preserve" xmlns:serif="http://www.serif.com/" style="fill-rule:evenodd;clip-rule:evenodd;stroke-linejoin:round;stroke-miterlimit:2;">
    <g id="Kibana" transform="matrix(12.2241,1.50674e-31,0,12.2241,-21.6977,-183.108)">
        <g transform="matrix(1,0,0,1,2.95268,73.3246)">
            <path d="M0,-33.578L0,0L23.866,-27.483C16.77,-31.35 8.65,-33.578 0,-33.578" style="fill:rgb(52,55,65);"/>
        </g>
        <g transform="matrix(0,1,1,0,43.0002,5.7941)">
            <path d="M9.953,-40.048L33.953,-40.048C33.953,-31.398 36.18,-23.278 40.048,-16.182L9.953,9.953L9.953,-40.048Z" style="fill:rgb(240,78,152);"/>
        </g>
        <g transform="matrix(0.0968325,-1.19355e-33,0,0.0968325,-33.081,19.6199)">
            <path d="M397.403,620L418.911,595.237L671.822,303.992C775.898,378.355 851.339,490.212 877.947,620L397.403,620Z" style="fill:rgb(0,191,179);"/>
        </g>
    </g>
</svg>
