<?xml version="1.0" encoding="UTF-8" standalone="no"?>
<!DOCTYPE svg PUBLIC "-//W3C//DTD SVG 1.1//EN" "http://www.w3.org/Graphics/SVG/1.1/DTD/svg11.dtd">
<svg width="100%" height="100%" viewBox="0 0 780 800" version="1.1" xmlns="http://www.w3.org/2000/svg" xmlns:xlink="http://www.w3.org/1999/xlink" xml:space="preserve" xmlns:serif="http://www.serif.com/" style="fill-rule:evenodd;clip-rule:evenodd;stroke-linejoin:round;stroke-miterlimit:2;">
    <g id="PostgreSQL" transform="matrix(6.38796,0,0,6.38796,-20.5221,-8.83048)">
        <path d="M93.809,92.112C94.594,85.579 94.359,84.62 99.225,85.679L100.46,85.787C104.202,85.957 109.097,85.185 111.973,83.849C118.164,80.976 121.834,76.181 115.731,77.44C101.807,80.313 100.85,75.598 100.85,75.598C115.553,53.783 121.699,26.09 116.393,19.311C101.923,0.822 76.876,9.565 76.457,9.791L76.323,9.816C73.572,9.245 70.493,8.904 67.034,8.848C60.733,8.744 55.952,10.5 52.325,13.25C52.325,13.25 7.642,-5.159 9.721,36.401C10.163,45.242 22.393,103.299 36.981,85.763C42.313,79.351 47.465,73.929 47.465,73.929C50.023,75.628 53.087,76.496 56.299,76.184L56.548,75.972C56.47,76.768 56.504,77.547 56.647,78.469C52.89,82.668 53.994,83.405 46.481,84.951C38.879,86.517 43.345,89.306 46.26,90.035C49.795,90.919 57.972,92.171 63.498,84.437L63.278,85.319C64.752,86.499 64.653,93.796 64.861,99.009C65.07,104.223 65.419,109.088 66.482,111.957C67.545,114.825 68.799,122.213 78.673,120.097C86.925,118.333 93.234,115.788 93.809,92.112" style="fill-rule:nonzero;"/>
        <path d="M75.458,125.256C71.091,125.256 68.247,123.567 66.52,121.936C63.913,119.476 62.879,116.307 62.261,114.414L61.994,113.624C60.75,110.266 60.328,105.431 60.078,99.205C60.04,98.27 60.014,97.307 59.985,96.286C59.964,95.539 59.938,94.602 59.9,93.622C58.347,94.364 56.687,94.892 54.938,95.19C51.859,95.716 48.549,95.546 45.098,94.683C42.663,94.074 40.133,92.812 38.691,90.863C34.488,94.544 30.479,94.045 28.295,93.316C24.442,92.031 20.994,88.42 17.753,82.279C15.444,77.904 13.211,72.204 11.115,65.336C7.465,53.376 5.146,40.779 4.94,36.643C4.292,23.698 7.777,14.44 15.296,9.129C27.157,0.751 45.128,5.678 51.68,7.915C56.082,5.262 61.261,3.971 67.113,4.064C70.256,4.115 73.249,4.391 76.029,4.887C78.929,3.975 84.657,2.666 91.214,2.748C103.295,2.892 113.306,7.6 120.163,16.363C125.057,22.615 122.637,35.744 120.76,43.014C118.118,53.24 113.489,64.116 107.803,73.584C109.347,73.595 111.584,73.41 114.764,72.753C121.038,71.458 122.873,74.822 123.371,76.328C125.366,82.37 116.694,86.936 113.989,88.192C110.523,89.801 104.872,90.781 100.244,90.569L100.042,90.556L98.826,90.449L98.706,91.463L98.59,92.454C98.279,104.453 96.565,112.052 93.038,117.073C89.341,122.337 84.203,123.812 79.677,124.782C78.133,125.112 76.73,125.256 75.458,125.256ZM66.268,81.585C69.087,83.841 69.334,88.086 69.555,96.019C69.583,97.009 69.609,97.946 69.644,98.821C69.75,101.471 69.999,107.676 70.971,110.298C71.108,110.669 71.231,111.045 71.361,111.444C72.444,114.76 72.987,116.423 77.67,115.422C81.601,114.579 83.622,113.823 85.204,111.571C87.503,108.297 88.789,101.711 89.025,91.996L93.808,92.112L89.058,91.542L89.198,90.356C89.653,86.446 89.981,83.622 92.594,81.754C94.691,80.256 97.08,80.401 98.983,80.744C96.892,79.164 96.314,77.311 96.16,76.551L95.761,74.586L96.882,72.923C103.339,63.343 108.663,51.569 111.491,40.619C114.397,29.368 113.511,23.393 112.625,22.263C100.896,7.276 80.557,13.464 78.433,14.166L78.074,14.36L76.274,14.695L75.352,14.504C72.81,13.976 69.986,13.684 66.959,13.635C62.203,13.555 58.366,14.679 55.22,17.066L53.037,18.721L50.504,17.678C45.092,15.465 29.196,11.016 20.808,16.957C16.152,20.255 14.031,26.717 14.503,36.164C14.659,39.283 16.778,51.09 20.274,62.541C25.105,78.366 29.495,83.623 31.328,84.234C31.648,84.342 32.478,83.697 33.304,82.705C38.674,76.246 43.783,70.861 43.998,70.635L46.768,67.72L50.117,69.945C51.467,70.842 52.956,71.351 54.485,71.447L62.472,64.635L61.315,76.443C61.289,76.708 61.276,77.069 61.38,77.739L61.728,79.977L60.218,81.665L60.044,81.861L64.432,83.886L66.268,81.585Z" style="fill-rule:nonzero;"/>
        <path d="M115.731,77.44C101.806,80.313 100.849,75.598 100.849,75.598C115.552,53.782 121.698,26.088 116.394,19.311C101.924,0.823 76.875,9.566 76.457,9.793L76.322,9.817C73.571,9.246 70.492,8.906 67.031,8.85C60.73,8.747 55.951,10.502 52.324,13.252C52.324,13.252 7.64,-5.156 9.718,36.403C10.16,45.245 22.39,103.302 36.978,85.766C42.31,79.354 47.461,73.932 47.461,73.932C50.02,75.631 53.083,76.499 56.294,76.187L56.544,75.975C56.466,76.771 56.502,77.55 56.644,78.472C52.886,82.671 53.99,83.408 46.477,84.954C38.875,86.52 43.341,89.309 46.257,90.038C49.791,90.922 57.969,92.174 63.494,84.44L63.273,85.322C64.746,86.502 65.78,92.994 65.607,98.879C65.433,104.764 65.317,108.805 66.478,111.961C67.638,115.117 68.794,122.217 78.67,120.101C86.922,118.333 91.198,113.75 91.794,106.106C92.216,100.671 93.171,101.475 93.232,96.616L93.999,94.316C94.883,86.949 94.139,84.573 99.224,85.678L100.459,85.786C104.201,85.956 109.098,85.184 111.973,83.848C118.163,80.977 121.834,76.181 115.731,77.44Z" style="fill:rgb(51,103,145);fill-rule:nonzero;"/>
        <path d="M75.957,122.307C67.725,122.307 65.117,115.788 64.05,113.122C62.488,109.215 62.151,94.053 62.499,81.619C62.523,80.738 63.253,80.042 64.139,80.069C65.02,80.093 65.714,80.827 65.689,81.708C65.288,96.049 65.857,109.045 67.013,111.937C68.817,116.446 71.553,120.39 79.288,118.733C86.631,117.158 89.381,114.374 90.606,107.273C91.546,101.824 93.405,86.322 93.634,83.263C93.7,82.385 94.462,81.724 95.344,81.791C96.222,81.857 96.881,82.623 96.816,83.501C96.577,86.686 94.727,102.158 93.751,107.816C92.305,116.203 88.566,120.007 79.957,121.853C78.494,122.166 77.165,122.306 75.957,122.307ZM31.321,90.466C30.536,90.466 29.823,90.321 29.205,90.116C23.858,88.332 18.765,79.624 14.067,64.231C10.491,52.514 8.225,40.284 8.026,36.309C7.437,24.525 10.471,16.188 17.046,11.531C30.053,2.315 51.934,11.091 52.859,11.469C53.674,11.802 54.066,12.734 53.732,13.55C53.399,14.365 52.467,14.756 51.652,14.424C51.441,14.338 30.459,5.932 18.884,14.139C13.262,18.125 10.681,25.531 11.212,36.15C11.379,39.499 13.496,51.435 17.118,63.299C21.312,77.041 26.085,85.712 30.214,87.089C30.862,87.305 32.834,87.962 35.653,84.572C40.958,78.19 45.831,73.096 45.88,73.046C46.49,72.41 47.5,72.389 48.136,72.999C48.772,73.609 48.794,74.619 48.184,75.254C48.136,75.304 43.337,80.321 38.107,86.613C35.63,89.592 33.256,90.466 31.321,90.466ZM100.75,77.021C100.443,77.021 100.133,76.933 99.859,76.749C99.129,76.256 98.935,75.265 99.428,74.534C114.291,52.479 119.508,25.83 115.04,20.12C109.416,12.934 101.475,9.181 91.436,8.964C84.003,8.804 78.095,10.702 77.129,11.033L76.886,11.132C75.915,11.437 75.17,10.905 74.889,10.283C74.556,9.547 74.829,8.677 75.52,8.258C75.566,8.231 75.712,8.169 75.949,8.082L75.928,8.088L75.949,8.081C77.59,7.48 83.588,5.681 91.017,5.766C102.125,5.884 111.301,10.167 117.551,18.154C120.508,21.933 120.515,30.639 117.57,42.041C114.568,53.666 108.919,66.159 102.073,76.318C101.767,76.775 101.263,77.021 100.75,77.021ZM101.51,87.231C98.972,87.231 96.697,86.873 95.335,86.057C93.935,85.218 93.668,84.078 93.633,83.473C93.251,76.763 96.953,75.595 98.841,75.062C98.578,74.664 98.204,74.196 97.817,73.713C96.716,72.337 95.208,70.453 94.046,67.635C93.864,67.195 93.294,66.172 92.634,64.987C89.055,58.569 81.608,45.214 86.392,38.375C88.606,35.21 93.015,33.964 99.511,34.659C97.6,28.837 88.5,10.625 66.907,10.271C60.413,10.163 55.087,12.16 51.085,16.201C42.125,25.25 42.449,41.623 42.454,41.787C42.477,42.668 41.782,43.401 40.901,43.424C40.02,43.452 39.288,42.752 39.264,41.871C39.244,41.144 38.91,23.962 48.818,13.955C53.455,9.272 59.559,6.96 66.96,7.081C80.774,7.308 89.666,14.331 94.692,20.182C100.171,26.559 102.857,33.593 103.078,35.941C103.243,37.687 101.99,38.036 101.737,38.088L101.161,38.101C94.786,37.08 90.696,37.789 89.005,40.205C85.366,45.406 92.411,58.039 95.419,63.434C96.187,64.81 96.741,65.805 96.995,66.419C97.983,68.815 99.272,70.425 100.307,71.719C101.218,72.857 102.007,73.844 102.289,75.002C102.42,75.232 104.279,77.982 115.31,75.705C118.075,75.135 119.733,75.622 120.24,77.155C121.237,80.17 115.643,83.687 112.546,85.125C109.771,86.415 105.342,87.231 101.51,87.231ZM96.814,83.21C97.164,83.563 98.915,84.172 102.541,84.016C105.765,83.878 109.165,83.177 111.205,82.23C113.814,81.018 115.556,79.663 116.458,78.738L115.958,78.83C108.905,80.286 103.916,80.092 101.13,78.253C100.931,78.122 100.752,77.986 100.59,77.852C100.288,77.971 100.009,78.049 99.81,78.105C98.23,78.548 96.596,79.007 96.814,83.21ZM51.252,92.125C49.5,92.125 47.656,91.886 45.773,91.415C43.822,90.927 40.533,89.458 40.583,87.045C40.64,84.338 44.577,83.526 46.059,83.221C51.413,82.118 51.762,81.676 53.435,79.551C53.923,78.932 54.53,78.161 55.358,77.237C56.587,75.861 57.93,75.164 59.35,75.164C60.339,75.164 61.15,75.499 61.686,75.722C63.394,76.43 64.819,78.142 65.405,80.189C65.934,82.036 65.681,83.814 64.695,85.195C61.458,89.728 56.809,92.125 51.252,92.125ZM44.03,87.182C44.511,87.554 45.475,88.051 46.548,88.319C48.179,88.727 49.761,88.934 51.253,88.934C55.799,88.934 59.449,87.052 62.1,83.34C62.653,82.566 62.487,81.583 62.339,81.066C62.029,79.983 61.259,78.998 60.466,78.669C60.036,78.491 59.679,78.355 59.351,78.355C59.175,78.355 58.639,78.355 57.737,79.364C56.975,80.215 56.426,80.912 55.943,81.526C53.859,84.172 52.904,85.07 46.704,86.347C45.191,86.657 44.415,86.973 44.03,87.182ZM56.299,79.822C55.525,79.822 54.845,79.257 54.724,78.468C54.684,78.203 54.658,77.937 54.644,77.669C50.58,77.593 46.659,75.849 43.682,72.743C39.918,68.816 38.205,63.375 38.983,57.816C39.828,51.779 39.512,46.45 39.342,43.587C39.295,42.791 39.261,42.216 39.263,41.818C39.266,41.313 39.276,39.974 43.752,37.705C45.344,36.898 48.536,35.49 52.023,35.129C57.8,34.532 61.608,37.105 62.748,42.375C65.825,56.603 62.992,62.896 60.923,67.492C60.538,68.348 60.174,69.156 59.883,69.939L59.626,70.629C58.533,73.56 57.588,76.092 57.878,77.983C58.012,78.854 57.414,79.668 56.543,79.802L56.299,79.822ZM42.464,42.26L42.526,43.399C42.702,46.373 43.03,51.907 42.142,58.259C41.501,62.844 42.901,67.319 45.985,70.535C48.422,73.077 51.629,74.48 54.925,74.48L54.993,74.48C55.362,72.925 55.975,71.283 56.635,69.514L56.89,68.828C57.219,67.944 57.604,67.088 58.012,66.182C60.003,61.758 62.482,56.251 59.627,43.05C59.062,40.435 57.691,38.922 55.438,38.423C50.81,37.401 43.913,40.882 42.464,42.26ZM52.094,41.583C52.014,42.147 53.127,43.653 54.579,43.854C56.028,44.057 57.268,42.879 57.347,42.315C57.426,41.751 56.314,41.129 54.862,40.927C53.411,40.725 52.171,41.019 52.094,41.583ZM54.912,44.409L54.505,44.381C53.605,44.256 52.695,43.689 52.072,42.863C51.853,42.573 51.496,42.011 51.567,41.509C51.668,40.773 52.566,40.332 53.967,40.332C54.28,40.332 54.606,40.355 54.934,40.401C55.7,40.507 56.411,40.728 56.936,41.021C57.846,41.529 57.913,42.096 57.872,42.389C57.76,43.202 56.467,44.409 54.912,44.409ZM52.623,41.677C52.668,42.025 53.53,43.173 54.652,43.328L54.913,43.346C55.949,43.346 56.723,42.531 56.814,42.264C56.718,42.082 56.052,41.63 54.789,41.454C54.509,41.414 54.233,41.395 53.968,41.395C53.156,41.395 52.725,41.578 52.623,41.677ZM96.228,40.432C96.307,40.996 95.195,42.502 93.744,42.704C92.294,42.906 91.053,41.729 90.973,41.165C90.897,40.601 92.009,39.978 93.459,39.777C94.909,39.574 96.148,39.869 96.228,40.432ZM93.409,42.992C92.013,42.992 90.808,41.906 90.709,41.201C90.594,40.355 91.987,39.712 93.421,39.513C93.737,39.469 94.05,39.447 94.351,39.447C95.589,39.447 96.409,39.81 96.491,40.396C96.544,40.775 96.253,41.36 95.752,41.888C95.421,42.235 94.726,42.836 93.779,42.967L93.409,42.992ZM94.352,39.979C94.076,39.979 93.788,40 93.496,40.04C92.055,40.241 91.195,40.819 91.237,41.129C91.285,41.47 92.205,42.461 93.41,42.461L93.707,42.44C94.494,42.331 95.085,41.817 95.367,41.521C95.81,41.056 95.986,40.618 95.965,40.469C95.937,40.271 95.405,39.979 94.352,39.979ZM98.317,72.822C98.012,72.822 97.704,72.734 97.431,72.552C96.699,72.062 96.502,71.071 96.993,70.339C100.391,65.264 99.769,60.089 99.168,55.084C98.911,52.952 98.647,50.747 98.715,48.631C98.785,46.454 99.062,44.658 99.329,42.921C99.646,40.863 99.946,38.919 99.822,36.611C99.774,35.731 100.449,34.98 101.329,34.932C102.212,34.885 102.961,35.559 103.008,36.439C103.15,39.077 102.811,41.277 102.483,43.406C102.23,45.049 101.968,46.748 101.905,48.733C101.844,50.607 102.083,52.597 102.336,54.703C102.976,60.025 103.701,66.057 99.645,72.114C99.337,72.573 98.832,72.822 98.317,72.822Z" style="fill:white;fill-rule:nonzero;"/>
    </g>
</svg>
