<?xml version="1.0" encoding="UTF-8" standalone="no"?>
<!DOCTYPE svg PUBLIC "-//W3C//DTD SVG 1.1//EN" "http://www.w3.org/Graphics/SVG/1.1/DTD/svg11.dtd">
<svg width="100%" height="100%" viewBox="0 0 1280 800" version="1.1" xmlns="http://www.w3.org/2000/svg" xmlns:xlink="http://www.w3.org/1999/xlink" xml:space="preserve" xmlns:serif="http://www.serif.com/" style="fill-rule:evenodd;clip-rule:evenodd;stroke-linejoin:round;stroke-miterlimit:2;">
    <g id="Monitor" transform="matrix(3.05003,1.5057,-1.26384e-16,3.0213,-707.767,516.403)">
        <g id="Depth" transform="matrix(0.327866,-0.163395,1.37149e-17,0.330983,222.669,-277.153)">
            <path d="M331.792,-3.475C333.216,-4.236 334.929,-4.265 336.385,-3.537C398.823,27.681 845.197,250.868 884.508,270.524C886.202,271.371 887.272,273.102 887.272,274.996C887.272,310.711 887.272,688.726 887.272,707.452C887.272,709.184 886.375,710.794 884.9,711.705C884.738,711.805 870.463,718.947 870.353,718.997C868.922,719.778 867.193,719.813 865.725,719.079L686.92,629.677L686.92,657.358L798.672,714.152C800.35,715.005 801.407,716.727 801.407,718.609L801.407,758.474L787.096,765.63L400.703,572.433C400.703,572.433 400.703,549.961 400.703,537.534C400.703,535.806 401.595,534.201 403.061,533.289C403.248,533.173 417.568,526.011 417.657,525.969C419.071,525.212 420.771,525.178 422.222,525.892L515.19,571.635L515.19,543.812L317.602,445.018C315.908,444.171 314.838,442.44 314.838,440.546C314.838,440.546 314.838,62.427 314.838,8.09C314.838,6.357 315.736,4.748 317.21,3.837C317.393,3.724 331.704,-3.433 331.792,-3.475Z"/>
            <clipPath id="_clip1">
                <path d="M331.792,-3.475C333.216,-4.236 334.929,-4.265 336.385,-3.537C398.823,27.681 845.197,250.868 884.508,270.524C886.202,271.371 887.272,273.102 887.272,274.996C887.272,310.711 887.272,688.726 887.272,707.452C887.272,709.184 886.375,710.794 884.9,711.705C884.738,711.805 870.463,718.947 870.353,718.997C868.922,719.778 867.193,719.813 865.725,719.079L686.92,629.677L686.92,657.358L798.672,714.152C800.35,715.005 801.407,716.727 801.407,718.609L801.407,758.474L787.096,765.63L400.703,572.433C400.703,572.433 400.703,549.961 400.703,537.534C400.703,535.806 401.595,534.201 403.061,533.289C403.248,533.173 417.568,526.011 417.657,525.969C419.071,525.212 420.771,525.178 422.222,525.892L515.19,571.635L515.19,543.812L317.602,445.018C315.908,444.171 314.838,442.44 314.838,440.546C314.838,440.546 314.838,62.427 314.838,8.09C314.838,6.357 315.736,4.748 317.21,3.837C317.393,3.724 331.704,-3.433 331.792,-3.475Z"/>
            </clipPath>
            <g clip-path="url(#_clip1)">
                <g transform="matrix(1,1.11022e-16,-6.16298e-33,1,28.6217,-14.3108)">
                    <path d="M643.988,636.832L643.988,679.765L658.298,672.609L658.298,643.988L643.988,636.832Z" style="fill:url(#_Linear2);"/>
                </g>
                <g transform="matrix(1,1.11022e-16,0,1,28.6217,-14.3108)">
                    <path d="M643.988,679.765L658.298,672.609L772.785,729.853L758.474,737.008L643.988,679.765Z" style="fill:rgb(182,182,182);"/>
                </g>
                <g transform="matrix(1,1.11022e-16,-6.16298e-33,1,28.6217,-14.3108)">
                    <path d="M758.474,779.941L758.474,737.008L772.785,729.853L772.785,772.785L758.474,779.941Z" style="fill:rgb(230,230,230);"/>
                </g>
                <g transform="matrix(1,1.11022e-16,-6.16298e-33,1,28.6217,-14.3108)">
                    <path d="M486.568,601.055L500.879,593.9L392.573,539.746L377.388,546.465L486.568,601.055Z" style="fill:rgb(182,182,182);"/>
                </g>
            </g>
            <path d="M331.792,-3.475C333.216,-4.236 334.929,-4.265 336.385,-3.537C398.823,27.681 845.197,250.868 884.508,270.524C886.202,271.371 887.272,273.102 887.272,274.996C887.272,310.711 887.272,688.726 887.272,707.452C887.272,709.184 886.375,710.794 884.9,711.705C884.738,711.805 870.463,718.947 870.353,718.997C868.922,719.778 867.193,719.813 865.725,719.079L686.92,629.677L686.92,657.358L798.672,714.152C800.35,715.005 801.407,716.727 801.407,718.609L801.407,758.474L787.096,765.63L400.703,572.433C400.703,572.433 400.703,549.961 400.703,537.534C400.703,535.806 401.595,534.201 403.061,533.289C403.248,533.173 417.568,526.011 417.657,525.969C419.071,525.212 420.771,525.178 422.222,525.892L515.19,571.635L515.19,543.812L317.602,445.018C315.908,444.171 314.838,442.44 314.838,440.546C314.838,440.546 314.838,62.427 314.838,8.09C314.838,6.357 315.736,4.748 317.21,3.837C317.393,3.724 331.704,-3.433 331.792,-3.475Z" style="fill:none;stroke:black;stroke-width:3px;stroke-linecap:round;stroke-miterlimit:1.5;"/>
        </g>
        <g transform="matrix(0.694567,0,0,0.847092,156.865,-405.524)">
            <path d="M506.817,93.402C506.817,92.662 506.312,92.192 505.512,92.188C486.955,92.09 276.247,90.986 246.774,90.831C246.043,90.828 245.174,91.215 244.478,91.855C243.782,92.496 243.358,93.298 243.358,93.975C243.358,115.206 243.358,236.196 243.358,236.196L506.817,237.578L506.817,93.402Z" style="fill:rgb(34,34,34);"/>
            <path d="M245.774,90.448L245.822,90.43L245.87,90.412L245.919,90.394L245.967,90.377L246.015,90.361L246.063,90.346L246.111,90.331L246.159,90.317L246.207,90.303L246.255,90.29L246.303,90.278L246.35,90.267L246.398,90.256L246.445,90.246L246.493,90.236L246.54,90.227L246.587,90.219L246.634,90.212L246.68,90.205L246.727,90.199L246.773,90.194L246.819,90.19L246.865,90.186L246.911,90.183L246.956,90.18L247.001,90.179L247.046,90.178L247.088,90.178L505.831,91.534L505.877,91.535L505.925,91.536L505.972,91.539L506.019,91.542L506.065,91.546L506.11,91.551L506.156,91.557L506.2,91.564L506.243,91.572L506.287,91.58L506.329,91.589L506.371,91.599L506.412,91.61L506.453,91.622L506.493,91.635L506.532,91.648L506.571,91.662L506.609,91.677L506.646,91.693L506.683,91.709L506.718,91.726L506.754,91.744L506.788,91.763L506.822,91.782L506.855,91.803L506.888,91.824L506.919,91.845L506.95,91.868L506.98,91.891L507.01,91.915L507.038,91.939L507.066,91.965L507.094,91.991L507.12,92.017L507.146,92.045L507.171,92.073L507.195,92.102L507.218,92.131L507.241,92.161L507.262,92.192L507.283,92.223L507.303,92.255L507.322,92.288L507.341,92.321L507.358,92.355L507.375,92.39L507.391,92.425L507.406,92.461L507.42,92.497L507.433,92.534L507.446,92.572L507.457,92.61L507.468,92.649L507.478,92.689L507.487,92.728L507.495,92.769L507.502,92.81L507.508,92.852L507.513,92.894L507.517,92.937L507.52,92.98L507.523,93.024L507.524,93.068L507.525,93.11L507.525,237.288L507.467,237.544L507.303,237.805L507.059,238.029L506.776,238.179L506.5,238.231L243.042,236.85L242.835,236.805L242.698,236.678L242.65,236.486L242.65,94.262L242.651,94.223L242.652,94.181L242.654,94.139L242.657,94.097L242.66,94.055L242.665,94.013L242.67,93.97L242.676,93.927L242.682,93.884L242.69,93.841L242.698,93.798L242.707,93.754L242.717,93.711L242.727,93.667L242.739,93.623L242.751,93.579L242.763,93.535L242.777,93.491L242.791,93.447L242.806,93.403L242.821,93.358L242.838,93.314L242.855,93.269L242.872,93.225L242.891,93.18L242.91,93.136L242.93,93.091L242.95,93.047L242.971,93.002L242.993,92.958L243.016,92.913L243.039,92.868L243.063,92.824L243.087,92.78L243.112,92.735L243.138,92.691L243.164,92.647L243.191,92.602L243.219,92.558L243.248,92.514L243.277,92.47L243.306,92.427L243.336,92.383L243.367,92.34L243.399,92.296L243.431,92.253L243.463,92.21L243.497,92.167L243.53,92.124L243.565,92.081L243.6,92.039L243.635,91.997L243.672,91.955L243.708,91.913L243.746,91.871L243.783,91.83L243.822,91.789L243.861,91.748L243.9,91.708L243.94,91.667L243.981,91.627L244.022,91.587L244.063,91.548L244.106,91.509L244.148,91.47L244.191,91.432L244.234,91.394L244.278,91.357L244.321,91.32L244.365,91.284L244.41,91.248L244.454,91.213L244.499,91.178L244.544,91.144L244.59,91.11L244.635,91.077L244.681,91.044L244.727,91.012L244.773,90.98L244.82,90.949L244.866,90.919L244.913,90.889L244.96,90.859L245.007,90.83L245.054,90.802L245.102,90.774L245.149,90.747L245.197,90.721L245.245,90.695L245.292,90.669L245.34,90.644L245.388,90.62L245.436,90.597L245.484,90.574L245.533,90.551L245.581,90.529L245.629,90.508L245.677,90.488L245.725,90.468L245.774,90.448ZM245.696,91.652L245.67,91.663L245.644,91.674L245.618,91.686L245.592,91.698L245.567,91.711L245.541,91.723L245.515,91.736L245.489,91.75L245.463,91.763L245.438,91.777L245.412,91.792L245.386,91.806L245.361,91.821L245.335,91.836L245.31,91.852L245.285,91.868L245.26,91.884L245.235,91.9L245.21,91.917L245.185,91.934L245.16,91.951L245.135,91.969L245.111,91.987L245.086,92.005L245.062,92.023L245.038,92.042L245.014,92.061L244.99,92.08L244.966,92.1L244.943,92.12L244.919,92.14L244.896,92.16L244.873,92.181L244.85,92.202L244.827,92.223L244.805,92.244L244.783,92.266L244.761,92.287L244.739,92.309L244.718,92.331L244.697,92.353L244.676,92.375L244.656,92.397L244.636,92.419L244.616,92.442L244.597,92.465L244.578,92.487L244.559,92.51L244.54,92.533L244.522,92.556L244.504,92.579L244.487,92.602L244.469,92.626L244.453,92.649L244.436,92.672L244.42,92.696L244.404,92.72L244.388,92.743L244.373,92.767L244.358,92.791L244.343,92.814L244.329,92.838L244.315,92.862L244.302,92.886L244.288,92.91L244.276,92.934L244.263,92.958L244.251,92.982L244.239,93.006L244.228,93.03L244.217,93.054L244.206,93.078L244.196,93.102L244.186,93.126L244.176,93.15L244.167,93.174L244.159,93.198L244.15,93.222L244.142,93.245L244.134,93.269L244.127,93.293L244.12,93.317L244.114,93.34L244.108,93.364L244.102,93.387L244.097,93.411L244.092,93.434L244.088,93.457L244.084,93.481L244.08,93.504L244.077,93.527L244.074,93.55L244.072,93.573L244.07,93.595L244.068,93.618L244.067,93.641L244.067,93.663L244.066,93.688L244.066,235.545L506.109,236.919L506.109,93.694L506.108,93.667L506.108,93.643L506.106,93.62L506.104,93.596L506.102,93.573L506.099,93.551L506.096,93.528L506.092,93.506L506.088,93.484L506.083,93.463L506.078,93.442L506.072,93.421L506.066,93.4L506.059,93.38L506.052,93.36L506.045,93.34L506.036,93.321L506.028,93.302L506.019,93.284L506.009,93.265L506,93.247L505.989,93.23L505.978,93.213L505.967,93.196L505.955,93.179L505.943,93.163L505.931,93.147L505.918,93.132L505.904,93.116L505.891,93.102L505.876,93.087L505.862,93.073L505.847,93.06L505.831,93.046L505.815,93.033L505.799,93.021L505.783,93.009L505.765,92.997L505.748,92.986L505.73,92.975L505.712,92.964L505.693,92.954L505.674,92.945L505.655,92.935L505.635,92.927L505.615,92.918L505.595,92.91L505.574,92.903L505.553,92.895L505.531,92.889L505.51,92.882L505.487,92.877L505.465,92.871L505.442,92.866L505.419,92.862L505.395,92.858L505.371,92.854L505.347,92.851L505.323,92.848L505.298,92.846L505.273,92.844L505.247,92.843L505.221,92.842L505.193,92.841L246.46,91.485L246.433,91.485L246.409,91.486L246.385,91.487L246.36,91.488L246.336,91.489L246.311,91.491L246.286,91.494L246.261,91.497L246.236,91.5L246.211,91.504L246.186,91.507L246.161,91.512L246.135,91.517L246.11,91.522L246.084,91.527L246.059,91.533L246.033,91.539L246.007,91.546L245.982,91.553L245.956,91.56L245.93,91.567L245.904,91.575L245.878,91.584L245.852,91.592L245.826,91.602L245.8,91.611L245.774,91.621L245.748,91.631L245.722,91.641L245.696,91.652Z"/>
        </g>
        <g transform="matrix(0.617393,0,0,0.70591,185.919,-382.509)">
            <path d="M507.909,92.09C507.909,91.646 507.625,91.364 507.175,91.362C492.651,91.28 267.171,90.02 243.86,89.889C243.444,89.887 242.95,90.122 242.554,90.51C242.158,90.899 241.918,91.385 241.918,91.796C241.918,108.329 241.918,226.42 241.918,236.773C241.918,237.217 242.202,237.499 242.651,237.502C257.18,237.583 482.795,238.845 505.988,238.974C506.399,238.977 506.888,238.744 507.279,238.36C507.671,237.976 507.909,237.495 507.909,237.089C507.909,220.636 507.909,102.448 507.909,92.09Z" style="fill:rgb(209,209,209);"/>
        </g>
        <g transform="matrix(1,0,0,1.23515,9.06187,-438.36)">
            <path d="M499.821,189.521L316.832,188.574L316.832,206.92C316.832,207.427 317.183,207.75 317.738,207.753C330.627,207.819 476.978,208.577 497.449,208.683C497.957,208.685 498.56,208.42 499.044,207.981C499.527,207.542 499.821,206.992 499.821,206.527C499.821,201.509 499.821,189.521 499.821,189.521Z" style="fill:rgb(181,181,181);"/>
            <path d="M317.052,188.125L500.041,189.072L500.185,189.103L500.28,189.191L500.313,189.322L500.313,206.33L500.313,206.357L500.312,206.386L500.31,206.414L500.309,206.443L500.306,206.472L500.303,206.501L500.299,206.53L500.295,206.56L500.291,206.589L500.285,206.619L500.28,206.649L500.274,206.678L500.267,206.708L500.259,206.738L500.252,206.768L500.243,206.798L500.235,206.829L500.225,206.859L500.215,206.889L500.205,206.92L500.194,206.95L500.183,206.98L500.171,207.011L500.159,207.041L500.146,207.072L500.133,207.102L500.119,207.133L500.105,207.164L500.09,207.194L500.075,207.225L500.059,207.255L500.043,207.286L500.027,207.316L500.01,207.347L499.992,207.377L499.974,207.408L499.956,207.438L499.937,207.468L499.918,207.499L499.898,207.529L499.878,207.559L499.857,207.589L499.836,207.619L499.815,207.649L499.793,207.678L499.771,207.708L499.748,207.738L499.725,207.767L499.702,207.796L499.678,207.826L499.654,207.855L499.629,207.884L499.604,207.913L499.578,207.941L499.552,207.97L499.526,207.998L499.499,208.026L499.472,208.054L499.445,208.082L499.417,208.11L499.389,208.137L499.36,208.164L499.332,208.191L499.302,208.218L499.273,208.245L499.243,208.271L499.213,208.297L499.183,208.323L499.152,208.348L499.122,208.373L499.091,208.397L499.06,208.421L499.029,208.445L498.997,208.469L498.966,208.492L498.934,208.515L498.902,208.537L498.87,208.559L498.838,208.581L498.806,208.602L498.774,208.623L498.741,208.644L498.709,208.664L498.676,208.684L498.643,208.703L498.61,208.722L498.577,208.741L498.544,208.759L498.511,208.777L498.478,208.794L498.445,208.811L498.411,208.828L498.378,208.844L498.345,208.86L498.311,208.875L498.278,208.89L498.244,208.905L498.211,208.919L498.177,208.932L498.143,208.946L498.11,208.958L498.077,208.971L498.043,208.983L498.009,208.994L497.976,209.005L497.943,209.016L497.909,209.026L497.876,209.036L497.842,209.045L497.809,209.054L497.776,209.062L497.743,209.07L497.71,209.078L497.677,209.085L497.644,209.091L497.612,209.097L497.579,209.103L497.546,209.108L497.514,209.112L497.482,209.116L497.45,209.12L497.417,209.123L497.386,209.126L497.354,209.128L497.322,209.129L497.291,209.13L497.26,209.131L497.231,209.131L317.516,208.201L317.484,208.2L317.451,208.199L317.418,208.198L317.386,208.195L317.354,208.193L317.322,208.189L317.291,208.185L317.26,208.18L317.23,208.175L317.2,208.169L317.17,208.163L317.141,208.156L317.112,208.149L317.084,208.141L317.057,208.132L317.029,208.123L317.002,208.113L316.976,208.103L316.95,208.092L316.925,208.081L316.9,208.069L316.875,208.057L316.851,208.044L316.828,208.031L316.805,208.017L316.782,208.002L316.76,207.988L316.739,207.972L316.718,207.956L316.697,207.94L316.678,207.923L316.658,207.906L316.639,207.888L316.621,207.869L316.603,207.851L316.586,207.831L316.569,207.812L316.553,207.792L316.537,207.771L316.522,207.75L316.508,207.728L316.494,207.706L316.481,207.684L316.468,207.661L316.456,207.638L316.444,207.614L316.433,207.59L316.422,207.565L316.413,207.54L316.403,207.515L316.395,207.489L316.387,207.463L316.379,207.436L316.373,207.409L316.366,207.382L316.361,207.354L316.356,207.326L316.352,207.297L316.348,207.268L316.345,207.239L316.343,207.209L316.341,207.179L316.34,207.149L316.34,207.12L316.34,188.772L316.38,188.597L316.494,188.418L316.663,188.264L316.86,188.161L317.052,188.125ZM317.323,206.72L317.324,206.738L317.324,206.754L317.325,206.771L317.326,206.787L317.328,206.802L317.33,206.818L317.332,206.833L317.335,206.848L317.338,206.863L317.341,206.878L317.345,206.893L317.349,206.907L317.353,206.921L317.358,206.935L317.363,206.949L317.368,206.962L317.374,206.975L317.379,206.988L317.386,207.001L317.392,207.014L317.399,207.026L317.406,207.038L317.414,207.05L317.422,207.061L317.43,207.073L317.438,207.084L317.447,207.095L317.456,207.105L317.465,207.116L317.475,207.126L317.485,207.136L317.495,207.145L317.505,207.155L317.516,207.164L317.527,207.173L317.538,207.181L317.55,207.189L317.562,207.198L317.574,207.205L317.586,207.213L317.599,207.22L317.612,207.227L317.625,207.234L317.639,207.24L317.652,207.246L317.666,207.252L317.68,207.257L317.695,207.262L317.709,207.267L317.724,207.272L317.74,207.276L317.755,207.28L317.771,207.284L317.786,207.287L317.803,207.291L317.819,207.293L317.835,207.296L317.852,207.298L317.869,207.3L317.887,207.301L317.904,207.303L317.922,207.304L317.94,207.304L317.96,207.304L497.667,208.235L497.685,208.235L497.702,208.234L497.719,208.234L497.736,208.233L497.753,208.232L497.771,208.23L497.788,208.229L497.805,208.227L497.822,208.224L497.84,208.222L497.857,208.219L497.875,208.216L497.892,208.213L497.91,208.209L497.928,208.206L497.946,208.202L497.963,208.198L497.981,208.193L497.999,208.188L498.017,208.183L498.035,208.178L498.053,208.173L498.071,208.167L498.089,208.161L498.107,208.155L498.125,208.148L498.143,208.142L498.161,208.135L498.179,208.128L498.197,208.12L498.215,208.113L498.233,208.105L498.252,208.097L498.269,208.088L498.287,208.08L498.306,208.071L498.323,208.062L498.341,208.053L498.359,208.044L498.377,208.034L498.395,208.024L498.413,208.014L498.43,208.004L498.448,207.994L498.466,207.983L498.483,207.972L498.501,207.961L498.518,207.95L498.535,207.938L498.553,207.927L498.57,207.915L498.587,207.903L498.604,207.891L498.621,207.878L498.638,207.865L498.654,207.853L498.671,207.839L498.688,207.826L498.704,207.813L498.721,207.799L498.737,207.786L498.753,207.771L498.769,207.757L498.785,207.743L498.801,207.729L498.817,207.714L498.832,207.699L498.847,207.684L498.862,207.67L498.877,207.655L498.891,207.64L498.906,207.624L498.92,207.609L498.934,207.594L498.948,207.578L498.961,207.563L498.974,207.547L498.987,207.532L499,207.516L499.013,207.5L499.025,207.484L499.037,207.468L499.049,207.452L499.061,207.436L499.073,207.42L499.084,207.404L499.095,207.388L499.106,207.372L499.117,207.355L499.127,207.339L499.137,207.323L499.147,207.306L499.157,207.29L499.166,207.274L499.175,207.257L499.184,207.241L499.193,207.224L499.201,207.208L499.209,207.192L499.217,207.175L499.225,207.159L499.232,207.142L499.24,207.126L499.246,207.109L499.253,207.093L499.259,207.076L499.265,207.06L499.271,207.044L499.277,207.027L499.282,207.011L499.287,206.995L499.292,206.978L499.296,206.962L499.301,206.946L499.304,206.93L499.308,206.914L499.311,206.898L499.315,206.882L499.317,206.866L499.32,206.85L499.322,206.834L499.324,206.819L499.326,206.803L499.327,206.787L499.328,206.772L499.329,206.756L499.329,206.741L499.329,206.724L499.329,189.968L317.323,189.026L317.323,206.72Z"/>
        </g>
        <g transform="matrix(0.277778,0,0,0.742305,304.618,-321.259)">
            <path d="M498.877,188.936L313.072,188.491L313.072,207.634L498.877,208.079L498.877,188.936Z" style="fill:rgb(134,134,134);"/>
            <path d="M313.528,187.76L313.864,187.745L499.668,188.19L499.946,188.203L500.186,188.242L500.383,188.303L500.528,188.387L500.617,188.489L500.647,188.606L500.647,207.749L500.611,207.891L500.503,208.04L500.328,208.192L500.093,208.338L499.808,208.474L499.484,208.594L499.135,208.692L498.776,208.765L498.421,208.81L498.085,208.825L312.28,208.38L312.003,208.367L311.762,208.329L311.566,208.267L311.421,208.184L311.332,208.082L311.302,207.965L311.302,188.822L311.338,188.68L311.446,188.53L311.621,188.379L311.856,188.232L312.141,188.096L312.465,187.976L312.813,187.878L313.173,187.805L313.528,187.76ZM314.843,206.891L497.106,207.327L497.106,189.679L314.843,189.243L314.843,206.891Z"/>
        </g>
        <g transform="matrix(0.694444,0,0,0.742305,134.124,-306.259)">
            <path d="M499.114,189.563C499.114,188.723 498.615,188.188 497.823,188.177C486.826,188.026 409.295,186.961 409.295,186.961C409.295,186.961 336.792,187.073 320.09,187.098C319.358,187.1 318.493,187.544 317.8,188.274C317.108,189.003 316.687,189.915 316.687,190.685C316.687,196.227 316.687,206.247 316.687,206.247L499.114,207.338L499.114,189.563Z" style="fill:rgb(181,181,181);stroke:black;stroke-width:1.08px;stroke-linecap:round;stroke-miterlimit:1.5;"/>
        </g>
        <g transform="matrix(0.799984,0,0,1,103.427,-447.162)">
            <path d="M377.949,250.823L378.054,250.798L378.156,250.784L378.254,250.779L407.58,250.929L407.673,250.935L407.761,250.95L407.841,250.976L407.913,251.011L407.977,251.055L408.031,251.108L408.076,251.169L408.11,251.238L408.133,251.313L408.145,251.395L408.146,251.481L408.135,251.571L408.114,251.665L408.081,251.76L408.038,251.857L407.986,251.953L407.923,252.048L407.852,252.141L407.773,252.231L407.687,252.317L407.594,252.398L407.496,252.473L407.395,252.541L407.29,252.601L407.183,252.653L407.076,252.697L406.969,252.731L406.864,252.755L406.762,252.77L406.664,252.775L377.338,252.625L377.245,252.619L377.157,252.604L377.077,252.578L377.005,252.543L376.941,252.499L376.887,252.446L376.842,252.385L376.809,252.316L376.785,252.241L376.773,252.159L376.773,252.073L376.783,251.983L376.804,251.889L376.837,251.794L376.88,251.697L376.933,251.601L376.995,251.505L377.066,251.412L377.145,251.322L377.232,251.236L377.324,251.156L377.422,251.081L377.523,251.013L377.628,250.953L377.735,250.9L377.842,250.857L377.949,250.823Z"/>
        </g>
    </g>
    <g id="Kibana" transform="matrix(4.52252,2.26471,-7.89279e-16,4.28814,403.029,87.7029)">
        <g transform="matrix(1,0,0,1,8,65.578)">
            <path d="M0,-33.578L0,0L23.866,-27.483C16.77,-31.35 8.65,-33.578 0,-33.578" style="fill:rgb(52,55,65);"/>
        </g>
        <g transform="matrix(0,1,1,0,48.0475,-1.9525)">
            <path d="M9.953,-40.048L33.953,-40.048C33.953,-31.398 36.18,-23.278 40.048,-16.182L9.953,9.953L9.953,-40.048Z" style="fill:rgb(240,78,152);"/>
        </g>
        <g transform="matrix(-0.655668,0.755049,0.755049,0.655668,43.0826,69.235)">
            <path d="M-17.11,-22.887L20.241,-22.887L23.536,-22.887L-7.037,12.32C-14.876,2.122 -18.284,-10.527 -17.11,-22.887" style="fill:rgb(0,191,179);"/>
        </g>
    </g>
    <defs>
        <linearGradient id="_Linear2" x1="0" y1="0" x2="1" y2="0" gradientUnits="userSpaceOnUse" gradientTransform="matrix(0.504936,1.0702,-1.0702,0.504936,651.499,674.686)"><stop offset="0" style="stop-color:rgb(230,230,230);stop-opacity:1"/><stop offset="1" style="stop-color:rgb(172,172,172);stop-opacity:1"/></linearGradient>
    </defs>
</svg>
