<?xml version="1.0" encoding="UTF-8" standalone="no"?>
<!DOCTYPE svg PUBLIC "-//W3C//DTD SVG 1.1//EN" "http://www.w3.org/Graphics/SVG/1.1/DTD/svg11.dtd">
<svg width="100%" height="100%" viewBox="0 0 584 76" version="1.1" xmlns="http://www.w3.org/2000/svg" xmlns:xlink="http://www.w3.org/1999/xlink" xml:space="preserve" xmlns:serif="http://www.serif.com/" style="fill-rule:evenodd;clip-rule:evenodd;stroke-linejoin:round;stroke-miterlimit:2;">
    <g id="Blue">
        <path d="M109.28,9L117.2,9L117.2,49.2C117.2,59.85 112.54,67.2 101.62,67.2C98.391,67.249 95.177,66.741 92.12,65.7L92.12,58C94.728,59.011 97.503,59.52 100.3,59.5C106.99,59.5 109.3,55.5 109.3,49.73L109.28,9Z" style="fill:rgb(37,56,88);fill-rule:nonzero;"/>
        <path d="M131.63,5.91C131.747,5.902 131.865,5.897 131.983,5.897C134.693,5.897 136.923,8.127 136.923,10.837C136.923,10.955 136.918,11.073 136.91,11.19C136.91,14.087 134.527,16.47 131.63,16.47C128.733,16.47 126.35,14.087 126.35,11.19C126.342,11.073 126.337,10.955 126.337,10.837C126.337,8.127 128.567,5.897 131.277,5.897C131.395,5.897 131.513,5.902 131.63,5.91ZM127.76,22.81L135.33,22.81L135.33,66.81L127.76,66.81L127.76,22.81Z" style="fill:rgb(37,56,88);fill-rule:nonzero;"/>
        <path d="M146.76,22.8L154.15,22.8L154.15,30.54C156.7,25.35 161.15,21.65 169.73,22.18L169.73,29.57C160.05,28.57 154.15,31.51 154.15,40.83L154.15,66.83L146.76,66.83L146.76,22.8Z" style="fill:rgb(37,56,88);fill-rule:nonzero;"/>
        <path d="M205.19,58.88C202.37,64.69 197.09,67.68 190.32,67.68C178.62,67.68 172.72,57.74 172.72,44.8C172.72,32.39 178.88,21.92 191.2,21.92C197.62,21.92 202.55,24.82 205.2,30.54L205.2,22.8L212.77,22.8L212.77,66.8L205.2,66.8L205.19,58.88ZM192.34,60.64C199.12,60.64 205.19,56.33 205.19,46.56L205.19,43C205.19,33.23 199.65,28.92 193.19,28.92C184.65,28.92 180.25,34.55 180.25,44.76C180.29,55.36 184.51,60.64 192.35,60.64L192.34,60.64Z" style="fill:rgb(37,56,88);fill-rule:nonzero;"/>
        <path d="M257.55,67.68C246.37,67.68 241.18,65.48 236.69,63.19L236.69,55.1C242.06,57.92 250.33,59.94 257.98,59.94C266.69,59.94 269.98,56.51 269.98,51.4C269.98,46.29 266.81,43.57 255.81,40.93C242.81,37.76 236.98,33.27 236.98,23.77C236.98,14.77 243.84,8.11 257.31,8.11C265.67,8.11 271.04,10.11 275,12.33L275,20.25C269.495,17.217 263.283,15.698 257,15.85C249.43,15.85 244.94,18.49 244.94,23.77C244.94,28.52 248.64,30.9 258.84,33.45C271.07,36.53 277.94,40.45 277.94,50.87C277.88,60.9 271.9,67.68 257.55,67.68Z" style="fill:rgb(37,56,88);fill-rule:nonzero;"/>
        <path d="M284.57,44.71C284.57,31.51 292.31,21.92 305.51,21.92C318.71,21.92 326.28,31.51 326.28,44.71C326.28,57.91 318.62,67.71 305.51,67.71C292.4,67.71 284.57,57.91 284.57,44.71ZM291.96,44.71C291.96,53.07 296.1,60.64 305.51,60.64C314.92,60.64 318.89,53.07 318.89,44.71C318.89,36.35 314.84,29 305.51,29C296.18,29 292,36.35 292,44.71L291.96,44.71Z" style="fill:rgb(37,56,88);fill-rule:nonzero;"/>
        <path d="M345.55,22.8L356.9,22.8L356.9,29.8L345.55,29.8L345.55,66.8L338.16,66.8L338.16,29.8L331,29.8L331,22.8L338.13,22.8L338.13,18C338.13,9.82 342.71,4.27 352.13,4.27C353.855,4.26 355.572,4.496 357.23,4.97L357.23,11.97C355.664,11.672 354.074,11.525 352.48,11.53C347.82,11.53 345.48,14.26 345.48,18.22L345.55,22.8Z" style="fill:rgb(37,56,88);fill-rule:nonzero;"/>
        <path d="M382.51,59.41C384.11,59.362 385.701,59.155 387.26,58.79L387.26,66.09C385.602,66.564 383.885,66.8 382.16,66.79C372.74,66.79 368.16,61.25 368.16,53.06L368.16,29.84L361,29.84L361,22.84L368.13,22.84L368.13,13.47L375.52,13.47L375.52,22.8L387.22,22.8L387.22,29.8L375.52,29.8L375.52,52.9C375.56,56.77 377.85,59.41 382.51,59.41Z" style="fill:rgb(37,56,88);fill-rule:nonzero;"/>
        <path d="M389.38,22.8L397.74,22.8L410.41,60.11L423.25,22.8L430.47,22.8L443.32,60.11L456,22.8L464.36,22.8L448.17,66.8L438.49,66.8L430.92,45.51L426.92,31.96L422.92,45.51L415.25,66.8L405.57,66.8L389.38,22.8Z" style="fill:rgb(37,56,88);fill-rule:nonzero;"/>
        <path d="M498.93,58.88C496.11,64.69 490.83,67.68 484.06,67.68C472.36,67.68 466.46,57.74 466.46,44.8C466.46,32.39 472.62,21.92 484.94,21.92C491.36,21.92 496.29,24.82 498.94,30.54L498.94,22.8L506.51,22.8L506.51,66.8L498.94,66.8L498.93,58.88ZM486.08,60.64C492.86,60.64 498.93,56.33 498.93,46.56L498.93,43C498.93,33.23 493.39,28.92 486.93,28.92C478.43,29 474,34.59 474,44.8C474,55.36 478.25,60.64 486.09,60.64L486.08,60.64Z" style="fill:rgb(37,56,88);fill-rule:nonzero;"/>
        <path d="M517.94,22.8L525.33,22.8L525.33,30.54C527.88,25.35 532.33,21.65 540.91,22.18L540.91,29.57C531.23,28.57 525.33,31.51 525.33,40.83L525.33,66.83L517.94,66.83L517.94,22.8Z" style="fill:rgb(37,56,88);fill-rule:nonzero;"/>
        <path d="M567.57,67.68C551.11,67.68 543.9,58.18 543.9,44.68C543.9,31.39 551.29,21.89 564.67,21.89C578.22,21.89 583.67,31.31 583.67,44.68L583.67,48.11L551.56,48.11C552.62,55.59 557.46,60.43 567.84,60.43C572.405,60.426 576.934,59.62 581.22,58.05L581.22,65.05C577.61,67 572.06,67.68 567.57,67.68ZM551.47,41.68L576,41.68C575.56,33.5 571.86,28.83 564.3,28.83C556.31,28.79 552.26,34 551.47,41.63L551.47,41.68Z" style="fill:rgb(37,56,88);fill-rule:nonzero;"/>
        <path d="M72.4,35.76L39.8,3.16L36.64,0L12.1,24.54L0.88,35.76C-0.282,36.923 -0.282,38.837 0.88,40L36.64,75.76L61.18,51.22L61.56,50.84L72.4,40C73.562,38.837 73.562,36.923 72.4,35.76ZM36.64,49.08L25.44,37.88L36.64,26.68L47.84,37.88L36.64,49.08Z" style="fill:rgb(38,132,255);fill-rule:nonzero;"/>
        <path d="M36.64,26.68C29.355,19.395 29.319,7.419 36.56,0.09L12.05,24.59L25.39,37.93L36.64,26.68Z" style="fill:url(#_Linear1);fill-rule:nonzero;"/>
        <path d="M47.87,37.85L36.64,49.08C40.178,52.616 42.168,57.418 42.168,62.42C42.168,67.422 40.178,72.224 36.64,75.76L61.21,51.19L47.87,37.85Z" style="fill:url(#_Linear2);fill-rule:nonzero;"/>
    </g>
    <defs>
        <linearGradient id="_Linear1" x1="0" y1="0" x2="1" y2="0" gradientUnits="userSpaceOnUse" gradientTransform="matrix(-15.64,15.64,-15.64,-15.64,34.64,15.35)"><stop offset="0" style="stop-color:rgb(0,82,204);stop-opacity:1"/><stop offset="0.18" style="stop-color:rgb(0,82,204);stop-opacity:1"/><stop offset="1" style="stop-color:rgb(38,132,255);stop-opacity:1"/></linearGradient>
        <linearGradient id="_Linear2" x1="0" y1="0" x2="1" y2="0" gradientUnits="userSpaceOnUse" gradientTransform="matrix(15.61,-15.61,15.61,15.61,38.78,60.28)"><stop offset="0" style="stop-color:rgb(0,82,204);stop-opacity:1"/><stop offset="0.18" style="stop-color:rgb(0,82,204);stop-opacity:1"/><stop offset="1" style="stop-color:rgb(38,132,255);stop-opacity:1"/></linearGradient>
    </defs>
</svg>
