<?xml version="1.0" encoding="UTF-8" standalone="no"?>
<!DOCTYPE svg PUBLIC "-//W3C//DTD SVG 1.1//EN" "http://www.w3.org/Graphics/SVG/1.1/DTD/svg11.dtd">
<svg width="100%" height="100%" viewBox="0 0 400 820" version="1.1" xmlns="http://www.w3.org/2000/svg" xmlns:xlink="http://www.w3.org/1999/xlink" xml:space="preserve" xmlns:serif="http://www.serif.com/" style="fill-rule:evenodd;clip-rule:evenodd;stroke-linecap:round;stroke-linejoin:round;stroke-miterlimit:1.5;">
    <g id="Mobile-Phone" serif:id="Mobile Phone" transform="matrix(2.57347,1.2887,1.45736e-16,2.57663,-1500.44,-2420.06)">
        <g transform="matrix(0.601583,0,-2.46519e-32,0.820924,157.981,51.0223)">
            <path d="M934.882,729.543C934.882,727.752 933.499,726.622 931.311,726.623C907.988,726.636 777.176,726.709 740.866,726.729C738.864,726.73 736.486,727.68 734.582,729.239C732.678,730.799 731.518,732.745 731.518,734.384L731.518,1021.5C731.518,1023.29 732.901,1024.42 735.089,1024.42C758.413,1024.41 889.225,1024.34 925.534,1024.32C927.536,1024.31 929.914,1023.36 931.818,1021.81C933.723,1020.25 934.882,1018.3 934.882,1016.66L934.882,729.543Z" style="fill:rgb(23,23,23);stroke:black;stroke-width:2.16px;"/>
        </g>
        <g transform="matrix(0.38858,-0.194348,-2.19783e-17,0.388104,436.784,725.496)">
            <path d="M421.295,14.053C422.686,13.308 433.544,7.883 434.047,7.687L434.068,7.674C437.016,5.852 440.697,5.686 443.797,7.236C500.009,35.342 702.527,136.601 738.636,154.655C742.023,156.349 744.163,159.812 744.163,163.6L744.163,770.916C744.163,774.381 742.369,777.6 739.421,779.422C738.898,779.745 726.903,785.737 726.42,785.933C725.966,786.206 725.496,786.441 725.013,786.636L725.11,786.578C728.058,784.755 729.853,781.537 729.853,778.071L729.853,170.755C729.853,166.967 727.713,163.505 724.325,161.811C688.216,143.756 485.699,42.498 429.486,14.391C426.906,13.101 423.923,13 421.295,14.053Z" style="fill:rgb(34,34,34);"/>
            <clipPath id="_clip1">
                <path d="M421.295,14.053C422.686,13.308 433.544,7.883 434.047,7.687L434.068,7.674C437.016,5.852 440.697,5.686 443.797,7.236C500.009,35.342 702.527,136.601 738.636,154.655C742.023,156.349 744.163,159.812 744.163,163.6L744.163,770.916C744.163,774.381 742.369,777.6 739.421,779.422C738.898,779.745 726.903,785.737 726.42,785.933C725.966,786.206 725.496,786.441 725.013,786.636L725.11,786.578C728.058,784.755 729.853,781.537 729.853,778.071L729.853,170.755C729.853,166.967 727.713,163.505 724.325,161.811C688.216,143.756 485.699,42.498 429.486,14.391C426.906,13.101 423.923,13 421.295,14.053Z"/>
            </clipPath>
            <g clip-path="url(#_clip1)">
                <path d="M729.853,164.575L744.163,157.419L439.325,5L425.014,12.155L729.853,164.575Z" style="fill:url(#_Linear2);"/>
                <path d="M725.11,786.578L729.853,778.071L729.853,164.575L744.163,157.419L744.163,772.785L725.11,786.578Z" style="fill:rgb(99,99,99);"/>
            </g>
            <path d="M421.295,14.053C422.686,13.308 433.544,7.883 434.047,7.687L434.068,7.674C437.016,5.852 440.697,5.686 443.797,7.236C500.009,35.342 702.527,136.601 738.636,154.655C742.023,156.349 744.163,159.812 744.163,163.6L744.163,770.916C744.163,774.381 742.369,777.6 739.421,779.422C738.898,779.745 726.903,785.737 726.42,785.933C725.966,786.206 725.496,786.441 725.013,786.636L725.11,786.578C728.058,784.755 729.853,781.537 729.853,778.071L729.853,170.755C729.853,166.967 727.713,163.505 724.325,161.811C688.216,143.756 485.699,42.498 429.486,14.391C426.906,13.101 423.923,13 421.295,14.053Z" style="fill:none;stroke:black;stroke-width:5px;"/>
        </g>
        <g transform="matrix(0.203554,-2.03196e-17,-9.10063e-21,0.0420561,454.767,627.53)">
            <rect x="949.78" y="740.812" width="136.595" height="131.56" style="fill:rgb(235,235,235);"/>
        </g>
        <g transform="matrix(0.953881,0,0,0.953881,33.3308,30.9325)">
            <circle cx="656.44" cy="881.451" r="10.483" style="fill:rgb(235,235,235);"/>
        </g>
        <g transform="matrix(0.805298,5.55112e-17,0,1.36808,-159.876,-340.305)">
            <path d="M1086.19,742.355L948.081,742.417L948.081,872.33L1086.19,872.268L1086.19,742.355Z" style="fill:rgb(235,235,235);"/>
        </g>
    </g>
    <defs>
        <linearGradient id="_Linear2" x1="0" y1="0" x2="1" y2="0" gradientUnits="userSpaceOnUse" gradientTransform="matrix(-1.11539,-2.5697,2.5697,-1.11539,734.896,160.692)"><stop offset="0" style="stop-color:rgb(99,99,99);stop-opacity:1"/><stop offset="1" style="stop-color:rgb(42,42,42);stop-opacity:1"/></linearGradient>
    </defs>
</svg>
