<?xml version="1.0" encoding="UTF-8" standalone="no"?>
<!DOCTYPE svg PUBLIC "-//W3C//DTD SVG 1.1//EN" "http://www.w3.org/Graphics/SVG/1.1/DTD/svg11.dtd">
<svg width="100%" height="100%" viewBox="0 0 1282 1280" version="1.1" xmlns="http://www.w3.org/2000/svg" xmlns:xlink="http://www.w3.org/1999/xlink" xml:space="preserve" xmlns:serif="http://www.serif.com/" style="fill-rule:evenodd;clip-rule:evenodd;stroke-linejoin:round;stroke-miterlimit:2;">
    <g id="Layer-1" serif:id="Layer 1" transform="matrix(4.16667,0,0,4.16667,0,0)">
        <g transform="matrix(1,0,0,1,175.125,109.695)">
            <path d="M0,156.755C1.53,157.053 4.83,156.455 9.887,154.974C14.637,153.793 19.702,150.304 25.072,144.508C27.828,141.093 30.587,137.012 33.35,132.262C36.265,127.662 38.64,121.876 40.484,114.895C44.929,101.534 47.763,82.389 48.995,57.451C50.171,41.267 48.946,27.764 45.316,16.926C41.481,5.944 35.041,0.3 25.99,0.001C17.101,0.3 9.356,3.488 2.762,9.575C-3.834,15.662 -9.429,23.682 -14.027,33.626C-22.924,55.003 -27.368,75.712 -27.368,95.746C-27.368,113.709 -25.3,128.257 -21.161,139.389C-17.022,150.964 -9.969,156.755 0,156.755M-7.585,197.415C-24.673,197.118 -39.808,193.576 -52.982,186.781C-66.3,180.13 -77.089,171.564 -85.342,161.064C-102.283,138.896 -110.754,115.842 -110.754,91.896C-110.174,55.398 -96.51,24.438 -69.778,-0.981C-44.068,-26.69 -11.933,-39.92 26.635,-40.66C46.355,-40.66 63.085,-37.262 76.822,-30.466C90.253,-23.518 101.066,-14.798 109.246,-4.306C117.572,6.339 123.708,17.715 127.653,29.833C130.866,42.249 132.476,54.215 132.476,65.745C132.476,98.403 120.858,128.033 97.628,154.638C74.245,182.125 39.172,196.378 -7.585,197.415" style="fill:rgb(76,158,69);fill-rule:nonzero;"/>
        </g>
        <g transform="matrix(1,0,0,1,78.1006,-133.16)">
            <path d="M0,435.773C-211.684,268.805 55.986,0 223,210.16C63.62,63.206 -145.616,295.673 0,435.773" style="fill:rgb(76,157,47);fill-rule:nonzero;"/>
        </g>
    </g>
</svg>
