<?xml version="1.0" encoding="UTF-8" standalone="no"?>
<!DOCTYPE svg PUBLIC "-//W3C//DTD SVG 1.1//EN" "http://www.w3.org/Graphics/SVG/1.1/DTD/svg11.dtd">
<svg width="100%" height="100%" viewBox="0 0 1380 2980" version="1.1" xmlns="http://www.w3.org/2000/svg" xmlns:xlink="http://www.w3.org/1999/xlink" xml:space="preserve" xmlns:serif="http://www.serif.com/" style="fill-rule:evenodd;clip-rule:evenodd;stroke-linejoin:round;stroke-miterlimit:2;">
    <g id="Server" transform="matrix(1,0,0,1,-14.4867,-115.022)">
        <g id="Generic-Server-turned-on" serif:id="Generic Server turned on" transform="matrix(6.94863,0,0,6.94863,-2561.9,174.678)">
            <g id="Chassis">
                <path d="M379.014,357.958L449.038,392.969L560.252,337.362L490.228,302.351L379.014,357.958Z" style="fill:rgb(102,102,102);"/>
                <path d="M449.038,392.969L449.038,407.386L560.252,351.779L560.252,337.362L449.038,392.969Z" style="fill:rgb(153,153,153);"/>
                <g transform="matrix(0.143913,0,0,0.143913,376.954,293.083)">
                    <path d="M14.311,550.967L500.879,794.251L500.879,694.076L14.311,450.791L14.311,550.967Z" style="fill:rgb(34,34,34);"/>
                </g>
            </g>
            <g id="Cooling">
                <g transform="matrix(1.60284,0,0,1,-224.584,-16.4973)">
                    <path d="M379.054,385.904L404.819,406.172L404.847,406.206L404.864,406.254L404.869,406.31L404.86,406.364L404.839,406.409L404.808,406.437L404.774,406.444L404.74,406.43L378.974,386.162L378.947,386.128L378.929,386.079L378.924,386.024L378.933,385.969L378.955,385.925L378.985,385.897L379.02,385.889L379.054,385.904Z" style="fill:rgb(226,226,226);"/>
                </g>
                <g transform="matrix(1.60284,0,0,1,-224.584,-21.3321)">
                    <path d="M379.054,385.904L404.819,406.172L404.847,406.206L404.864,406.254L404.869,406.31L404.86,406.364L404.839,406.409L404.808,406.437L404.774,406.444L404.74,406.43L378.974,386.162L378.947,386.128L378.929,386.079L378.924,386.024L378.933,385.969L378.955,385.925L378.985,385.897L379.02,385.889L379.054,385.904Z" style="fill:rgb(226,226,226);"/>
                </g>
            </g>
            <g id="LED-green" serif:id="LED green" transform="matrix(0.442367,0.221184,0,0.442367,322.483,196.687)">
                <circle cx="257.703" cy="316.533" r="5.651" style="fill:rgb(0,255,0);"/>
            </g>
        </g>
        <g id="Generic-Server-turned-on1" serif:id="Generic Server turned on" transform="matrix(6.94863,0,0,6.94863,-2561.9,45.8801)">
            <g id="Chassis1" serif:id="Chassis">
                <path d="M379.014,357.958L449.038,392.969L560.252,337.362L490.228,302.351L379.014,357.958Z" style="fill:rgb(102,102,102);"/>
                <path d="M449.038,392.969L449.038,407.386L560.252,351.779L560.252,337.362L449.038,392.969Z" style="fill:rgb(153,153,153);"/>
                <g transform="matrix(0.143913,0,0,0.143913,376.954,293.083)">
                    <path d="M14.311,550.967L500.879,794.251L500.879,694.076L14.311,450.791L14.311,550.967Z" style="fill:rgb(34,34,34);"/>
                </g>
            </g>
            <g id="Cooling1" serif:id="Cooling">
                <g transform="matrix(1.60284,0,0,1,-224.584,-16.4973)">
                    <path d="M379.054,385.904L404.819,406.172L404.847,406.206L404.864,406.254L404.869,406.31L404.86,406.364L404.839,406.409L404.808,406.437L404.774,406.444L404.74,406.43L378.974,386.162L378.947,386.128L378.929,386.079L378.924,386.024L378.933,385.969L378.955,385.925L378.985,385.897L379.02,385.889L379.054,385.904Z" style="fill:rgb(226,226,226);"/>
                </g>
                <g transform="matrix(1.60284,0,0,1,-224.584,-21.3321)">
                    <path d="M379.054,385.904L404.819,406.172L404.847,406.206L404.864,406.254L404.869,406.31L404.86,406.364L404.839,406.409L404.808,406.437L404.774,406.444L404.74,406.43L378.974,386.162L378.947,386.128L378.929,386.079L378.924,386.024L378.933,385.969L378.955,385.925L378.985,385.897L379.02,385.889L379.054,385.904Z" style="fill:rgb(226,226,226);"/>
                </g>
            </g>
            <g id="LED-green1" serif:id="LED green" transform="matrix(0.442367,0.221184,0,0.442367,322.483,196.687)">
                <circle cx="257.703" cy="316.533" r="5.651" style="fill:rgb(0,255,0);"/>
            </g>
        </g>
        <g id="Generic-Server-turned-on2" serif:id="Generic Server turned on" transform="matrix(6.94863,0,0,6.94863,-2561.9,-82.9174)">
            <g id="Chassis2" serif:id="Chassis">
                <path d="M379.014,357.958L449.038,392.969L560.252,337.362L490.228,302.351L379.014,357.958Z" style="fill:rgb(102,102,102);"/>
                <path d="M449.038,392.969L449.038,407.386L560.252,351.779L560.252,337.362L449.038,392.969Z" style="fill:rgb(153,153,153);"/>
                <g transform="matrix(0.143913,0,0,0.143913,376.954,293.083)">
                    <path d="M14.311,550.967L500.879,794.251L500.879,694.076L14.311,450.791L14.311,550.967Z" style="fill:rgb(34,34,34);"/>
                </g>
            </g>
            <g id="Cooling2" serif:id="Cooling">
                <g transform="matrix(1.60284,0,0,1,-224.584,-16.4973)">
                    <path d="M379.054,385.904L404.819,406.172L404.847,406.206L404.864,406.254L404.869,406.31L404.86,406.364L404.839,406.409L404.808,406.437L404.774,406.444L404.74,406.43L378.974,386.162L378.947,386.128L378.929,386.079L378.924,386.024L378.933,385.969L378.955,385.925L378.985,385.897L379.02,385.889L379.054,385.904Z" style="fill:rgb(226,226,226);"/>
                </g>
                <g transform="matrix(1.60284,0,0,1,-224.584,-21.3321)">
                    <path d="M379.054,385.904L404.819,406.172L404.847,406.206L404.864,406.254L404.869,406.31L404.86,406.364L404.839,406.409L404.808,406.437L404.774,406.444L404.74,406.43L378.974,386.162L378.947,386.128L378.929,386.079L378.924,386.024L378.933,385.969L378.955,385.925L378.985,385.897L379.02,385.889L379.054,385.904Z" style="fill:rgb(226,226,226);"/>
                </g>
            </g>
            <g id="LED-green2" serif:id="LED green" transform="matrix(0.442367,0.221184,0,0.442367,322.483,196.687)">
                <circle cx="257.703" cy="316.533" r="5.651" style="fill:rgb(0,255,0);"/>
            </g>
        </g>
        <g id="Generic-Server-turned-on3" serif:id="Generic Server turned on" transform="matrix(6.94863,0,0,6.94863,-2561.9,-211.715)">
            <g id="Chassis3" serif:id="Chassis">
                <path d="M379.014,357.958L449.038,392.969L560.252,337.362L490.228,302.351L379.014,357.958Z" style="fill:rgb(102,102,102);"/>
                <path d="M449.038,392.969L449.038,407.386L560.252,351.779L560.252,337.362L449.038,392.969Z" style="fill:rgb(153,153,153);"/>
                <g transform="matrix(0.143913,0,0,0.143913,376.954,293.083)">
                    <path d="M14.311,550.967L500.879,794.251L500.879,694.076L14.311,450.791L14.311,550.967Z" style="fill:rgb(34,34,34);"/>
                </g>
            </g>
            <g id="Cooling3" serif:id="Cooling">
                <g transform="matrix(1.60284,0,0,1,-224.584,-16.4973)">
                    <path d="M379.054,385.904L404.819,406.172L404.847,406.206L404.864,406.254L404.869,406.31L404.86,406.364L404.839,406.409L404.808,406.437L404.774,406.444L404.74,406.43L378.974,386.162L378.947,386.128L378.929,386.079L378.924,386.024L378.933,385.969L378.955,385.925L378.985,385.897L379.02,385.889L379.054,385.904Z" style="fill:rgb(226,226,226);"/>
                </g>
                <g transform="matrix(1.60284,0,0,1,-224.584,-21.3321)">
                    <path d="M379.054,385.904L404.819,406.172L404.847,406.206L404.864,406.254L404.869,406.31L404.86,406.364L404.839,406.409L404.808,406.437L404.774,406.444L404.74,406.43L378.974,386.162L378.947,386.128L378.929,386.079L378.924,386.024L378.933,385.969L378.955,385.925L378.985,385.897L379.02,385.889L379.054,385.904Z" style="fill:rgb(226,226,226);"/>
                </g>
            </g>
            <g id="LED-green3" serif:id="LED green" transform="matrix(0.442367,0.221184,0,0.442367,322.483,196.687)">
                <circle cx="257.703" cy="316.533" r="5.651" style="fill:rgb(0,255,0);"/>
            </g>
        </g>
        <g id="Generic-Server-turned-on4" serif:id="Generic Server turned on" transform="matrix(6.94863,0,0,6.94863,-2561.9,-340.512)">
            <g id="Chassis4" serif:id="Chassis">
                <path d="M379.014,357.958L449.038,392.969L560.252,337.362L490.228,302.351L379.014,357.958Z" style="fill:rgb(102,102,102);"/>
                <path d="M449.038,392.969L449.038,407.386L560.252,351.779L560.252,337.362L449.038,392.969Z" style="fill:rgb(153,153,153);"/>
                <g transform="matrix(0.143913,0,0,0.143913,376.954,293.083)">
                    <path d="M14.311,550.967L500.879,794.251L500.879,694.076L14.311,450.791L14.311,550.967Z" style="fill:rgb(34,34,34);"/>
                </g>
            </g>
            <g id="Cooling4" serif:id="Cooling">
                <g transform="matrix(1.60284,0,0,1,-224.584,-16.4973)">
                    <path d="M379.054,385.904L404.819,406.172L404.847,406.206L404.864,406.254L404.869,406.31L404.86,406.364L404.839,406.409L404.808,406.437L404.774,406.444L404.74,406.43L378.974,386.162L378.947,386.128L378.929,386.079L378.924,386.024L378.933,385.969L378.955,385.925L378.985,385.897L379.02,385.889L379.054,385.904Z" style="fill:rgb(226,226,226);"/>
                </g>
                <g transform="matrix(1.60284,0,0,1,-224.584,-21.3321)">
                    <path d="M379.054,385.904L404.819,406.172L404.847,406.206L404.864,406.254L404.869,406.31L404.86,406.364L404.839,406.409L404.808,406.437L404.774,406.444L404.74,406.43L378.974,386.162L378.947,386.128L378.929,386.079L378.924,386.024L378.933,385.969L378.955,385.925L378.985,385.897L379.02,385.889L379.054,385.904Z" style="fill:rgb(226,226,226);"/>
                </g>
            </g>
            <g id="LED-green4" serif:id="LED green" transform="matrix(0.442367,0.221184,0,0.442367,322.483,196.687)">
                <circle cx="257.703" cy="316.533" r="5.651" style="fill:rgb(0,255,0);"/>
            </g>
        </g>
        <g id="Generic-Server-turned-on5" serif:id="Generic Server turned on" transform="matrix(6.94863,0,0,6.94863,-2561.9,-469.31)">
            <g id="Chassis5" serif:id="Chassis">
                <path d="M379.014,357.958L449.038,392.969L560.252,337.362L490.228,302.351L379.014,357.958Z" style="fill:rgb(102,102,102);"/>
                <path d="M449.038,392.969L449.038,407.386L560.252,351.779L560.252,337.362L449.038,392.969Z" style="fill:rgb(153,153,153);"/>
                <g transform="matrix(0.143913,0,0,0.143913,376.954,293.083)">
                    <path d="M14.311,550.967L500.879,794.251L500.879,694.076L14.311,450.791L14.311,550.967Z" style="fill:rgb(34,34,34);"/>
                </g>
            </g>
            <g id="Cooling5" serif:id="Cooling">
                <g transform="matrix(1.60284,0,0,1,-224.584,-16.4973)">
                    <path d="M379.054,385.904L404.819,406.172L404.847,406.206L404.864,406.254L404.869,406.31L404.86,406.364L404.839,406.409L404.808,406.437L404.774,406.444L404.74,406.43L378.974,386.162L378.947,386.128L378.929,386.079L378.924,386.024L378.933,385.969L378.955,385.925L378.985,385.897L379.02,385.889L379.054,385.904Z" style="fill:rgb(226,226,226);"/>
                </g>
                <g transform="matrix(1.60284,0,0,1,-224.584,-21.3321)">
                    <path d="M379.054,385.904L404.819,406.172L404.847,406.206L404.864,406.254L404.869,406.31L404.86,406.364L404.839,406.409L404.808,406.437L404.774,406.444L404.74,406.43L378.974,386.162L378.947,386.128L378.929,386.079L378.924,386.024L378.933,385.969L378.955,385.925L378.985,385.897L379.02,385.889L379.054,385.904Z" style="fill:rgb(226,226,226);"/>
                </g>
            </g>
            <g id="LED-green5" serif:id="LED green" transform="matrix(0.442367,0.221184,0,0.442367,322.483,196.687)">
                <circle cx="257.703" cy="316.533" r="5.651" style="fill:rgb(0,255,0);"/>
            </g>
        </g>
        <g id="Generic-Server-turned-on6" serif:id="Generic Server turned on" transform="matrix(6.94863,0,0,6.94863,-2561.9,-598.107)">
            <g id="Chassis6" serif:id="Chassis">
                <path d="M379.014,357.958L449.038,392.969L560.252,337.362L490.228,302.351L379.014,357.958Z" style="fill:rgb(102,102,102);"/>
                <path d="M449.038,392.969L449.038,407.386L560.252,351.779L560.252,337.362L449.038,392.969Z" style="fill:rgb(153,153,153);"/>
                <g transform="matrix(0.143913,0,0,0.143913,376.954,293.083)">
                    <path d="M14.311,550.967L500.879,794.251L500.879,694.076L14.311,450.791L14.311,550.967Z" style="fill:rgb(34,34,34);"/>
                </g>
            </g>
            <g id="Cooling6" serif:id="Cooling">
                <g transform="matrix(1.60284,0,0,1,-224.584,-16.4973)">
                    <path d="M379.054,385.904L404.819,406.172L404.847,406.206L404.864,406.254L404.869,406.31L404.86,406.364L404.839,406.409L404.808,406.437L404.774,406.444L404.74,406.43L378.974,386.162L378.947,386.128L378.929,386.079L378.924,386.024L378.933,385.969L378.955,385.925L378.985,385.897L379.02,385.889L379.054,385.904Z" style="fill:rgb(226,226,226);"/>
                </g>
                <g transform="matrix(1.60284,0,0,1,-224.584,-21.3321)">
                    <path d="M379.054,385.904L404.819,406.172L404.847,406.206L404.864,406.254L404.869,406.31L404.86,406.364L404.839,406.409L404.808,406.437L404.774,406.444L404.74,406.43L378.974,386.162L378.947,386.128L378.929,386.079L378.924,386.024L378.933,385.969L378.955,385.925L378.985,385.897L379.02,385.889L379.054,385.904Z" style="fill:rgb(226,226,226);"/>
                </g>
            </g>
            <g id="LED-green6" serif:id="LED green" transform="matrix(0.442367,0.221184,0,0.442367,322.483,196.687)">
                <circle cx="257.703" cy="316.533" r="5.651" style="fill:rgb(0,255,0);"/>
            </g>
        </g>
        <g id="Generic-Server-turned-on7" serif:id="Generic Server turned on" transform="matrix(6.94863,0,0,6.94863,-2561.9,-726.905)">
            <g id="Chassis7" serif:id="Chassis">
                <path d="M379.014,357.958L449.038,392.969L560.252,337.362L490.228,302.351L379.014,357.958Z" style="fill:rgb(102,102,102);"/>
                <path d="M449.038,392.969L449.038,407.386L560.252,351.779L560.252,337.362L449.038,392.969Z" style="fill:rgb(153,153,153);"/>
                <g transform="matrix(0.143913,0,0,0.143913,376.954,293.083)">
                    <path d="M14.311,550.967L500.879,794.251L500.879,694.076L14.311,450.791L14.311,550.967Z" style="fill:rgb(34,34,34);"/>
                </g>
            </g>
            <g id="Cooling7" serif:id="Cooling">
                <g transform="matrix(1.60284,0,0,1,-224.584,-16.4973)">
                    <path d="M379.054,385.904L404.819,406.172L404.847,406.206L404.864,406.254L404.869,406.31L404.86,406.364L404.839,406.409L404.808,406.437L404.774,406.444L404.74,406.43L378.974,386.162L378.947,386.128L378.929,386.079L378.924,386.024L378.933,385.969L378.955,385.925L378.985,385.897L379.02,385.889L379.054,385.904Z" style="fill:rgb(226,226,226);"/>
                </g>
                <g transform="matrix(1.60284,0,0,1,-224.584,-21.3321)">
                    <path d="M379.054,385.904L404.819,406.172L404.847,406.206L404.864,406.254L404.869,406.31L404.86,406.364L404.839,406.409L404.808,406.437L404.774,406.444L404.74,406.43L378.974,386.162L378.947,386.128L378.929,386.079L378.924,386.024L378.933,385.969L378.955,385.925L378.985,385.897L379.02,385.889L379.054,385.904Z" style="fill:rgb(226,226,226);"/>
                </g>
            </g>
            <g id="LED-green7" serif:id="LED green" transform="matrix(0.442367,0.221184,0,0.442367,322.483,196.687)">
                <circle cx="257.703" cy="316.533" r="5.651" style="fill:rgb(0,255,0);"/>
            </g>
        </g>
        <g id="Generic-Server-turned-on8" serif:id="Generic Server turned on" transform="matrix(6.94863,0,0,6.94863,-2561.9,-855.703)">
            <g id="Chassis8" serif:id="Chassis">
                <path d="M379.014,357.958L449.038,392.969L560.252,337.362L490.228,302.351L379.014,357.958Z" style="fill:rgb(102,102,102);"/>
                <path d="M449.038,392.969L449.038,407.386L560.252,351.779L560.252,337.362L449.038,392.969Z" style="fill:rgb(153,153,153);"/>
                <g transform="matrix(0.143913,0,0,0.143913,376.954,293.083)">
                    <path d="M14.311,550.967L500.879,794.251L500.879,694.076L14.311,450.791L14.311,550.967Z" style="fill:rgb(34,34,34);"/>
                </g>
            </g>
            <g id="Cooling8" serif:id="Cooling">
                <g transform="matrix(1.60284,0,0,1,-224.584,-16.4973)">
                    <path d="M379.054,385.904L404.819,406.172L404.847,406.206L404.864,406.254L404.869,406.31L404.86,406.364L404.839,406.409L404.808,406.437L404.774,406.444L404.74,406.43L378.974,386.162L378.947,386.128L378.929,386.079L378.924,386.024L378.933,385.969L378.955,385.925L378.985,385.897L379.02,385.889L379.054,385.904Z" style="fill:rgb(226,226,226);"/>
                </g>
                <g transform="matrix(1.60284,0,0,1,-224.584,-21.3321)">
                    <path d="M379.054,385.904L404.819,406.172L404.847,406.206L404.864,406.254L404.869,406.31L404.86,406.364L404.839,406.409L404.808,406.437L404.774,406.444L404.74,406.43L378.974,386.162L378.947,386.128L378.929,386.079L378.924,386.024L378.933,385.969L378.955,385.925L378.985,385.897L379.02,385.889L379.054,385.904Z" style="fill:rgb(226,226,226);"/>
                </g>
            </g>
            <g id="LED-green8" serif:id="LED green" transform="matrix(0.442367,0.221184,0,0.442367,322.483,196.687)">
                <circle cx="257.703" cy="316.533" r="5.651" style="fill:rgb(0,255,0);"/>
            </g>
        </g>
        <g id="Generic-Server-turned-on9" serif:id="Generic Server turned on" transform="matrix(6.94863,0,0,6.94863,-2561.9,-984.5)">
            <g id="Chassis9" serif:id="Chassis">
                <path d="M379.014,357.958L449.038,392.969L560.252,337.362L490.228,302.351L379.014,357.958Z" style="fill:rgb(102,102,102);"/>
                <path d="M449.038,392.969L449.038,407.386L560.252,351.779L560.252,337.362L449.038,392.969Z" style="fill:rgb(153,153,153);"/>
                <g transform="matrix(0.143913,0,0,0.143913,376.954,293.083)">
                    <path d="M14.311,550.967L500.879,794.251L500.879,694.076L14.311,450.791L14.311,550.967Z" style="fill:rgb(34,34,34);"/>
                </g>
            </g>
            <g id="Cooling9" serif:id="Cooling">
                <g transform="matrix(1.60284,0,0,1,-224.584,-16.4973)">
                    <path d="M379.054,385.904L404.819,406.172L404.847,406.206L404.864,406.254L404.869,406.31L404.86,406.364L404.839,406.409L404.808,406.437L404.774,406.444L404.74,406.43L378.974,386.162L378.947,386.128L378.929,386.079L378.924,386.024L378.933,385.969L378.955,385.925L378.985,385.897L379.02,385.889L379.054,385.904Z" style="fill:rgb(226,226,226);"/>
                </g>
                <g transform="matrix(1.60284,0,0,1,-224.584,-21.3321)">
                    <path d="M379.054,385.904L404.819,406.172L404.847,406.206L404.864,406.254L404.869,406.31L404.86,406.364L404.839,406.409L404.808,406.437L404.774,406.444L404.74,406.43L378.974,386.162L378.947,386.128L378.929,386.079L378.924,386.024L378.933,385.969L378.955,385.925L378.985,385.897L379.02,385.889L379.054,385.904Z" style="fill:rgb(226,226,226);"/>
                </g>
            </g>
            <g id="LED-green9" serif:id="LED green" transform="matrix(0.442367,0.221184,0,0.442367,322.483,196.687)">
                <circle cx="257.703" cy="316.533" r="5.651" style="fill:rgb(0,255,0);"/>
            </g>
        </g>
        <g id="Generic-Server-turned-on10" serif:id="Generic Server turned on" transform="matrix(6.94863,0,0,6.94863,-2561.9,-1113.3)">
            <g id="Chassis10" serif:id="Chassis">
                <path d="M379.014,357.958L449.038,392.969L560.252,337.362L490.228,302.351L379.014,357.958Z" style="fill:rgb(102,102,102);"/>
                <path d="M449.038,392.969L449.038,407.386L560.252,351.779L560.252,337.362L449.038,392.969Z" style="fill:rgb(153,153,153);"/>
                <g transform="matrix(0.143913,0,0,0.143913,376.954,293.083)">
                    <path d="M14.311,550.967L500.879,794.251L500.879,694.076L14.311,450.791L14.311,550.967Z" style="fill:rgb(34,34,34);"/>
                </g>
            </g>
            <g id="Cooling10" serif:id="Cooling">
                <g transform="matrix(1.60284,0,0,1,-224.584,-16.4973)">
                    <path d="M379.054,385.904L404.819,406.172L404.847,406.206L404.864,406.254L404.869,406.31L404.86,406.364L404.839,406.409L404.808,406.437L404.774,406.444L404.74,406.43L378.974,386.162L378.947,386.128L378.929,386.079L378.924,386.024L378.933,385.969L378.955,385.925L378.985,385.897L379.02,385.889L379.054,385.904Z" style="fill:rgb(226,226,226);"/>
                </g>
                <g transform="matrix(1.60284,0,0,1,-224.584,-21.3321)">
                    <path d="M379.054,385.904L404.819,406.172L404.847,406.206L404.864,406.254L404.869,406.31L404.86,406.364L404.839,406.409L404.808,406.437L404.774,406.444L404.74,406.43L378.974,386.162L378.947,386.128L378.929,386.079L378.924,386.024L378.933,385.969L378.955,385.925L378.985,385.897L379.02,385.889L379.054,385.904Z" style="fill:rgb(226,226,226);"/>
                </g>
            </g>
            <g id="LED-green10" serif:id="LED green" transform="matrix(0.442367,0.221184,0,0.442367,322.483,196.687)">
                <circle cx="257.703" cy="316.533" r="5.651" style="fill:rgb(0,255,0);"/>
            </g>
        </g>
        <g id="Generic-Server-turned-on11" serif:id="Generic Server turned on" transform="matrix(6.94863,0,0,6.94863,-2561.9,-1242.1)">
            <g id="Chassis11" serif:id="Chassis">
                <path d="M379.014,357.958L449.038,392.969L560.252,337.362L490.228,302.351L379.014,357.958Z" style="fill:rgb(102,102,102);"/>
                <path d="M449.038,392.969L449.038,407.386L560.252,351.779L560.252,337.362L449.038,392.969Z" style="fill:rgb(153,153,153);"/>
                <g transform="matrix(0.143913,0,0,0.143913,376.954,293.083)">
                    <path d="M14.311,550.967L500.879,794.251L500.879,694.076L14.311,450.791L14.311,550.967Z" style="fill:rgb(34,34,34);"/>
                </g>
            </g>
            <g id="Cooling11" serif:id="Cooling">
                <g transform="matrix(1.60284,0,0,1,-224.584,-16.4973)">
                    <path d="M379.054,385.904L404.819,406.172L404.847,406.206L404.864,406.254L404.869,406.31L404.86,406.364L404.839,406.409L404.808,406.437L404.774,406.444L404.74,406.43L378.974,386.162L378.947,386.128L378.929,386.079L378.924,386.024L378.933,385.969L378.955,385.925L378.985,385.897L379.02,385.889L379.054,385.904Z" style="fill:rgb(226,226,226);"/>
                </g>
                <g transform="matrix(1.60284,0,0,1,-224.584,-21.3321)">
                    <path d="M379.054,385.904L404.819,406.172L404.847,406.206L404.864,406.254L404.869,406.31L404.86,406.364L404.839,406.409L404.808,406.437L404.774,406.444L404.74,406.43L378.974,386.162L378.947,386.128L378.929,386.079L378.924,386.024L378.933,385.969L378.955,385.925L378.985,385.897L379.02,385.889L379.054,385.904Z" style="fill:rgb(226,226,226);"/>
                </g>
            </g>
            <g id="LED-green11" serif:id="LED green" transform="matrix(0.442367,0.221184,0,0.442367,322.483,196.687)">
                <circle cx="257.703" cy="316.533" r="5.651" style="fill:rgb(0,255,0);"/>
            </g>
        </g>
        <g id="Generic-Server-turned-on12" serif:id="Generic Server turned on" transform="matrix(6.94863,0,0,6.94863,-2561.9,-1370.89)">
            <g id="Chassis12" serif:id="Chassis">
                <path d="M379.014,357.958L449.038,392.969L560.252,337.362L490.228,302.351L379.014,357.958Z" style="fill:rgb(102,102,102);"/>
                <path d="M449.038,392.969L449.038,407.386L560.252,351.779L560.252,337.362L449.038,392.969Z" style="fill:rgb(153,153,153);"/>
                <g transform="matrix(0.143913,0,0,0.143913,376.954,293.083)">
                    <path d="M14.311,550.967L500.879,794.251L500.879,694.076L14.311,450.791L14.311,550.967Z" style="fill:rgb(34,34,34);"/>
                </g>
            </g>
            <g id="Cooling12" serif:id="Cooling">
                <g transform="matrix(1.60284,0,0,1,-224.584,-16.4973)">
                    <path d="M379.054,385.904L404.819,406.172L404.847,406.206L404.864,406.254L404.869,406.31L404.86,406.364L404.839,406.409L404.808,406.437L404.774,406.444L404.74,406.43L378.974,386.162L378.947,386.128L378.929,386.079L378.924,386.024L378.933,385.969L378.955,385.925L378.985,385.897L379.02,385.889L379.054,385.904Z" style="fill:rgb(226,226,226);"/>
                </g>
                <g transform="matrix(1.60284,0,0,1,-224.584,-21.3321)">
                    <path d="M379.054,385.904L404.819,406.172L404.847,406.206L404.864,406.254L404.869,406.31L404.86,406.364L404.839,406.409L404.808,406.437L404.774,406.444L404.74,406.43L378.974,386.162L378.947,386.128L378.929,386.079L378.924,386.024L378.933,385.969L378.955,385.925L378.985,385.897L379.02,385.889L379.054,385.904Z" style="fill:rgb(226,226,226);"/>
                </g>
            </g>
            <g id="LED-green12" serif:id="LED green" transform="matrix(0.442367,0.221184,0,0.442367,322.483,196.687)">
                <circle cx="257.703" cy="316.533" r="5.651" style="fill:rgb(0,255,0);"/>
            </g>
        </g>
        <g id="Generic-Server-turned-on13" serif:id="Generic Server turned on" transform="matrix(6.94863,0,0,6.94863,-2561.9,-1499.69)">
            <g id="Chassis13" serif:id="Chassis">
                <path d="M379.014,357.958L449.038,392.969L560.252,337.362L490.228,302.351L379.014,357.958Z" style="fill:rgb(102,102,102);"/>
                <path d="M449.038,392.969L449.038,407.386L560.252,351.779L560.252,337.362L449.038,392.969Z" style="fill:rgb(153,153,153);"/>
                <g transform="matrix(0.143913,0,0,0.143913,376.954,293.083)">
                    <path d="M14.311,550.967L500.879,794.251L500.879,694.076L14.311,450.791L14.311,550.967Z" style="fill:rgb(34,34,34);"/>
                </g>
            </g>
            <g id="Cooling13" serif:id="Cooling">
                <g transform="matrix(1.60284,0,0,1,-224.584,-16.4973)">
                    <path d="M379.054,385.904L404.819,406.172L404.847,406.206L404.864,406.254L404.869,406.31L404.86,406.364L404.839,406.409L404.808,406.437L404.774,406.444L404.74,406.43L378.974,386.162L378.947,386.128L378.929,386.079L378.924,386.024L378.933,385.969L378.955,385.925L378.985,385.897L379.02,385.889L379.054,385.904Z" style="fill:rgb(226,226,226);"/>
                </g>
                <g transform="matrix(1.60284,0,0,1,-224.584,-21.3321)">
                    <path d="M379.054,385.904L404.819,406.172L404.847,406.206L404.864,406.254L404.869,406.31L404.86,406.364L404.839,406.409L404.808,406.437L404.774,406.444L404.74,406.43L378.974,386.162L378.947,386.128L378.929,386.079L378.924,386.024L378.933,385.969L378.955,385.925L378.985,385.897L379.02,385.889L379.054,385.904Z" style="fill:rgb(226,226,226);"/>
                </g>
            </g>
            <g id="LED-green13" serif:id="LED green" transform="matrix(0.442367,0.221184,0,0.442367,322.483,196.687)">
                <circle cx="257.703" cy="316.533" r="5.651" style="fill:rgb(0,255,0);"/>
            </g>
        </g>
        <g id="Generic-Server-turned-on14" serif:id="Generic Server turned on" transform="matrix(6.94863,0,0,6.94863,-2561.9,-1628.49)">
            <g id="Chassis14" serif:id="Chassis">
                <path d="M379.014,357.958L449.038,392.969L560.252,337.362L490.228,302.351L379.014,357.958Z" style="fill:rgb(102,102,102);"/>
                <path d="M449.038,392.969L449.038,407.386L560.252,351.779L560.252,337.362L449.038,392.969Z" style="fill:rgb(153,153,153);"/>
                <g transform="matrix(0.143913,0,0,0.143913,376.954,293.083)">
                    <path d="M14.311,550.967L500.879,794.251L500.879,694.076L14.311,450.791L14.311,550.967Z" style="fill:rgb(34,34,34);"/>
                </g>
            </g>
            <g id="Cooling14" serif:id="Cooling">
                <g transform="matrix(1.60284,0,0,1,-224.584,-16.4973)">
                    <path d="M379.054,385.904L404.819,406.172L404.847,406.206L404.864,406.254L404.869,406.31L404.86,406.364L404.839,406.409L404.808,406.437L404.774,406.444L404.74,406.43L378.974,386.162L378.947,386.128L378.929,386.079L378.924,386.024L378.933,385.969L378.955,385.925L378.985,385.897L379.02,385.889L379.054,385.904Z" style="fill:rgb(226,226,226);"/>
                </g>
                <g transform="matrix(1.60284,0,0,1,-224.584,-21.3321)">
                    <path d="M379.054,385.904L404.819,406.172L404.847,406.206L404.864,406.254L404.869,406.31L404.86,406.364L404.839,406.409L404.808,406.437L404.774,406.444L404.74,406.43L378.974,386.162L378.947,386.128L378.929,386.079L378.924,386.024L378.933,385.969L378.955,385.925L378.985,385.897L379.02,385.889L379.054,385.904Z" style="fill:rgb(226,226,226);"/>
                </g>
            </g>
            <g id="LED-green14" serif:id="LED green" transform="matrix(0.442367,0.221184,0,0.442367,322.483,196.687)">
                <circle cx="257.703" cy="316.533" r="5.651" style="fill:rgb(0,255,0);"/>
            </g>
        </g>
        <g id="Generic-Server-turned-on15" serif:id="Generic Server turned on" transform="matrix(6.94863,0,0,6.94863,-2561.9,-1757.29)">
            <g id="Chassis15" serif:id="Chassis">
                <path d="M379.014,357.958L449.038,392.969L560.252,337.362L490.228,302.351L379.014,357.958Z" style="fill:rgb(102,102,102);"/>
                <path d="M449.038,392.969L449.038,407.386L560.252,351.779L560.252,337.362L449.038,392.969Z" style="fill:rgb(153,153,153);"/>
                <g transform="matrix(0.143913,0,0,0.143913,376.954,293.083)">
                    <path d="M14.311,550.967L500.879,794.251L500.879,694.076L14.311,450.791L14.311,550.967Z" style="fill:rgb(34,34,34);"/>
                </g>
            </g>
            <g id="Cooling15" serif:id="Cooling">
                <g transform="matrix(1.60284,0,0,1,-224.584,-16.4973)">
                    <path d="M379.054,385.904L404.819,406.172L404.847,406.206L404.864,406.254L404.869,406.31L404.86,406.364L404.839,406.409L404.808,406.437L404.774,406.444L404.74,406.43L378.974,386.162L378.947,386.128L378.929,386.079L378.924,386.024L378.933,385.969L378.955,385.925L378.985,385.897L379.02,385.889L379.054,385.904Z" style="fill:rgb(226,226,226);"/>
                </g>
                <g transform="matrix(1.60284,0,0,1,-224.584,-21.3321)">
                    <path d="M379.054,385.904L404.819,406.172L404.847,406.206L404.864,406.254L404.869,406.31L404.86,406.364L404.839,406.409L404.808,406.437L404.774,406.444L404.74,406.43L378.974,386.162L378.947,386.128L378.929,386.079L378.924,386.024L378.933,385.969L378.955,385.925L378.985,385.897L379.02,385.889L379.054,385.904Z" style="fill:rgb(226,226,226);"/>
                </g>
            </g>
            <g id="LED-green15" serif:id="LED green" transform="matrix(0.442367,0.221184,0,0.442367,322.483,196.687)">
                <circle cx="257.703" cy="316.533" r="5.651" style="fill:rgb(0,255,0);"/>
            </g>
        </g>
        <g id="Generic-Server-turned-on16" serif:id="Generic Server turned on" transform="matrix(6.94863,0,0,6.94863,-2561.9,-1886.08)">
            <g id="Chassis16" serif:id="Chassis">
                <path d="M379.014,357.958L449.038,392.969L560.252,337.362L490.228,302.351L379.014,357.958Z" style="fill:rgb(102,102,102);"/>
                <path d="M449.038,392.969L449.038,407.386L560.252,351.779L560.252,337.362L449.038,392.969Z" style="fill:rgb(153,153,153);"/>
                <g transform="matrix(0.143913,0,0,0.143913,376.954,293.083)">
                    <path d="M14.311,550.967L500.879,794.251L500.879,694.076L14.311,450.791L14.311,550.967Z" style="fill:rgb(34,34,34);"/>
                </g>
            </g>
            <g id="Cooling16" serif:id="Cooling">
                <g transform="matrix(1.60284,0,0,1,-224.584,-16.4973)">
                    <path d="M379.054,385.904L404.819,406.172L404.847,406.206L404.864,406.254L404.869,406.31L404.86,406.364L404.839,406.409L404.808,406.437L404.774,406.444L404.74,406.43L378.974,386.162L378.947,386.128L378.929,386.079L378.924,386.024L378.933,385.969L378.955,385.925L378.985,385.897L379.02,385.889L379.054,385.904Z" style="fill:rgb(226,226,226);"/>
                </g>
                <g transform="matrix(1.60284,0,0,1,-224.584,-21.3321)">
                    <path d="M379.054,385.904L404.819,406.172L404.847,406.206L404.864,406.254L404.869,406.31L404.86,406.364L404.839,406.409L404.808,406.437L404.774,406.444L404.74,406.43L378.974,386.162L378.947,386.128L378.929,386.079L378.924,386.024L378.933,385.969L378.955,385.925L378.985,385.897L379.02,385.889L379.054,385.904Z" style="fill:rgb(226,226,226);"/>
                </g>
            </g>
            <g id="LED-green16" serif:id="LED green" transform="matrix(0.442367,0.221184,0,0.442367,322.483,196.687)">
                <circle cx="257.703" cy="316.533" r="5.651" style="fill:rgb(0,255,0);"/>
            </g>
        </g>
    </g>
    <g id="Rack-Empty" serif:id="Rack Empty" transform="matrix(8.5934,0,0,8.5934,-1598.91,-7369.69)">
        <g id="Rack">
            <path d="M280.987,861.762L344.269,893.403L252.676,939.2L189.393,907.559L280.987,861.762Z" style="fill:rgb(52,52,52);"/>
            <path d="M256.007,940.865L340.938,898.357L341.06,1153.13L256.129,1195.6L256.007,940.865ZM252.676,939.2L252.676,1200.66L344.391,1154.8L344.269,893.403L252.676,939.2Z" style="fill:rgb(82,82,82);"/>
            <path d="M252.676,1200.66L189.393,1169.02L189.393,907.559L252.676,939.2L252.676,1200.66ZM192.724,912.554L249.345,940.865L249.345,1195.66L192.724,1167.35L192.724,912.554Z" style="fill:rgb(0,0,4);"/>
        </g>
    </g>
</svg>
