<?xml version="1.0" encoding="UTF-8" standalone="no"?>
<!DOCTYPE svg PUBLIC "-//W3C//DTD SVG 1.1//EN" "http://www.w3.org/Graphics/SVG/1.1/DTD/svg11.dtd">
<svg width="100%" height="100%" viewBox="0 0 1280 1150" version="1.1" xmlns="http://www.w3.org/2000/svg" xmlns:xlink="http://www.w3.org/1999/xlink" xml:space="preserve" xmlns:serif="http://www.serif.com/" style="fill-rule:evenodd;clip-rule:evenodd;stroke-linejoin:round;stroke-miterlimit:2;">
    <g id="Generic-Server-turned-on" serif:id="Generic Server turned on" transform="matrix(6.94863,0,0,6.94863,-2619.32,-1693.06)">
        <g id="Chassis">
            <path d="M379.014,357.958L449.038,392.969L560.252,337.362L490.228,302.351L379.014,357.958Z" style="fill:rgb(102,102,102);"/>
            <path d="M449.038,392.969L449.038,407.386L560.252,351.779L560.252,337.362L449.038,392.969Z" style="fill:rgb(153,153,153);"/>
            <g transform="matrix(0.143913,0,0,0.143913,376.954,293.083)">
                <path d="M14.311,550.967L500.879,794.251L500.879,694.076L14.311,450.791L14.311,550.967Z" style="fill:rgb(34,34,34);"/>
            </g>
        </g>
        <g id="Cooling">
            <g transform="matrix(1.60284,0,0,1,-224.584,-16.4973)">
                <path d="M379.054,385.904L404.819,406.172L404.847,406.206L404.864,406.254L404.869,406.31L404.86,406.364L404.839,406.409L404.808,406.437L404.774,406.444L404.74,406.43L378.974,386.162L378.947,386.128L378.929,386.079L378.924,386.024L378.933,385.969L378.955,385.925L378.985,385.897L379.02,385.889L379.054,385.904Z" style="fill:rgb(226,226,226);"/>
            </g>
            <g transform="matrix(1.60284,0,0,1,-224.584,-21.3321)">
                <path d="M379.054,385.904L404.819,406.172L404.847,406.206L404.864,406.254L404.869,406.31L404.86,406.364L404.839,406.409L404.808,406.437L404.774,406.444L404.74,406.43L378.974,386.162L378.947,386.128L378.929,386.079L378.924,386.024L378.933,385.969L378.955,385.925L378.985,385.897L379.02,385.889L379.054,385.904Z" style="fill:rgb(226,226,226);"/>
            </g>
        </g>
        <g id="LED-green" serif:id="LED green" transform="matrix(0.442367,0.221184,0,0.442367,322.483,196.687)">
            <circle cx="257.703" cy="316.533" r="5.651" style="fill:rgb(0,255,0);"/>
        </g>
    </g>
    <g id="Generic-Server-turned-on1" serif:id="Generic Server turned on" transform="matrix(6.94863,0,0,6.94863,-2619.32,-1821.86)">
        <g id="Chassis1" serif:id="Chassis">
            <path d="M379.014,357.958L449.038,392.969L560.252,337.362L490.228,302.351L379.014,357.958Z" style="fill:rgb(102,102,102);"/>
            <path d="M449.038,392.969L449.038,407.386L560.252,351.779L560.252,337.362L449.038,392.969Z" style="fill:rgb(153,153,153);"/>
            <g transform="matrix(0.143913,0,0,0.143913,376.954,293.083)">
                <path d="M14.311,550.967L500.879,794.251L500.879,694.076L14.311,450.791L14.311,550.967Z" style="fill:rgb(34,34,34);"/>
            </g>
        </g>
        <g id="Cooling1" serif:id="Cooling">
            <g transform="matrix(1.60284,0,0,1,-224.584,-16.4973)">
                <path d="M379.054,385.904L404.819,406.172L404.847,406.206L404.864,406.254L404.869,406.31L404.86,406.364L404.839,406.409L404.808,406.437L404.774,406.444L404.74,406.43L378.974,386.162L378.947,386.128L378.929,386.079L378.924,386.024L378.933,385.969L378.955,385.925L378.985,385.897L379.02,385.889L379.054,385.904Z" style="fill:rgb(226,226,226);"/>
            </g>
            <g transform="matrix(1.60284,0,0,1,-224.584,-21.3321)">
                <path d="M379.054,385.904L404.819,406.172L404.847,406.206L404.864,406.254L404.869,406.31L404.86,406.364L404.839,406.409L404.808,406.437L404.774,406.444L404.74,406.43L378.974,386.162L378.947,386.128L378.929,386.079L378.924,386.024L378.933,385.969L378.955,385.925L378.985,385.897L379.02,385.889L379.054,385.904Z" style="fill:rgb(226,226,226);"/>
            </g>
        </g>
        <g id="LED-green1" serif:id="LED green" transform="matrix(0.442367,0.221184,0,0.442367,322.483,196.687)">
            <circle cx="257.703" cy="316.533" r="5.651" style="fill:rgb(0,255,0);"/>
        </g>
    </g>
    <g id="Generic-Server-turned-on2" serif:id="Generic Server turned on" transform="matrix(6.94863,0,0,6.94863,-2619.32,-1950.66)">
        <g id="Chassis2" serif:id="Chassis">
            <path d="M379.014,357.958L449.038,392.969L560.252,337.362L490.228,302.351L379.014,357.958Z" style="fill:rgb(102,102,102);"/>
            <path d="M449.038,392.969L449.038,407.386L560.252,351.779L560.252,337.362L449.038,392.969Z" style="fill:rgb(153,153,153);"/>
            <g transform="matrix(0.143913,0,0,0.143913,376.954,293.083)">
                <path d="M14.311,550.967L500.879,794.251L500.879,694.076L14.311,450.791L14.311,550.967Z" style="fill:rgb(34,34,34);"/>
            </g>
        </g>
        <g id="Cooling2" serif:id="Cooling">
            <g transform="matrix(1.60284,0,0,1,-224.584,-16.4973)">
                <path d="M379.054,385.904L404.819,406.172L404.847,406.206L404.864,406.254L404.869,406.31L404.86,406.364L404.839,406.409L404.808,406.437L404.774,406.444L404.74,406.43L378.974,386.162L378.947,386.128L378.929,386.079L378.924,386.024L378.933,385.969L378.955,385.925L378.985,385.897L379.02,385.889L379.054,385.904Z" style="fill:rgb(226,226,226);"/>
            </g>
            <g transform="matrix(1.60284,0,0,1,-224.584,-21.3321)">
                <path d="M379.054,385.904L404.819,406.172L404.847,406.206L404.864,406.254L404.869,406.31L404.86,406.364L404.839,406.409L404.808,406.437L404.774,406.444L404.74,406.43L378.974,386.162L378.947,386.128L378.929,386.079L378.924,386.024L378.933,385.969L378.955,385.925L378.985,385.897L379.02,385.889L379.054,385.904Z" style="fill:rgb(226,226,226);"/>
            </g>
        </g>
        <g id="LED-green2" serif:id="LED green" transform="matrix(0.442367,0.221184,0,0.442367,322.483,196.687)">
            <circle cx="257.703" cy="316.533" r="5.651" style="fill:rgb(0,255,0);"/>
        </g>
    </g>
    <g id="Generic-Server-turned-on3" serif:id="Generic Server turned on" transform="matrix(6.94863,0,0,6.94863,-2619.32,-2079.45)">
        <g id="Chassis3" serif:id="Chassis">
            <path d="M379.014,357.958L449.038,392.969L560.252,337.362L490.228,302.351L379.014,357.958Z" style="fill:rgb(102,102,102);"/>
            <path d="M449.038,392.969L449.038,407.386L560.252,351.779L560.252,337.362L449.038,392.969Z" style="fill:rgb(153,153,153);"/>
            <g transform="matrix(0.143913,0,0,0.143913,376.954,293.083)">
                <path d="M14.311,550.967L500.879,794.251L500.879,694.076L14.311,450.791L14.311,550.967Z" style="fill:rgb(34,34,34);"/>
            </g>
        </g>
        <g id="Cooling3" serif:id="Cooling">
            <g transform="matrix(1.60284,0,0,1,-224.584,-16.4973)">
                <path d="M379.054,385.904L404.819,406.172L404.847,406.206L404.864,406.254L404.869,406.31L404.86,406.364L404.839,406.409L404.808,406.437L404.774,406.444L404.74,406.43L378.974,386.162L378.947,386.128L378.929,386.079L378.924,386.024L378.933,385.969L378.955,385.925L378.985,385.897L379.02,385.889L379.054,385.904Z" style="fill:rgb(226,226,226);"/>
            </g>
            <g transform="matrix(1.60284,0,0,1,-224.584,-21.3321)">
                <path d="M379.054,385.904L404.819,406.172L404.847,406.206L404.864,406.254L404.869,406.31L404.86,406.364L404.839,406.409L404.808,406.437L404.774,406.444L404.74,406.43L378.974,386.162L378.947,386.128L378.929,386.079L378.924,386.024L378.933,385.969L378.955,385.925L378.985,385.897L379.02,385.889L379.054,385.904Z" style="fill:rgb(226,226,226);"/>
            </g>
        </g>
        <g id="LED-green3" serif:id="LED green" transform="matrix(0.442367,0.221184,0,0.442367,322.483,196.687)">
            <circle cx="257.703" cy="316.533" r="5.651" style="fill:rgb(0,255,0);"/>
        </g>
    </g>
</svg>
