<?xml version="1.0" encoding="UTF-8" standalone="no"?>
<!DOCTYPE svg PUBLIC "-//W3C//DTD SVG 1.1//EN" "http://www.w3.org/Graphics/SVG/1.1/DTD/svg11.dtd">
<svg width="100%" height="100%" viewBox="0 0 800 800" version="1.1" xmlns="http://www.w3.org/2000/svg" xmlns:xlink="http://www.w3.org/1999/xlink" xml:space="preserve" xmlns:serif="http://www.serif.com/" style="fill-rule:evenodd;clip-rule:evenodd;stroke-linejoin:round;stroke-miterlimit:2;">
    <g id="Sentinel-Logo" serif:id="Sentinel Logo" transform="matrix(4.55416,0,0,4.55416,-1514.97,-2542.85)">
        <g transform="matrix(1.9088,0,0,1.9088,-1599.12,34.6028)">
            <path d="M1101.01,298.926C1101.01,287.072 1091.38,277.448 1079.53,277.448L1036.57,277.448C1024.72,277.448 1015.1,287.072 1015.1,298.926L1015.1,341.882C1015.1,353.736 1024.72,363.36 1036.57,363.36L1079.53,363.36C1091.38,363.36 1101.01,353.736 1101.01,341.882L1101.01,298.926Z" style="fill:white;"/>
            <path d="M1079.61,275.698L1079.68,275.698L1079.76,275.699L1079.83,275.699L1079.9,275.701L1079.98,275.702L1080.05,275.703L1080.13,275.705L1080.2,275.707L1080.28,275.709L1080.35,275.712L1080.43,275.715L1080.5,275.718L1080.58,275.721L1080.65,275.724L1080.72,275.728L1080.8,275.732L1080.87,275.736L1080.95,275.74L1081.02,275.745L1081.09,275.749L1081.17,275.755L1081.24,275.76L1081.32,275.765L1081.39,275.771L1081.46,275.777L1081.54,275.783L1081.61,275.79L1081.68,275.796L1081.76,275.803L1081.83,275.81L1081.9,275.818L1081.97,275.825L1082.05,275.833L1082.12,275.841L1082.19,275.849L1082.27,275.858L1082.34,275.866L1082.41,275.875L1082.49,275.884L1082.56,275.894L1082.63,275.903L1082.7,275.913L1082.78,275.923L1082.85,275.933L1082.92,275.944L1082.99,275.954L1083.06,275.965L1083.14,275.976L1083.21,275.988L1083.28,275.999L1083.35,276.011L1083.42,276.023L1083.5,276.035L1083.57,276.048L1083.64,276.061L1083.71,276.073L1083.78,276.087L1083.85,276.1L1083.92,276.113L1084,276.127L1084.07,276.141L1084.14,276.155L1084.21,276.17L1084.28,276.184L1084.35,276.199L1084.42,276.214L1084.49,276.23L1084.56,276.245L1084.63,276.261L1084.7,276.277L1084.77,276.293L1084.84,276.309L1084.91,276.326L1084.98,276.343L1085.05,276.36L1085.12,276.377L1085.19,276.394L1085.26,276.412L1085.33,276.43L1085.4,276.448L1085.47,276.466L1085.54,276.484L1085.61,276.503L1085.68,276.522L1085.75,276.541L1085.82,276.56L1085.89,276.58L1085.95,276.599L1086.02,276.619L1086.09,276.639L1086.16,276.66L1086.23,276.68L1086.3,276.701L1086.37,276.722L1086.43,276.743L1086.5,276.764L1086.57,276.786L1086.64,276.808L1086.71,276.83L1086.77,276.852L1086.84,276.874L1086.91,276.897L1086.98,276.919L1087.05,276.942L1087.11,276.965L1087.18,276.989L1087.25,277.012L1087.31,277.036L1087.38,277.06L1087.45,277.084L1087.51,277.109L1087.58,277.133L1087.65,277.158L1087.71,277.183L1087.78,277.208L1087.85,277.233L1087.91,277.259L1087.98,277.285L1088.05,277.31L1088.11,277.337L1088.18,277.363L1088.24,277.389L1088.31,277.416L1088.37,277.443L1088.44,277.47L1088.5,277.497L1088.57,277.525L1088.63,277.553L1088.7,277.58L1088.76,277.609L1088.83,277.637L1088.89,277.665L1088.96,277.694L1089.02,277.723L1089.09,277.752L1089.15,277.781L1089.22,277.81L1089.28,277.84L1089.34,277.87L1089.41,277.9L1089.47,277.93L1089.54,277.96L1089.6,277.991L1089.66,278.021L1089.72,278.052L1089.79,278.083L1089.85,278.114L1089.91,278.146L1089.98,278.178L1090.04,278.209L1090.1,278.241L1090.16,278.274L1090.23,278.306L1090.29,278.338L1090.35,278.371L1090.41,278.404L1090.48,278.437L1090.54,278.47L1090.6,278.504L1090.66,278.537L1090.72,278.571L1090.79,278.605L1090.85,278.639L1090.91,278.674L1090.97,278.708L1091.03,278.743L1091.09,278.778L1091.15,278.813L1091.21,278.848L1091.27,278.884L1091.33,278.919L1091.39,278.955L1091.45,278.991L1091.51,279.027L1091.57,279.063L1091.63,279.1L1091.69,279.137L1091.75,279.173L1091.81,279.21L1091.87,279.248L1091.93,279.285L1091.99,279.322L1092.05,279.36L1092.11,279.398L1092.17,279.436L1092.22,279.474L1092.28,279.513L1092.34,279.551L1092.4,279.59L1092.46,279.629L1092.52,279.668L1092.57,279.707L1092.63,279.746L1092.69,279.786L1092.75,279.826L1092.8,279.866L1092.86,279.906L1092.92,279.946L1092.98,279.986L1093.03,280.027L1093.09,280.068L1093.14,280.109L1093.2,280.15L1093.26,280.191L1093.31,280.232L1093.37,280.274L1093.43,280.315L1093.48,280.357L1093.54,280.399L1093.59,280.442L1093.65,280.484L1093.7,280.527L1093.76,280.569L1093.81,280.612L1093.87,280.655L1093.92,280.698L1093.98,280.742L1094.03,280.785L1094.09,280.829L1094.14,280.873L1094.19,280.917L1094.25,280.961L1094.3,281.005L1094.36,281.049L1094.41,281.094L1094.46,281.139L1094.52,281.184L1094.57,281.229L1094.62,281.274L1094.68,281.319L1094.73,281.365L1094.78,281.411L1094.83,281.457L1094.89,281.503L1094.94,281.549L1094.99,281.595L1095.04,281.642L1095.09,281.688L1095.15,281.735L1095.2,281.782L1095.25,281.829L1095.3,281.876L1095.35,281.924L1095.4,281.971L1095.45,282.019L1095.5,282.067L1095.55,282.115L1095.6,282.163L1095.65,282.211L1095.7,282.26L1095.75,282.308L1095.8,282.357L1095.85,282.406L1095.9,282.455L1095.95,282.504L1096,282.553L1096.05,282.603L1096.1,282.652L1096.15,282.702L1096.2,282.752L1096.25,282.802L1096.29,282.852L1096.34,282.902L1096.39,282.953L1096.44,283.004L1096.49,283.054L1096.53,283.105L1096.58,283.156L1096.63,283.207L1096.67,283.259L1096.72,283.31L1096.77,283.362L1096.81,283.414L1096.86,283.466L1096.91,283.518L1096.95,283.57L1097,283.622L1097.05,283.675L1097.09,283.727L1097.14,283.78L1097.18,283.833L1097.23,283.886L1097.27,283.939L1097.32,283.992L1097.36,284.046L1097.41,284.099L1097.45,284.153L1097.5,284.207L1097.54,284.261L1097.58,284.315L1097.63,284.369L1097.67,284.423L1097.71,284.478L1097.76,284.532L1097.8,284.587L1097.84,284.642L1097.89,284.697L1097.93,284.752L1097.97,284.808L1098.01,284.863L1098.06,284.919L1098.1,284.974L1098.14,285.03L1098.18,285.086L1098.22,285.142L1098.27,285.198L1098.31,285.255L1098.35,285.311L1098.39,285.368L1098.43,285.424L1098.47,285.481L1098.51,285.538L1098.55,285.595L1098.59,285.653L1098.63,285.71L1098.67,285.767L1098.71,285.825L1098.75,285.883L1098.79,285.941L1098.83,285.999L1098.87,286.057L1098.9,286.115L1098.94,286.173L1098.98,286.232L1099.02,286.29L1099.06,286.349L1099.1,286.408L1099.13,286.467L1099.17,286.526L1099.21,286.585L1099.25,286.644L1099.28,286.704L1099.32,286.763L1099.36,286.823L1099.39,286.883L1099.43,286.943L1099.46,287.003L1099.5,287.063L1099.54,287.123L1099.57,287.184L1099.61,287.244L1099.64,287.305L1099.68,287.366L1099.71,287.426L1099.75,287.487L1099.78,287.548L1099.82,287.61L1099.85,287.671L1099.88,287.732L1099.92,287.794L1099.95,287.856L1099.99,287.917L1100.02,287.979L1100.05,288.041L1100.09,288.103L1100.12,288.166L1100.15,288.228L1100.18,288.29L1100.21,288.353L1100.25,288.416L1100.28,288.478L1100.31,288.541L1100.34,288.604L1100.37,288.667L1100.4,288.731L1100.43,288.794L1100.46,288.857L1100.5,288.921L1100.53,288.985L1100.56,289.048L1100.59,289.112L1100.62,289.176L1100.65,289.24L1100.67,289.304L1100.7,289.369L1100.73,289.433L1100.76,289.497L1100.79,289.562L1100.82,289.627L1100.85,289.692L1100.88,289.756L1100.9,289.821L1100.93,289.886L1100.96,289.952L1100.99,290.017L1101.01,290.083L1101.04,290.148L1101.07,290.214L1101.09,290.279L1101.12,290.345L1101.14,290.411L1101.17,290.477L1101.2,290.543L1101.22,290.609L1101.25,290.676L1101.27,290.742L1101.3,290.808L1101.32,290.875L1101.35,290.942L1101.37,291.009L1101.4,291.075L1101.42,291.142L1101.44,291.209L1101.47,291.277L1101.49,291.344L1101.51,291.411L1101.54,291.479L1101.56,291.546L1101.58,291.614L1101.6,291.681L1101.63,291.749L1101.65,291.817L1101.67,291.885L1101.69,291.953L1101.71,292.021L1101.73,292.09L1101.76,292.158L1101.78,292.226L1101.8,292.295L1101.82,292.364L1101.84,292.432L1101.86,292.501L1101.88,292.57L1101.9,292.639L1101.91,292.708L1101.93,292.777L1101.95,292.846L1101.97,292.916L1101.99,292.985L1102.01,293.055L1102.03,293.124L1102.04,293.194L1102.06,293.263L1102.08,293.333L1102.1,293.403L1102.11,293.473L1102.13,293.543L1102.15,293.613L1102.16,293.683L1102.18,293.754L1102.19,293.824L1102.21,293.895L1102.23,293.965L1102.24,294.036L1102.26,294.106L1102.27,294.177L1102.29,294.248L1102.3,294.319L1102.32,294.39L1102.33,294.461L1102.34,294.532L1102.36,294.603L1102.37,294.675L1102.38,294.746L1102.39,294.818L1102.41,294.889L1102.42,294.961L1102.43,295.032L1102.44,295.104L1102.46,295.176L1102.47,295.248L1102.48,295.32L1102.49,295.392L1102.5,295.464L1102.51,295.536L1102.52,295.608L1102.53,295.681L1102.54,295.753L1102.55,295.826L1102.56,295.898L1102.57,295.971L1102.58,296.043L1102.59,296.116L1102.6,296.189L1102.61,296.262L1102.62,296.335L1102.62,296.408L1102.63,296.481L1102.64,296.554L1102.65,296.627L1102.65,296.7L1102.66,296.774L1102.67,296.847L1102.67,296.92L1102.68,296.994L1102.68,297.067L1102.69,297.141L1102.7,297.215L1102.7,297.288L1102.71,297.362L1102.71,297.436L1102.72,297.51L1102.72,297.584L1102.72,297.658L1102.73,297.732L1102.73,297.806L1102.74,297.881L1102.74,297.955L1102.74,298.029L1102.74,298.104L1102.75,298.178L1102.75,298.253L1102.75,298.327L1102.75,298.402L1102.75,298.476L1102.76,298.551L1102.76,298.626L1102.76,298.701L1102.76,298.776L1102.76,298.851L1102.76,298.924L1102.76,341.883L1102.76,341.957L1102.76,342.031L1102.76,342.106L1102.76,342.181L1102.76,342.256L1102.75,342.331L1102.75,342.405L1102.75,342.48L1102.75,342.554L1102.75,342.629L1102.74,342.703L1102.74,342.778L1102.74,342.852L1102.74,342.926L1102.73,343.001L1102.73,343.075L1102.72,343.149L1102.72,343.223L1102.72,343.297L1102.71,343.371L1102.71,343.445L1102.7,343.519L1102.7,343.592L1102.69,343.666L1102.68,343.74L1102.68,343.813L1102.67,343.887L1102.67,343.96L1102.66,344.034L1102.65,344.107L1102.65,344.18L1102.64,344.253L1102.63,344.326L1102.62,344.399L1102.62,344.472L1102.61,344.545L1102.6,344.618L1102.59,344.691L1102.58,344.764L1102.57,344.836L1102.56,344.909L1102.55,344.982L1102.54,345.054L1102.53,345.126L1102.52,345.199L1102.51,345.271L1102.5,345.343L1102.49,345.415L1102.48,345.487L1102.47,345.559L1102.46,345.631L1102.44,345.703L1102.43,345.775L1102.42,345.846L1102.41,345.918L1102.39,345.989L1102.38,346.061L1102.37,346.132L1102.36,346.204L1102.34,346.275L1102.33,346.346L1102.32,346.417L1102.3,346.488L1102.29,346.559L1102.27,346.63L1102.26,346.701L1102.24,346.771L1102.23,346.842L1102.21,346.912L1102.19,346.983L1102.18,347.053L1102.16,347.124L1102.15,347.194L1102.13,347.264L1102.11,347.334L1102.1,347.404L1102.08,347.474L1102.06,347.544L1102.04,347.613L1102.03,347.683L1102.01,347.753L1101.99,347.822L1101.97,347.891L1101.95,347.961L1101.93,348.03L1101.91,348.099L1101.9,348.168L1101.88,348.237L1101.86,348.306L1101.84,348.375L1101.82,348.443L1101.8,348.512L1101.78,348.581L1101.76,348.649L1101.73,348.717L1101.71,348.786L1101.69,348.854L1101.67,348.922L1101.65,348.99L1101.63,349.058L1101.6,349.126L1101.58,349.193L1101.56,349.261L1101.54,349.328L1101.51,349.396L1101.49,349.463L1101.47,349.531L1101.44,349.598L1101.42,349.665L1101.4,349.732L1101.37,349.799L1101.35,349.865L1101.32,349.932L1101.3,349.999L1101.27,350.065L1101.25,350.131L1101.22,350.198L1101.2,350.264L1101.17,350.33L1101.14,350.396L1101.12,350.462L1101.09,350.528L1101.07,350.594L1101.04,350.659L1101.01,350.725L1100.99,350.79L1100.96,350.855L1100.93,350.921L1100.9,350.986L1100.88,351.051L1100.85,351.115L1100.82,351.18L1100.79,351.245L1100.76,351.31L1100.73,351.374L1100.7,351.438L1100.67,351.503L1100.65,351.567L1100.62,351.631L1100.59,351.695L1100.56,351.759L1100.53,351.823L1100.5,351.886L1100.46,351.95L1100.43,352.013L1100.4,352.077L1100.37,352.14L1100.34,352.203L1100.31,352.266L1100.28,352.329L1100.25,352.391L1100.21,352.454L1100.18,352.517L1100.15,352.579L1100.12,352.641L1100.09,352.704L1100.05,352.766L1100.02,352.828L1099.99,352.89L1099.95,352.951L1099.92,353.013L1099.88,353.075L1099.85,353.136L1099.82,353.197L1099.78,353.259L1099.75,353.32L1099.71,353.381L1099.68,353.441L1099.64,353.502L1099.61,353.563L1099.57,353.623L1099.54,353.684L1099.5,353.744L1099.46,353.804L1099.43,353.864L1099.39,353.924L1099.36,353.984L1099.32,354.044L1099.28,354.103L1099.25,354.163L1099.21,354.222L1099.17,354.281L1099.13,354.34L1099.1,354.399L1099.06,354.458L1099.02,354.517L1098.98,354.575L1098.94,354.634L1098.9,354.692L1098.87,354.75L1098.83,354.809L1098.79,354.867L1098.75,354.924L1098.71,354.982L1098.67,355.04L1098.63,355.097L1098.59,355.155L1098.55,355.212L1098.51,355.269L1098.47,355.326L1098.43,355.383L1098.39,355.439L1098.35,355.496L1098.31,355.552L1098.27,355.609L1098.22,355.665L1098.18,355.721L1098.14,355.777L1098.1,355.833L1098.06,355.889L1098.01,355.944L1097.97,355.999L1097.93,356.055L1097.89,356.11L1097.84,356.165L1097.8,356.22L1097.76,356.275L1097.71,356.329L1097.67,356.384L1097.63,356.438L1097.58,356.492L1097.54,356.546L1097.5,356.6L1097.45,356.654L1097.41,356.708L1097.36,356.761L1097.32,356.815L1097.27,356.868L1097.23,356.921L1097.18,356.974L1097.14,357.027L1097.09,357.08L1097.05,357.133L1097,357.185L1096.95,357.237L1096.91,357.289L1096.86,357.342L1096.81,357.393L1096.77,357.445L1096.72,357.497L1096.67,357.548L1096.63,357.6L1096.58,357.651L1096.53,357.702L1096.49,357.753L1096.44,357.804L1096.39,357.854L1096.34,357.905L1096.29,357.955L1096.25,358.005L1096.2,358.055L1096.15,358.105L1096.1,358.155L1096.05,358.204L1096,358.254L1095.95,358.303L1095.9,358.352L1095.85,358.401L1095.8,358.45L1095.75,358.499L1095.7,358.548L1095.65,358.596L1095.6,358.644L1095.55,358.692L1095.5,358.74L1095.45,358.788L1095.4,358.836L1095.35,358.884L1095.3,358.931L1095.25,358.978L1095.2,359.025L1095.15,359.072L1095.09,359.119L1095.04,359.166L1094.99,359.212L1094.94,359.258L1094.89,359.304L1094.83,359.351L1094.78,359.396L1094.73,359.442L1094.68,359.488L1094.62,359.533L1094.57,359.578L1094.52,359.623L1094.46,359.668L1094.41,359.713L1094.36,359.758L1094.3,359.802L1094.25,359.846L1094.19,359.891L1094.14,359.935L1094.09,359.978L1094.03,360.022L1093.98,360.065L1093.92,360.109L1093.87,360.152L1093.81,360.195L1093.76,360.238L1093.7,360.281L1093.65,360.323L1093.59,360.365L1093.54,360.408L1093.48,360.45L1093.43,360.492L1093.37,360.533L1093.31,360.575L1093.26,360.616L1093.2,360.657L1093.14,360.699L1093.09,360.739L1093.03,360.78L1092.98,360.821L1092.92,360.861L1092.86,360.901L1092.8,360.941L1092.75,360.981L1092.69,361.021L1092.63,361.061L1092.57,361.1L1092.52,361.139L1092.46,361.178L1092.4,361.217L1092.34,361.256L1092.28,361.294L1092.22,361.333L1092.17,361.371L1092.11,361.409L1092.05,361.447L1091.99,361.485L1091.93,361.522L1091.87,361.56L1091.81,361.597L1091.75,361.634L1091.69,361.671L1091.63,361.707L1091.57,361.744L1091.51,361.78L1091.45,361.816L1091.39,361.852L1091.33,361.888L1091.27,361.923L1091.21,361.959L1091.15,361.994L1091.09,362.029L1091.03,362.064L1090.97,362.099L1090.91,362.133L1090.85,362.168L1090.79,362.202L1090.72,362.236L1090.66,362.27L1090.6,362.303L1090.54,362.337L1090.48,362.37L1090.41,362.403L1090.35,362.436L1090.29,362.469L1090.23,362.501L1090.16,362.534L1090.1,362.566L1090.04,362.598L1089.98,362.63L1089.91,362.661L1089.85,362.693L1089.79,362.724L1089.72,362.755L1089.66,362.786L1089.6,362.817L1089.54,362.847L1089.47,362.877L1089.41,362.908L1089.34,362.937L1089.28,362.967L1089.22,362.997L1089.15,363.026L1089.09,363.055L1089.02,363.084L1088.96,363.113L1088.89,363.142L1088.83,363.17L1088.76,363.199L1088.7,363.227L1088.63,363.254L1088.57,363.282L1088.5,363.31L1088.44,363.337L1088.37,363.364L1088.31,363.391L1088.24,363.418L1088.18,363.444L1088.11,363.47L1088.05,363.497L1087.98,363.523L1087.91,363.548L1087.85,363.574L1087.78,363.599L1087.71,363.624L1087.65,363.649L1087.58,363.674L1087.51,363.699L1087.45,363.723L1087.38,363.747L1087.31,363.771L1087.25,363.795L1087.18,363.818L1087.11,363.842L1087.05,363.865L1086.98,363.888L1086.91,363.911L1086.84,363.933L1086.77,363.955L1086.71,363.978L1086.64,364L1086.57,364.021L1086.5,364.043L1086.43,364.064L1086.37,364.085L1086.3,364.106L1086.23,364.127L1086.16,364.147L1086.09,364.168L1086.02,364.188L1085.95,364.208L1085.89,364.227L1085.82,364.247L1085.75,364.266L1085.68,364.285L1085.61,364.304L1085.54,364.323L1085.47,364.341L1085.4,364.36L1085.33,364.378L1085.26,364.395L1085.19,364.413L1085.12,364.43L1085.05,364.448L1084.98,364.465L1084.91,364.481L1084.84,364.498L1084.77,364.514L1084.7,364.53L1084.63,364.546L1084.56,364.562L1084.49,364.577L1084.42,364.593L1084.35,364.608L1084.28,364.623L1084.21,364.637L1084.14,364.652L1084.07,364.666L1084,364.68L1083.92,364.694L1083.85,364.707L1083.78,364.72L1083.71,364.734L1083.64,364.746L1083.57,364.759L1083.5,364.772L1083.42,364.784L1083.35,364.796L1083.28,364.808L1083.21,364.819L1083.14,364.831L1083.06,364.842L1082.99,364.853L1082.92,364.863L1082.85,364.874L1082.78,364.884L1082.7,364.894L1082.63,364.904L1082.56,364.913L1082.49,364.923L1082.41,364.932L1082.34,364.941L1082.27,364.95L1082.19,364.958L1082.12,364.966L1082.05,364.974L1081.97,364.982L1081.9,364.99L1081.83,364.997L1081.76,365.004L1081.68,365.011L1081.61,365.018L1081.54,365.024L1081.46,365.03L1081.39,365.036L1081.32,365.042L1081.24,365.047L1081.17,365.053L1081.09,365.058L1081.02,365.062L1080.95,365.067L1080.87,365.071L1080.8,365.075L1080.72,365.079L1080.65,365.083L1080.58,365.086L1080.5,365.09L1080.43,365.092L1080.35,365.095L1080.28,365.098L1080.2,365.1L1080.13,365.102L1080.05,365.104L1079.98,365.105L1079.9,365.107L1079.83,365.108L1079.76,365.108L1079.68,365.109L1079.61,365.109L1079.53,365.11L1036.57,365.11L1036.5,365.109L1036.42,365.109L1036.35,365.108L1036.28,365.108L1036.2,365.107L1036.12,365.105L1036.05,365.104L1035.98,365.102L1035.9,365.1L1035.83,365.098L1035.75,365.095L1035.68,365.092L1035.6,365.09L1035.53,365.086L1035.45,365.083L1035.38,365.079L1035.31,365.075L1035.23,365.071L1035.16,365.067L1035.09,365.062L1035.01,365.058L1034.94,365.053L1034.86,365.047L1034.79,365.042L1034.72,365.036L1034.64,365.03L1034.57,365.024L1034.5,365.018L1034.42,365.011L1034.35,365.004L1034.28,364.997L1034.2,364.99L1034.13,364.982L1034.06,364.974L1033.98,364.966L1033.91,364.958L1033.84,364.95L1033.77,364.941L1033.69,364.932L1033.62,364.923L1033.55,364.913L1033.47,364.904L1033.4,364.894L1033.33,364.884L1033.26,364.874L1033.18,364.863L1033.11,364.853L1033.04,364.842L1032.97,364.831L1032.9,364.819L1032.83,364.808L1032.75,364.796L1032.68,364.784L1032.61,364.772L1032.54,364.759L1032.47,364.746L1032.39,364.734L1032.32,364.72L1032.25,364.707L1032.18,364.694L1032.11,364.68L1032.04,364.666L1031.97,364.652L1031.9,364.637L1031.83,364.623L1031.76,364.608L1031.68,364.593L1031.61,364.577L1031.54,364.562L1031.47,364.546L1031.4,364.53L1031.33,364.514L1031.26,364.498L1031.19,364.481L1031.12,364.465L1031.05,364.448L1030.98,364.43L1030.91,364.413L1030.84,364.395L1030.77,364.378L1030.7,364.36L1030.63,364.341L1030.56,364.323L1030.5,364.304L1030.43,364.285L1030.36,364.266L1030.29,364.247L1030.22,364.227L1030.15,364.208L1030.08,364.188L1030.01,364.168L1029.94,364.147L1029.88,364.127L1029.81,364.106L1029.74,364.085L1029.67,364.064L1029.6,364.043L1029.53,364.021L1029.47,364L1029.4,363.978L1029.33,363.955L1029.26,363.933L1029.19,363.911L1029.13,363.888L1029.06,363.865L1028.99,363.842L1028.92,363.818L1028.86,363.795L1028.79,363.771L1028.72,363.747L1028.66,363.723L1028.59,363.699L1028.52,363.674L1028.46,363.649L1028.39,363.624L1028.32,363.599L1028.26,363.574L1028.19,363.548L1028.13,363.523L1028.06,363.497L1027.99,363.47L1027.93,363.444L1027.86,363.418L1027.8,363.391L1027.73,363.364L1027.67,363.337L1027.6,363.31L1027.54,363.282L1027.47,363.254L1027.4,363.227L1027.34,363.199L1027.28,363.17L1027.21,363.142L1027.15,363.113L1027.08,363.084L1027.02,363.055L1026.95,363.026L1026.89,362.997L1026.83,362.967L1026.76,362.938L1026.7,362.908L1026.63,362.877L1026.57,362.847L1026.51,362.817L1026.44,362.786L1026.38,362.755L1026.32,362.724L1026.25,362.693L1026.19,362.661L1026.13,362.63L1026.07,362.598L1026,362.566L1025.94,362.534L1025.88,362.501L1025.81,362.469L1025.75,362.436L1025.69,362.403L1025.63,362.37L1025.57,362.337L1025.51,362.303L1025.44,362.27L1025.38,362.236L1025.32,362.202L1025.26,362.168L1025.2,362.133L1025.14,362.099L1025.08,362.064L1025.01,362.029L1024.95,361.994L1024.89,361.959L1024.83,361.923L1024.77,361.888L1024.71,361.852L1024.65,361.816L1024.59,361.78L1024.53,361.744L1024.47,361.707L1024.41,361.67L1024.35,361.634L1024.29,361.597L1024.23,361.56L1024.17,361.522L1024.12,361.485L1024.06,361.447L1024,361.409L1023.94,361.371L1023.88,361.333L1023.82,361.294L1023.76,361.256L1023.71,361.217L1023.65,361.178L1023.59,361.139L1023.53,361.1L1023.47,361.061L1023.42,361.021L1023.36,360.981L1023.3,360.941L1023.24,360.901L1023.19,360.861L1023.13,360.821L1023.07,360.78L1023.02,360.739L1022.96,360.699L1022.9,360.657L1022.85,360.616L1022.79,360.575L1022.74,360.533L1022.68,360.492L1022.62,360.45L1022.57,360.408L1022.51,360.365L1022.46,360.323L1022.4,360.281L1022.35,360.238L1022.29,360.195L1022.24,360.152L1022.18,360.109L1022.13,360.065L1022.07,360.022L1022.02,359.978L1021.96,359.934L1021.91,359.891L1021.86,359.846L1021.8,359.802L1021.75,359.758L1021.69,359.713L1021.64,359.668L1021.59,359.623L1021.53,359.578L1021.48,359.533L1021.43,359.488L1021.38,359.442L1021.32,359.396L1021.27,359.351L1021.22,359.305L1021.17,359.258L1021.11,359.212L1021.06,359.166L1021.01,359.119L1020.96,359.072L1020.91,359.025L1020.86,358.978L1020.81,358.931L1020.75,358.884L1020.7,358.836L1020.65,358.788L1020.6,358.74L1020.55,358.692L1020.5,358.644L1020.45,358.596L1020.4,358.548L1020.35,358.499L1020.3,358.45L1020.25,358.401L1020.2,358.352L1020.15,358.303L1020.1,358.254L1020.06,358.204L1020.01,358.155L1019.96,358.105L1019.91,358.055L1019.86,358.005L1019.81,357.955L1019.76,357.905L1019.72,357.854L1019.67,357.804L1019.62,357.753L1019.57,357.702L1019.52,357.651L1019.48,357.6L1019.43,357.548L1019.38,357.497L1019.34,357.445L1019.29,357.393L1019.24,357.342L1019.2,357.289L1019.15,357.237L1019.11,357.185L1019.06,357.133L1019.01,357.08L1018.97,357.027L1018.92,356.974L1018.88,356.921L1018.83,356.868L1018.79,356.815L1018.74,356.761L1018.7,356.708L1018.65,356.654L1018.61,356.6L1018.57,356.546L1018.52,356.492L1018.48,356.438L1018.43,356.384L1018.39,356.329L1018.35,356.275L1018.3,356.22L1018.26,356.165L1018.22,356.11L1018.18,356.055L1018.13,355.999L1018.09,355.944L1018.05,355.888L1018.01,355.833L1017.96,355.777L1017.92,355.721L1017.88,355.665L1017.84,355.609L1017.8,355.552L1017.76,355.496L1017.72,355.439L1017.68,355.383L1017.63,355.326L1017.6,355.269L1017.56,355.212L1017.51,355.154L1017.48,355.097L1017.44,355.04L1017.39,354.982L1017.36,354.924L1017.32,354.866L1017.28,354.809L1017.24,354.75L1017.2,354.692L1017.16,354.634L1017.12,354.575L1017.09,354.517L1017.05,354.458L1017.01,354.399L1016.97,354.34L1016.93,354.281L1016.9,354.222L1016.86,354.163L1016.82,354.103L1016.78,354.044L1016.75,353.984L1016.71,353.924L1016.68,353.864L1016.64,353.804L1016.6,353.744L1016.57,353.684L1016.53,353.623L1016.5,353.563L1016.46,353.502L1016.43,353.442L1016.39,353.381L1016.36,353.32L1016.32,353.259L1016.29,353.197L1016.25,353.136L1016.22,353.075L1016.19,353.013L1016.15,352.951L1016.12,352.89L1016.09,352.828L1016.05,352.766L1016.02,352.704L1015.99,352.641L1015.96,352.579L1015.92,352.517L1015.89,352.454L1015.86,352.391L1015.83,352.329L1015.8,352.266L1015.76,352.203L1015.73,352.14L1015.7,352.076L1015.67,352.013L1015.64,351.95L1015.61,351.886L1015.58,351.823L1015.55,351.759L1015.52,351.695L1015.49,351.631L1015.46,351.567L1015.43,351.503L1015.4,351.438L1015.37,351.374L1015.34,351.31L1015.31,351.245L1015.29,351.18L1015.26,351.116L1015.23,351.051L1015.2,350.986L1015.17,350.921L1015.15,350.855L1015.12,350.79L1015.09,350.725L1015.07,350.659L1015.04,350.593L1015.01,350.528L1014.99,350.462L1014.96,350.396L1014.93,350.33L1014.91,350.264L1014.88,350.198L1014.86,350.131L1014.83,350.065L1014.81,349.999L1014.78,349.932L1014.76,349.865L1014.73,349.799L1014.71,349.732L1014.69,349.665L1014.66,349.598L1014.64,349.53L1014.61,349.463L1014.59,349.396L1014.57,349.328L1014.55,349.261L1014.52,349.193L1014.5,349.126L1014.48,349.058L1014.46,348.99L1014.44,348.922L1014.41,348.854L1014.39,348.786L1014.37,348.717L1014.35,348.649L1014.33,348.581L1014.31,348.512L1014.29,348.443L1014.27,348.375L1014.25,348.306L1014.23,348.237L1014.21,348.168L1014.19,348.099L1014.17,348.03L1014.15,347.961L1014.13,347.891L1014.12,347.822L1014.1,347.753L1014.08,347.683L1014.06,347.613L1014.04,347.544L1014.03,347.474L1014.01,347.404L1013.99,347.334L1013.98,347.264L1013.96,347.194L1013.94,347.124L1013.93,347.053L1013.91,346.983L1013.89,346.912L1013.88,346.842L1013.86,346.771L1013.85,346.701L1013.83,346.63L1013.82,346.559L1013.8,346.488L1013.79,346.417L1013.78,346.346L1013.76,346.275L1013.75,346.204L1013.74,346.132L1013.72,346.061L1013.71,345.989L1013.7,345.918L1013.68,345.846L1013.67,345.775L1013.66,345.703L1013.65,345.631L1013.64,345.559L1013.62,345.487L1013.61,345.415L1013.6,345.343L1013.59,345.271L1013.58,345.199L1013.57,345.126L1013.56,345.054L1013.55,344.982L1013.54,344.909L1013.53,344.836L1013.52,344.764L1013.51,344.691L1013.51,344.618L1013.5,344.545L1013.49,344.472L1013.48,344.399L1013.47,344.326L1013.47,344.253L1013.46,344.18L1013.45,344.107L1013.45,344.034L1013.44,343.96L1013.43,343.887L1013.43,343.813L1013.42,343.74L1013.41,343.666L1013.41,343.592L1013.4,343.519L1013.4,343.445L1013.39,343.371L1013.39,343.297L1013.38,343.223L1013.38,343.149L1013.38,343.075L1013.37,343.001L1013.37,342.926L1013.37,342.852L1013.36,342.778L1013.36,342.703L1013.36,342.629L1013.36,342.554L1013.35,342.48L1013.35,342.405L1013.35,342.331L1013.35,342.256L1013.35,342.181L1013.35,342.106L1013.35,342.031L1013.35,341.957L1013.35,341.883L1013.35,298.924L1013.35,298.851L1013.35,298.776L1013.35,298.701L1013.35,298.626L1013.35,298.551L1013.35,298.476L1013.35,298.402L1013.35,298.327L1013.36,298.253L1013.36,298.178L1013.36,298.104L1013.36,298.029L1013.37,297.955L1013.37,297.881L1013.37,297.806L1013.38,297.732L1013.38,297.658L1013.38,297.584L1013.39,297.51L1013.39,297.436L1013.4,297.362L1013.4,297.289L1013.41,297.215L1013.41,297.141L1013.42,297.067L1013.43,296.994L1013.43,296.92L1013.44,296.847L1013.45,296.774L1013.45,296.7L1013.46,296.627L1013.47,296.554L1013.47,296.481L1013.48,296.408L1013.49,296.335L1013.5,296.262L1013.51,296.189L1013.51,296.116L1013.52,296.043L1013.53,295.971L1013.54,295.898L1013.55,295.826L1013.56,295.753L1013.57,295.681L1013.58,295.608L1013.59,295.536L1013.6,295.464L1013.61,295.392L1013.62,295.32L1013.64,295.248L1013.65,295.176L1013.66,295.104L1013.67,295.032L1013.68,294.961L1013.7,294.889L1013.71,294.818L1013.72,294.746L1013.74,294.675L1013.75,294.603L1013.76,294.532L1013.78,294.461L1013.79,294.39L1013.8,294.319L1013.82,294.248L1013.83,294.177L1013.85,294.106L1013.86,294.036L1013.88,293.965L1013.89,293.895L1013.91,293.824L1013.93,293.754L1013.94,293.683L1013.96,293.613L1013.98,293.543L1013.99,293.473L1014.01,293.403L1014.03,293.333L1014.04,293.263L1014.06,293.194L1014.08,293.124L1014.1,293.054L1014.12,292.985L1014.13,292.916L1014.15,292.846L1014.17,292.777L1014.19,292.708L1014.21,292.639L1014.23,292.57L1014.25,292.501L1014.27,292.432L1014.29,292.364L1014.31,292.295L1014.33,292.226L1014.35,292.158L1014.37,292.09L1014.39,292.021L1014.41,291.953L1014.44,291.885L1014.46,291.817L1014.48,291.749L1014.5,291.681L1014.52,291.614L1014.55,291.546L1014.57,291.479L1014.59,291.411L1014.61,291.344L1014.64,291.277L1014.66,291.209L1014.69,291.142L1014.71,291.075L1014.73,291.009L1014.76,290.942L1014.78,290.875L1014.81,290.808L1014.83,290.742L1014.86,290.676L1014.88,290.609L1014.91,290.543L1014.93,290.477L1014.96,290.411L1014.99,290.345L1015.01,290.279L1015.04,290.214L1015.07,290.148L1015.09,290.082L1015.12,290.017L1015.15,289.952L1015.17,289.887L1015.2,289.821L1015.23,289.756L1015.26,289.692L1015.29,289.627L1015.31,289.562L1015.34,289.497L1015.37,289.433L1015.4,289.369L1015.43,289.304L1015.46,289.24L1015.49,289.176L1015.52,289.112L1015.55,289.048L1015.58,288.985L1015.61,288.921L1015.64,288.857L1015.67,288.794L1015.7,288.731L1015.73,288.667L1015.76,288.604L1015.8,288.541L1015.83,288.478L1015.86,288.416L1015.89,288.353L1015.92,288.29L1015.96,288.228L1015.99,288.166L1016.02,288.103L1016.05,288.041L1016.09,287.979L1016.12,287.917L1016.15,287.856L1016.19,287.794L1016.22,287.732L1016.25,287.671L1016.29,287.61L1016.32,287.549L1016.36,287.487L1016.39,287.426L1016.43,287.366L1016.46,287.305L1016.5,287.244L1016.53,287.184L1016.57,287.123L1016.6,287.063L1016.64,287.003L1016.68,286.943L1016.71,286.883L1016.75,286.823L1016.78,286.763L1016.82,286.704L1016.86,286.644L1016.9,286.585L1016.93,286.526L1016.97,286.467L1017.01,286.408L1017.05,286.349L1017.09,286.29L1017.12,286.232L1017.16,286.173L1017.2,286.115L1017.24,286.057L1017.28,285.999L1017.32,285.941L1017.36,285.883L1017.39,285.825L1017.44,285.767L1017.48,285.71L1017.51,285.653L1017.56,285.595L1017.6,285.538L1017.63,285.481L1017.68,285.424L1017.72,285.368L1017.76,285.311L1017.8,285.255L1017.84,285.198L1017.88,285.142L1017.92,285.086L1017.96,285.03L1018.01,284.974L1018.05,284.919L1018.09,284.863L1018.13,284.808L1018.18,284.752L1018.22,284.697L1018.26,284.642L1018.3,284.587L1018.35,284.532L1018.39,284.478L1018.43,284.423L1018.48,284.369L1018.52,284.315L1018.57,284.261L1018.61,284.207L1018.65,284.153L1018.7,284.099L1018.74,284.046L1018.79,283.992L1018.83,283.939L1018.88,283.886L1018.92,283.833L1018.97,283.78L1019.01,283.727L1019.06,283.675L1019.11,283.622L1019.15,283.57L1019.2,283.518L1019.24,283.466L1019.29,283.414L1019.34,283.362L1019.38,283.31L1019.43,283.259L1019.48,283.207L1019.52,283.156L1019.57,283.105L1019.62,283.054L1019.67,283.004L1019.72,282.953L1019.76,282.902L1019.81,282.852L1019.86,282.802L1019.91,282.752L1019.96,282.702L1020.01,282.652L1020.05,282.603L1020.1,282.553L1020.15,282.504L1020.2,282.455L1020.25,282.406L1020.3,282.357L1020.35,282.308L1020.4,282.259L1020.45,282.211L1020.5,282.163L1020.55,282.115L1020.6,282.067L1020.65,282.019L1020.7,281.971L1020.75,281.924L1020.81,281.876L1020.86,281.829L1020.91,281.782L1020.96,281.735L1021.01,281.688L1021.06,281.642L1021.11,281.595L1021.17,281.549L1021.22,281.503L1021.27,281.457L1021.32,281.411L1021.38,281.365L1021.43,281.319L1021.48,281.274L1021.53,281.229L1021.59,281.184L1021.64,281.139L1021.69,281.094L1021.75,281.049L1021.8,281.005L1021.86,280.961L1021.91,280.917L1021.96,280.873L1022.02,280.829L1022.07,280.785L1022.13,280.742L1022.18,280.698L1022.24,280.655L1022.29,280.612L1022.35,280.569L1022.4,280.527L1022.46,280.484L1022.51,280.442L1022.57,280.399L1022.62,280.357L1022.68,280.315L1022.74,280.274L1022.79,280.232L1022.85,280.191L1022.9,280.15L1022.96,280.109L1023.02,280.068L1023.07,280.027L1023.13,279.986L1023.19,279.946L1023.24,279.906L1023.3,279.866L1023.36,279.826L1023.42,279.786L1023.47,279.746L1023.53,279.707L1023.59,279.668L1023.65,279.629L1023.71,279.59L1023.76,279.551L1023.82,279.513L1023.88,279.474L1023.94,279.436L1024,279.398L1024.06,279.36L1024.12,279.322L1024.17,279.285L1024.23,279.248L1024.29,279.21L1024.35,279.173L1024.41,279.137L1024.47,279.1L1024.53,279.063L1024.59,279.027L1024.65,278.991L1024.71,278.955L1024.77,278.919L1024.83,278.884L1024.89,278.848L1024.95,278.813L1025.01,278.778L1025.08,278.743L1025.14,278.708L1025.2,278.674L1025.26,278.639L1025.32,278.605L1025.38,278.571L1025.44,278.538L1025.51,278.504L1025.57,278.47L1025.63,278.437L1025.69,278.404L1025.75,278.371L1025.82,278.338L1025.88,278.306L1025.94,278.274L1026,278.241L1026.06,278.209L1026.13,278.178L1026.19,278.146L1026.25,278.114L1026.32,278.083L1026.38,278.052L1026.44,278.021L1026.51,277.991L1026.57,277.96L1026.63,277.93L1026.7,277.9L1026.76,277.87L1026.83,277.84L1026.89,277.81L1026.95,277.781L1027.02,277.752L1027.08,277.723L1027.15,277.694L1027.21,277.665L1027.28,277.637L1027.34,277.609L1027.4,277.58L1027.47,277.553L1027.54,277.525L1027.6,277.497L1027.67,277.47L1027.73,277.443L1027.8,277.416L1027.86,277.389L1027.93,277.363L1027.99,277.337L1028.06,277.311L1028.13,277.285L1028.19,277.259L1028.26,277.233L1028.32,277.208L1028.39,277.183L1028.46,277.158L1028.52,277.133L1028.59,277.109L1028.66,277.084L1028.72,277.06L1028.79,277.036L1028.86,277.012L1028.92,276.989L1028.99,276.965L1029.06,276.942L1029.13,276.919L1029.19,276.897L1029.26,276.874L1029.33,276.852L1029.4,276.83L1029.47,276.808L1029.53,276.786L1029.6,276.764L1029.67,276.743L1029.74,276.722L1029.81,276.701L1029.88,276.68L1029.94,276.66L1030.01,276.639L1030.08,276.619L1030.15,276.599L1030.22,276.58L1030.29,276.56L1030.36,276.541L1030.43,276.522L1030.5,276.503L1030.56,276.484L1030.63,276.466L1030.7,276.448L1030.77,276.43L1030.84,276.412L1030.91,276.394L1030.98,276.377L1031.05,276.36L1031.12,276.343L1031.19,276.326L1031.26,276.309L1031.33,276.293L1031.4,276.277L1031.47,276.261L1031.54,276.245L1031.61,276.23L1031.68,276.214L1031.76,276.199L1031.83,276.184L1031.9,276.17L1031.97,276.155L1032.04,276.141L1032.11,276.127L1032.18,276.113L1032.25,276.1L1032.32,276.087L1032.39,276.073L1032.47,276.061L1032.54,276.048L1032.61,276.035L1032.68,276.023L1032.75,276.011L1032.83,275.999L1032.9,275.988L1032.97,275.976L1033.04,275.965L1033.11,275.954L1033.18,275.944L1033.26,275.933L1033.33,275.923L1033.4,275.913L1033.47,275.903L1033.55,275.894L1033.62,275.884L1033.69,275.875L1033.77,275.866L1033.84,275.858L1033.91,275.849L1033.98,275.841L1034.06,275.833L1034.13,275.825L1034.2,275.818L1034.28,275.81L1034.35,275.803L1034.42,275.796L1034.5,275.79L1034.57,275.783L1034.64,275.777L1034.72,275.771L1034.79,275.765L1034.86,275.76L1034.94,275.755L1035.01,275.749L1035.09,275.745L1035.16,275.74L1035.23,275.736L1035.31,275.732L1035.38,275.728L1035.45,275.724L1035.53,275.721L1035.6,275.718L1035.68,275.715L1035.75,275.712L1035.83,275.709L1035.9,275.707L1035.98,275.705L1036.05,275.703L1036.12,275.702L1036.2,275.701L1036.28,275.699L1036.35,275.699L1036.42,275.698L1036.5,275.698L1036.57,275.698L1079.53,275.698L1079.61,275.698ZM1036.58,279.198L1036.51,279.198L1036.45,279.198L1036.38,279.198L1036.32,279.199L1036.26,279.2L1036.19,279.201L1036.13,279.203L1036.07,279.204L1036,279.206L1035.94,279.208L1035.88,279.21L1035.81,279.212L1035.75,279.215L1035.68,279.217L1035.62,279.22L1035.56,279.223L1035.5,279.227L1035.43,279.23L1035.37,279.234L1035.31,279.238L1035.24,279.242L1035.18,279.246L1035.12,279.251L1035.06,279.255L1034.99,279.26L1034.93,279.265L1034.87,279.27L1034.81,279.276L1034.74,279.281L1034.68,279.287L1034.62,279.293L1034.56,279.3L1034.5,279.306L1034.43,279.313L1034.37,279.319L1034.31,279.326L1034.25,279.334L1034.18,279.341L1034.12,279.348L1034.06,279.356L1034,279.364L1033.94,279.372L1033.88,279.381L1033.82,279.389L1033.75,279.398L1033.69,279.407L1033.63,279.416L1033.57,279.425L1033.51,279.435L1033.45,279.444L1033.39,279.454L1033.33,279.464L1033.27,279.474L1033.2,279.485L1033.14,279.495L1033.08,279.506L1033.02,279.517L1032.96,279.528L1032.9,279.539L1032.84,279.551L1032.78,279.563L1032.72,279.574L1032.66,279.586L1032.6,279.599L1032.54,279.611L1032.48,279.624L1032.42,279.636L1032.36,279.649L1032.3,279.663L1032.24,279.676L1032.18,279.689L1032.12,279.703L1032.06,279.717L1032,279.731L1031.94,279.745L1031.88,279.76L1031.82,279.774L1031.76,279.789L1031.7,279.804L1031.65,279.819L1031.59,279.834L1031.53,279.85L1031.47,279.865L1031.41,279.881L1031.35,279.897L1031.29,279.913L1031.23,279.93L1031.18,279.946L1031.12,279.963L1031.06,279.98L1031,279.997L1030.94,280.014L1030.88,280.031L1030.83,280.049L1030.77,280.067L1030.71,280.085L1030.65,280.103L1030.6,280.121L1030.54,280.14L1030.48,280.158L1030.42,280.177L1030.37,280.196L1030.31,280.215L1030.25,280.234L1030.19,280.254L1030.14,280.273L1030.08,280.293L1030.02,280.313L1029.96,280.333L1029.91,280.354L1029.85,280.374L1029.8,280.395L1029.74,280.416L1029.68,280.437L1029.62,280.458L1029.57,280.479L1029.51,280.501L1029.46,280.522L1029.4,280.544L1029.35,280.566L1029.29,280.588L1029.23,280.611L1029.18,280.633L1029.12,280.656L1029.07,280.679L1029.01,280.702L1028.95,280.725L1028.9,280.748L1028.84,280.772L1028.79,280.795L1028.73,280.819L1028.68,280.843L1028.62,280.867L1028.57,280.891L1028.52,280.916L1028.46,280.94L1028.41,280.965L1028.35,280.99L1028.3,281.015L1028.24,281.041L1028.19,281.066L1028.13,281.092L1028.08,281.117L1028.03,281.143L1027.97,281.169L1027.92,281.195L1027.87,281.222L1027.81,281.248L1027.76,281.275L1027.7,281.302L1027.65,281.329L1027.6,281.356L1027.55,281.383L1027.49,281.411L1027.44,281.439L1027.39,281.466L1027.33,281.494L1027.28,281.522L1027.23,281.551L1027.18,281.579L1027.12,281.608L1027.07,281.636L1027.02,281.665L1026.97,281.694L1026.91,281.723L1026.86,281.753L1026.81,281.782L1026.76,281.812L1026.71,281.842L1026.66,281.871L1026.61,281.902L1026.55,281.932L1026.5,281.962L1026.45,281.993L1026.4,282.023L1026.35,282.054L1026.3,282.085L1026.25,282.116L1026.2,282.148L1026.15,282.179L1026.1,282.211L1026.05,282.242L1026,282.274L1025.95,282.306L1025.9,282.338L1025.85,282.371L1025.8,282.403L1025.75,282.436L1025.7,282.469L1025.65,282.501L1025.6,282.535L1025.55,282.568L1025.5,282.601L1025.45,282.634L1025.4,282.668L1025.35,282.702L1025.3,282.736L1025.26,282.77L1025.21,282.804L1025.16,282.838L1025.11,282.873L1025.06,282.907L1025.01,282.942L1024.97,282.977L1024.92,283.012L1024.87,283.047L1024.82,283.083L1024.78,283.118L1024.73,283.154L1024.68,283.189L1024.63,283.225L1024.59,283.261L1024.54,283.298L1024.49,283.334L1024.45,283.37L1024.4,283.407L1024.35,283.444L1024.31,283.48L1024.26,283.517L1024.21,283.554L1024.17,283.592L1024.12,283.629L1024.08,283.667L1024.03,283.704L1023.98,283.742L1023.94,283.78L1023.89,283.818L1023.85,283.856L1023.8,283.895L1023.76,283.933L1023.71,283.972L1023.67,284.01L1023.62,284.049L1023.58,284.088L1023.53,284.127L1023.49,284.167L1023.45,284.206L1023.4,284.245L1023.36,284.285L1023.31,284.325L1023.27,284.365L1023.23,284.405L1023.18,284.445L1023.14,284.485L1023.1,284.526L1023.05,284.566L1023.01,284.607L1022.97,284.648L1022.92,284.689L1022.88,284.73L1022.84,284.771L1022.8,284.812L1022.75,284.854L1022.71,284.895L1022.67,284.937L1022.63,284.979L1022.59,285.021L1022.54,285.063L1022.5,285.105L1022.46,285.147L1022.42,285.19L1022.38,285.232L1022.34,285.275L1022.3,285.318L1022.26,285.361L1022.22,285.404L1022.18,285.447L1022.13,285.49L1022.09,285.534L1022.05,285.577L1022.01,285.621L1021.97,285.664L1021.93,285.708L1021.89,285.752L1021.86,285.797L1021.82,285.841L1021.78,285.885L1021.74,285.93L1021.7,285.974L1021.66,286.019L1021.62,286.064L1021.58,286.109L1021.54,286.154L1021.5,286.199L1021.47,286.244L1021.43,286.29L1021.39,286.335L1021.35,286.381L1021.32,286.427L1021.28,286.472L1021.24,286.518L1021.2,286.565L1021.17,286.611L1021.13,286.657L1021.09,286.704L1021.06,286.75L1021.02,286.797L1020.98,286.844L1020.95,286.89L1020.91,286.937L1020.87,286.985L1020.84,287.032L1020.8,287.079L1020.77,287.127L1020.73,287.174L1020.7,287.222L1020.66,287.27L1020.63,287.317L1020.59,287.365L1020.56,287.414L1020.52,287.462L1020.49,287.51L1020.45,287.558L1020.42,287.607L1020.38,287.656L1020.35,287.704L1020.32,287.753L1020.28,287.802L1020.25,287.851L1020.22,287.9L1020.18,287.95L1020.15,287.999L1020.12,288.049L1020.09,288.098L1020.05,288.148L1020.02,288.198L1019.99,288.247L1019.96,288.297L1019.92,288.348L1019.89,288.398L1019.86,288.448L1019.83,288.498L1019.8,288.549L1019.76,288.599L1019.73,288.65L1019.7,288.701L1019.67,288.752L1019.64,288.803L1019.61,288.854L1019.58,288.905L1019.55,288.956L1019.52,289.008L1019.49,289.059L1019.46,289.111L1019.43,289.163L1019.4,289.214L1019.37,289.266L1019.34,289.318L1019.31,289.37L1019.28,289.422L1019.26,289.475L1019.23,289.527L1019.2,289.58L1019.17,289.632L1019.14,289.685L1019.12,289.737L1019.09,289.79L1019.06,289.843L1019.03,289.896L1019,289.949L1018.98,290.003L1018.95,290.056L1018.92,290.109L1018.9,290.163L1018.87,290.216L1018.84,290.27L1018.82,290.324L1018.79,290.377L1018.77,290.431L1018.74,290.485L1018.72,290.539L1018.69,290.594L1018.66,290.648L1018.64,290.702L1018.61,290.757L1018.59,290.811L1018.57,290.866L1018.54,290.921L1018.52,290.975L1018.49,291.03L1018.47,291.085L1018.44,291.14L1018.42,291.196L1018.4,291.251L1018.37,291.306L1018.35,291.362L1018.33,291.417L1018.31,291.473L1018.28,291.528L1018.26,291.584L1018.24,291.64L1018.22,291.696L1018.19,291.752L1018.17,291.808L1018.15,291.864L1018.13,291.92L1018.11,291.977L1018.09,292.033L1018.07,292.089L1018.04,292.146L1018.02,292.203L1018,292.259L1017.98,292.316L1017.96,292.373L1017.94,292.43L1017.92,292.487L1017.9,292.544L1017.88,292.601L1017.86,292.659L1017.85,292.716L1017.83,292.773L1017.81,292.831L1017.79,292.889L1017.77,292.946L1017.75,293.004L1017.73,293.062L1017.72,293.12L1017.7,293.178L1017.68,293.236L1017.66,293.294L1017.65,293.352L1017.63,293.41L1017.61,293.469L1017.6,293.527L1017.58,293.586L1017.56,293.644L1017.55,293.703L1017.53,293.761L1017.51,293.82L1017.5,293.879L1017.48,293.938L1017.47,293.997L1017.45,294.056L1017.44,294.115L1017.42,294.174L1017.41,294.234L1017.39,294.293L1017.38,294.352L1017.37,294.412L1017.35,294.471L1017.34,294.531L1017.33,294.591L1017.31,294.651L1017.3,294.71L1017.28,294.77L1017.27,294.83L1017.26,294.89L1017.25,294.95L1017.24,295.011L1017.22,295.071L1017.21,295.131L1017.2,295.192L1017.19,295.252L1017.18,295.313L1017.17,295.373L1017.15,295.434L1017.14,295.494L1017.13,295.555L1017.12,295.616L1017.11,295.677L1017.1,295.738L1017.09,295.799L1017.08,295.86L1017.07,295.921L1017.07,295.982L1017.06,296.044L1017.05,296.105L1017.04,296.166L1017.03,296.228L1017.02,296.289L1017.01,296.351L1017,296.413L1017,296.474L1016.99,296.536L1016.98,296.598L1016.98,296.66L1016.97,296.722L1016.96,296.784L1016.96,296.846L1016.95,296.908L1016.94,296.97L1016.94,297.032L1016.93,297.095L1016.93,297.157L1016.92,297.219L1016.91,297.282L1016.91,297.344L1016.9,297.407L1016.9,297.47L1016.89,297.532L1016.89,297.595L1016.89,297.658L1016.88,297.721L1016.88,297.784L1016.88,297.847L1016.87,297.91L1016.87,297.973L1016.87,298.036L1016.86,298.099L1016.86,298.162L1016.86,298.226L1016.86,298.289L1016.86,298.352L1016.85,298.416L1016.85,298.479L1016.85,298.543L1016.85,298.607L1016.85,298.67L1016.85,298.734L1016.85,298.798L1016.85,298.862L1016.85,298.927L1016.85,341.88L1016.85,341.945L1016.85,342.009L1016.85,342.073L1016.85,342.137L1016.85,342.2L1016.85,342.264L1016.85,342.328L1016.85,342.391L1016.86,342.455L1016.86,342.518L1016.86,342.581L1016.86,342.645L1016.86,342.708L1016.87,342.771L1016.87,342.834L1016.87,342.897L1016.88,342.96L1016.88,343.023L1016.88,343.086L1016.89,343.149L1016.89,343.212L1016.89,343.275L1016.9,343.337L1016.9,343.4L1016.91,343.463L1016.91,343.525L1016.92,343.588L1016.93,343.65L1016.93,343.712L1016.94,343.775L1016.94,343.837L1016.95,343.899L1016.96,343.961L1016.96,344.023L1016.97,344.085L1016.98,344.147L1016.98,344.209L1016.99,344.271L1017,344.333L1017,344.395L1017.01,344.456L1017.02,344.518L1017.03,344.579L1017.04,344.641L1017.05,344.702L1017.06,344.763L1017.07,344.825L1017.07,344.886L1017.08,344.947L1017.09,345.008L1017.1,345.069L1017.11,345.13L1017.12,345.191L1017.13,345.252L1017.14,345.313L1017.15,345.373L1017.17,345.434L1017.18,345.495L1017.19,345.555L1017.2,345.616L1017.21,345.676L1017.22,345.736L1017.24,345.796L1017.25,345.857L1017.26,345.917L1017.27,345.977L1017.28,346.037L1017.3,346.097L1017.31,346.156L1017.33,346.216L1017.34,346.276L1017.35,346.336L1017.37,346.395L1017.38,346.455L1017.39,346.514L1017.41,346.573L1017.42,346.633L1017.44,346.692L1017.45,346.751L1017.47,346.81L1017.48,346.869L1017.5,346.928L1017.51,346.987L1017.53,347.046L1017.55,347.104L1017.56,347.163L1017.58,347.222L1017.6,347.28L1017.61,347.338L1017.63,347.397L1017.65,347.455L1017.66,347.513L1017.68,347.571L1017.7,347.629L1017.72,347.687L1017.73,347.745L1017.75,347.803L1017.77,347.861L1017.79,347.919L1017.81,347.976L1017.83,348.034L1017.85,348.091L1017.86,348.148L1017.88,348.206L1017.9,348.263L1017.92,348.32L1017.94,348.377L1017.96,348.434L1017.98,348.491L1018,348.548L1018.02,348.604L1018.04,348.661L1018.07,348.718L1018.09,348.774L1018.11,348.831L1018.13,348.887L1018.15,348.943L1018.17,348.999L1018.19,349.055L1018.22,349.111L1018.24,349.167L1018.26,349.223L1018.28,349.279L1018.31,349.334L1018.33,349.39L1018.35,349.446L1018.37,349.501L1018.4,349.556L1018.42,349.611L1018.44,349.667L1018.47,349.722L1018.49,349.777L1018.52,349.832L1018.54,349.886L1018.57,349.941L1018.59,349.996L1018.61,350.05L1018.64,350.105L1018.66,350.159L1018.69,350.213L1018.72,350.268L1018.74,350.322L1018.77,350.376L1018.79,350.43L1018.82,350.483L1018.84,350.537L1018.87,350.591L1018.9,350.644L1018.92,350.698L1018.95,350.751L1018.98,350.805L1019,350.858L1019.03,350.911L1019.06,350.964L1019.09,351.017L1019.12,351.07L1019.14,351.122L1019.17,351.175L1019.2,351.228L1019.23,351.28L1019.26,351.332L1019.28,351.385L1019.31,351.437L1019.34,351.489L1019.37,351.541L1019.4,351.593L1019.43,351.644L1019.46,351.696L1019.49,351.748L1019.52,351.799L1019.55,351.851L1019.58,351.902L1019.61,351.953L1019.64,352.004L1019.67,352.055L1019.7,352.106L1019.73,352.157L1019.76,352.208L1019.8,352.258L1019.83,352.309L1019.86,352.359L1019.89,352.409L1019.92,352.46L1019.96,352.51L1019.99,352.56L1020.02,352.61L1020.05,352.659L1020.09,352.709L1020.12,352.759L1020.15,352.808L1020.18,352.857L1020.22,352.907L1020.25,352.956L1020.28,353.005L1020.32,353.054L1020.35,353.103L1020.38,353.151L1020.42,353.2L1020.45,353.249L1020.49,353.297L1020.52,353.345L1020.56,353.394L1020.59,353.442L1020.63,353.49L1020.66,353.537L1020.7,353.585L1020.73,353.633L1020.77,353.68L1020.8,353.728L1020.84,353.775L1020.87,353.822L1020.91,353.87L1020.95,353.917L1020.98,353.963L1021.02,354.01L1021.06,354.057L1021.09,354.103L1021.13,354.15L1021.17,354.196L1021.2,354.242L1021.24,354.289L1021.28,354.335L1021.32,354.38L1021.35,354.426L1021.39,354.472L1021.43,354.517L1021.47,354.563L1021.5,354.608L1021.54,354.653L1021.58,354.698L1021.62,354.743L1021.66,354.788L1021.7,354.833L1021.74,354.877L1021.78,354.922L1021.82,354.966L1021.86,355.011L1021.89,355.055L1021.93,355.099L1021.97,355.143L1022.01,355.186L1022.05,355.23L1022.09,355.274L1022.13,355.317L1022.18,355.36L1022.22,355.403L1022.26,355.446L1022.3,355.489L1022.34,355.532L1022.38,355.575L1022.42,355.617L1022.46,355.66L1022.5,355.702L1022.54,355.744L1022.59,355.786L1022.63,355.828L1022.67,355.87L1022.71,355.912L1022.75,355.953L1022.8,355.995L1022.84,356.036L1022.88,356.077L1022.92,356.118L1022.97,356.159L1023.01,356.2L1023.05,356.241L1023.1,356.281L1023.14,356.322L1023.18,356.362L1023.23,356.402L1023.27,356.442L1023.31,356.482L1023.36,356.522L1023.4,356.562L1023.45,356.601L1023.49,356.64L1023.53,356.68L1023.58,356.719L1023.62,356.758L1023.67,356.797L1023.71,356.835L1023.76,356.874L1023.8,356.912L1023.85,356.951L1023.89,356.989L1023.94,357.027L1023.98,357.065L1024.03,357.103L1024.08,357.14L1024.12,357.178L1024.17,357.215L1024.21,357.253L1024.26,357.29L1024.31,357.327L1024.35,357.364L1024.4,357.4L1024.45,357.437L1024.49,357.473L1024.54,357.51L1024.59,357.546L1024.63,357.582L1024.68,357.618L1024.73,357.653L1024.78,357.689L1024.82,357.724L1024.87,357.76L1024.92,357.795L1024.97,357.83L1025.01,357.865L1025.06,357.9L1025.11,357.934L1025.16,357.969L1025.21,358.003L1025.26,358.037L1025.3,358.071L1025.35,358.105L1025.4,358.139L1025.45,358.173L1025.5,358.206L1025.55,358.239L1025.6,358.273L1025.65,358.306L1025.7,358.339L1025.75,358.371L1025.8,358.404L1025.85,358.436L1025.9,358.469L1025.95,358.501L1026,358.533L1026.05,358.565L1026.1,358.596L1026.15,358.628L1026.2,358.659L1026.25,358.691L1026.3,358.722L1026.35,358.753L1026.4,358.784L1026.45,358.814L1026.5,358.845L1026.55,358.875L1026.61,358.906L1026.66,358.936L1026.71,358.966L1026.76,358.995L1026.81,359.025L1026.86,359.054L1026.91,359.084L1026.97,359.113L1027.02,359.142L1027.07,359.171L1027.12,359.2L1027.18,359.228L1027.23,359.257L1027.28,359.285L1027.33,359.313L1027.39,359.341L1027.44,359.369L1027.49,359.396L1027.55,359.424L1027.6,359.451L1027.65,359.478L1027.7,359.505L1027.76,359.532L1027.81,359.559L1027.87,359.585L1027.92,359.612L1027.97,359.638L1028.03,359.664L1028.08,359.69L1028.13,359.716L1028.19,359.741L1028.24,359.766L1028.3,359.792L1028.35,359.817L1028.41,359.842L1028.46,359.867L1028.52,359.891L1028.57,359.916L1028.62,359.94L1028.68,359.964L1028.73,359.988L1028.79,360.012L1028.84,360.035L1028.9,360.059L1028.95,360.082L1029.01,360.105L1029.07,360.128L1029.12,360.151L1029.18,360.174L1029.23,360.196L1029.29,360.219L1029.35,360.241L1029.4,360.263L1029.46,360.285L1029.51,360.306L1029.57,360.328L1029.62,360.349L1029.68,360.37L1029.74,360.391L1029.8,360.412L1029.85,360.433L1029.91,360.453L1029.96,360.474L1030.02,360.494L1030.08,360.514L1030.14,360.534L1030.19,360.553L1030.25,360.573L1030.31,360.592L1030.37,360.611L1030.42,360.63L1030.48,360.649L1030.54,360.668L1030.6,360.686L1030.65,360.704L1030.71,360.722L1030.77,360.74L1030.83,360.758L1030.88,360.776L1030.94,360.793L1031,360.81L1031.06,360.827L1031.12,360.844L1031.18,360.861L1031.23,360.877L1031.29,360.894L1031.35,360.91L1031.41,360.926L1031.47,360.942L1031.53,360.957L1031.59,360.973L1031.65,360.988L1031.7,361.003L1031.76,361.018L1031.82,361.033L1031.88,361.048L1031.94,361.062L1032,361.076L1032.06,361.09L1032.12,361.104L1032.18,361.118L1032.24,361.131L1032.3,361.145L1032.36,361.158L1032.42,361.171L1032.48,361.183L1032.54,361.196L1032.6,361.208L1032.66,361.221L1032.72,361.233L1032.78,361.245L1032.84,361.256L1032.9,361.268L1032.96,361.279L1033.02,361.29L1033.08,361.301L1033.14,361.312L1033.2,361.322L1033.27,361.333L1033.33,361.343L1033.39,361.353L1033.45,361.363L1033.51,361.373L1033.57,361.382L1033.63,361.391L1033.69,361.4L1033.75,361.409L1033.82,361.418L1033.88,361.426L1033.94,361.435L1034,361.443L1034.06,361.451L1034.12,361.459L1034.18,361.466L1034.25,361.474L1034.31,361.481L1034.37,361.488L1034.43,361.494L1034.5,361.501L1034.56,361.508L1034.62,361.514L1034.68,361.52L1034.74,361.526L1034.81,361.531L1034.87,361.537L1034.93,361.542L1034.99,361.547L1035.06,361.552L1035.12,361.557L1035.18,361.561L1035.24,361.565L1035.31,361.569L1035.37,361.573L1035.43,361.577L1035.5,361.581L1035.56,361.584L1035.62,361.587L1035.68,361.59L1035.75,361.593L1035.81,361.595L1035.87,361.597L1035.94,361.599L1036,361.601L1036.07,361.603L1036.13,361.605L1036.19,361.606L1036.26,361.607L1036.32,361.608L1036.38,361.609L1036.45,361.609L1036.51,361.609L1036.58,361.61L1079.53,361.61L1079.59,361.609L1079.66,361.609L1079.72,361.609L1079.79,361.608L1079.85,361.607L1079.91,361.606L1079.98,361.605L1080.04,361.603L1080.1,361.601L1080.17,361.599L1080.23,361.597L1080.29,361.595L1080.36,361.593L1080.42,361.59L1080.48,361.587L1080.55,361.584L1080.61,361.581L1080.67,361.577L1080.74,361.573L1080.8,361.569L1080.86,361.565L1080.92,361.561L1080.99,361.557L1081.05,361.552L1081.11,361.547L1081.17,361.542L1081.24,361.537L1081.3,361.531L1081.36,361.526L1081.42,361.52L1081.49,361.514L1081.55,361.508L1081.61,361.501L1081.67,361.494L1081.73,361.488L1081.8,361.481L1081.86,361.474L1081.92,361.466L1081.98,361.459L1082.04,361.451L1082.11,361.443L1082.17,361.435L1082.23,361.426L1082.29,361.418L1082.35,361.409L1082.41,361.4L1082.47,361.391L1082.54,361.382L1082.6,361.373L1082.66,361.363L1082.72,361.353L1082.78,361.343L1082.84,361.333L1082.9,361.322L1082.96,361.312L1083.02,361.301L1083.08,361.29L1083.14,361.279L1083.2,361.268L1083.26,361.256L1083.33,361.245L1083.38,361.233L1083.44,361.221L1083.51,361.208L1083.57,361.196L1083.63,361.183L1083.69,361.171L1083.75,361.158L1083.81,361.145L1083.87,361.131L1083.92,361.118L1083.98,361.104L1084.04,361.09L1084.1,361.076L1084.16,361.062L1084.22,361.048L1084.28,361.033L1084.34,361.018L1084.4,361.003L1084.46,360.988L1084.52,360.973L1084.58,360.957L1084.64,360.942L1084.69,360.926L1084.75,360.91L1084.81,360.894L1084.87,360.877L1084.93,360.861L1084.99,360.844L1085.05,360.827L1085.1,360.81L1085.16,360.793L1085.22,360.776L1085.28,360.758L1085.34,360.74L1085.39,360.722L1085.45,360.704L1085.51,360.686L1085.57,360.668L1085.62,360.649L1085.68,360.63L1085.74,360.611L1085.8,360.592L1085.86,360.573L1085.91,360.553L1085.97,360.534L1086.03,360.514L1086.08,360.494L1086.14,360.474L1086.2,360.453L1086.25,360.433L1086.31,360.412L1086.37,360.391L1086.42,360.37L1086.48,360.349L1086.54,360.328L1086.59,360.306L1086.65,360.285L1086.7,360.263L1086.76,360.241L1086.82,360.219L1086.87,360.196L1086.93,360.174L1086.98,360.151L1087.04,360.128L1087.09,360.105L1087.15,360.082L1087.2,360.059L1087.26,360.035L1087.32,360.012L1087.37,359.988L1087.43,359.964L1087.48,359.94L1087.54,359.916L1087.59,359.891L1087.64,359.867L1087.7,359.842L1087.75,359.817L1087.81,359.792L1087.86,359.766L1087.92,359.741L1087.97,359.716L1088.03,359.69L1088.08,359.664L1088.13,359.638L1088.19,359.612L1088.24,359.585L1088.29,359.559L1088.35,359.532L1088.4,359.505L1088.45,359.478L1088.51,359.451L1088.56,359.424L1088.61,359.396L1088.67,359.369L1088.72,359.341L1088.77,359.313L1088.82,359.285L1088.88,359.257L1088.93,359.228L1088.98,359.2L1089.03,359.171L1089.09,359.142L1089.14,359.113L1089.19,359.084L1089.24,359.054L1089.29,359.025L1089.35,358.995L1089.4,358.966L1089.45,358.936L1089.5,358.905L1089.55,358.875L1089.6,358.845L1089.65,358.814L1089.7,358.784L1089.76,358.753L1089.81,358.722L1089.86,358.691L1089.91,358.659L1089.96,358.628L1090.01,358.596L1090.06,358.565L1090.11,358.533L1090.16,358.501L1090.21,358.469L1090.26,358.436L1090.31,358.404L1090.36,358.371L1090.41,358.339L1090.46,358.306L1090.51,358.273L1090.56,358.239L1090.61,358.206L1090.65,358.173L1090.7,358.139L1090.75,358.105L1090.8,358.071L1090.85,358.037L1090.9,358.003L1090.95,357.969L1090.99,357.934L1091.04,357.9L1091.09,357.865L1091.14,357.83L1091.19,357.795L1091.23,357.76L1091.28,357.724L1091.33,357.689L1091.38,357.653L1091.42,357.618L1091.47,357.582L1091.52,357.546L1091.57,357.51L1091.61,357.473L1091.66,357.437L1091.71,357.4L1091.75,357.364L1091.8,357.327L1091.85,357.29L1091.89,357.253L1091.94,357.215L1091.98,357.178L1092.03,357.141L1092.08,357.103L1092.12,357.065L1092.17,357.027L1092.21,356.989L1092.26,356.951L1092.3,356.912L1092.35,356.874L1092.39,356.835L1092.44,356.797L1092.48,356.758L1092.53,356.719L1092.57,356.68L1092.62,356.64L1092.66,356.601L1092.7,356.562L1092.75,356.522L1092.79,356.482L1092.84,356.442L1092.88,356.402L1092.92,356.362L1092.97,356.322L1093.01,356.281L1093.05,356.241L1093.1,356.2L1093.14,356.159L1093.18,356.118L1093.22,356.077L1093.27,356.036L1093.31,355.995L1093.35,355.953L1093.39,355.912L1093.43,355.87L1093.48,355.828L1093.52,355.786L1093.56,355.744L1093.6,355.702L1093.64,355.66L1093.68,355.617L1093.73,355.575L1093.77,355.532L1093.81,355.489L1093.85,355.446L1093.89,355.403L1093.93,355.36L1093.97,355.317L1094.01,355.274L1094.05,355.23L1094.09,355.186L1094.13,355.143L1094.17,355.099L1094.21,355.055L1094.25,355.011L1094.29,354.966L1094.33,354.922L1094.37,354.878L1094.41,354.833L1094.45,354.788L1094.48,354.743L1094.52,354.698L1094.56,354.653L1094.6,354.608L1094.64,354.563L1094.68,354.517L1094.71,354.472L1094.75,354.426L1094.79,354.38L1094.83,354.335L1094.86,354.289L1094.9,354.242L1094.94,354.196L1094.98,354.15L1095.01,354.103L1095.05,354.057L1095.09,354.01L1095.12,353.963L1095.16,353.917L1095.19,353.87L1095.23,353.823L1095.27,353.775L1095.3,353.728L1095.34,353.681L1095.37,353.633L1095.41,353.585L1095.44,353.538L1095.48,353.49L1095.51,353.442L1095.55,353.394L1095.58,353.345L1095.62,353.297L1095.65,353.249L1095.69,353.2L1095.72,353.151L1095.75,353.103L1095.79,353.054L1095.82,353.005L1095.86,352.956L1095.89,352.907L1095.92,352.857L1095.95,352.808L1095.99,352.759L1096.02,352.709L1096.05,352.659L1096.09,352.61L1096.12,352.56L1096.15,352.51L1096.18,352.46L1096.21,352.409L1096.25,352.359L1096.28,352.309L1096.31,352.258L1096.34,352.208L1096.37,352.157L1096.4,352.106L1096.43,352.055L1096.46,352.004L1096.49,351.953L1096.52,351.902L1096.55,351.851L1096.58,351.799L1096.61,351.748L1096.64,351.696L1096.67,351.645L1096.7,351.593L1096.73,351.541L1096.76,351.489L1096.79,351.437L1096.82,351.385L1096.85,351.332L1096.88,351.28L1096.9,351.228L1096.93,351.175L1096.96,351.122L1096.99,351.07L1097.02,351.017L1097.05,350.964L1097.07,350.911L1097.1,350.858L1097.13,350.805L1097.15,350.751L1097.18,350.698L1097.21,350.644L1097.23,350.591L1097.26,350.537L1097.29,350.483L1097.31,350.43L1097.34,350.376L1097.36,350.322L1097.39,350.268L1097.41,350.213L1097.44,350.159L1097.47,350.105L1097.49,350.05L1097.52,349.996L1097.54,349.941L1097.56,349.886L1097.59,349.832L1097.61,349.777L1097.64,349.722L1097.66,349.667L1097.68,349.611L1097.71,349.556L1097.73,349.501L1097.75,349.446L1097.78,349.39L1097.8,349.334L1097.82,349.279L1097.85,349.223L1097.87,349.167L1097.89,349.111L1097.91,349.055L1097.93,348.999L1097.95,348.943L1097.98,348.887L1098,348.831L1098.02,348.774L1098.04,348.718L1098.06,348.661L1098.08,348.604L1098.1,348.548L1098.12,348.491L1098.14,348.434L1098.16,348.377L1098.18,348.32L1098.2,348.263L1098.22,348.206L1098.24,348.148L1098.26,348.091L1098.28,348.034L1098.3,347.976L1098.32,347.919L1098.34,347.861L1098.35,347.803L1098.37,347.745L1098.39,347.687L1098.41,347.629L1098.42,347.571L1098.44,347.513L1098.46,347.455L1098.48,347.397L1098.49,347.339L1098.51,347.28L1098.53,347.222L1098.54,347.163L1098.56,347.104L1098.58,347.046L1098.59,346.987L1098.61,346.928L1098.62,346.869L1098.64,346.81L1098.65,346.751L1098.67,346.692L1098.68,346.633L1098.7,346.573L1098.71,346.514L1098.73,346.455L1098.74,346.395L1098.75,346.336L1098.77,346.276L1098.78,346.216L1098.79,346.157L1098.81,346.097L1098.82,346.037L1098.83,345.977L1098.85,345.917L1098.86,345.857L1098.87,345.796L1098.88,345.736L1098.89,345.676L1098.9,345.616L1098.92,345.555L1098.93,345.495L1098.94,345.434L1098.95,345.373L1098.96,345.313L1098.97,345.252L1098.98,345.191L1098.99,345.13L1099,345.069L1099.01,345.008L1099.02,344.947L1099.03,344.886L1099.04,344.825L1099.05,344.763L1099.06,344.702L1099.07,344.641L1099.08,344.579L1099.08,344.518L1099.09,344.456L1099.1,344.395L1099.11,344.333L1099.12,344.271L1099.12,344.209L1099.13,344.147L1099.14,344.085L1099.14,344.023L1099.15,343.961L1099.16,343.899L1099.16,343.837L1099.17,343.775L1099.17,343.712L1099.18,343.65L1099.19,343.588L1099.19,343.525L1099.2,343.463L1099.2,343.4L1099.2,343.337L1099.21,343.275L1099.21,343.212L1099.22,343.149L1099.22,343.086L1099.23,343.023L1099.23,342.96L1099.23,342.897L1099.24,342.834L1099.24,342.771L1099.24,342.708L1099.24,342.645L1099.25,342.581L1099.25,342.518L1099.25,342.455L1099.25,342.391L1099.25,342.328L1099.26,342.264L1099.26,342.2L1099.26,342.137L1099.26,342.073L1099.26,342.009L1099.26,341.945L1099.26,341.88L1099.26,298.927L1099.26,298.862L1099.26,298.798L1099.26,298.734L1099.26,298.67L1099.26,298.607L1099.26,298.543L1099.25,298.479L1099.25,298.416L1099.25,298.352L1099.25,298.289L1099.25,298.226L1099.24,298.162L1099.24,298.099L1099.24,298.036L1099.24,297.973L1099.23,297.91L1099.23,297.847L1099.23,297.784L1099.22,297.721L1099.22,297.658L1099.21,297.595L1099.21,297.532L1099.2,297.47L1099.2,297.407L1099.2,297.344L1099.19,297.282L1099.19,297.219L1099.18,297.157L1099.17,297.095L1099.17,297.032L1099.16,296.97L1099.16,296.908L1099.15,296.846L1099.14,296.784L1099.14,296.722L1099.13,296.66L1099.12,296.598L1099.12,296.536L1099.11,296.474L1099.1,296.413L1099.09,296.351L1099.08,296.289L1099.08,296.228L1099.07,296.166L1099.06,296.105L1099.05,296.044L1099.04,295.982L1099.03,295.921L1099.02,295.86L1099.01,295.799L1099,295.738L1098.99,295.677L1098.98,295.616L1098.97,295.555L1098.96,295.494L1098.95,295.434L1098.94,295.373L1098.93,295.313L1098.92,295.252L1098.9,295.192L1098.89,295.131L1098.88,295.071L1098.87,295.011L1098.86,294.95L1098.85,294.89L1098.83,294.83L1098.82,294.77L1098.81,294.71L1098.79,294.651L1098.78,294.591L1098.77,294.531L1098.75,294.472L1098.74,294.412L1098.73,294.352L1098.71,294.293L1098.7,294.234L1098.68,294.174L1098.67,294.115L1098.65,294.056L1098.64,293.997L1098.62,293.938L1098.61,293.879L1098.59,293.82L1098.58,293.761L1098.56,293.703L1098.54,293.644L1098.53,293.586L1098.51,293.527L1098.49,293.469L1098.48,293.41L1098.46,293.352L1098.44,293.294L1098.42,293.236L1098.41,293.178L1098.39,293.12L1098.37,293.062L1098.35,293.004L1098.34,292.946L1098.32,292.889L1098.3,292.831L1098.28,292.773L1098.26,292.716L1098.24,292.659L1098.22,292.601L1098.2,292.544L1098.18,292.487L1098.16,292.43L1098.14,292.373L1098.12,292.316L1098.1,292.259L1098.08,292.203L1098.06,292.146L1098.04,292.089L1098.02,292.033L1098,291.977L1097.98,291.92L1097.95,291.864L1097.93,291.808L1097.91,291.752L1097.89,291.696L1097.87,291.64L1097.85,291.584L1097.82,291.528L1097.8,291.473L1097.78,291.417L1097.75,291.362L1097.73,291.306L1097.71,291.251L1097.68,291.196L1097.66,291.14L1097.64,291.085L1097.61,291.03L1097.59,290.976L1097.56,290.921L1097.54,290.866L1097.52,290.811L1097.49,290.757L1097.47,290.702L1097.44,290.648L1097.41,290.594L1097.39,290.539L1097.36,290.485L1097.34,290.431L1097.31,290.377L1097.29,290.324L1097.26,290.27L1097.23,290.216L1097.21,290.163L1097.18,290.109L1097.15,290.056L1097.13,290.002L1097.1,289.949L1097.07,289.896L1097.05,289.843L1097.02,289.79L1096.99,289.737L1096.96,289.685L1096.93,289.632L1096.9,289.58L1096.88,289.527L1096.85,289.475L1096.82,289.422L1096.79,289.37L1096.76,289.318L1096.73,289.266L1096.7,289.214L1096.67,289.163L1096.64,289.111L1096.61,289.059L1096.58,289.008L1096.55,288.956L1096.52,288.905L1096.49,288.854L1096.46,288.803L1096.43,288.752L1096.4,288.701L1096.37,288.65L1096.34,288.599L1096.31,288.549L1096.28,288.498L1096.25,288.448L1096.21,288.398L1096.18,288.348L1096.15,288.297L1096.12,288.247L1096.09,288.198L1096.05,288.148L1096.02,288.098L1095.99,288.049L1095.95,287.999L1095.92,287.95L1095.89,287.9L1095.86,287.851L1095.82,287.802L1095.79,287.753L1095.75,287.704L1095.72,287.656L1095.69,287.607L1095.65,287.558L1095.62,287.51L1095.58,287.462L1095.55,287.414L1095.51,287.365L1095.48,287.317L1095.44,287.27L1095.41,287.222L1095.37,287.174L1095.34,287.127L1095.3,287.079L1095.27,287.032L1095.23,286.985L1095.19,286.937L1095.16,286.89L1095.12,286.844L1095.09,286.797L1095.05,286.75L1095.01,286.704L1094.98,286.657L1094.94,286.611L1094.9,286.565L1094.86,286.518L1094.83,286.472L1094.79,286.427L1094.75,286.381L1094.71,286.335L1094.68,286.29L1094.64,286.244L1094.6,286.199L1094.56,286.154L1094.52,286.109L1094.48,286.064L1094.45,286.019L1094.41,285.974L1094.37,285.93L1094.33,285.885L1094.29,285.841L1094.25,285.797L1094.21,285.752L1094.17,285.708L1094.13,285.664L1094.09,285.621L1094.05,285.577L1094.01,285.534L1093.97,285.49L1093.93,285.447L1093.89,285.404L1093.85,285.361L1093.81,285.318L1093.77,285.275L1093.73,285.232L1093.68,285.19L1093.64,285.147L1093.6,285.105L1093.56,285.063L1093.52,285.021L1093.48,284.979L1093.43,284.937L1093.39,284.895L1093.35,284.854L1093.31,284.812L1093.27,284.771L1093.22,284.73L1093.18,284.689L1093.14,284.648L1093.1,284.607L1093.05,284.566L1093.01,284.526L1092.97,284.485L1092.92,284.445L1092.88,284.405L1092.84,284.365L1092.79,284.325L1092.75,284.285L1092.7,284.245L1092.66,284.206L1092.62,284.167L1092.57,284.127L1092.53,284.088L1092.48,284.049L1092.44,284.01L1092.39,283.972L1092.35,283.933L1092.3,283.895L1092.26,283.856L1092.21,283.818L1092.17,283.78L1092.12,283.742L1092.08,283.704L1092.03,283.667L1091.98,283.629L1091.94,283.592L1091.89,283.554L1091.85,283.517L1091.8,283.48L1091.75,283.444L1091.71,283.407L1091.66,283.37L1091.61,283.334L1091.57,283.298L1091.52,283.261L1091.47,283.225L1091.42,283.189L1091.38,283.154L1091.33,283.118L1091.28,283.083L1091.23,283.047L1091.19,283.012L1091.14,282.977L1091.09,282.942L1091.04,282.907L1090.99,282.873L1090.95,282.838L1090.9,282.804L1090.85,282.77L1090.8,282.736L1090.75,282.702L1090.7,282.668L1090.65,282.635L1090.61,282.601L1090.56,282.568L1090.51,282.534L1090.46,282.501L1090.41,282.469L1090.36,282.436L1090.31,282.403L1090.26,282.371L1090.21,282.338L1090.16,282.306L1090.11,282.274L1090.06,282.242L1090.01,282.211L1089.96,282.179L1089.91,282.148L1089.86,282.116L1089.81,282.085L1089.76,282.054L1089.7,282.023L1089.65,281.993L1089.6,281.962L1089.55,281.932L1089.5,281.902L1089.45,281.871L1089.4,281.842L1089.35,281.812L1089.29,281.782L1089.24,281.753L1089.19,281.723L1089.14,281.694L1089.09,281.665L1089.03,281.636L1088.98,281.608L1088.93,281.579L1088.88,281.551L1088.82,281.522L1088.77,281.494L1088.72,281.466L1088.67,281.439L1088.61,281.411L1088.56,281.383L1088.51,281.356L1088.45,281.329L1088.4,281.302L1088.35,281.275L1088.29,281.248L1088.24,281.222L1088.19,281.195L1088.13,281.169L1088.08,281.143L1088.03,281.117L1087.97,281.092L1087.92,281.066L1087.86,281.041L1087.81,281.015L1087.75,280.99L1087.7,280.965L1087.64,280.941L1087.59,280.916L1087.54,280.891L1087.48,280.867L1087.43,280.843L1087.37,280.819L1087.32,280.795L1087.26,280.772L1087.2,280.748L1087.15,280.725L1087.09,280.702L1087.04,280.679L1086.98,280.656L1086.93,280.633L1086.87,280.611L1086.82,280.588L1086.76,280.566L1086.7,280.544L1086.65,280.522L1086.59,280.501L1086.54,280.479L1086.48,280.458L1086.42,280.437L1086.37,280.416L1086.31,280.395L1086.25,280.374L1086.2,280.354L1086.14,280.333L1086.08,280.313L1086.03,280.293L1085.97,280.273L1085.91,280.254L1085.86,280.234L1085.8,280.215L1085.74,280.196L1085.68,280.177L1085.62,280.158L1085.57,280.14L1085.51,280.121L1085.45,280.103L1085.39,280.085L1085.34,280.067L1085.28,280.049L1085.22,280.032L1085.16,280.014L1085.1,279.997L1085.05,279.98L1084.99,279.963L1084.93,279.946L1084.87,279.93L1084.81,279.913L1084.75,279.897L1084.69,279.881L1084.64,279.865L1084.58,279.85L1084.52,279.834L1084.46,279.819L1084.4,279.804L1084.34,279.789L1084.28,279.774L1084.22,279.76L1084.16,279.745L1084.1,279.731L1084.04,279.717L1083.98,279.703L1083.92,279.689L1083.87,279.676L1083.81,279.663L1083.75,279.649L1083.69,279.636L1083.63,279.624L1083.57,279.611L1083.51,279.599L1083.44,279.586L1083.38,279.574L1083.33,279.563L1083.26,279.551L1083.2,279.539L1083.14,279.528L1083.08,279.517L1083.02,279.506L1082.96,279.495L1082.9,279.485L1082.84,279.474L1082.78,279.464L1082.72,279.454L1082.66,279.444L1082.6,279.435L1082.54,279.425L1082.47,279.416L1082.41,279.407L1082.35,279.398L1082.29,279.389L1082.23,279.381L1082.17,279.372L1082.11,279.364L1082.04,279.356L1081.98,279.348L1081.92,279.341L1081.86,279.334L1081.8,279.326L1081.73,279.319L1081.67,279.313L1081.61,279.306L1081.55,279.3L1081.49,279.293L1081.42,279.287L1081.36,279.281L1081.3,279.276L1081.24,279.27L1081.17,279.265L1081.11,279.26L1081.05,279.255L1080.99,279.251L1080.92,279.246L1080.86,279.242L1080.8,279.238L1080.74,279.234L1080.67,279.23L1080.61,279.227L1080.55,279.223L1080.48,279.22L1080.42,279.217L1080.36,279.215L1080.29,279.212L1080.23,279.21L1080.17,279.208L1080.1,279.206L1080.04,279.204L1079.98,279.203L1079.91,279.201L1079.85,279.2L1079.79,279.199L1079.72,279.198L1079.66,279.198L1079.59,279.198L1079.53,279.198L1036.58,279.198Z"/>
        </g>
        <g transform="matrix(2.55026,-2.55026,1.34973,1.34973,-2346.47,1426.41)">
            <g transform="matrix(0.0430505,0.0813423,-0.0430505,0.0813423,695.457,670.905)">
                <path d="M129.849,593.607L130.541,593.646L131.23,593.715L131.915,593.816L132.595,593.948L133.268,594.111L133.933,594.304L134.589,594.527L135.233,594.78L135.866,595.062L136.485,595.373L137.089,595.711L137.678,596.077L138.249,596.469L138.801,596.886L139.334,597.329L139.847,597.795L140.337,598.283L140.805,598.794L141.249,599.326L141.669,599.877L142.062,600.446L142.43,601.033L142.771,601.636L143.083,602.254L143.368,602.886L143.623,603.53L143.848,604.185L144.044,604.849L144.209,605.522L144.344,606.201L144.447,606.886L144.519,607.575L144.56,608.266L144.569,608.958L144.546,609.651L144.492,610.341L144.407,611.028L144.291,611.711L132.96,670.078L191.195,658.088L191.876,657.964L192.563,657.871L193.252,657.809L193.944,657.779L194.637,657.78L195.329,657.813L196.018,657.877L196.704,657.973L197.385,658.099L198.06,658.257L198.726,658.445L199.383,658.663L200.03,658.911L200.665,659.188L201.286,659.494L201.893,659.828L202.484,660.189L203.058,660.576L203.614,660.989L204.151,661.427L204.667,661.889L205.161,662.374L205.633,662.881L206.081,663.409L206.505,663.957L206.903,664.524L207.275,665.108L207.62,665.708L207.938,666.324L208.227,666.953L208.487,667.595L208.718,668.248L208.919,668.911L209.089,669.582L209.229,670.26L209.338,670.944L209.415,671.633L209.461,672.324L209.475,673.016L209.458,673.708L209.41,674.399L209.33,675.087L209.219,675.771L209.077,676.449L208.904,677.119L208.701,677.782L208.467,678.434L208.205,679.075L207.913,679.703L207.594,680.317L207.246,680.916L206.872,681.499L206.472,682.064L206.046,682.61L205.596,683.137L205.122,683.642L204.626,684.125L204.108,684.585L203.57,685.021L203.013,685.433L202.437,685.818L201.845,686.177L201.237,686.508L200.614,686.812L199.978,687.086L199.331,687.332L198.673,687.548L198.006,687.733L197.331,687.888L116.745,704.48L116.061,704.605L115.372,704.698L114.68,704.759L113.985,704.789L113.29,704.788L112.595,704.754L111.903,704.689L111.214,704.592L110.531,704.463L109.854,704.304L109.185,704.114L108.526,703.894L107.877,703.643L107.241,703.363L106.617,703.055L106.009,702.718L105.417,702.354L104.842,701.963L104.285,701.547L103.748,701.105L103.232,700.639L102.737,700.15L102.266,699.639L101.818,699.107L101.395,698.555L100.998,697.985L100.627,697.396L100.283,696.792L99.968,696.172L99.681,695.539L99.423,694.893L99.195,694.236L98.998,693.57L98.831,692.895L98.695,692.213L98.59,691.525L98.517,690.834L98.475,690.14L98.466,689.444L98.488,688.749L98.541,688.056L98.627,687.366L98.744,686.681L114.423,605.913L114.57,605.236L114.748,604.567L114.957,603.907L115.195,603.256L115.462,602.617L115.759,601.992L116.083,601.38L116.435,600.783L116.814,600.203L117.219,599.642L117.649,599.099L118.103,598.576L118.581,598.074L119.081,597.595L119.602,597.139L120.143,596.707L120.704,596.3L121.282,595.919L121.877,595.565L122.488,595.238L123.113,594.94L123.751,594.67L124.4,594.429L125.06,594.219L125.729,594.038L126.405,593.889L127.087,593.77L127.774,593.682L128.465,593.626L129.157,593.601L129.849,593.607Z"/>
                <path d="M686.71,95.212L687.405,95.246L688.097,95.311L688.786,95.408L689.469,95.537L690.146,95.696L690.815,95.886L691.474,96.106L692.123,96.357L692.759,96.637L693.383,96.945L693.991,97.282L694.583,97.646L695.158,98.037L695.715,98.453L696.252,98.895L696.768,99.361L697.263,99.85L697.734,100.361L698.182,100.893L698.605,101.445L699.002,102.015L699.373,102.604L699.717,103.208L700.032,103.828L700.319,104.461L700.577,105.107L700.805,105.764L701.002,106.43L701.169,107.105L701.305,107.787L701.41,108.475L701.483,109.166L701.525,109.86L701.534,110.556L701.512,111.251L701.459,111.944L701.373,112.634L701.256,113.319L685.577,194.087L685.43,194.764L685.252,195.433L685.043,196.093L684.805,196.744L684.538,197.382L684.241,198.008L683.917,198.62L683.565,199.217L683.186,199.797L682.781,200.358L682.351,200.901L681.897,201.424L681.419,201.926L680.919,202.405L680.398,202.861L679.857,203.293L679.296,203.7L678.718,204.081L678.123,204.435L677.512,204.762L676.887,205.06L676.249,205.33L675.6,205.57L674.94,205.781L674.271,205.962L673.595,206.111L672.913,206.23L672.226,206.318L671.535,206.374L670.843,206.399L670.151,206.393L669.459,206.354L668.77,206.285L668.085,206.184L667.405,206.052L666.732,205.889L666.067,205.696L665.411,205.472L664.767,205.22L664.134,204.938L663.515,204.627L662.911,204.289L662.322,203.923L661.751,203.531L661.199,203.114L660.666,202.671L660.153,202.205L659.663,201.717L659.195,201.206L658.751,200.674L658.331,200.123L657.937,199.554L657.57,198.967L657.229,198.364L656.917,197.746L656.632,197.114L656.377,196.47L656.152,195.815L655.956,195.151L655.791,194.478L655.656,193.799L655.553,193.114L655.481,192.425L655.44,191.734L655.431,191.041L655.454,190.349L655.508,189.659L655.593,188.971L655.709,188.289L667.04,129.922L608.805,141.912L608.124,142.036L607.437,142.129L606.748,142.191L606.056,142.221L605.363,142.22L604.671,142.187L603.982,142.123L603.296,142.027L602.615,141.901L601.94,141.743L601.274,141.555L600.617,141.337L599.97,141.089L599.335,140.812L598.714,140.506L598.107,140.172L597.516,139.812L596.942,139.424L596.386,139.011L595.849,138.573L595.333,138.111L594.839,137.626L594.367,137.119L593.919,136.591L593.495,136.043L593.097,135.476L592.725,134.892L592.38,134.292L592.062,133.676L591.773,133.047L591.513,132.405L591.282,131.752L591.081,131.089L590.911,130.418L590.771,129.74L590.662,129.056L590.585,128.367L590.539,127.676L590.525,126.984L590.542,126.292L590.59,125.601L590.67,124.913L590.781,124.229L590.923,123.551L591.096,122.881L591.299,122.219L591.533,121.566L591.795,120.925L592.087,120.297L592.406,119.683L592.754,119.084L593.128,118.501L593.528,117.936L593.954,117.39L594.404,116.863L594.878,116.358L595.374,115.875L595.892,115.415L596.43,114.979L596.987,114.567L597.563,114.182L598.155,113.823L598.763,113.492L599.386,113.188L600.022,112.914L600.669,112.668L601.327,112.452L601.994,112.267L602.669,112.112L683.255,95.52L683.939,95.395L684.628,95.302L685.32,95.241L686.015,95.211L686.71,95.212Z"/>
                <path d="M688.98,95.441L692.487,96.513L695.636,98.392L698.244,100.971L700.159,104.098L701.27,107.593L701.512,111.253L700.872,114.864L699.385,118.217L697.14,121.116L606.41,212.879L124.495,700.276L121.621,702.554L118.286,704.078L114.682,704.759L111.02,704.559L107.513,703.487L104.364,701.608L101.756,699.029L99.841,695.902L98.73,692.407L98.488,688.747L99.128,685.136L100.615,681.783L102.86,678.884L584.774,191.487L675.505,99.724L678.379,97.446L681.714,95.922L685.318,95.241L688.98,95.441Z"/>
            </g>
        </g>
        <g transform="matrix(2.55026,2.55026,-1.34973,1.34973,-359.735,-2120.77)">
            <g transform="matrix(0.0430505,-0.0813423,0.0430505,0.0813423,661.016,735.979)">
                <path d="M111.251,98.488L111.944,98.541L112.634,98.627L113.319,98.744L194.087,114.423L194.764,114.57L195.433,114.748L196.093,114.957L196.744,115.195L197.382,115.462L198.008,115.759L198.62,116.083L199.217,116.435L199.797,116.814L200.358,117.219L200.901,117.649L201.424,118.103L201.926,118.581L202.405,119.081L202.861,119.602L203.293,120.143L203.7,120.704L204.081,121.282L204.435,121.877L204.762,122.488L205.06,123.113L205.33,123.751L205.57,124.4L205.781,125.06L205.962,125.729L206.111,126.405L206.23,127.087L206.318,127.774L206.374,128.465L206.399,129.157L206.393,129.849L206.354,130.541L206.285,131.23L206.184,131.915L206.052,132.595L205.889,133.268L205.696,133.933L205.472,134.589L205.22,135.233L204.938,135.866L204.627,136.485L204.289,137.089L203.923,137.678L203.531,138.249L203.114,138.801L202.671,139.334L202.205,139.847L201.717,140.337L201.206,140.805L200.674,141.249L200.123,141.669L199.554,142.062L198.967,142.43L198.364,142.771L197.746,143.083L197.114,143.368L196.47,143.623L195.815,143.848L195.151,144.044L194.478,144.209L193.799,144.344L193.114,144.447L192.425,144.519L191.734,144.56L191.041,144.569L190.349,144.546L189.659,144.492L188.971,144.407L188.289,144.291L129.922,132.96L141.912,191.195L142.036,191.876L142.129,192.563L142.191,193.252L142.221,193.944L142.22,194.637L142.187,195.329L142.123,196.018L142.027,196.704L141.901,197.385L141.743,198.06L141.555,198.726L141.337,199.383L141.089,200.03L140.812,200.665L140.506,201.286L140.172,201.893L139.812,202.484L139.424,203.058L139.011,203.614L138.573,204.151L138.111,204.667L137.626,205.161L137.119,205.633L136.591,206.081L136.043,206.505L135.476,206.903L134.892,207.275L134.292,207.62L133.676,207.938L133.047,208.227L132.405,208.487L131.752,208.718L131.089,208.919L130.418,209.089L129.74,209.229L129.056,209.338L128.367,209.415L127.676,209.461L126.984,209.475L126.292,209.458L125.601,209.41L124.913,209.33L124.229,209.219L123.551,209.077L122.881,208.904L122.219,208.701L121.566,208.467L120.925,208.205L120.297,207.913L119.683,207.594L119.084,207.246L118.501,206.872L117.936,206.472L117.39,206.046L116.863,205.596L116.358,205.122L115.875,204.626L115.415,204.108L114.979,203.57L114.567,203.013L114.182,202.437L113.823,201.845L113.492,201.237L113.188,200.614L112.914,199.978L112.668,199.331L112.452,198.673L112.267,198.006L112.112,197.331L95.52,116.746L95.395,116.061L95.302,115.372L95.241,114.68L95.211,113.985L95.212,113.29L95.246,112.595L95.311,111.903L95.408,111.214L95.537,110.531L95.696,109.854L95.886,109.185L96.106,108.526L96.357,107.877L96.637,107.241L96.945,106.617L97.282,106.009L97.646,105.417L98.037,104.842L98.453,104.285L98.895,103.748L99.361,103.232L99.85,102.737L100.361,102.266L100.893,101.818L101.445,101.395L102.015,100.998L102.604,100.627L103.208,100.283L103.828,99.968L104.461,99.681L105.107,99.423L105.764,99.195L106.43,98.998L107.105,98.831L107.787,98.695L108.475,98.59L109.166,98.517L109.86,98.475L110.556,98.466L111.251,98.488Z"/>
                <path d="M673.708,590.542L674.399,590.59L675.087,590.67L675.771,590.781L676.449,590.923L677.119,591.096L677.782,591.299L678.434,591.533L679.075,591.795L679.703,592.087L680.317,592.406L680.916,592.754L681.499,593.128L682.064,593.528L682.61,593.954L683.137,594.404L683.642,594.878L684.125,595.374L684.585,595.892L685.021,596.43L685.433,596.987L685.818,597.563L686.177,598.155L686.508,598.763L686.812,599.386L687.086,600.022L687.332,600.669L687.548,601.327L687.733,601.994L687.888,602.669L704.48,683.255L704.605,683.939L704.698,684.628L704.759,685.32L704.789,686.015L704.788,686.71L704.754,687.405L704.689,688.097L704.592,688.786L704.463,689.469L704.304,690.146L704.114,690.815L703.894,691.474L703.643,692.123L703.363,692.759L703.055,693.383L702.718,693.991L702.354,694.583L701.963,695.158L701.547,695.715L701.105,696.252L700.639,696.768L700.15,697.263L699.639,697.734L699.107,698.182L698.555,698.605L697.985,699.002L697.396,699.373L696.792,699.717L696.172,700.032L695.539,700.319L694.893,700.577L694.236,700.805L693.57,701.002L692.895,701.169L692.213,701.305L691.525,701.41L690.834,701.483L690.14,701.525L689.444,701.534L688.749,701.512L688.056,701.459L687.366,701.373L686.681,701.256L605.913,685.577L605.236,685.43L604.567,685.252L603.907,685.043L603.256,684.805L602.617,684.538L601.992,684.241L601.38,683.917L600.783,683.565L600.203,683.186L599.642,682.781L599.099,682.351L598.576,681.897L598.074,681.419L597.595,680.919L597.139,680.398L596.707,679.857L596.3,679.296L595.919,678.718L595.565,678.123L595.238,677.512L594.94,676.887L594.67,676.249L594.429,675.6L594.219,674.94L594.038,674.271L593.889,673.595L593.77,672.913L593.682,672.226L593.626,671.535L593.601,670.843L593.607,670.151L593.646,669.459L593.715,668.77L593.816,668.085L593.948,667.405L594.111,666.732L594.304,666.067L594.527,665.411L594.78,664.767L595.062,664.134L595.373,663.515L595.711,662.911L596.077,662.322L596.469,661.751L596.886,661.199L597.329,660.666L597.795,660.153L598.283,659.663L598.794,659.195L599.326,658.751L599.877,658.331L600.446,657.937L601.033,657.57L601.636,657.229L602.254,656.917L602.886,656.632L603.53,656.377L604.185,656.152L604.849,655.956L605.522,655.791L606.201,655.656L606.886,655.553L607.575,655.481L608.266,655.44L608.958,655.431L609.651,655.454L610.341,655.508L611.029,655.593L611.711,655.709L670.078,667.04L658.088,608.805L657.964,608.124L657.871,607.437L657.809,606.748L657.779,606.056L657.78,605.363L657.813,604.671L657.877,603.982L657.973,603.296L658.099,602.615L658.257,601.94L658.445,601.274L658.663,600.617L658.911,599.97L659.188,599.335L659.494,598.714L659.828,598.107L660.189,597.516L660.576,596.942L660.989,596.386L661.427,595.849L661.889,595.333L662.374,594.839L662.881,594.367L663.409,593.919L663.957,593.495L664.524,593.097L665.108,592.725L665.708,592.38L666.324,592.062L666.953,591.773L667.595,591.513L668.248,591.282L668.911,591.081L669.582,590.911L670.26,590.771L670.944,590.662L671.633,590.585L672.324,590.539L673.016,590.525L673.708,590.542Z"/>
                <path d="M114.864,99.128L118.217,100.615L121.116,102.86L608.513,584.774L700.276,675.505L702.554,678.379L704.078,681.714L704.759,685.318L704.559,688.98L703.487,692.487L701.608,695.636L699.029,698.244L695.902,700.159L692.407,701.27L688.747,701.512L685.136,700.872L681.783,699.385L678.884,697.14L587.121,606.41L99.724,124.495L97.446,121.621L95.922,118.286L95.241,114.682L95.441,111.02L96.513,107.513L98.392,104.364L100.971,101.756L104.098,99.841L107.593,98.73L111.253,98.488L114.864,99.128Z"/>
            </g>
        </g>
        <g transform="matrix(3.68967,0,0,3.64581,-2520.6,-1474.84)">
            <ellipse cx="797.115" cy="581.772" rx="11.64" ry="11.78" style="fill:white;"/>
        </g>
        <g transform="matrix(1.56019,0,0,1.56019,-996.303,-300.63)">
            <path d="M907.012,607.519C903.991,606.623 901.71,605.466 900.168,604.05C898.627,602.633 897.549,601.18 896.934,599.69C896.319,598.201 896.012,596.623 896.012,594.956C896.012,592.914 896.398,591.065 897.168,589.409C897.939,587.753 899.075,586.279 900.575,584.987L900.543,584.987C902.939,582.904 905.752,581.862 908.981,581.862C910.023,581.862 911.064,581.992 912.106,582.253C913.148,582.513 914.153,582.909 915.122,583.44C916.09,583.972 916.997,584.633 917.84,585.425C918.684,586.216 919.439,587.144 920.106,588.206C920.418,588.748 920.575,589.341 920.575,589.987C920.575,590.466 920.491,590.904 920.325,591.3C920.158,591.696 919.924,592.045 919.622,592.347C919.319,592.649 918.965,592.883 918.559,593.05C918.153,593.216 917.721,593.3 917.262,593.3C916.846,593.3 916.476,593.237 916.153,593.112C915.83,592.987 915.538,592.81 915.278,592.581C915.017,592.352 914.767,592.086 914.528,591.784C914.288,591.482 914.033,591.133 913.762,590.737C913.262,590.008 912.58,589.461 911.715,589.097C910.851,588.732 909.918,588.55 908.918,588.55C908.127,588.55 907.356,588.711 906.606,589.034C905.856,589.357 905.189,589.8 904.606,590.362C904.023,590.925 903.549,591.591 903.184,592.362C902.819,593.133 902.637,593.966 902.637,594.862C902.637,596.466 903.08,597.732 903.965,598.659C904.851,599.586 906.377,600.362 908.543,600.987C912.21,602.029 915.085,603.466 917.168,605.3C919.252,607.133 920.668,608.935 921.418,610.706C922.168,612.477 922.543,614.341 922.543,616.3C922.543,621.175 920.741,625.133 917.137,628.175L917.168,628.175C914.273,630.633 910.981,631.862 907.293,631.862C906.064,631.862 904.835,631.711 903.606,631.409C902.377,631.107 901.194,630.664 900.059,630.081C898.924,629.498 897.861,628.769 896.872,627.894C895.882,627.019 895.023,626.029 894.293,624.925C893.856,624.362 893.637,623.696 893.637,622.925C893.637,622.466 893.721,622.034 893.887,621.628C894.054,621.222 894.288,620.867 894.59,620.565C894.892,620.263 895.241,620.029 895.637,619.862C896.033,619.696 896.471,619.612 896.95,619.612C898.179,619.612 899.106,620.123 899.731,621.144C900.606,622.498 901.7,623.519 903.012,624.206C904.325,624.894 905.741,625.237 907.262,625.237C908.45,625.237 909.569,625.003 910.622,624.534C911.674,624.065 912.59,623.435 913.372,622.644C914.153,621.852 914.773,620.92 915.231,619.847C915.689,618.774 915.918,617.633 915.918,616.425C915.918,615.279 915.705,614.201 915.278,613.19C914.851,612.18 914.028,611.18 912.809,610.19C911.59,609.201 909.658,608.31 907.012,607.519Z" style="fill:rgb(76,157,69);fill-rule:nonzero;stroke:rgb(76,157,69);stroke-width:0.14px;"/>
        </g>
    </g>
</svg>
