<?xml version="1.0" encoding="UTF-8" standalone="no"?>
<!DOCTYPE svg PUBLIC "-//W3C//DTD SVG 1.1//EN" "http://www.w3.org/Graphics/SVG/1.1/DTD/svg11.dtd">
<svg width="100%" height="100%" viewBox="0 0 720 800" version="1.1" xmlns="http://www.w3.org/2000/svg" xmlns:xlink="http://www.w3.org/1999/xlink" xml:space="preserve" xmlns:serif="http://www.serif.com/" style="fill-rule:evenodd;clip-rule:evenodd;stroke-linejoin:round;stroke-miterlimit:2;">
    <g id="nginx" transform="matrix(1.83084,0,0,1.83084,-3037.03,-1632.29)">
        <g transform="matrix(1,0,0,1,3.10109,-214.328)">
            <path d="M1852.35,1110.03L2037.97,1217.2L2037.97,1431.53L1852.35,1538.69L1666.74,1431.53L1666.74,1217.2L1852.35,1110.03Z" style="fill:rgb(0,152,0);"/>
        </g>
        <g transform="matrix(0.935673,0,0,0.935673,1090.17,-209.758)">
            <path d="M727.057,1508.12L727.057,1312.93C727.057,1310.87 727.432,1308.93 728.182,1307.1C728.932,1305.27 729.987,1303.68 731.346,1302.32C732.705,1300.96 734.276,1299.9 736.057,1299.15C737.838,1298.4 739.807,1298.03 741.963,1298.03C746.369,1298.03 750.213,1299.86 753.494,1303.51L878.932,1464.81L878.932,1312.93C878.932,1308.81 880.385,1305.29 883.291,1302.39C886.198,1299.48 889.713,1298.03 893.838,1298.03C897.963,1298.03 901.479,1299.48 904.385,1302.39C907.291,1305.29 908.744,1308.81 908.744,1312.93L908.744,1508.12C908.744,1510.28 908.369,1512.25 907.619,1514.03C906.869,1515.81 905.815,1517.38 904.455,1518.74C903.096,1520.1 901.502,1521.15 899.674,1521.9C897.846,1522.65 895.901,1523.03 893.838,1523.03C889.432,1523.03 885.635,1521.29 882.448,1517.83L756.869,1356.53L756.869,1508.12C756.869,1512.25 755.416,1515.76 752.51,1518.67C749.604,1521.58 746.088,1523.03 741.963,1523.03C737.838,1523.03 734.323,1521.58 731.416,1518.67C728.51,1515.76 727.057,1512.25 727.057,1508.12Z" style="fill:white;fill-rule:nonzero;stroke:rgb(76,157,69);stroke-width:0.58px;"/>
        </g>
    </g>
</svg>
