<?xml version="1.0" encoding="UTF-8" standalone="no"?>
<!DOCTYPE svg PUBLIC "-//W3C//DTD SVG 1.1//EN" "http://www.w3.org/Graphics/SVG/1.1/DTD/svg11.dtd">
<svg width="100%" height="100%" viewBox="0 0 325 425" version="1.1" xmlns="http://www.w3.org/2000/svg" xmlns:xlink="http://www.w3.org/1999/xlink" xml:space="preserve" xmlns:serif="http://www.serif.com/" style="fill-rule:evenodd;clip-rule:evenodd;stroke-linecap:round;stroke-linejoin:round;">
    <g id="I" transform="matrix(4.01847,0,0,4.01847,14.3131,-381.632)">
        <g>
            <path d="M52.482,183.928C52.482,183.123 53.866,182.471 55.581,182.471C57.296,182.471 58.681,183.121 58.681,183.928C58.681,184.735 57.299,185.385 55.581,185.385C53.863,185.385 52.482,184.74 52.482,183.928Z" style="fill:rgb(51,30,9);fill-rule:nonzero;stroke:black;stroke-width:0.14px;"/>
            <path d="M32.372,178.163L33.774,184.995C33.942,186.559 37.066,187.299 37.394,185.489C37.722,183.678 38.879,179.234 38.879,179.234L32.372,178.163ZM52.045,179.312C52.045,179.312 53.69,183.236 53.69,185.486C53.69,187.736 57.613,188.036 57.969,186.556C58.325,185.077 58.793,179.231 58.793,179.231L52.045,179.312Z" style="fill:rgb(249,200,154);fill-rule:nonzero;stroke:black;stroke-width:0.14px;"/>
            <path d="M37.201,182.857C36.542,183.132 34.679,183.35 33.964,183.076C33.25,182.801 34.02,185.654 34.239,186.534C34.457,187.414 36.761,187.246 36.761,187.246L37.201,182.857Z" style="fill:rgb(161,88,19);fill-rule:nonzero;stroke:black;stroke-width:0.14px;"/>
            <path d="M31.946,185.122C31.946,183.3 32.563,181.829 33.325,181.829C34.087,181.829 34.704,183.297 34.704,185.122C34.704,186.946 34.087,188.414 33.325,188.414C32.563,188.414 31.946,186.946 31.946,185.122ZM36.228,185.472C36.228,183.678 36.862,182.241 37.649,182.241C38.437,182.241 39.07,183.681 39.07,185.472C39.07,187.263 38.437,188.703 37.649,188.703C36.862,188.703 36.228,187.263 36.228,185.472Z" style="fill:rgb(79,46,14);fill-rule:nonzero;stroke:black;stroke-width:0.14px;"/>
            <path d="M27.967,194.669L27.925,190.802C27.883,188.661 30.147,185.945 34.757,186.066C39.367,186.186 41.505,188.742 41.505,191.211C41.505,193.68 41.298,195.655 41.051,196.149C40.805,196.642 28.996,196.807 28.544,196.353C28.093,195.899 27.967,194.666 27.967,194.666L27.967,194.669Z" style="fill:rgb(158,86,19);fill-rule:nonzero;stroke:black;stroke-width:0.14px;"/>
            <path d="M27.967,198.004C27.183,197.799 26.897,196.975 26.857,196.194C26.818,195.412 27.474,194.75 27.967,194.669C28.337,195.162 29.077,195.37 29.733,195.49C33.092,195.635 36.454,195.676 39.815,195.613C40.802,195.529 41.048,194.955 41.217,194.708C41.917,194.955 42.209,195.695 42.245,196.395C42.281,197.096 41.956,197.754 41.256,198.001C40.555,198.248 36.856,198.822 34.3,198.786C31.745,198.749 27.967,198.001 27.967,198.001L27.967,198.004Z" style="fill:rgb(79,46,14);fill-rule:nonzero;stroke:black;stroke-width:0.14px;"/>
            <path d="M58.669,184.665C58.669,184.665 56.447,185.982 53.606,184.993C51.756,184.746 51.257,184.746 51.299,185.651C51.341,186.556 51.588,189.025 50.722,190.051C49.856,191.076 48.951,193.758 50.268,194.989C51.585,196.219 70.641,196.101 71.381,195.894C72.121,195.686 72.575,194.369 72.575,194.369L72.743,190.09C72.659,188.613 70.602,185.892 67.104,186.015C63.607,186.139 62.167,188.608 60.603,188.938C59.286,187.705 58.793,186.265 58.793,185.973C58.793,185.682 58.669,184.656 58.669,184.656L58.669,184.665Z" style="fill:rgb(158,86,19);fill-rule:nonzero;stroke:black;stroke-width:0.14px;"/>
            <path d="M54.41,189.176C55.643,189.176 56.531,188.622 56.632,187.344C56.733,186.066 56.428,185.368 55.52,185.306C54.612,185.245 53.502,185.06 52.998,184.71C52.493,184.359 52.403,183.718 52.633,183.454C52.863,183.191 53.25,182.941 53.25,182.941L53.11,182.549C53.11,182.549 51.072,183.334 51.26,185.511C51.448,187.688 52.535,189.174 54.449,189.174L54.41,189.176ZM56.652,185.309C57.33,185.576 57.476,186.094 57.372,186.646C57.268,187.198 57.041,188.804 58.213,188.748C59.384,188.692 59.698,186.399 59.591,185.357C59.485,184.314 58.807,183.3 58.499,183.051L58.437,183.359C58.437,183.359 58.669,183.527 58.678,183.936C58.686,184.345 57.986,185.13 56.646,185.315L56.652,185.309Z" style="fill:rgb(79,46,14);fill-rule:nonzero;stroke:black;stroke-width:0.14px;"/>
        </g>
        <path d="M60.603,188.952C59.973,190.353 59.37,194.714 59.916,195.922" style="fill:none;stroke:black;stroke-width:0.14px;"/>
        <g transform="matrix(1,0,0,1,0,-0.510574)">
            <path d="M50.274,195C50.274,195 49.327,195.577 49.411,196.485C49.495,197.393 50.195,197.597 51.221,197.844C52.247,198.091 62.004,198.382 63.775,198.461C65.546,198.539 71.622,198.096 72.622,197.676C73.623,197.256 74.584,195.454 72.58,194.383C71.796,195.252 71.179,195.412 69.904,195.577C68.629,195.742 62.66,195.782 60.191,195.7L51.14,195.496C50.523,195.454 50.276,195.003 50.276,195.003L50.274,195Z" style="fill:rgb(79,46,14);fill-rule:nonzero;stroke:black;stroke-width:0.14px;"/>
            <g>
                <path d="M45.913,120.43C45.625,120.758 44.268,122.327 44.924,123.639C45.58,124.95 49.324,130.717 49.324,130.717C49.324,130.717 57.596,126.519 57.35,124.544C57.103,122.568 55.388,120.223 55.388,120.223L45.913,120.43ZM66.258,150.319C66.533,150.045 67.135,148.7 65.518,148.207C64.229,148.038 63.296,148.646 63.024,148.949C62.752,149.252 63.602,150.869 64.123,150.925C64.644,150.981 66.264,150.322 66.264,150.322L66.258,150.319Z" style="fill:rgb(249,200,154);fill-rule:nonzero;stroke:black;stroke-width:0.14px;"/>
                <path d="M67.382,151.802C67.628,151.446 68.15,150.541 66.942,149.936C65.734,149.33 64.117,149.964 63.705,150.594C63.293,151.225 64.392,152.626 64.61,152.626C64.829,152.626 67.385,151.805 67.385,151.805L67.382,151.802Z" style="fill:rgb(249,200,154);fill-rule:nonzero;stroke:black;stroke-width:0.14px;"/>
                <path d="M64.678,145.163L63.156,147.839C63.156,147.839 64.005,148.952 64.333,150.35C64.661,151.749 64.114,152.247 64.58,152.161C65.045,152.074 67.763,151.337 68.287,151.667C68.811,151.998 69.52,153.34 69.027,154.246C68.534,155.151 67.107,157.02 65.104,157.51C63.1,158.001 60.687,157.098 59.785,155.837C58.882,154.576 57.453,150.518 57.397,149.801C57.341,149.084 58.302,146.92 58.302,146.92L62.035,145.247L64.678,145.163Z" style="fill:rgb(249,200,154);fill-rule:nonzero;stroke:black;stroke-width:0.14px;"/>
                <path d="M62.772,147.632C63.459,148.016 64.554,148.865 64.829,150.322C65.104,151.779 64.526,153.615 63.596,154.386" style="fill:rgb(249,200,154);fill-rule:nonzero;stroke:black;stroke-width:0.14px;"/>
                <path d="M67.458,154.108C67.458,154.108 66.799,155.041 65.263,154.82C63.728,154.599 63.834,152.679 64.577,152.158C65.319,151.637 66.496,151.225 67.295,151.362C68.094,151.499 68.472,151.855 68.472,151.855" style="fill:rgb(249,200,154);fill-rule:nonzero;stroke:black;stroke-width:0.14px;"/>
                <path d="M65.378,152.542L66.118,153.915C66.118,153.915 65.65,154.299 65.104,154.055C64.557,153.811 64.554,153.396 64.692,153.041C64.829,152.685 65.378,152.547 65.378,152.547L65.378,152.542Z" style="fill:rgb(249,200,154);fill-rule:nonzero;stroke:black;stroke-width:0.14px;"/>
            </g>
            <g>
                <path d="M59.754,122.859C59.754,122.859 62.8,124.465 63.29,126.441C64.776,126.934 66.513,129.109 66.373,130.7C67.965,131.359 68.671,132.281 68.671,133.323C69.548,134.091 70.862,136.061 69.271,138.914L66.743,143.74L60.382,143.19L59.832,141.265L62.794,135.778C62.794,135.778 61.477,133.637 59.942,133.584L59.174,137.591L59.342,146.643L58.518,147.136L58.35,149.165L60.382,153.391L61.093,154.049L59.227,156.958L59.667,157.779L62.189,163.981L62.133,164.749L63.618,166.668L63.562,167.492L64.383,169.524L62.792,173.144L61.802,175.12L62.736,177.973C62.736,177.973 60.157,180.332 55.876,180.276C51.594,180.22 48.66,178.023 48.66,178.023L47.836,177.53C47.836,177.53 48.769,172.15 48.55,169.134L47.67,160.52C47.67,159.477 47.396,156.513 47.396,156.513L46.956,166.004C46.9,169.188 46.463,173.52 45.913,174.4C45.364,175.28 44.764,175.549 44.764,175.549L45.367,176.591L45.535,177.852L44.876,178.673L43.671,178.343C43.671,178.343 41.312,181.089 37.03,180.593C32.748,180.097 30.117,177.959 29.842,176.202C28.853,175.487 28.743,174.997 28.743,174.997L31.546,171.76L29.954,170.827L31.271,168.467L32.37,165.393L33.028,162.759L31.655,162.815L33.905,159.307L33.737,156.891L37.851,148.167L37.683,146.738L37.131,145.97L36.682,142.924L36.971,141.279C36.971,141.279 38.395,139.55 38.557,138.124C38.72,136.697 37.873,135.271 37.873,135.271L28.261,141.593L26.883,141.705L22.931,143.462L21.995,143.078C21.995,143.078 21.665,142.529 21.555,141.649C21.446,140.769 21.555,136.821 21.883,136.269C22.211,135.717 22.982,135.719 22.982,135.719C22.982,135.719 24.243,135.501 25.232,134.842L33.793,128.531L40.435,122.935C40.435,122.935 42.192,121.534 43.181,121.237C44.17,120.94 44.826,120.962 44.826,120.962L44.882,125.681L49.321,130.72L54.149,127.825L57.988,124.258L59.754,122.859Z" style="fill:rgb(109,151,88);fill-rule:nonzero;stroke:black;stroke-width:0.14px;"/>
                <path d="M45.173,120.595L44.515,121.007L41.676,125.743L44.759,126.032L43.649,128.173L49.492,131.255L49.985,130.678L45.745,125.452C44.756,124.219 44.473,121.461 45.577,120.716C46.681,119.97 45.165,120.592 45.165,120.592" style="fill:rgb(109,151,88);fill-rule:nonzero;stroke:black;stroke-width:0.14px;"/>
                <path d="M47.808,131.891L56.635,130.42L55.598,126.657L59.373,127.139L59.704,122.775L55.794,120.265L55.43,120.223C55.43,120.223 56.377,121.456 56.422,122.98C56.467,124.504 55.063,125.653 53.911,126.643L47.822,131.889L47.808,131.891ZM54.926,139.606L53.936,134.915L59.779,132.953L60.396,136.081L54.926,139.606ZM47.625,131.992L47.844,144.776L46.855,148.397L46.799,151.906L46.631,155.364L47.399,156.513L49.483,156.019M53.547,149.765L53.328,147.898L50.092,147.624L50.31,149.159L53.547,149.765Z" style="fill:rgb(109,151,88);fill-rule:nonzero;stroke:black;stroke-width:0.14px;"/>
                <path d="M58.493,147.136L55.64,147.851L56.024,149.77L58.328,149.168M43.458,149.168L43.789,147.248L46.255,147.467L46.367,149.442L43.458,149.168ZM37.697,146.758L41.264,146.87L41.096,148.899L37.859,148.405M45.65,135.509L39.233,132.819L37.831,135.285L43.812,139.948L45.65,135.509ZM66.774,145.127C66.774,145.127 66.774,143.361 67.312,142.661C65.995,142.083 62.828,140.811 61.099,141.016C60.278,142.005 58.81,144.883 59.317,146.654C61.222,145.995 66.779,145.132 66.779,145.132L66.774,145.127ZM25.173,134.626L27.07,137.384L28.264,140.466C28.264,140.466 27.524,141.495 26.701,141.868L22.945,143.459L22.012,143.075C22.012,143.075 22.875,142.526 23.001,139.396C23.128,136.266 22.343,135.857 22.343,135.857L24.192,135.156L25.173,134.626ZM53.112,163.639C53.112,163.639 54.306,167.795 56.035,170.471C56.898,169.894 62.907,169.482 64.358,169.524" style="fill:rgb(109,151,88);fill-rule:nonzero;stroke:black;stroke-width:0.14px;"/>
            </g>
        </g>
        <path d="M29.957,170.841C31.055,171.13 35.702,171.788 35.702,171.788C35.702,171.788 38.212,172.405 39.569,171.83C40.269,170.266 42.371,163.022 42.371,163.022C42.371,163.022 40.353,160.674 38.543,160.304C36.733,159.934 33.891,158.945 33.891,158.945" style="fill:none;stroke:black;stroke-width:0.14px;"/>
        <path d="M33.031,162.779C34.02,162.655 38.916,162.779 41.718,164.796" style="fill:rgb(109,151,88);fill-rule:nonzero;stroke:black;stroke-width:0.14px;"/>
        <path d="M31.549,171.774L32.333,174.504" style="fill:none;stroke:black;stroke-width:0.14px;"/>
        <path d="M30.027,176.191C31.876,177.508 36.736,180.114 43.282,177.219" style="fill:rgb(109,151,88);fill-rule:nonzero;stroke:black;stroke-width:0.14px;"/>
        <path d="M48.873,178.124C51.137,179.029 56.733,179.273 59.656,177.631" style="fill:none;stroke:black;stroke-width:0.14px;"/>
        <g>
            <g>
                <path d="M58.504,177.183C61.427,178.13 65.664,178.292 66.154,177.267C66.645,176.241 61.777,175.126 61.777,175.126" style="fill:rgb(109,151,88);fill-rule:nonzero;stroke:black;stroke-width:0.14px;"/>
                <path d="M56.282,175.327C59.86,175.865 63.896,175.159 63.896,173.926C63.896,172.693 58.381,172.856 58.381,172.856M59.491,157.667C60.684,159.11 61.592,160.469 62.618,160.795C60.152,161.206 54.222,162.44 53.314,163.468C52.902,162.521 52.574,162.025 52.039,161.658C53.11,160.214 59.488,157.664 59.488,157.664L59.491,157.667Z" style="fill:rgb(109,151,88);fill-rule:nonzero;stroke:black;stroke-width:0.14px;"/>
            </g>
            <path d="M22.578,136.641C21.093,136.473 18.05,135.857 16.94,132.979C16.239,131.535 15.091,131.292 14.552,130.922C13.852,130.305 12.865,129.851 11.47,130.059C9.739,130.247 7.991,129.917 6.448,129.111C5.047,128.288 3.567,128.823 3.074,129.523C2.581,130.224 2.536,131.21 3.032,131.746L3.853,132.614C3.853,132.614 1.892,132.903 1.751,134.343C1.611,135.784 2.615,136.484 3.273,136.77C3.666,136.943 4.082,137.055 4.509,137.101C4.935,137.147 3.769,138.09 4.304,139.063C4.84,140.035 6.154,140.422 6.154,140.422C6.154,140.422 6.77,141.285 7.429,141.411C8.088,141.537 12.081,141.742 12.081,141.742C12.081,141.742 13.726,141.125 14.673,141.041C15.62,140.957 17.84,140.918 18.582,141.246C19.325,141.573 22.573,141.657 22.573,141.657C22.573,141.657 22.985,139.892 22.937,138.939C22.889,137.986 22.567,136.675 22.567,136.675L22.578,136.641Z" style="fill:rgb(249,200,154);fill-rule:nonzero;stroke:black;stroke-width:0.14px;"/>
            <path d="M16.626,180.444C14.376,180.663 2.418,180.276 0,178.853C0.168,187.083 2.466,194.378 3.923,195.975C5.38,197.572 10.013,198.937 14.788,198.937C19.563,198.937 22.489,197.502 21.233,195.591C17.613,189.939 16.57,180.447 16.57,180.447L16.626,180.444Z" style="fill:url(#_Linear1);fill-rule:nonzero;"/>
            <path d="M11.377,190.594L11.377,117.342L7.847,117.342L7.936,180.31C7.936,183.437 8.026,185.741 8.385,187.064C8.743,188.386 9.881,190.11 10.416,190.356C10.951,190.603 11.383,190.603 11.383,190.603L11.377,190.594Z" style="fill:url(#_Linear2);fill-rule:nonzero;stroke:black;stroke-width:0.28px;"/>
            <path d="M11.139,181.717L8.121,181.717C8.121,181.717 8.121,186.212 8.505,186.867L11.167,186.94L11.139,181.717Z" style="fill:url(#_Linear3);fill-rule:nonzero;"/>
            <g>
                <path d="M6.801,134.161C6.801,134.161 5.896,135.725 5.949,136.218C6.003,136.711 7.706,136.358 7.816,135.725C7.925,135.092 6.801,134.161 6.801,134.161ZM7.678,141.461C8.421,141.503 9.78,141.585 10.271,140.929C10.761,140.273 11.958,139.654 11.958,138.911C11.958,138.169 11.753,137.762 11.01,137.182C10.268,136.602 6.647,138.003 6.443,138.376C6.238,138.749 5.949,139.777 6.073,140.063C6.196,140.349 6.443,140.884 6.812,141.133C7.182,141.383 7.676,141.461 7.676,141.461L7.678,141.461Z" style="fill:rgb(249,200,154);fill-rule:nonzero;stroke:black;stroke-width:0.14px;"/>
                <path d="M9.817,138.415L10.806,139.116C10.806,139.116 11.795,138.331 10.89,137.757C9.985,137.182 9.741,138.045 9.741,138.045L9.817,138.415Z" style="fill:rgb(249,200,154);fill-rule:nonzero;stroke:black;stroke-width:0.14px;"/>
                <path d="M5.596,140.197C6.089,140.338 6.036,140.665 7.297,140.338C8.558,140.01 9.987,138.908 10.397,137.922C10.806,136.936 8.499,135.316 7.544,135.534C6.588,135.753 4.938,136.549 4.512,137.098C4.086,137.647 4.007,138.718 4.279,139.127C4.551,139.536 5.596,140.197 5.596,140.197ZM10.069,132.547C9.766,132.11 9.466,131.23 9.08,130.983C8.693,130.737 7.435,129.75 7.051,129.498C6.667,129.246 5.487,128.349 4.473,128.621C3.458,128.893 2.525,129.47 2.662,130.843C2.8,132.216 3.677,132.357 4.147,132.819C4.618,133.281 5.268,133.945 5.661,134.164C6.053,134.383 7.146,134.904 7.964,134.985C8.73,135.034 9.465,134.666 9.884,134.024C10.186,133.503 10.074,132.539 10.074,132.539L10.069,132.547Z" style="fill:rgb(249,200,154);fill-rule:nonzero;stroke:black;stroke-width:0.14px;"/>
                <path d="M8.449,131.718L7.048,134.021C7.048,134.021 8.575,134.587 9.133,133.747C9.901,132.598 8.446,131.718 8.446,131.718L8.449,131.718Z" style="fill:rgb(249,200,154);fill-rule:nonzero;stroke:black;stroke-width:0.14px;"/>
                <path d="M12.086,130.468C10.853,130.832 7.765,133.676 7.149,135.204C6.532,136.731 6.737,138.042 7.97,138.538C9.203,139.035 11.016,137.922 11.509,137.017C12.002,136.112 12.779,133.186 12.779,133.186M7.953,135.534L10.727,136.936C10.727,136.936 10.315,137.703 9.466,137.813C8.617,137.922 7.656,137.238 7.628,136.664C7.6,136.089 7.956,135.543 7.956,135.543L7.953,135.534ZM12.179,135.288C12.454,135.781 13.961,137.207 14.785,137.291M14.541,141.019C15.116,140.878 15.502,140.553 15.858,140.279" style="fill:rgb(249,200,154);fill-rule:nonzero;stroke:black;stroke-width:0.14px;"/>
            </g>
            <path d="M49.203,133.452C49.203,132.872 49.671,132.404 50.254,132.404C50.837,132.404 51.302,132.872 51.302,133.452C51.302,134.032 50.834,134.5 50.254,134.5C49.674,134.5 49.203,134.032 49.203,133.452Z" style="fill:url(#_Linear4);fill-rule:nonzero;stroke:black;stroke-width:0.14px;"/>
        </g>
        <path id="G" d="M49.425,133.449C49.425,132.993 49.789,132.626 50.248,132.626C50.708,132.626 51.072,132.99 51.072,133.449C51.072,133.909 50.708,134.273 50.248,134.273C49.789,134.273 49.425,133.909 49.425,133.449Z" style="fill:none;stroke:black;stroke-width:0.03px;"/>
        <path d="M48.873,139.351C48.873,138.771 49.341,138.303 49.921,138.303C50.501,138.303 50.969,138.771 50.969,139.351C50.969,139.931 50.501,140.399 49.921,140.399C49.341,140.399 48.873,139.931 48.873,139.351Z" style="fill:url(#_Linear5);fill-rule:nonzero;stroke:black;stroke-width:0.14px;"/>
        <path d="M48.545,145.309C48.545,144.729 49.013,144.258 49.596,144.258C50.178,144.258 50.646,144.726 50.646,145.309C50.646,145.892 50.178,146.357 49.596,146.357C49.013,146.357 48.545,145.889 48.545,145.309Z" style="fill:url(#_Linear6);fill-rule:nonzero;stroke:black;stroke-width:0.14px;"/>
        <g>
            <path d="M41.945,109.689L41.04,109.442C41.04,109.442 40.547,109.554 40.6,109.798C40.653,110.042 41.012,110.347 40.984,110.787C40.956,111.227 40.9,112.076 41.231,112.625C41.561,113.175 42.352,114.027 42.766,114.217C43.181,114.408 43.287,114.105 43.287,114.105L43.781,118.468C43.893,118.88 44.467,119.897 45.4,120.69C46.334,121.484 47.923,123.297 48.665,123.846C49.408,124.395 51.849,124.86 52.891,123.79L56.43,119.867C56.677,119.511 57.392,118.662 57.364,118.331L57.223,114.352C57.392,114.408 57.745,114.212 57.935,114.049C58.126,113.886 59.336,112.564 59.336,111.992C59.336,111.42 58.952,109.823 59.09,109.714C59.227,109.604 59.418,109.165 59.174,109.055C58.93,108.946 57.473,110.016 57.473,110.016C57.473,110.016 57.179,106.261 55.828,105.297C54.477,104.333 43.537,103.652 42.881,104.529C42.225,105.407 41.973,109.658 41.973,109.658L41.945,109.689Z" style="fill:rgb(249,200,154);fill-rule:nonzero;stroke:black;stroke-width:0.14px;"/>
            <path d="M43.108,111.653L41.707,109.571L41.539,106.558L41.539,105.981L45.501,104.692L44.352,106.418L43.478,109.137L43.433,110.398L43.798,111.059L43.798,112.897L43.926,114.242L43.607,113.542L43.108,111.653Z" style="fill-rule:nonzero;"/>
            <g>
                <path d="M58.3,108.004C61.138,109.854 57.436,109.321 54.39,108.293C51.344,107.265 45.255,105.491 43.854,105.454C42.452,105.418 53.112,104.591 54.76,105.124C56.408,105.656 58.3,108.004 58.3,108.004Z" style="fill:rgb(22,22,22);fill-rule:nonzero;stroke:black;stroke-width:0.14px;"/>
                <path d="M40.821,105.107C37.313,103.409 37.313,101.184 41.04,98.852C44.767,96.52 51.577,96.386 54.757,97.26C57.938,98.135 62.879,101.268 62.276,104.339C61.674,106.698 58.927,107.301 58.927,107.301L40.821,105.107Z" style="fill:url(#_Linear7);fill-rule:nonzero;stroke:black;stroke-width:0.14px;"/>
                <path d="M41.138,106.275L40.726,104.426C45.79,101.422 55.13,101.343 59.328,106.443C59.205,106.813 58.669,107.719 58.3,108.007C51.098,102.655 41.141,106.278 41.141,106.278L41.138,106.275Z" style="fill:rgb(3,70,139);fill-rule:nonzero;stroke:black;stroke-width:0.14px;"/>
            </g>
            <g>
                <path d="M50.932,101.786L48.587,103.804L50.478,104.05L50.394,104.544L47.02,104.255L49.486,102.033L47.799,101.949L47.841,101.411L50.932,101.786ZM53.547,102.218C54.472,102.756 54.78,103.619 54.452,104.359C54.124,105.098 52.93,105.16 52.415,104.997C51.899,104.835 50.733,104.05 51.266,102.817C51.636,102.097 52.625,101.685 53.55,102.22L53.547,102.218ZM51.865,103.148C51.524,103.905 52.258,104.387 52.572,104.487C52.885,104.588 53.62,104.549 53.821,104.095C54.023,103.641 53.835,103.114 53.267,102.778C52.698,102.442 52.09,102.702 51.865,103.142L51.865,103.148ZM56.671,103.145C57.523,103.599 57.932,104.49 57.798,105.342C57.663,106.194 56.699,106.418 56.248,106.309C55.312,106.022 54.734,105.066 54.914,104.104C55.082,103.274 55.819,102.691 56.669,103.151L56.671,103.145ZM55.466,104.378C55.326,105.219 56.01,105.667 56.287,105.732C56.565,105.796 57.156,105.659 57.24,105.138C57.324,104.616 57.072,104.073 56.551,103.792C56.03,103.512 55.578,103.871 55.472,104.353L55.466,104.378Z" style="fill:white;fill-rule:nonzero;"/>
                <path d="M56.562,108.565L56.926,110.484L56.416,111.886L56.512,113.421L56.512,114.214L56.966,113.556L57.153,111.252L58.014,109.689L58.087,108.783L56.562,108.565Z" style="fill-rule:nonzero;"/>
            </g>
        </g>
        <g>
            <path d="M55.859,110.868C55.584,110.7 54.898,110.047 54.57,110.047C54.242,110.047 53.337,110.322 52.925,110.35C52.304,110.474 51.703,110.686 51.142,110.98M48.318,111.036C48.043,111.036 47.219,110.762 47.057,110.681C46.894,110.599 46.067,110.625 46.067,110.625L45.437,110.213L44.585,111.008" style="fill:none;stroke:black;stroke-width:0.28px;"/>
            <path d="M48.808,111.832C49.004,111.944 49.439,112.547 49.413,112.875L48.973,116.442C49.029,116.526 50.044,116.689 50.178,116.582M50.918,116.254C51.114,116.226 51.358,116.17 51.549,116.423M48.203,112.331C47.738,111.342 45.843,111.342 45.129,112.359M51.742,112.415C51.961,111.21 54.732,110.958 55.335,112.169" style="fill:none;stroke:black;stroke-width:0.14px;"/>
        </g>
        <g>
            <path d="M45.874,112.309C45.874,111.936 46.252,111.636 46.723,111.636C47.194,111.636 47.575,111.936 47.575,112.309C47.575,112.681 47.197,112.981 46.723,112.981C46.25,112.981 45.874,112.681 45.874,112.309ZM52.538,112.037C52.538,111.65 52.936,111.336 53.429,111.336C53.922,111.336 54.32,111.617 54.32,112.037C54.32,112.457 53.922,112.737 53.429,112.737C52.936,112.737 52.538,112.457 52.538,112.037Z" style="fill-rule:nonzero;"/>
            <path d="M47.135,118.334C48.452,120.007 52.375,119.953 53.272,118.059L52.493,118.32C52.493,118.32 50.868,118.387 50.503,118.58C50.257,118.58 49.929,118.636 49.929,118.636C49.929,118.636 48.309,118.418 48.063,118.58C47.816,118.743 47.129,118.334 47.129,118.334L47.135,118.334Z" style="fill:rgb(216,216,216);fill-rule:nonzero;stroke:black;stroke-width:0.14px;"/>
        </g>
        <path d="M52.347,119.651C51.47,120.693 49.22,120.665 48.312,119.869" style="fill:none;stroke:black;stroke-width:0.14px;"/>
        <path d="M52.552,111.925L53.566,112.048L52.703,112.432C52.535,112.27 52.552,111.928 52.552,111.928L52.552,111.925ZM45.967,112.255L46.981,112.379L46.118,112.763C45.95,112.595 45.967,112.258 45.967,112.258L45.967,112.255Z" style="fill:rgb(252,252,252);fill-rule:nonzero;"/>
        <path d="M58.456,110.185C58.272,110.512 57.736,111.193 57.691,111.521C57.647,111.849 57.916,112.693 57.899,112.858M58.227,112.241C58.185,112.017 58.042,111.401 57.815,111.275M41.379,110.165C41.584,110.454 42.635,111.314 42.677,111.664C42.719,112.014 42.452,112.55 42.536,112.858C42.619,113.124 42.715,113.385 42.825,113.64M42.147,112.547C42.085,112.219 42.167,111.499 42.475,111.415" style="fill:none;stroke:black;stroke-width:0.14px;"/>
    </g>
    <defs>
        <linearGradient id="_Linear1" x1="0" y1="0" x2="1" y2="0" gradientUnits="userSpaceOnUse" gradientTransform="matrix(21.5244,0,0,21.5244,1.99117e-14,188.895)"><stop offset="0" style="stop-color:rgb(68,43,31);stop-opacity:1"/><stop offset="1" style="stop-color:rgb(68,43,31);stop-opacity:1"/></linearGradient>
        <linearGradient id="_Linear2" x1="0" y1="0" x2="1" y2="0" gradientUnits="userSpaceOnUse" gradientTransform="matrix(3.53618,0,0,3.53618,7.84615,153.972)"><stop offset="0" style="stop-color:rgb(200,176,145);stop-opacity:1"/><stop offset="0.2" style="stop-color:rgb(197,167,136);stop-opacity:1"/><stop offset="0.53" style="stop-color:rgb(188,142,110);stop-opacity:1"/><stop offset="0.95" style="stop-color:rgb(173,103,69);stop-opacity:1"/><stop offset="0.99" style="stop-color:rgb(171,98,64);stop-opacity:1"/><stop offset="1" style="stop-color:rgb(171,98,64);stop-opacity:1"/></linearGradient>
        <linearGradient id="_Linear3" x1="0" y1="0" x2="1" y2="0" gradientUnits="userSpaceOnUse" gradientTransform="matrix(3.04613,0,0,3.04613,8.12114,184.329)"><stop offset="0" style="stop-color:rgb(136,120,111);stop-opacity:1"/><stop offset="0.11" style="stop-color:rgb(128,111,102);stop-opacity:1"/><stop offset="0.28" style="stop-color:rgb(107,87,76);stop-opacity:1"/><stop offset="0.5" style="stop-color:rgb(73,48,35);stop-opacity:1"/><stop offset="0.62" style="stop-color:rgb(52,24,10);stop-opacity:1"/><stop offset="1" style="stop-color:rgb(62,35,22);stop-opacity:1"/></linearGradient>
        <linearGradient id="_Linear4" x1="0" y1="0" x2="1" y2="0" gradientUnits="userSpaceOnUse" gradientTransform="matrix(2.09894,0,0,2.09894,49.2032,133.452)"><stop offset="0" style="stop-color:rgb(248,251,155);stop-opacity:1"/><stop offset="0.13" style="stop-color:rgb(245,248,146);stop-opacity:1"/><stop offset="0.33" style="stop-color:rgb(239,239,120);stop-opacity:1"/><stop offset="0.6" style="stop-color:rgb(227,225,79);stop-opacity:1"/><stop offset="0.91" style="stop-color:rgb(212,206,22);stop-opacity:1"/><stop offset="1" style="stop-color:rgb(207,200,4);stop-opacity:1"/></linearGradient>
        <linearGradient id="_Linear5" x1="0" y1="0" x2="1" y2="0" gradientUnits="userSpaceOnUse" gradientTransform="matrix(2.09593,0,0,2.09593,48.8725,139.351)"><stop offset="0" style="stop-color:rgb(248,251,155);stop-opacity:1"/><stop offset="0.13" style="stop-color:rgb(245,248,146);stop-opacity:1"/><stop offset="0.33" style="stop-color:rgb(239,239,120);stop-opacity:1"/><stop offset="0.6" style="stop-color:rgb(227,225,79);stop-opacity:1"/><stop offset="0.91" style="stop-color:rgb(212,206,22);stop-opacity:1"/><stop offset="1" style="stop-color:rgb(207,200,4);stop-opacity:1"/></linearGradient>
        <linearGradient id="_Linear6" x1="0" y1="0" x2="1" y2="0" gradientUnits="userSpaceOnUse" gradientTransform="matrix(2.10174,0,0,2.10174,48.5447,145.308)"><stop offset="0" style="stop-color:rgb(248,251,155);stop-opacity:1"/><stop offset="0.13" style="stop-color:rgb(245,248,146);stop-opacity:1"/><stop offset="0.33" style="stop-color:rgb(239,239,120);stop-opacity:1"/><stop offset="0.6" style="stop-color:rgb(227,225,79);stop-opacity:1"/><stop offset="0.91" style="stop-color:rgb(212,206,22);stop-opacity:1"/><stop offset="1" style="stop-color:rgb(207,200,4);stop-opacity:1"/></linearGradient>
        <linearGradient id="_Linear7" x1="0" y1="0" x2="1" y2="0" gradientUnits="userSpaceOnUse" gradientTransform="matrix(6.45226e-16,-10.5373,10.5373,6.45226e-16,50.2716,107.301)"><stop offset="0" style="stop-color:rgb(29,39,57);stop-opacity:1"/><stop offset="0.37" style="stop-color:rgb(29,39,57);stop-opacity:1"/><stop offset="0.99" style="stop-color:rgb(29,39,57);stop-opacity:1"/><stop offset="1" style="stop-color:rgb(29,39,57);stop-opacity:1"/></linearGradient>
    </defs>
</svg>
